<svg id="Слой_1" data-name="Слой 1" xmlns="http://www.w3.org/2000/svg" viewBox="0 0 1180 350"><defs><style>.cls-1{fill:#fff;}</style></defs><title>disclaimer-rus-laptop</title><path class="cls-1" d="M10.5,21.12V71.51c0,19-.07,34.6-.29,50.58l.07.17c1.25-12.42,2.79-25.37,4.58-39.57l8-61.57H26v119.6H23V89.79c0-19.34,0-33.54.29-48.62L23.21,41C22,54.12,20.32,68,18.64,81.27l-7.73,59.45H7.5V21.12Z"/><path class="cls-1" d="M52.4,88.19C52.22,71.51,52,51.46,52,36.56h-.11c-.84,14-1.87,28.92-3.12,45.42l-4.35,58H42l-4-57c-1.18-16.86-2.17-32.3-2.86-46.49h-.07c-.08,14.9-.26,35-.48,52.88L34,140.72h-3l1.72-119.6h4.07L40.94,79c1,14.73,1.87,27.86,2.49,40.29h.11c.62-12.07,1.5-25.2,2.6-40.29l4.4-57.84H54.6l1.54,119.6H53Z"/><path class="cls-1" d="M73.83,84.64h-9.6v43.12h10.7v13H61V21.12H74.38v13H64.23v37.8h9.6Z"/><path class="cls-1" d="M82.25,21.12V72.75h3.66c.66-33.36,4.69-53.58,10.51-53.58,6.41,0,10.3,25,10.3,60.5,0,41.53-4.76,63-10.63,63s-10-22-10.25-57H82.25v55H79.06V21.12Zm21.21,59.27c0-23.78-2.31-48.8-7.18-48.8S89,55.72,89,81.63c0,25.19,2.6,48.62,7.21,48.62S103.46,107.53,103.46,80.39Z"/><path class="cls-1" d="M115.21,34.25H107.7V21.12H126V34.25h-7.55V140.72h-3.22Z"/><path class="cls-1" d="M144.69,136.81c-1.17,2.84-3.51,5.68-6.52,5.68C131.22,142.49,126,121.2,126,82c0-37.44,5.24-62.81,12.89-62.81,3.08,0,5,3.19,5.86,5.32L144,37.09c-1.21-2.84-2.93-5-5-5-5.79,0-9.63,17.92-9.63,49.33,0,29.28,3.48,48.09,9.48,48.09,1.95,0,3.92-2,5.21-5Z"/><path class="cls-1" d="M147,140.72c.37-3.2.7-6.93,1-10.83,1.06-13.66,1.72-30.34,3.73-40.1a18.31,18.31,0,0,1,2.06-6v-.53c-3-2.49-5.46-13.14-5.46-29.46,0-10.47.88-18.81,2.27-24.31,1.54-6,3.95-9.23,7.07-9.23a8.52,8.52,0,0,1,5.89,2.49v118h-3.18V88.9H158c-1.53,0-2.67,1.6-3.55,5.86-1.68,8.34-2.38,25.91-3.26,37.26-.26,3-.44,5.5-.8,8.7ZM160.37,33.54a4.41,4.41,0,0,0-3-1.42c-3.15,0-5.82,5.86-5.82,22.36,0,14.37,2.64,22.71,6.12,22.71a11.65,11.65,0,0,0,2.71-.18Z"/><path class="cls-1" d="M194.72,21.12v119.6h-3.18V34.07H180.07V140.72h-3.19V21.12Z"/><path class="cls-1" d="M200.29,22.54a9.59,9.59,0,0,1,6.11-2.31c3.15,0,5.46,3.55,6.93,9.94,1.35,5.67,2.16,14.37,2.16,25,0,10.82-.66,19.34-1.91,25.55-1.68,8.7-4.43,13.13-7.54,13.13a3,3,0,0,1-2.57-1.06v47.91h-3.18Zm3.18,57.67a3.16,3.16,0,0,0,2.64,1.24c3.85,0,6.19-9,6.19-25.55,0-15.8-2.31-23.43-5.82-23.43a3.75,3.75,0,0,0-3,1.25Z"/><path class="cls-1" d="M240.58,79.67c0,41.17-5.17,63-11.47,63-6.52,0-11.1-24.49-11.1-60.69,0-38,4.87-62.81,11.47-62.81S240.58,44.19,240.58,79.67Zm-19.16,2c0,25.55,2.86,48.44,7.87,48.44s7.92-22.54,7.92-49.68c0-23.78-2.57-48.63-7.88-48.63S221.42,55.37,221.42,81.63Z"/><path class="cls-1" d="M249.11,34.25H241.6V21.12h18.27V34.25h-7.54V140.72h-3.22Z"/><path class="cls-1" d="M265.62,21.12V71.51c0,19-.07,34.6-.29,50.58l.07.17c1.25-12.42,2.79-25.37,4.58-39.57l8-61.57h3.18v119.6h-3V89.79c0-19.34,0-33.54.29-48.62l-.11-.18c-1.21,13.13-2.89,27-4.58,40.28L266,140.72h-3.41V21.12Z"/><path class="cls-1" d="M286.72,22.72a8.47,8.47,0,0,1,5.82-2.49c3.19,0,5.24,2.66,6.78,8.7,1.28,4.61,2.05,11.71,2.05,21.11,0,11.54-1.58,21.65-4.18,26.26v.36c2.35,2.84,5.09,12.24,5.09,30a117.11,117.11,0,0,1-2.08,23.95c-1.72,7.63-4.51,11.18-8.54,11.18a8.87,8.87,0,0,1-4.94-1.42Zm3.18,49h2.9c3.37,0,5.35-8.52,5.35-20,0-14-2.2-19.52-5.43-19.52a3.71,3.71,0,0,0-2.82,1.06Zm0,57.31a4,4,0,0,0,2.68.72c3.3,0,6.34-5.86,6.34-23.25,0-16.33-2.9-23.07-6.38-23.07H289.9Z"/><path class="cls-1" d="M327.37,79.67c0,41.17-5.16,63-11.46,63-6.52,0-11.1-24.49-11.1-60.69,0-38,4.87-62.81,11.46-62.81C323,19.17,327.37,44.19,327.37,79.67Zm-19.15,2c0,25.55,2.85,48.44,7.87,48.44S324,107.53,324,80.39c0-23.78-2.56-48.63-7.87-48.63S308.22,55.37,308.22,81.63Z"/><path class="cls-1" d="M349.35,21.12v119.6h-3.19V34.07H334.7V140.72h-3.19V21.12Z"/><path class="cls-1" d="M376,79.67c0,41.17-5.17,63-11.47,63-6.52,0-11.09-24.49-11.09-60.69,0-38,4.87-62.81,11.46-62.81S376,44.19,376,79.67Zm-19.16,2c0,25.55,2.86,48.44,7.88,48.44s7.91-22.54,7.91-49.68c0-23.78-2.56-48.63-7.88-48.63S356.85,55.37,356.85,81.63Z"/><path class="cls-1" d="M383.29,21.12V74.17h1l8.46-53h3.85L387.25,76c4.07,2.66,5.64,14.73,6.92,30.87.92,12.25,1.61,23.25,2.71,33.9h-3.44c-.88-8.17-1.57-18.81-2.23-28.22-1.14-15.79-2.71-26.62-6.89-26.62h-1v54.84h-3.15V21.12Z"/><path class="cls-1" d="M404.17,103.1l-2.56,37.62h-3.3l8.39-119.6h3.84L419,140.72h-3.41l-2.64-37.62ZM412.26,91l-2.41-34.42c-.55-7.81-.92-14.91-1.28-21.83h-.08c-.36,7.1-.77,14.38-1.24,21.65L404.83,91Z"/><path class="cls-1" d="M422,28.21c1.69-5.32,3.85-9,6.52-9,4.29,0,7.26,10.82,7.26,29.27,0,14.73-2.2,25.91-5.09,29.11v.35c3.47,1.77,6,12.78,6,30,0,24.84-4.43,34.78-8.93,34.78-2.24,0-4.58-2.31-6.45-7.81l.84-12.07c1.32,3.73,3.52,7.28,5.53,7.28,3.66,0,5.68-9.58,5.68-22.72,0-17.91-3.55-23.06-6.7-23.06h-1.47V72.58h1.47c3.26,0,5.78-9.76,5.78-22,0-12.06-1.75-18.81-4.43-18.81-1.87,0-3.81,3.73-5.13,7.81Z"/><path class="cls-1" d="M445,103.1l-2.57,37.62h-3.29l8.39-119.6h3.84l8.43,119.6h-3.41l-2.64-37.62ZM453.06,91l-2.41-34.42c-.55-7.81-.92-14.91-1.29-21.83h-.07c-.37,7.1-.77,14.38-1.25,21.65L445.63,91Z"/><path class="cls-1" d="M466.58,21.12v50h11.94v-50h3.22v119.6h-3.22V84.64H466.58v56.08h-3.19V21.12Z"/><path class="cls-1" d="M490.27,21.12V71.51c0,19-.07,34.6-.29,50.58l.07.17c1.25-12.42,2.79-25.37,4.58-39.57l8-61.57h3.19v119.6h-3V89.79c0-19.34,0-33.54.29-48.62L503,41c-1.21,13.13-2.89,27-4.58,40.28l-7.73,59.45h-3.4V21.12Z"/><path class="cls-1" d="M509.13,140.72c.37-3.2.7-6.93,1-10.83,1.06-13.66,1.72-30.34,3.74-40.1a18.12,18.12,0,0,1,2-6v-.53c-3-2.49-5.46-13.14-5.46-29.46,0-10.47.88-18.81,2.27-24.31,1.54-6,4-9.23,7.07-9.23a8.54,8.54,0,0,1,5.9,2.49v118H522.5V88.9h-2.34c-1.54,0-2.68,1.6-3.56,5.86-1.68,8.34-2.38,25.91-3.26,37.26-.25,3-.44,5.5-.8,8.7ZM522.5,33.54a4.39,4.39,0,0,0-3-1.42c-3.15,0-5.83,5.86-5.83,22.36,0,14.37,2.64,22.71,6.12,22.71A11.65,11.65,0,0,0,522.5,77Z"/><path class="cls-1" d="M530.56,131.49c0-6.57.91-11.18,2.19-11.18s2.16,4.61,2.16,11.18c0,6.39-.84,11.18-2.19,11.18S530.56,137.88,530.56,131.49Z"/><path class="cls-1" d="M564.62,21.12v119.6h-3.19V34.07H550V140.72h-3.19V21.12Z"/><path class="cls-1" d="M583,84.64h-9.6v43.12h10.69v13H570.18V21.12h13.33v13H573.37v37.8H583Z"/><path class="cls-1" d="M588.2,22.54a9.61,9.61,0,0,1,6.12-2.31c3.15,0,5.45,3.55,6.92,9.94,1.36,5.67,2.16,14.37,2.16,25,0,10.82-.66,19.34-1.9,25.55-1.69,8.7-4.44,13.13-7.55,13.13a3,3,0,0,1-2.56-1.06v47.91H588.2Zm3.19,57.67A3.13,3.13,0,0,0,594,81.45c3.85,0,6.19-9,6.19-25.55,0-15.8-2.3-23.43-5.82-23.43a3.74,3.74,0,0,0-3,1.25Z"/><path class="cls-1" d="M620.47,84.64h-9.6v43.12h10.7v13H607.68V21.12H621v13H610.87v37.8h9.6Z"/><path class="cls-1" d="M643.32,21.12v107l2.16.35-.22,41h-2.49l-.22-28.74H627l-.22,28.74h-2.49l-.22-41,1.87-.35c.92-8.17,1.83-16.86,2.42-26.26.84-13.84,1.17-29.82,1.17-50.4V21.12ZM632.48,56.43c0,19.16-.37,35.31-1.25,48.8-.51,8.34-1.28,16.32-2,22.71h10.91v-94h-7.65Z"/><path class="cls-1" d="M675.11,21.12v119.6h-3.19V34.07H660.46V140.72h-3.19V21.12Z"/><path class="cls-1" d="M680.67,22.54a9.64,9.64,0,0,1,6.12-2.31c3.15,0,5.46,3.55,6.92,9.94,1.36,5.67,2.16,14.37,2.16,25,0,10.82-.66,19.34-1.9,25.55-1.69,8.7-4.43,13.13-7.55,13.13a3,3,0,0,1-2.56-1.06v47.91h-3.19Zm3.19,57.67a3.15,3.15,0,0,0,2.64,1.24c3.84,0,6.19-9,6.19-25.55,0-15.8-2.31-23.43-5.83-23.43a3.74,3.74,0,0,0-3,1.25Z"/><path class="cls-1" d="M703.16,21.12V71.51c0,19-.07,34.6-.29,50.58l.07.17c1.25-12.42,2.78-25.37,4.58-39.57l8-61.57h3.19v119.6h-3V89.79c0-19.34,0-33.54.29-48.62l-.11-.18c-1.21,13.13-2.89,27-4.58,40.28l-7.73,59.45h-3.4V21.12Z"/><path class="cls-1" d="M745.06,88.19c-.18-16.68-.4-36.73-.37-51.63h-.11c-.84,14-1.86,28.92-3.11,45.42l-4.36,58h-2.42l-4-57c-1.17-16.86-2.16-32.3-2.85-46.49h-.08c-.07,14.9-.25,35-.47,52.88l-.66,51.28h-3l1.72-119.6h4.06L733.6,79c1,14.73,1.86,27.86,2.49,40.29h.11c.62-12.07,1.5-25.2,2.6-40.29l4.39-57.84h4.07l1.54,119.6h-3.12Z"/><path class="cls-1" d="M766.48,84.64h-9.59v43.12h10.69v13H753.7V21.12H767v13H756.89v37.8h9.59Z"/><path class="cls-1" d="M774.91,21.12v50h11.94v-50h3.22v119.6h-3.22V84.64H774.91v56.08h-3.19V21.12Z"/><path class="cls-1" d="M808.38,84.64h-9.6v43.12h10.7v13H795.6V21.12h13.33v13H798.78v37.8h9.6Z"/><path class="cls-1" d="M816.8,21.12v50h11.94v-50H832v119.6h-3.23V84.64H816.8v56.08h-3.18V21.12Z"/><path class="cls-1" d="M840.5,21.12V71.51c0,19-.08,34.6-.29,50.58l.07.17c1.24-12.42,2.78-25.37,4.58-39.57l8-61.57H856v119.6h-3V89.79c0-19.34,0-33.54.29-48.62l-.11-.18c-1.21,13.13-2.9,27-4.58,40.28l-7.73,59.45h-3.41V21.12Z"/><path class="cls-1" d="M874.38,84.64h-9.6v43.12h10.7v13H861.59V21.12h13.34v13H864.78v37.8h9.6Z"/><path class="cls-1" d="M900.42,88.19c-.19-16.68-.41-36.73-.37-51.63h-.11c-.84,14-1.87,28.92-3.11,45.42l-4.36,58h-2.42l-4-57c-1.17-16.86-2.16-32.3-2.86-46.49h-.07c-.08,14.9-.26,35-.48,52.88L882,140.72h-3l1.72-119.6h4.07L889,79c1,14.73,1.87,27.86,2.49,40.29h.11c.62-12.07,1.5-25.2,2.6-40.29l4.4-57.84h4.06l1.54,119.6H901Z"/><path class="cls-1" d="M937.92,79.67c0,41.17-5.17,63-11.47,63-6.52,0-11.09-24.49-11.09-60.69,0-38,4.87-62.81,11.46-62.81S937.92,44.19,937.92,79.67Zm-19.16,2c0,25.55,2.86,48.44,7.88,48.44s7.91-22.54,7.91-49.68c0-23.78-2.57-48.63-7.88-48.63S918.76,55.37,918.76,81.63Z"/><path class="cls-1" d="M940.59,28.21c1.68-5.32,3.84-9,6.52-9,4.28,0,7.25,10.82,7.25,29.27,0,14.73-2.2,25.91-5.09,29.11v.35c3.48,1.77,6,12.78,6,30,0,24.84-4.44,34.78-8.94,34.78-2.24,0-4.58-2.31-6.45-7.81l.84-12.07c1.32,3.73,3.52,7.28,5.54,7.28,3.66,0,5.67-9.58,5.67-22.72,0-17.91-3.55-23.06-6.7-23.06h-1.47V72.58h1.47c3.26,0,5.79-9.76,5.79-22,0-12.06-1.76-18.81-4.43-18.81-1.87,0-3.81,3.73-5.13,7.81Z"/><path class="cls-1" d="M962.75,21.12v50h11.94v-50h3.22v119.6h-3.22V84.64H962.75v56.08h-3.19V21.12Z"/><path class="cls-1" d="M987.43,103.1l-2.56,37.62h-3.3L990,21.12h3.84l8.43,119.6h-3.41l-2.64-37.62ZM995.52,91l-2.41-34.42c-.55-7.81-.92-14.91-1.28-21.83h-.08c-.36,7.1-.77,14.38-1.24,21.65L988.09,91Z"/><path class="cls-1" d="M1009,21.12V74.17h1l8.46-53h3.85L1013,76c4.06,2.66,5.64,14.73,6.92,30.87.92,12.25,1.61,23.25,2.71,33.9h-3.44c-.88-8.17-1.58-18.81-2.24-28.22-1.13-15.79-2.71-26.62-6.88-26.62h-1v54.84h-3.15V21.12Z"/><path class="cls-1" d="M1046.1,79.67c0,41.17-5.16,63-11.46,63-6.52,0-11.1-24.49-11.1-60.69,0-38,4.87-62.81,11.47-62.81S1046.1,44.19,1046.1,79.67Zm-19.15,2c0,25.55,2.85,48.44,7.87,48.44s7.91-22.54,7.91-49.68c0-23.78-2.56-48.63-7.87-48.63S1027,55.37,1027,81.63Z"/><path class="cls-1" d="M1070.93,88.19c-.18-16.68-.4-36.73-.36-51.63h-.11c-.84,14-1.87,28.92-3.11,45.42L1063,140h-2.42l-4-57c-1.18-16.86-2.17-32.3-2.86-46.49h-.07c-.08,14.9-.26,35-.48,52.88l-.66,51.28h-3l1.72-119.6h4.07L1059.47,79c1,14.73,1.87,27.86,2.49,40.29h.11c.62-12.07,1.5-25.2,2.6-40.29l4.4-57.84h4.06l1.54,119.6h-3.11Z"/><path class="cls-1" d="M1082.76,21.12V65.83a6.29,6.29,0,0,1,3-.88c5.06,0,9.52,10.82,9.52,37.26,0,11.18-.73,19.34-1.9,25.55-2,10.29-5.46,14-8.86,14a9,9,0,0,1-5-1.42V21.12Zm0,107.71a3.42,3.42,0,0,0,2.64.89c3.55,0,6.59-8.35,6.59-26.62,0-18.81-3.11-25.91-6.63-25.91a5.13,5.13,0,0,0-2.6.89Z"/><path class="cls-1" d="M1101.59,34.25h-7.51V21.12h18.27V34.25h-7.54V140.72h-3.22Z"/><path class="cls-1" d="M1127.88,84.64h-9.59v43.12H1129v13H1115.1V21.12h13.33v13h-10.14v37.8h9.59Z"/><path class="cls-1" d="M1150.37,136.81c-1.17,2.84-3.52,5.68-6.52,5.68-7,0-12.2-21.29-12.2-60.51,0-37.44,5.24-62.81,12.9-62.81,3.07,0,5,3.19,5.86,5.32l-.77,12.6c-1.21-2.84-2.93-5-5-5-5.79,0-9.64,17.92-9.64,49.33,0,29.28,3.48,48.09,9.49,48.09,1.94,0,3.92-2,5.2-5Z"/><path class="cls-1" d="M1157.55,21.12V65.83a6.26,6.26,0,0,1,3-.88c5.05,0,9.52,10.82,9.52,37.26,0,11.18-.73,19.34-1.91,25.55-2,10.29-5.45,14-8.86,14a8.94,8.94,0,0,1-5-1.42V21.12Zm0,107.71a3.39,3.39,0,0,0,2.63.89c3.56,0,6.6-8.35,6.6-26.62,0-18.81-3.12-25.91-6.63-25.91a5.07,5.07,0,0,0-2.6.89Z"/><path class="cls-1" d="M66,317.35c-1.17,2.84-3.52,5.68-6.52,5.68-7,0-12.2-21.3-12.2-60.51,0-37.44,5.24-62.82,12.9-62.82,3.07,0,5,3.2,5.86,5.32l-.77,12.6c-1.21-2.84-2.93-5-5-5-5.78,0-9.63,17.92-9.63,49.33,0,29.28,3.48,48.08,9.49,48.08,1.94,0,3.92-1.95,5.2-5Z"/><path class="cls-1" d="M80.77,201.65v50.4c0,19-.08,34.6-.3,50.57l.08.18c1.24-12.42,2.78-25.38,4.57-39.57l8-61.58H96.3v119.6h-3V270.32c0-19.34,0-33.53.3-48.61l-.11-.18c-1.21,13.13-2.9,27-4.58,40.28l-7.73,59.44H77.76V201.65Z"/><path class="cls-1" d="M105.05,201.65v50H117v-50h3.22v119.6H117V265.18H105.05v56.07h-3.19V201.65Z"/><path class="cls-1" d="M143,317.35c-1.17,2.84-3.52,5.68-6.52,5.68-7,0-12.2-21.3-12.2-60.51,0-37.44,5.24-62.82,12.9-62.82,3.07,0,5,3.2,5.86,5.32l-.77,12.6c-1.21-2.84-2.93-5-5-5-5.79,0-9.64,17.92-9.64,49.33,0,29.28,3.48,48.08,9.49,48.08,1.94,0,3.92-1.95,5.2-5Z"/><path class="cls-1" d="M153,214.78h-7.51V201.65h18.28v13.13h-7.55V321.25H153Z"/><path class="cls-1" d="M166.46,203.07a9.63,9.63,0,0,1,6.12-2.3c3.15,0,5.46,3.55,6.92,9.93,1.36,5.68,2.16,14.38,2.16,25,0,10.83-.66,19.34-1.9,25.56-1.69,8.69-4.43,13.13-7.55,13.13a3,3,0,0,1-2.56-1.07v47.91h-3.19Zm3.19,57.67a3.13,3.13,0,0,0,2.64,1.25c3.84,0,6.19-9.05,6.19-25.56,0-15.79-2.31-23.42-5.83-23.42a3.73,3.73,0,0,0-3,1.24Z"/><path class="cls-1" d="M186.42,201.65l4.91,50.93c.62,7.1,1.21,14,1.8,21.12h.07c.44-6.21.92-13.13,1.54-21.65l3.84-50.4H202l-5.16,61.4c-1.36,16-2.89,34.25-4.62,45.43-1.61,9.76-3.4,14.72-5.6,14.72a1.91,1.91,0,0,1-1.79-1.06l.32-12.6a1.33,1.33,0,0,0,1.18.53c2.56-.17,4.06-12.06,4.83-20.58a31.8,31.8,0,0,0-.11-7.28l-8.2-80.56Z"/><path class="cls-1" d="M207.74,201.65v53.06h1l8.46-53.06H221l-9.34,54.83c4.07,2.67,5.65,14.73,6.93,30.88.91,12.24,1.61,23.24,2.71,33.89h-3.45c-.87-8.16-1.57-18.81-2.23-28.21-1.14-15.79-2.71-26.62-6.89-26.62h-1v54.83h-3.15V201.65Z"/><path class="cls-1" d="M227.62,201.65V308.3h11.32V201.65h3.23v107l2.16.36-.22,41h-2.53l-.22-28.75H224.44V201.65Z"/><path class="cls-1" d="M251.32,201.65v50.4c0,19-.07,34.6-.29,50.57l.07.18c1.25-12.42,2.78-25.38,4.58-39.57l8-61.58h3.19v119.6h-3V270.32c0-19.34,0-33.53.29-48.61l-.11-.18c-1.21,13.13-2.89,27-4.58,40.28l-7.73,59.44h-3.4V201.65Z"/><path class="cls-1" d="M285.2,265.18h-9.6V308.3h10.7v12.95H272.41V201.65h13.34v13H275.6v37.8h9.6Z"/><path class="cls-1" d="M293.44,201.65v50.4c0,19-.08,34.6-.3,50.57l.08.18c1.24-12.42,2.78-25.38,4.58-39.57l8-61.58H309v119.6h-3V270.32c0-19.34,0-33.53.3-48.61l-.11-.18c-1.21,13.13-2.9,27-4.58,40.28l-7.73,59.44h-3.41V201.65Zm4-25c.14,5.5.51,11,2.23,11s2.09-5.15,2.23-11h2.46c-.18,11.72-1.65,19-4.76,19s-4.44-7.27-4.62-19Z"/><path class="cls-1" d="M325.3,201.65v50.4c0,19-.07,34.6-.29,50.57l.07.18c1.24-12.42,2.78-25.38,4.58-39.57l8-61.58h3.19v119.6h-3V270.32c0-19.34,0-33.53.29-48.61l-.11-.18c-1.21,13.13-2.89,27-4.58,40.28l-7.73,59.44h-3.4V201.65Z"/><path class="cls-1" d="M362.73,201.65v119.6h-3.22V214.61h-8.17v36.2c0,25.9-.22,54.83-3.7,66.18-.92,2.84-2.35,5.68-3.77,5.68l-.41-12.42c1-.89,2-3.72,2.6-6.39,2-9.4,2.16-32.65,2.16-51.81v-50.4Z"/><path class="cls-1" d="M371.26,201.65v50.4c0,19-.07,34.6-.29,50.57l.07.18c1.25-12.42,2.78-25.38,4.58-39.57l8-61.58h3.19v119.6h-3V270.32c0-19.34,0-33.53.29-48.61l-.11-.18c-1.21,13.13-2.89,27-4.58,40.28l-7.73,59.44h-3.4V201.65Z"/><path class="cls-1" d="M418,201.65v119.6h-3.19V214.61H403.31V321.25h-3.19V201.65Z"/><path class="cls-1" d="M423.52,203.07a9.61,9.61,0,0,1,6.12-2.3c3.15,0,5.46,3.55,6.92,9.93,1.36,5.68,2.16,14.38,2.16,25,0,10.83-.66,19.34-1.9,25.56-1.69,8.69-4.43,13.13-7.55,13.13a3,3,0,0,1-2.56-1.07v47.91h-3.19Zm3.19,57.67a3.12,3.12,0,0,0,2.64,1.25c3.84,0,6.19-9.05,6.19-25.56,0-15.79-2.31-23.42-5.83-23.42a3.73,3.73,0,0,0-3,1.24Z"/><path class="cls-1" d="M463.81,260.21c0,41.17-5.16,63-11.46,63-6.52,0-11.1-24.48-11.1-60.68,0-38,4.87-62.82,11.46-62.82C459.45,199.7,463.81,224.72,463.81,260.21Zm-19.16,2c0,25.56,2.86,48.44,7.88,48.44s7.91-22.53,7.91-49.68c0-23.78-2.56-48.62-7.87-48.62S444.65,235.9,444.65,262.16Z"/><path class="cls-1" d="M471.1,201.65v53.06h1l8.46-53.06h3.84l-9.34,54.83c4.07,2.67,5.64,14.73,6.92,30.88.92,12.24,1.62,23.24,2.72,33.89h-3.45c-.88-8.16-1.57-18.81-2.23-28.21-1.14-15.79-2.71-26.62-6.89-26.62h-1v54.83H468V201.65Z"/><path class="cls-1" d="M508.2,260.21c0,41.17-5.17,63-11.47,63-6.52,0-11.09-24.48-11.09-60.68,0-38,4.87-62.82,11.46-62.82S508.2,224.72,508.2,260.21Zm-19.16,2c0,25.56,2.86,48.44,7.88,48.44s7.91-22.53,7.91-49.68c0-23.78-2.57-48.62-7.88-48.62S489,235.9,489,262.16Z"/><path class="cls-1" d="M515.52,201.65v50h11.94v-50h3.22v119.6h-3.22V265.18H515.52v56.07h-3.19V201.65Z"/><path class="cls-1" d="M553.46,317.35c-1.17,2.84-3.51,5.68-6.52,5.68-7,0-12.19-21.3-12.19-60.51,0-37.44,5.24-62.82,12.89-62.82,3.08,0,5,3.2,5.86,5.32l-.77,12.6c-1.21-2.84-2.93-5-5-5-5.79,0-9.63,17.92-9.63,49.33,0,29.28,3.48,48.08,9.48,48.08,1.95,0,3.92-1.95,5.21-5Z"/><path class="cls-1" d="M559,201.65l4.91,50.93c.62,7.1,1.21,14,1.79,21.12h.08c.43-6.21.91-13.13,1.53-21.65l3.85-50.4h3.37l-5.17,61.4c-1.35,16-2.89,34.25-4.61,45.43-1.61,9.76-3.41,14.72-5.6,14.72a1.93,1.93,0,0,1-1.8-1.06l.33-12.6a1.31,1.31,0,0,0,1.17.53c2.57-.17,4.07-12.06,4.84-20.58a33,33,0,0,0-.11-7.28l-8.21-80.56Z"/><path class="cls-1" d="M592.83,201.65v119.6h-3.22V214.61h-8.17v36.2c0,25.9-.22,54.83-3.7,66.18-.91,2.84-2.34,5.68-3.77,5.68l-.4-12.42c1-.89,2-3.72,2.6-6.39,2-9.4,2.16-32.65,2.16-51.81v-50.4Z"/><path class="cls-1" d="M601.55,201.65v44.72a6.3,6.3,0,0,1,3-.89c5,0,9.52,10.83,9.52,37.27,0,11.18-.73,19.34-1.9,25.55-2,10.29-5.46,14-8.87,14a8.94,8.94,0,0,1-5-1.42V201.65Zm0,107.71a3.42,3.42,0,0,0,2.64.89c3.55,0,6.59-8.34,6.59-26.61,0-18.81-3.11-25.91-6.63-25.91a5,5,0,0,0-2.6.89Z"/><path class="cls-1" d="M620.37,214.78h-7.5V201.65h18.27v13.13H623.6V321.25h-3.23Z"/><path class="cls-1" d="M636.89,201.65v50.4c0,19-.07,34.6-.29,50.57l.07.18c1.25-12.42,2.79-25.38,4.58-39.57l8-61.58h3.18v119.6h-3V270.32c0-19.34,0-33.53.29-48.61l-.11-.18c-1.21,13.13-2.89,27-4.58,40.28l-7.73,59.44h-3.4V201.65Z"/><path class="cls-1" d="M658,203.07a9.58,9.58,0,0,1,6.11-2.3c3.15,0,5.46,3.55,6.93,9.93,1.35,5.68,2.16,14.38,2.16,25,0,10.83-.66,19.34-1.91,25.56-1.68,8.69-4.43,13.13-7.54,13.13a3,3,0,0,1-2.57-1.07v47.91H658Zm3.18,57.67a3.15,3.15,0,0,0,2.64,1.25c3.85,0,6.19-9.05,6.19-25.56,0-15.79-2.31-23.42-5.82-23.42a3.74,3.74,0,0,0-3,1.24Z"/><path class="cls-1" d="M678,201.65l4.9,50.93c.63,7.1,1.21,14,1.8,21.12h.07c.44-6.21.92-13.13,1.54-21.65l3.85-50.4h3.37l-5.17,61.4c-1.35,16-2.89,34.25-4.61,45.43-1.61,9.76-3.41,14.72-5.61,14.72a1.92,1.92,0,0,1-1.79-1.06l.33-12.6a1.3,1.3,0,0,0,1.17.53c2.56-.17,4.07-12.06,4.84-20.58a33,33,0,0,0-.11-7.28l-8.21-80.56Z"/><path class="cls-1" d="M699.12,201.65v50.4c0,19-.08,34.6-.3,50.57l.08.18c1.24-12.42,2.78-25.38,4.57-39.57l8-61.58h3.19v119.6h-3V270.32c0-19.34,0-33.53.3-48.61l-.11-.18c-1.21,13.13-2.9,27-4.58,40.28l-7.73,59.44h-3.41V201.65Zm4-25c.15,5.5.52,11,2.24,11s2.09-5.15,2.23-11h2.46c-.19,11.72-1.65,19-4.76,19s-4.44-7.27-4.62-19Z"/><path class="cls-1" d="M724.9,214.78h-7.51V201.65h18.28v13.13h-7.55V321.25H724.9Z"/><path class="cls-1" d="M751.2,265.18h-9.6V308.3h10.69v12.95H738.41V201.65h13.34v13H741.6v37.8h9.6Z"/><path class="cls-1" d="M773.68,317.35c-1.17,2.84-3.51,5.68-6.52,5.68-7,0-12.19-21.3-12.19-60.51,0-37.44,5.23-62.82,12.89-62.82,3.08,0,5,3.2,5.86,5.32l-.77,12.6c-1.21-2.84-2.93-5-5-5-5.79,0-9.63,17.92-9.63,49.33,0,29.28,3.48,48.08,9.48,48.08,1.94,0,3.92-1.95,5.2-5Z"/><path class="cls-1" d="M780.86,201.65v44.72a6.3,6.3,0,0,1,3-.89c5.05,0,9.52,10.83,9.52,37.27,0,11.18-.73,19.34-1.9,25.55-2,10.29-5.46,14-8.87,14a8.94,8.94,0,0,1-5-1.42V201.65Zm0,107.71a3.42,3.42,0,0,0,2.64.89c3.55,0,6.59-8.34,6.59-26.61,0-18.81-3.11-25.91-6.63-25.91a5,5,0,0,0-2.6.89Z"/><path class="cls-1" d="M822.65,317.35c-1.17,2.84-3.52,5.68-6.52,5.68-7,0-12.2-21.3-12.2-60.51,0-37.44,5.24-62.82,12.89-62.82,3.08,0,5,3.2,5.86,5.32l-.76,12.6c-1.21-2.84-2.94-5-5-5-5.78,0-9.63,17.92-9.63,49.33,0,29.28,3.48,48.08,9.49,48.08,1.94,0,3.92-1.95,5.2-5Z"/><path class="cls-1" d="M847,260.21c0,41.17-5.16,63-11.46,63-6.52,0-11.1-24.48-11.1-60.68,0-38,4.87-62.82,11.46-62.82S847,224.72,847,260.21Zm-19.15,2c0,25.56,2.85,48.44,7.87,48.44s7.91-22.53,7.91-49.68c0-23.78-2.56-48.62-7.87-48.62S827.85,235.9,827.85,262.16Z"/><path class="cls-1" d="M876.15,317.35c-1.17,2.84-3.51,5.68-6.52,5.68-7,0-12.19-21.3-12.19-60.51,0-37.44,5.23-62.82,12.89-62.82,3.08,0,5,3.2,5.86,5.32l-.77,12.6c-1.21-2.84-2.93-5-5-5-5.79,0-9.63,17.92-9.63,49.33,0,29.28,3.48,48.08,9.48,48.08,1.94,0,3.92-1.95,5.2-5Z"/><path class="cls-1" d="M898,201.65v119.6h-3.19V214.61H883.33V321.25h-3.19V201.65Z"/><path class="cls-1" d="M916.33,265.18h-9.6V308.3h10.7v12.95H903.55V201.65h13.33v13H906.73v37.8h9.6Z"/><path class="cls-1" d="M924.75,201.65V308.3h11.32V201.65h3.22v107l2.16.36-.22,41h-2.52l-.22-28.75H921.56V201.65Z"/><path class="cls-1" d="M948.45,201.65v50.4c0,19-.08,34.6-.3,50.57l.08.18c1.24-12.42,2.78-25.38,4.58-39.57l8-61.58H964v119.6h-3V270.32c0-19.34,0-33.53.3-48.61l-.11-.18c-1.21,13.13-2.9,27-4.58,40.28l-7.73,59.44h-3.41V201.65Z"/><path class="cls-1" d="M973.53,283.64,971,321.25h-3.3l8.39-119.6h3.85l8.42,119.6h-3.4l-2.64-37.61Zm8.1-12.07-2.42-34.43c-.55-7.8-.91-14.9-1.28-21.82h-.07c-.37,7.09-.77,14.37-1.25,21.65l-2.42,34.6Z"/><path class="cls-1" d="M1009.43,201.65v119.6h-3.23V214.61H998v36.2c0,25.9-.21,54.83-3.69,66.18-.92,2.84-2.35,5.68-3.78,5.68l-.4-12.42c1-.89,2-3.72,2.6-6.39,2-9.4,2.16-32.65,2.16-51.81v-50.4Z"/><path class="cls-1" d="M1018,201.65v50.4c0,19-.08,34.6-.3,50.57l.08.18c1.24-12.42,2.78-25.38,4.58-39.57l8-61.58h3.19v119.6h-3V270.32c0-19.34,0-33.53.3-48.61l-.11-.18c-1.21,13.13-2.9,27-4.58,40.28l-7.73,59.44H1015V201.65Z"/><path class="cls-1" d="M1056.3,317.35c-1.17,2.84-3.51,5.68-6.52,5.68-7,0-12.19-21.3-12.19-60.51,0-37.44,5.24-62.82,12.89-62.82,3.08,0,5,3.2,5.86,5.32l-.77,12.6c-1.21-2.84-2.93-5-5-5-5.79,0-9.63,17.92-9.63,49.33,0,29.28,3.48,48.08,9.48,48.08,2,0,3.92-1.95,5.2-5Z"/><path class="cls-1" d="M1066.26,214.78h-7.5V201.65H1077v13.13h-7.54V321.25h-3.23Z"/><path class="cls-1" d="M1099.59,260.21c0,41.17-5.16,63-11.46,63-6.52,0-11.1-24.48-11.1-60.68,0-38,4.87-62.82,11.47-62.82S1099.59,224.72,1099.59,260.21Zm-19.15,2c0,25.56,2.85,48.44,7.87,48.44s7.91-22.53,7.91-49.68c0-23.78-2.56-48.62-7.87-48.62S1080.44,235.9,1080.44,262.16Z"/><path class="cls-1" d="M1124.42,268.73c-.18-16.68-.4-36.73-.36-51.64H1124c-.84,14-1.87,28.93-3.11,45.43l-4.36,58h-2.42l-4-57c-1.17-16.85-2.16-32.29-2.86-46.49h-.07c-.08,14.91-.26,35-.48,52.88l-.66,51.28h-3l1.72-119.6h4.07L1113,259.5c1,14.73,1.87,27.86,2.49,40.28h.11c.62-12.06,1.5-25.2,2.6-40.28l4.4-57.85h4.06l1.54,119.6h-3.11Z"/></svg>