<svg id="Слой_1" data-name="Слой 1" xmlns="http://www.w3.org/2000/svg" viewBox="0 0 1920 120">
    <defs>
        <style>.cls-1,.cls-2{fill:currentColor;}.cls-1{fill-opacity:0.1;}</style>
    </defs>
    <title>disclaimer_new_uz</title>
    <path class="cls-1" d="M0,20A20,20,0,0,1,20,0H1900a20,20,0,0,1,20,20V120H0Z" />
    <path class="cls-2"
          d="M82.32,54.27c-5.28-1.39-10.44-3-15-4.52A7.52,7.52,0,0,0,65,49.17C55.7,48.82,47.76,42,47.76,29.39S55.41,8.8,66,8.8,83.48,17,83.48,28.58c0,10-4.64,16.47-11.13,18.73v.23c3.88,1,8.12,1.92,11.42,2.5ZM78.15,28.81c0-7.83-4.06-15.89-12.36-15.89-8.52,0-12.7,7.88-12.64,16.35-.06,8.3,4.52,15.78,12.41,15.78C73.62,45.05,78.15,37.74,78.15,28.81Z"/>
    <path class="cls-2"
          d="M95.55,36.23l-4.06,12.3H86.27L99.55,9.44h6.09L119,48.53h-5.4l-4.17-12.3Zm12.82-3.94L104.54,21c-.87-2.56-1.45-4.88-2-7.14h-.12c-.58,2.32-1.22,4.7-2,7.08L96.59,32.29Z"/>
    <path class="cls-2"
          d="M124.72,10a52.78,52.78,0,0,1,9.69-.81c5.39,0,8.87,1,11.31,3.19a9.73,9.73,0,0,1,3.07,7.42,10.28,10.28,0,0,1-7.36,10v.17c3,1,4.81,3.83,5.74,7.89,1.27,5.45,2.2,9.22,3,10.73H145c-.63-1.1-1.5-4.47-2.61-9.34-1.16-5.39-3.24-7.42-7.83-7.6h-4.75V48.53h-5.05Zm5.05,17.8h5.16c5.39,0,8.82-3,8.82-7.42,0-5.05-3.66-7.25-9-7.31a20.23,20.23,0,0,0-5,.47Z"/>
    <path class="cls-2"
          d="M155.23,42.38a17.9,17.9,0,0,0,9.05,2.55c5.16,0,8.18-2.72,8.18-6.67,0-3.65-2.09-5.74-7.37-7.77-6.38-2.26-10.32-5.57-10.32-11.08,0-6.09,5-10.61,12.64-10.61a17.84,17.84,0,0,1,8.64,1.91l-1.39,4.12A15.54,15.54,0,0,0,167.24,13c-5.34,0-7.37,3.19-7.37,5.86,0,3.66,2.38,5.45,7.77,7.54,6.61,2.55,10,5.74,10,11.49,0,6-4.47,11.25-13.69,11.25-3.77,0-7.89-1.11-10-2.5Z"/>
    <path class="cls-2" d="M189.56,9.44V25.79h18.91V9.44h5.11V48.53h-5.11V30.2H189.56V48.53h-5V9.44Z"/>
    <path class="cls-2" d="M227.38,9.44V48.53h-5V9.44Z"/>
    <path class="cls-2"
          d="M248.49,9.44h5V28.29h.17c1-1.51,2.09-2.9,3.08-4.18L268.73,9.44H275L260.85,26,276.1,48.53h-6l-12.88-19.2-3.71,4.29V48.53h-5Z"/>
    <path class="cls-2"
          d="M312.35,28.58c0,13.45-8.18,20.59-18.15,20.59-10.33,0-17.58-8-17.58-19.84,0-12.41,7.72-20.53,18.16-20.53C305.45,8.8,312.35,17,312.35,28.58ZM282,29.21c0,8.36,4.52,15.84,12.47,15.84S307,37.68,307,28.81C307,21,303,12.92,294.54,12.92S282,20.63,282,29.21Z"/>
    <path class="cls-2" d="M322.5,8.8l-1,13.92h-3.13L317.45,8.8Z"/>
    <path class="cls-2"
          d="M329.81,10a52.66,52.66,0,0,1,9.68-.81c5.4,0,8.88,1,11.31,3.19a9.73,9.73,0,0,1,3.08,7.42,10.28,10.28,0,0,1-7.37,10v.17c3,1,4.81,3.83,5.74,7.89,1.28,5.45,2.21,9.22,3,10.73h-5.22c-.64-1.1-1.51-4.47-2.61-9.34-1.16-5.39-3.25-7.42-7.83-7.6h-4.76V48.53h-5Zm5,17.8H340c5.4,0,8.82-3,8.82-7.42,0-5.05-3.65-7.25-9-7.31a20.23,20.23,0,0,0-5,.47Z"/>
    <path class="cls-2"
          d="M360.31,42.38a17.93,17.93,0,0,0,9.05,2.55c5.16,0,8.18-2.72,8.18-6.67,0-3.65-2.09-5.74-7.37-7.77-6.38-2.26-10.32-5.57-10.32-11.08,0-6.09,5-10.61,12.64-10.61a17.85,17.85,0,0,1,8.65,1.91l-1.4,4.12A15.47,15.47,0,0,0,372.32,13C367,13,365,16.16,365,18.83c0,3.66,2.38,5.45,7.78,7.54,6.61,2.55,10,5.74,10,11.49,0,6-4.46,11.25-13.69,11.25-3.77,0-7.88-1.11-10-2.5Z"/>
    <path class="cls-2"
          d="M395.93,36.23l-4.06,12.3h-5.22L399.93,9.44H406l13.34,39.09H414l-4.17-12.3Zm12.81-3.94L404.92,21c-.87-2.56-1.45-4.88-2-7.14h-.12c-.58,2.32-1.22,4.7-2,7.08L397,32.29Z"/>
    <path class="cls-2" d="M428.06,13.73H416.17V9.44h28.94v4.29H433.16v34.8h-5.1Z"/>
    <path class="cls-2"
          d="M482.4,31.36c-.29-5.45-.63-12-.58-16.88h-.17c-1.33,4.58-3,9.46-4.93,14.85l-6.9,19H466l-6.32-18.61c-1.86-5.51-3.42-10.56-4.53-15.2H455c-.12,4.87-.41,11.43-.76,17.29l-1,16.76h-4.81l2.72-39.09h6.44l6.67,18.9c1.62,4.82,3,9.11,3.94,13.17h.18c1-3.94,2.38-8.24,4.12-13.17l7-18.9h6.43l2.44,39.09h-4.93Z"/>
    <path class="cls-2"
          d="M501.83,36.23l-4.06,12.3h-5.22L505.84,9.44h6.09l13.34,39.09h-5.4l-4.17-12.3Zm12.82-3.94L510.82,21c-.87-2.56-1.45-4.88-2-7.14h-.11c-.58,2.32-1.22,4.7-2,7.08l-3.83,11.31Z"/>
    <path class="cls-2" d="M531,9.44h5V44.29h16.71v4.24H531Z"/>
    <path class="cls-2"
          d="M564.71,36.23l-4.06,12.3h-5.22L568.71,9.44h6.09l13.34,39.09h-5.4l-4.17-12.3Zm12.81-3.94L573.69,21c-.87-2.56-1.45-4.88-2-7.14h-.11c-.58,2.32-1.22,4.7-2,7.08l-3.83,11.31Z"/>
    <path class="cls-2"
          d="M593.88,10a52.66,52.66,0,0,1,9.68-.81c5.4,0,8.88,1,11.31,3.19A9.7,9.7,0,0,1,618,19.76a10.28,10.28,0,0,1-7.37,10v.17c3,1,4.82,3.83,5.74,7.89,1.28,5.45,2.21,9.22,3,10.73h-5.22c-.64-1.1-1.51-4.47-2.61-9.34-1.16-5.39-3.25-7.42-7.83-7.6h-4.76V48.53h-5Zm5,17.8h5.17c5.39,0,8.81-3,8.81-7.42,0-5.05-3.65-7.25-9-7.31a20.36,20.36,0,0,0-5,.47Z"/>
    <path class="cls-2"
          d="M670.32,31.36c-.29-5.45-.64-12-.58-16.88h-.17c-1.34,4.58-3,9.46-4.93,14.85l-6.9,19h-3.83l-6.32-18.61c-1.86-5.51-3.43-10.56-4.53-15.2H643c-.12,4.87-.41,11.43-.76,17.29l-1,16.76h-4.82l2.73-39.09h6.44l6.67,18.9c1.62,4.82,3,9.11,3.94,13.17h.18c1-3.94,2.37-8.24,4.11-13.17l7-18.9h6.44l2.44,39.09h-4.93Z"/>
    <path class="cls-2"
          d="M689.75,36.23l-4.06,12.3h-5.22L693.75,9.44h6.09l13.34,39.09h-5.39l-4.18-12.3Zm12.82-3.94L698.74,21c-.87-2.56-1.45-4.88-2-7.14h-.11c-.58,2.32-1.22,4.7-2,7.08L690.8,32.29Z"/>
    <path class="cls-2"
          d="M724.44,48.53,711.68,9.44h5.45l6.09,19.25c1.68,5.28,3.13,10,4.17,14.62h.12c1.1-4.53,2.73-9.46,4.47-14.56l6.61-19.31H744L730,48.53Z"/>
    <path class="cls-2"
          d="M754.89,9.44h5V35.59c0,10.39-5.1,13.58-11.83,13.58a16.32,16.32,0,0,1-5.39-.93l.75-4.12a11.92,11.92,0,0,0,4.23.75c4.53,0,7.2-2,7.2-9.68Z"/>
    <path class="cls-2"
          d="M773.39,9.44V32.58c0,8.76,3.88,12.47,9.1,12.47,5.8,0,9.51-3.83,9.51-12.47V9.44h5.11V32.23c0,12-6.32,16.94-14.79,16.94-8,0-14-4.59-14-16.71v-23Z"/>
    <path class="cls-2"
          d="M805.87,10a71.37,71.37,0,0,1,10.73-.81c7.25,0,12.41,1.68,15.83,4.87s5.51,7.71,5.51,14-2,11.6-5.63,15.2-9.68,5.63-17.28,5.63a81.14,81.14,0,0,1-9.16-.47Zm5,34.57a32.15,32.15,0,0,0,5.11.29c10.78,0,16.64-6,16.64-16.59.06-9.22-5.16-15.08-15.83-15.08a28.79,28.79,0,0,0-5.92.52Z"/>
    <path class="cls-2" d="M841.13,45.51a3.43,3.43,0,0,1,3.48-3.65A3.38,3.38,0,0,1,848,45.51a3.46,3.46,0,1,1-6.9,0Z"/>
    <path class="cls-2"
          d="M899.07,54.27c-5.28-1.39-10.44-3-15-4.52a7.58,7.58,0,0,0-2.38-.58c-9.28-.35-17.23-7.2-17.23-19.78S872.16,8.8,882.71,8.8,900.23,17,900.23,28.58c0,10-4.64,16.47-11.14,18.73v.23c3.89,1,8.12,1.92,11.43,2.5Zm-4.18-25.46c0-7.83-4.06-15.89-12.35-15.89-8.53,0-12.7,7.88-12.64,16.35-.06,8.3,4.52,15.78,12.41,15.78C890.37,45.05,894.89,37.74,894.89,28.81Z"/>
    <path class="cls-2"
          d="M940.19,28.58C940.19,42,932,49.17,922,49.17c-10.33,0-17.58-8-17.58-19.84,0-12.41,7.72-20.53,18.16-20.53C933.29,8.8,940.19,17,940.19,28.58Zm-30.33.63c0,8.36,4.52,15.84,12.47,15.84s12.53-7.37,12.53-16.24c0-7.77-4.06-15.89-12.47-15.89S909.86,20.63,909.86,29.21Z"/>
    <path class="cls-2" d="M950.34,8.8l-1,13.92h-3.14L945.3,8.8Z"/>
    <path class="cls-2" d="M957.65,9.44h5.05V44.29h16.7v4.24H957.65Z"/>
    <path class="cls-2" d="M985,9.44h5V44.29h16.7v4.24H985Z"/>
    <path class="cls-2"
          d="M1018.72,36.23l-4.06,12.3h-5.22l13.28-39.09h6.09l13.34,39.09h-5.39l-4.18-12.3Zm12.82-3.94L1027.71,21c-.87-2.56-1.45-4.88-2-7.14h-.11c-.58,2.32-1.22,4.7-2,7.08l-3.82,11.31Z"/>
    <path class="cls-2"
          d="M1047.2,42.38a17.9,17.9,0,0,0,9,2.55c5.16,0,8.18-2.72,8.18-6.67,0-3.65-2.09-5.74-7.37-7.77-6.38-2.26-10.32-5.57-10.32-11.08,0-6.09,5-10.61,12.64-10.61a17.84,17.84,0,0,1,8.64,1.91l-1.39,4.12a15.54,15.54,0,0,0-7.42-1.86c-5.34,0-7.37,3.19-7.37,5.86,0,3.66,2.38,5.45,7.77,7.54,6.61,2.55,10,5.74,10,11.49,0,6-4.47,11.25-13.69,11.25-3.77,0-7.89-1.11-10-2.5Z"/>
    <path class="cls-2" d="M1081.54,9.44V25.79h18.9V9.44h5.11V48.53h-5.11V30.2h-18.9V48.53h-5V9.44Z"/>
    <path class="cls-2"
          d="M1114.31,10A71.37,71.37,0,0,1,1125,9.15c7.25,0,12.41,1.68,15.83,4.87s5.51,7.71,5.51,14-2,11.6-5.63,15.2-9.68,5.63-17.28,5.63a81.14,81.14,0,0,1-9.16-.47Zm5,34.57a32.15,32.15,0,0,0,5.11.29c10.78,0,16.64-6,16.64-16.59.06-9.22-5.16-15.08-15.83-15.08a28.79,28.79,0,0,0-5.92.52Z"/>
    <path class="cls-2"
          d="M1158.44,36.23l-4.06,12.3h-5.22l13.28-39.09h6.09l13.34,39.09h-5.39l-4.18-12.3Zm12.82-3.94L1167.43,21c-.87-2.56-1.45-4.88-2-7.14h-.11c-.58,2.32-1.22,4.7-2,7.08l-3.82,11.31Z"/>
    <path class="cls-2"
          d="M1187.62,48.53V9.44h5.51l12.52,19.77a109.84,109.84,0,0,1,7,12.71l.12-.06c-.47-5.22-.58-10-.58-16.07V9.44H1217V48.53h-5.1l-12.41-19.84a122.45,122.45,0,0,1-7.31-13l-.17.06c.29,4.93.4,9.63.4,16.12V48.53Z"/>
    <path class="cls-2"
          d="M1244.4,36.23l-4.06,12.3h-5.22L1248.4,9.44h6.09l13.34,39.09h-5.39l-4.18-12.3Zm12.82-3.94L1253.39,21c-.87-2.56-1.45-4.88-2-7.14h-.12c-.58,2.32-1.22,4.7-2,7.08l-3.83,11.31Z"/>
    <path class="cls-2"
          d="M1279.08,48.53,1266.32,9.44h5.45l6.09,19.25c1.69,5.28,3.14,10,4.18,14.62h.12c1.1-4.53,2.72-9.46,4.46-14.56l6.61-19.31h5.4l-14,39.09Z"/>
    <path class="cls-2"
          d="M1312.37,48.53,1299.61,9.44h5.46l6.09,19.25c1.68,5.28,3.13,10,4.17,14.62h.12c1.1-4.53,2.72-9.46,4.46-14.56l6.62-19.31h5.39l-14,39.09Z"/>
    <path class="cls-2"
          d="M1339.17,36.23l-4.06,12.3h-5.22l13.28-39.09h6.09l13.34,39.09h-5.39L1353,36.23ZM1352,32.29,1348.16,21c-.87-2.56-1.45-4.88-2-7.14H1346c-.58,2.32-1.21,4.7-2,7.08l-3.83,11.31Z"/>
    <path class="cls-2" d="M1368.35,9.44h5V44.29h16.7v4.24h-21.74Z"/>
    <path class="cls-2"
          d="M1414.05,48.53V31.94l-12.36-22.5h5.75L1413,20.22c1.5,3,2.66,5.34,3.88,8.07h.12c1.1-2.56,2.43-5.11,3.94-8.07l5.63-10.78h5.74l-13.11,22.44V48.53Z"/>
    <path class="cls-2"
          d="M1468,28.58c0,13.45-8.17,20.59-18.15,20.59-10.32,0-17.57-8-17.57-19.84,0-12.41,7.71-20.53,18.15-20.53C1461.14,8.8,1468,17,1468,28.58Zm-30.33.63c0,8.36,4.53,15.84,12.47,15.84s12.53-7.37,12.53-16.24c0-7.77-4.06-15.89-12.47-15.89S1437.71,20.63,1437.71,29.21Z"/>
    <path class="cls-2" d="M1478.2,8.8l-1,13.92h-3.13l-.93-13.92Z"/>
    <path class="cls-2"
          d="M1485.5,10a52.78,52.78,0,0,1,9.69-.81c5.39,0,8.87,1,11.31,3.19a9.73,9.73,0,0,1,3.07,7.42,10.28,10.28,0,0,1-7.36,10v.17c3,1,4.81,3.83,5.74,7.89,1.27,5.45,2.2,9.22,3,10.73h-5.22c-.63-1.1-1.5-4.47-2.61-9.34-1.16-5.39-3.24-7.42-7.83-7.6h-4.75V48.53h-5Zm5,17.8h5.16c5.39,0,8.82-3,8.82-7.42,0-5.05-3.66-7.25-9-7.31a20.23,20.23,0,0,0-5,.47Z"/>
    <path class="cls-2" d="M1521.75,9.44V48.53h-5V9.44Z"/>
    <path class="cls-2"
          d="M1562.82,54.27c-5.28-1.39-10.44-3-15-4.52a7.45,7.45,0,0,0-2.38-.58c-9.27-.35-17.22-7.2-17.22-19.78s7.66-20.59,18.21-20.59S1564,17,1564,28.58c0,10-4.64,16.47-11.14,18.73v.23c3.89,1,8.12,1.92,11.43,2.5Zm-4.18-25.46c0-7.83-4.06-15.89-12.35-15.89-8.53,0-12.71,7.88-12.65,16.35-.06,8.3,4.53,15.78,12.41,15.78C1554.12,45.05,1558.64,37.74,1558.64,28.81Z"/>
    <path class="cls-2"
          d="M1570.53,48.53V9.44H1576l12.53,19.77a111.37,111.37,0,0,1,7,12.71l.11-.06c-.46-5.22-.58-10-.58-16.07V9.44h4.76V48.53h-5.11l-12.41-19.84a126.05,126.05,0,0,1-7.31-13l-.17.06c.29,4.93.41,9.63.41,16.12V48.53Z"/>
    <path class="cls-2"
          d="M1642.1,28.58c0,13.45-8.18,20.59-18.15,20.59-10.33,0-17.58-8-17.58-19.84,0-12.41,7.72-20.53,18.16-20.53C1635.2,8.8,1642.1,17,1642.1,28.58Zm-30.33.63c0,8.36,4.52,15.84,12.47,15.84s12.53-7.37,12.53-16.24c0-7.77-4.06-15.89-12.47-15.89S1611.77,20.63,1611.77,29.21Z"/>
    <path class="cls-2"
          d="M1681.6,31.36c-.29-5.45-.64-12-.58-16.88h-.18c-1.33,4.58-2.95,9.46-4.92,14.85l-6.91,19h-3.82l-6.33-18.61c-1.85-5.51-3.42-10.56-4.52-15.2h-.12c-.11,4.87-.4,11.43-.75,17.29l-1,16.76h-4.82l2.73-39.09h6.44l6.67,18.9c1.62,4.82,3,9.11,3.94,13.17h.17c1-3.94,2.38-8.24,4.12-13.17l7-18.9h6.44l2.43,39.09h-4.93Z"/>
    <path class="cls-2"
          d="M1701,36.23,1697,48.53h-5.22L1705,9.44h6.09l13.34,39.09h-5.39l-4.18-12.3Zm12.82-3.94L1710,21c-.87-2.56-1.45-4.88-2-7.14h-.12c-.58,2.32-1.21,4.7-2,7.08l-3.83,11.31Z"/>
    <path class="cls-2"
          d="M1742.5,10a48.35,48.35,0,0,1,9.22-.81c5,0,8.3.87,10.73,2.84a8.2,8.2,0,0,1,3.25,6.9c0,3.77-2.49,7.08-6.61,8.58v.12c3.71.93,8.06,4,8.06,9.8a10.49,10.49,0,0,1-3.31,7.83c-2.72,2.5-7.13,3.66-13.51,3.66a59.08,59.08,0,0,1-7.83-.47Zm5,16h4.58c5.33,0,8.47-2.79,8.47-6.56,0-4.58-3.48-6.38-8.59-6.38a21.81,21.81,0,0,0-4.46.35Zm0,18.73a27.39,27.39,0,0,0,4.23.23c5.22,0,10-1.91,10-7.6,0-5.33-4.58-7.54-10.09-7.54h-4.17Z"/>
    <path class="cls-2" d="M1779,9.44V48.53h-5V9.44Z"/>
    <path class="cls-2" d="M1787.8,9.44h5V44.29h16.71v4.24H1787.8Z"/>
    <path class="cls-2"
          d="M1821.49,36.23l-4.06,12.3h-5.22L1825.5,9.44h6.09l13.34,39.09h-5.4l-4.17-12.3Zm12.82-3.94L1830.48,21c-.87-2.56-1.45-4.88-2-7.14h-.11c-.58,2.32-1.22,4.7-2,7.08l-3.83,11.31Z"/>
    <path class="cls-2"
          d="M1850.67,48.53V9.44h5.51l12.53,19.77a109.67,109.67,0,0,1,7,12.71l.12-.06c-.46-5.22-.58-10-.58-16.07V9.44H1880V48.53h-5.11L1862.5,28.69a122.45,122.45,0,0,1-7.31-13l-.17.06c.29,4.93.4,9.63.4,16.12V48.53Z"/>
    <path class="cls-2" d="M289,71.73H277.08V67.44H306v4.29H294.08v34.8H289Z"/>
    <path class="cls-2"
          d="M312.35,94.23l-4.06,12.3h-5.22l13.28-39.09h6.09l13.34,39.09h-5.4l-4.17-12.3Zm12.82-3.94L321.34,79c-.87-2.56-1.45-4.88-2-7.14h-.12c-.58,2.32-1.22,4.7-2,7.08l-3.83,11.31Z"/>
    <path class="cls-2"
          d="M341.52,106.53V67.44H347l12.53,19.77a111.37,111.37,0,0,1,7,12.71l.11-.06c-.46-5.22-.58-10-.58-16.07V67.44h4.76v39.09h-5.1L353.35,86.69a124.09,124.09,0,0,1-7.3-13l-.18.06c.29,4.93.41,9.63.41,16.12v16.71Z"/>
    <path class="cls-2" d="M384.73,67.44v39.09h-5V67.44Z"/>
    <path class="cls-2"
          d="M392.85,100.38a17.9,17.9,0,0,0,9,2.55c5.16,0,8.18-2.72,8.18-6.67,0-3.65-2.09-5.74-7.37-7.77-6.38-2.26-10.32-5.57-10.32-11.08,0-6.09,5-10.61,12.64-10.61a17.84,17.84,0,0,1,8.64,1.91l-1.39,4.12A15.54,15.54,0,0,0,404.86,71c-5.34,0-7.37,3.19-7.37,5.86,0,3.66,2.38,5.45,7.77,7.54,6.61,2.55,10,5.74,10,11.49,0,6-4.47,11.25-13.69,11.25-3.77,0-7.89-1.11-10-2.5Z"/>
    <path class="cls-2" d="M427.19,67.44V83.79h18.9V67.44h5.11v39.09h-5.11V88.2h-18.9v18.33h-5.05V67.44Z"/>
    <path class="cls-2" d="M465,67.44v39.09h-5V67.44Z"/>
    <path class="cls-2"
          d="M473.82,106.53V67.44h5.51l12.53,19.77a109.67,109.67,0,0,1,7,12.71l.12-.06c-.46-5.22-.58-10-.58-16.07V67.44h4.76v39.09h-5.11L485.65,86.69a122.45,122.45,0,0,1-7.31-13l-.17.06c.29,4.93.4,9.63.4,16.12v16.71Z"/>
    <path class="cls-2"
          d="M541.73,104.79a36.44,36.44,0,0,1-12,2.14c-5.92,0-10.79-1.5-14.62-5.16-3.36-3.25-5.45-8.47-5.45-14.56C509.72,75.56,517.72,67,530.83,67a24.28,24.28,0,0,1,9.75,1.8L539.36,73a20.23,20.23,0,0,0-8.64-1.69C521.2,71.26,515,77.18,515,87s6,15.78,15.08,15.78a16.46,16.46,0,0,0,6.73-1.05V90.06h-7.95V86h12.87Z"/>
    <path class="cls-2"
          d="M567.78,106.53V89.94l-12.36-22.5h5.75l5.51,10.78c1.5,3,2.66,5.34,3.88,8.07h.12c1.1-2.56,2.43-5.11,3.94-8.07l5.63-10.78H586L572.88,89.88v16.65Z"/>
    <path class="cls-2"
          d="M621.77,86.58c0,13.45-8.17,20.59-18.15,20.59-10.32,0-17.57-8-17.57-19.84,0-12.41,7.71-20.53,18.15-20.53C614.87,66.8,621.77,75,621.77,86.58Zm-30.33.63c0,8.36,4.52,15.84,12.47,15.84s12.53-7.37,12.53-16.24c0-7.77-4.06-15.89-12.47-15.89S591.44,78.63,591.44,87.21Z"/>
    <path class="cls-2"
          d="M628.33,67.44h5V86.29h.18c1-1.51,2.09-2.9,3.07-4.18l12-14.67h6.26L640.68,84l15.26,22.51h-6l-12.87-19.2-3.72,4.29v14.91h-5Z"/>
    <path class="cls-2" d="M664.81,67.44v39.09h-5V67.44Z"/>
    <path class="cls-2"
          d="M718.86,89.36c-.29-5.45-.63-12-.58-16.88h-.17c-1.33,4.58-3,9.46-4.93,14.85l-6.9,19h-3.83l-6.32-18.61c-1.86-5.51-3.42-10.56-4.53-15.2h-.11c-.12,4.87-.41,11.43-.76,17.29l-1,16.76h-4.81l2.72-39.09H694l6.67,18.9c1.62,4.82,3,9.11,3.94,13.17h.18c1-3.94,2.38-8.24,4.12-13.17l7-18.9h6.43l2.44,39.09h-4.93Z"/>
    <path class="cls-2"
          d="M737.6,67.44V90.58c0,8.76,3.88,12.47,9.1,12.47,5.8,0,9.52-3.83,9.52-12.47V67.44h5.1V90.23c0,12-6.32,16.94-14.79,16.94-8,0-14-4.59-14-16.71v-23Z"/>
    <path class="cls-2" d="M777.5,71.73H765.61V67.44h28.94v4.29H782.61v34.8H777.5Z"/>
    <path class="cls-2"
          d="M800.88,94.23l-4.06,12.3H791.6l13.28-39.09H811l13.34,39.09h-5.4l-4.17-12.3Zm12.81-3.94L809.87,79c-.87-2.56-1.45-4.88-2-7.14h-.12c-.58,2.32-1.22,4.7-2,7.08l-3.83,11.31Z"/>
    <path class="cls-2"
          d="M850.64,106.53l-5-8.64c-2-3.31-3.3-5.46-4.52-7.72H841c-1.1,2.26-2.2,4.35-4.23,7.77l-4.7,8.59h-5.8l12-19.78L826.74,67.44h5.86l5.16,9.16c1.45,2.55,2.56,4.52,3.6,6.61h.17c1.11-2.32,2.09-4.12,3.54-6.61l5.34-9.16h5.8l-11.89,19,12.18,20.07Z"/>
    <path class="cls-2"
          d="M868.16,94.23l-4.06,12.3h-5.22l13.28-39.09h6.09l13.34,39.09h-5.4L882,94.23ZM881,90.29,877.15,79c-.87-2.56-1.45-4.88-2-7.14H875c-.58,2.32-1.22,4.7-2,7.08L869.2,90.29Z"/>
    <path class="cls-2"
          d="M896.64,100.38a17.86,17.86,0,0,0,9,2.55c5.16,0,8.18-2.72,8.18-6.67,0-3.65-2.09-5.74-7.36-7.77-6.38-2.26-10.33-5.57-10.33-11.08,0-6.09,5.05-10.61,12.64-10.61a17.85,17.85,0,0,1,8.65,1.91l-1.4,4.12A15.47,15.47,0,0,0,908.64,71c-5.33,0-7.36,3.19-7.36,5.86,0,3.66,2.37,5.45,7.77,7.54,6.61,2.55,10,5.74,10,11.49,0,6-4.46,11.25-13.69,11.25-3.77,0-7.88-1.11-10-2.5Z"/>
    <path class="cls-2"
          d="M925.23,100.38a17.9,17.9,0,0,0,9,2.55c5.16,0,8.17-2.72,8.17-6.67,0-3.65-2.08-5.74-7.36-7.77-6.38-2.26-10.32-5.57-10.32-11.08,0-6.09,5-10.61,12.64-10.61a17.84,17.84,0,0,1,8.64,1.91l-1.39,4.12A15.55,15.55,0,0,0,937.23,71c-5.33,0-7.36,3.19-7.36,5.86,0,3.66,2.38,5.45,7.77,7.54,6.61,2.55,10,5.74,10,11.49,0,6-4.47,11.25-13.69,11.25-3.77,0-7.89-1.11-10-2.5Z"/>
    <path class="cls-2" d="M959.56,67.44v39.09h-5V67.44Z"/>
    <path class="cls-2"
          d="M967.68,100.38a17.93,17.93,0,0,0,9.05,2.55c5.16,0,8.18-2.72,8.18-6.67,0-3.65-2.09-5.74-7.37-7.77-6.38-2.26-10.32-5.57-10.32-11.08,0-6.09,5-10.61,12.64-10.61a17.85,17.85,0,0,1,8.65,1.91l-1.4,4.12A15.47,15.47,0,0,0,979.69,71c-5.34,0-7.37,3.19-7.37,5.86,0,3.66,2.38,5.45,7.78,7.54,6.61,2.55,10,5.74,10,11.49,0,6-4.46,11.25-13.69,11.25-3.77,0-7.88-1.11-10-2.5Z"/>
    <path class="cls-2"
          d="M1009.27,68a48.35,48.35,0,0,1,9.22-.81c5,0,8.3.87,10.73,2.84a8.2,8.2,0,0,1,3.25,6.9c0,3.77-2.49,7.08-6.61,8.58v.12c3.71.93,8.06,4,8.06,9.8a10.49,10.49,0,0,1-3.31,7.83c-2.72,2.5-7.13,3.66-13.51,3.66a59.08,59.08,0,0,1-7.83-.47Zm5.05,16h4.58c5.33,0,8.47-2.79,8.47-6.56,0-4.58-3.48-6.38-8.59-6.38a21.81,21.81,0,0,0-4.46.35Zm0,18.73a27.39,27.39,0,0,0,4.23.23c5.22,0,10-1.91,10-7.6,0-5.33-4.58-7.54-10.09-7.54h-4.17Z"/>
    <path class="cls-2" d="M1045.75,67.44v39.09h-5V67.44Z"/>
    <path class="cls-2" d="M1054.57,67.44h5v34.85h16.71v4.24h-21.75Z"/>
    <path class="cls-2"
          d="M1088.26,94.23l-4,12.3H1079l13.28-39.09h6.09l13.34,39.09h-5.4l-4.17-12.3Zm12.82-3.94L1097.25,79c-.87-2.56-1.45-4.88-2-7.14h-.11c-.58,2.32-1.22,4.7-2,7.08l-3.83,11.31Z"/>
    <path class="cls-2"
          d="M1117.44,106.53V67.44H1123l12.53,19.77a109.67,109.67,0,0,1,7,12.71l.12-.06c-.46-5.22-.58-10-.58-16.07V67.44h4.76v39.09h-5.11l-12.41-19.84a122.45,122.45,0,0,1-7.31-13l-.17.06c.29,4.93.41,9.63.41,16.12v16.71Z"/>
    <path class="cls-2"
          d="M1200.84,89.36c-.29-5.45-.64-12-.58-16.88h-.17c-1.34,4.58-3,9.46-4.93,14.85l-6.9,19h-3.83l-6.32-18.61c-1.86-5.51-3.43-10.56-4.53-15.2h-.11c-.12,4.87-.41,11.43-.76,17.29l-1,16.76h-4.82l2.73-39.09H1176l6.67,18.9c1.62,4.82,3,9.11,3.94,13.17h.18c1-3.94,2.37-8.24,4.11-13.17l7-18.9h6.44l2.44,39.09h-4.93Z"/>
    <path class="cls-2"
          d="M1220.27,94.23l-4.06,12.3H1211l13.28-39.09h6.09l13.34,39.09h-5.39l-4.18-12.3Zm12.82-3.94L1229.26,79c-.87-2.56-1.45-4.88-2-7.14h-.11c-.58,2.32-1.22,4.7-2,7.08l-3.82,11.31Z"/>
    <path class="cls-2"
          d="M1248.75,100.38a17.9,17.9,0,0,0,9,2.55c5.16,0,8.18-2.72,8.18-6.67,0-3.65-2.09-5.74-7.37-7.77-6.38-2.26-10.32-5.57-10.32-11.08,0-6.09,5-10.61,12.64-10.61a17.84,17.84,0,0,1,8.64,1.91l-1.39,4.12a15.54,15.54,0,0,0-7.42-1.86c-5.34,0-7.37,3.19-7.37,5.86,0,3.66,2.38,5.45,7.77,7.54,6.61,2.55,10,5.74,10,11.49,0,6-4.47,11.25-13.69,11.25-3.77,0-7.89-1.11-10-2.5Z"/>
    <path class="cls-2" d="M1278,67.44h5v34.85h16.7v4.24H1278Z"/>
    <path class="cls-2"
          d="M1311.74,94.23l-4.06,12.3h-5.22l13.28-39.09h6.09l13.34,39.09h-5.4l-4.17-12.3Zm12.81-3.94L1320.73,79c-.87-2.56-1.45-4.88-2-7.14h-.12c-.58,2.32-1.22,4.7-2,7.08l-3.83,11.31Z"/>
    <path class="cls-2" d="M1346,67.44V83.79h18.9V67.44H1370v39.09h-5.11V88.2H1346v18.33h-5V67.44Z"/>
    <path class="cls-2"
          d="M1385.05,94.23l-4.06,12.3h-5.22l13.28-39.09h6.09l13.34,39.09h-5.39l-4.18-12.3Zm12.82-3.94L1394,79c-.87-2.56-1.45-4.88-2-7.14h-.12c-.58,2.32-1.22,4.7-2,7.08l-3.83,11.31Z"/>
    <path class="cls-2" d="M1417.18,71.73h-11.89V67.44h28.94v4.29h-12v34.8h-5.1Z"/>
    <path class="cls-2" d="M1438.58,67.44h5.05v34.85h16.7v4.24h-21.75Z"/>
    <path class="cls-2"
          d="M1472.28,94.23l-4.06,12.3H1463l13.28-39.09h6.09l13.34,39.09h-5.39l-4.18-12.3Zm12.82-3.94L1481.27,79c-.87-2.56-1.45-4.88-2-7.14h-.12c-.58,2.32-1.22,4.7-2,7.08l-3.83,11.31Z"/>
    <path class="cls-2"
          d="M1500.76,100.38a17.86,17.86,0,0,0,9,2.55c5.17,0,8.18-2.72,8.18-6.67,0-3.65-2.09-5.74-7.36-7.77-6.38-2.26-10.33-5.57-10.33-11.08,0-6.09,5-10.61,12.65-10.61a17.84,17.84,0,0,1,8.64,1.91l-1.39,4.12a15.55,15.55,0,0,0-7.43-1.86c-5.33,0-7.36,3.19-7.36,5.86,0,3.66,2.37,5.45,7.77,7.54,6.61,2.55,10,5.74,10,11.49,0,6-4.46,11.25-13.68,11.25-3.77,0-7.89-1.11-10-2.5Z"/>
    <path class="cls-2" d="M1535.09,67.44V83.79H1554V67.44h5.1v39.09H1554V88.2h-18.91v18.33h-5V67.44Z"/>
    <path class="cls-2" d="M1572.91,67.44v39.09h-5.05V67.44Z"/>
    <path class="cls-2"
          d="M1581.72,106.53V67.44h5.51l12.53,19.77a111.37,111.37,0,0,1,7,12.71l.12-.06c-.47-5.22-.58-10-.58-16.07V67.44h4.75v39.09H1606l-12.41-19.84a122.45,122.45,0,0,1-7.31-13l-.18.06c.29,4.93.41,9.63.41,16.12v16.71Z"/>
    <path class="cls-2"
          d="M1649.64,104.79a36.51,36.51,0,0,1-12,2.14c-5.91,0-10.78-1.5-14.61-5.16-3.36-3.25-5.45-8.47-5.45-14.56.06-11.65,8.06-20.18,21.17-20.18a24.18,24.18,0,0,1,9.74,1.8L1647.26,73a20.23,20.23,0,0,0-8.64-1.69c-9.51,0-15.72,5.92-15.72,15.72s6,15.78,15.08,15.78a16.43,16.43,0,0,0,6.73-1.05V90.06h-8V86h12.88Z"/>
</svg>