<svg id="Слой_1" data-name="Слой 1" xmlns="http://www.w3.org/2000/svg" viewBox="0 0 1180 350"><defs><style>.cls-1{fill:#fff;}</style></defs><title>disclaimer-uz-laptop</title><path class="cls-1" d="M27.49,162.26a154.28,154.28,0,0,1-9.55-15.52c-.51-1-1-2-1.51-2-5.93-1.19-11-24.67-11-67.86,0-43,4.89-70.66,11.63-70.66S28.23,34.48,28.23,74.09c0,34.43-3,56.53-7.1,64.29v.79a66.92,66.92,0,0,0,7.29,8.56ZM24.83,74.88c0-26.87-2.59-54.53-7.89-54.53S8.84,47.42,8.88,76.48c0,28.46,2.88,54.14,7.92,54.14S24.83,105.54,24.83,74.88Z"/><path class="cls-1" d="M35.93,100.36l-2.59,42.2H30L38.49,8.41h3.88l8.51,134.15H47.44l-2.66-42.2Zm8.18-13.53L41.67,48.22c-.56-8.76-.93-16.72-1.3-24.49H40.3c-.37,8-.78,16.12-1.26,24.28L36.6,86.83Z"/><path class="cls-1" d="M54.55,10.2a8.52,8.52,0,0,1,6.18-2.79c3.44,0,5.66,3.39,7.22,11,1.25,6,2,15.13,2,25.48,0,17.71-2.07,29.45-4.7,34.23v.6c1.92,3.58,3.07,13.13,3.66,27.07.82,18.7,1.41,31.64,1.93,36.82H67.47c-.41-3.78-1-15.33-1.67-32C65.06,92,63.73,85,60.8,84.44h-3v58.12H54.55Zm3.22,61.1h3.29c3.44,0,5.63-10.15,5.63-25.47C66.69,28.51,64.36,21,61,20.75a3.76,3.76,0,0,0-3.18,1.59Z"/><path class="cls-1" d="M74,121.46c1.44,4.78,3.55,8.76,5.77,8.76,3.29,0,5.22-9.36,5.22-22.89,0-12.54-1.33-19.71-4.7-26.67-4.07-7.77-6.59-19.11-6.59-38,0-20.9,3.22-36.42,8.07-36.42,2.55,0,4.4,3.18,5.51,6.57l-.89,14.13c-.81-2.39-2.48-6.37-4.73-6.37-3.41,0-4.7,11-4.7,20.1,0,12.54,1.51,18.71,5,25.88,4.22,8.75,6.36,19.7,6.36,39.4,0,20.7-2.85,38.62-8.73,38.62-2.41,0-5-3.79-6.37-8.56Z"/><path class="cls-1" d="M95.93,8.41V64.54H108V8.41h3.26V142.56H108V79.66H95.93v62.9H92.71V8.41Z"/><path class="cls-1" d="M120.06,8.41V142.56h-3.22V8.41Z"/><path class="cls-1" d="M133.53,8.41h3.22V73.1h.11q1-7.77,2-14.33l7.63-50.36h4l-9,56.92,9.74,77.23h-3.82l-8.21-65.88-2.37,14.73v51.15h-3.22Z"/><path class="cls-1" d="M174.28,74.09c0,46.17-5.22,70.65-11.59,70.65-6.58,0-11.21-27.46-11.21-68.06,0-42.6,4.92-70.46,11.58-70.46C169.87,6.22,174.28,34.28,174.28,74.09Zm-19.36,2.19c0,28.66,2.89,54.34,8,54.34s8-25.28,8-55.74c0-26.66-2.59-54.53-8-54.53S154.92,46.82,154.92,76.28Z"/><path class="cls-1" d="M180.76,6.22,180.13,54h-2l-.59-47.77Z"/><path class="cls-1" d="M185.42,10.2a8.52,8.52,0,0,1,6.18-2.79c3.44,0,5.66,3.39,7.22,11,1.25,6,2,15.13,2,25.48,0,17.71-2.08,29.45-4.7,34.23v.6c1.92,3.58,3.07,13.13,3.66,27.07.82,18.7,1.41,31.64,1.93,36.82h-3.34c-.4-3.78-1-15.33-1.66-32-.74-18.51-2.07-25.47-5-26.07h-3v58.12h-3.22Zm3.22,61.1h3.29c3.44,0,5.63-10.15,5.63-25.47,0-17.32-2.33-24.88-5.74-25.08a3.76,3.76,0,0,0-3.18,1.59Z"/><path class="cls-1" d="M204.89,121.46c1.44,4.78,3.55,8.76,5.77,8.76,3.29,0,5.22-9.36,5.22-22.89,0-12.54-1.33-19.71-4.7-26.67-4.07-7.77-6.59-19.11-6.59-38,0-20.9,3.22-36.42,8.07-36.42,2.55,0,4.4,3.18,5.51,6.57l-.89,14.13c-.81-2.39-2.48-6.37-4.73-6.37-3.41,0-4.7,11-4.7,20.1,0,12.54,1.51,18.71,5,25.88,4.21,8.75,6.36,19.7,6.36,39.4,0,20.7-2.85,38.62-8.73,38.62-2.41,0-5-3.79-6.37-8.56Z"/><path class="cls-1" d="M227.61,100.36,225,142.56h-3.33L230.16,8.41h3.89l8.51,134.15h-3.44l-2.66-42.2Zm8.18-13.53-2.44-38.61c-.56-8.76-.93-16.72-1.3-24.49H232c-.37,8-.78,16.12-1.26,24.28l-2.44,38.82Z"/><path class="cls-1" d="M248.11,23.14h-7.58V8.41H259V23.14h-7.63V142.56h-3.26Z"/><path class="cls-1" d="M282.79,83.64c-.18-18.71-.4-41.2-.37-57.91h-.11c-.85,15.72-1.89,32.44-3.14,51l-4.41,65.08h-2.44l-4-63.89C267.1,59,266.1,41.65,265.4,25.73h-.08c-.07,16.71-.25,39.2-.48,59.31l-.66,57.52h-3.07L262.84,8.41H267l4.26,64.88c1,16.52,1.89,31.25,2.52,45.18h.11c.63-13.53,1.51-28.26,2.62-45.18l4.45-64.88H285l1.56,134.15h-3.15Z"/><path class="cls-1" d="M295.19,100.36l-2.59,42.2h-3.33L297.75,8.41h3.88l8.51,134.15H306.7L304,100.36Zm8.18-13.53-2.44-38.61c-.56-8.76-.93-16.72-1.3-24.49h-.07c-.37,8-.78,16.12-1.26,24.28l-2.44,38.82Z"/><path class="cls-1" d="M313.81,8.41H317V128h10.66v14.53H313.81Z"/><path class="cls-1" d="M335.31,100.36l-2.59,42.2h-3.33L337.87,8.41h3.88l8.51,134.15h-3.44l-2.66-42.2Zm8.18-13.53-2.44-38.61c-.56-8.76-.93-16.72-1.3-24.49h-.07c-.37,8-.78,16.12-1.26,24.28L336,86.83Z"/><path class="cls-1" d="M353.93,10.2a8.52,8.52,0,0,1,6.18-2.79c3.44,0,5.66,3.39,7.22,11,1.25,6,2,15.13,2,25.48,0,17.71-2.07,29.45-4.7,34.23v.6c1.92,3.58,3.07,13.13,3.66,27.07.82,18.7,1.41,31.64,1.93,36.82h-3.33c-.41-3.78-1-15.33-1.67-32-.74-18.51-2.07-25.47-5-26.07h-3v58.12h-3.22Zm3.22,61.1h3.29c3.44,0,5.63-10.15,5.63-25.47,0-17.32-2.33-24.88-5.74-25.08a3.76,3.76,0,0,0-3.18,1.59Z"/><path class="cls-1" d="M402.71,83.64c-.19-18.71-.41-41.2-.37-57.91h-.11c-.85,15.72-1.89,32.44-3.15,51l-4.4,65.08h-2.45l-4-63.89C387,59,386,41.65,385.31,25.73h-.07c-.07,16.71-.26,39.2-.48,59.31l-.67,57.52H381L382.76,8.41h4.11l4.25,64.88c1,16.52,1.89,31.25,2.52,45.18h.11c.63-13.53,1.52-28.26,2.63-45.18l4.44-64.88h4.11l1.55,134.15h-3.14Z"/><path class="cls-1" d="M415.11,100.36l-2.59,42.2h-3.33L417.66,8.41h3.89l8.51,134.15h-3.44L424,100.36Zm8.18-13.53-2.45-38.61c-.55-8.76-.92-16.72-1.29-24.49h-.08c-.37,8-.77,16.12-1.25,24.28l-2.45,38.82Z"/><path class="cls-1" d="M437.24,142.56,429.1,8.41h3.48l3.88,66.08c1.08,18.11,2,34.43,2.67,50.15h.07c.7-15.52,1.74-32.44,2.85-49.95l4.22-66.28h3.44l-8.92,134.15Z"/><path class="cls-1" d="M456.67,8.41h3.22V98.17c0,35.63-3.26,46.57-7.55,46.57-1.18,0-2.63-1.39-3.44-3.18l.48-14.13c.67,1.39,1.63,2.59,2.7,2.59,2.89,0,4.59-7,4.59-33.24Z"/><path class="cls-1" d="M468.48,8.41V87.82c0,30.06,2.48,42.8,5.81,42.8,3.7,0,6.07-13.14,6.07-42.8V8.41h3.25V86.63c0,41.2-4,58.11-9.43,58.11-5.11,0-9-15.72-9-57.31v-79Z"/><path class="cls-1" d="M489.2,10.2a11.08,11.08,0,0,1,6.85-2.79c4.63,0,7.92,5.77,10.1,16.72s3.52,26.47,3.52,48.17c0,21.89-1.26,39.8-3.59,52.14-2.33,12.54-6.18,19.31-11,19.31a11,11,0,0,1-5.85-1.59Zm3.22,118.62a4.5,4.5,0,0,0,3.26,1c6.88,0,10.62-20.7,10.62-56.93,0-31.64-3.29-51.74-10.1-51.74a4.87,4.87,0,0,0-3.78,1.79Z"/><path class="cls-1" d="M511.71,132.21c0-7.37.92-12.54,2.22-12.54s2.18,5.17,2.18,12.54c0,7.16-.85,12.53-2.22,12.53S511.71,139.37,511.71,132.21Z"/><path class="cls-1" d="M548.68,162.26a154.28,154.28,0,0,1-9.55-15.52c-.52-1-1-2-1.52-2-5.92-1.19-11-24.67-11-67.86,0-43,4.89-70.66,11.62-70.66s11.18,28.26,11.18,67.87c0,34.43-3,56.53-7.11,64.29v.79a66.92,66.92,0,0,0,7.29,8.56ZM546,74.88c0-26.87-2.59-54.53-7.88-54.53s-8.1,27.07-8.07,56.13c0,28.46,2.89,54.14,7.92,54.14S546,105.54,546,74.88Z"/><path class="cls-1" d="M574.92,74.09c0,46.17-5.22,70.65-11.58,70.65-6.59,0-11.22-27.46-11.22-68.06,0-42.6,4.92-70.46,11.59-70.46S574.92,34.28,574.92,74.09Zm-19.36,2.19c0,28.66,2.89,54.34,8,54.34s8-25.28,8-55.74c0-26.66-2.59-54.53-8-54.53S555.56,46.82,555.56,76.28Z"/><path class="cls-1" d="M581.4,6.22,580.77,54h-2l-.59-47.77Z"/><path class="cls-1" d="M586.06,8.41h3.22V128h10.66v14.53H586.06Z"/><path class="cls-1" d="M603.53,8.41h3.22V128h10.66v14.53H603.53Z"/><path class="cls-1" d="M625,100.36l-2.59,42.2h-3.33L627.58,8.41h3.89L640,142.56h-3.44l-2.66-42.2Zm8.18-13.53-2.44-38.61c-.56-8.76-.93-16.72-1.3-24.49h-.07c-.37,8-.78,16.12-1.26,24.28L625.7,86.83Z"/><path class="cls-1" d="M643.2,121.46c1.45,4.78,3.56,8.76,5.78,8.76,3.29,0,5.22-9.36,5.22-22.89,0-12.54-1.34-19.71-4.7-26.67-4.08-7.77-6.59-19.11-6.59-38,0-20.9,3.22-36.42,8.07-36.42,2.55,0,4.4,3.18,5.51,6.57l-.89,14.13c-.81-2.39-2.48-6.37-4.74-6.37-3.4,0-4.7,11-4.7,20.1,0,12.54,1.52,18.71,5,25.88,4.22,8.75,6.37,19.7,6.37,39.4,0,20.7-2.85,38.62-8.73,38.62-2.41,0-5-3.79-6.37-8.56Z"/><path class="cls-1" d="M665.11,8.41V64.54h12.07V8.41h3.26V142.56h-3.26V79.66H665.11v62.9h-3.22V8.41Z"/><path class="cls-1" d="M686,10.2a11,11,0,0,1,6.84-2.79c4.63,0,7.92,5.77,10.11,16.72s3.51,26.47,3.51,48.17c0,21.89-1.26,39.8-3.59,52.14-2.33,12.54-6.18,19.31-11,19.31a11,11,0,0,1-5.84-1.59Zm3.22,118.62a4.46,4.46,0,0,0,3.25,1c6.89,0,10.62-20.7,10.62-56.93,0-31.64-3.29-51.74-10.1-51.74a4.85,4.85,0,0,0-3.77,1.79Z"/><path class="cls-1" d="M714.19,100.36l-2.59,42.2h-3.33L716.74,8.41h3.89l8.51,134.15H725.7L723,100.36Zm8.18-13.53-2.44-38.61c-.56-8.76-.93-16.72-1.3-24.49h-.07c-.37,8-.78,16.12-1.26,24.28l-2.44,38.82Z"/><path class="cls-1" d="M732.81,142.56V8.41h3.51l8,67.87c1.85,15.72,3.29,29.86,4.48,43.59l.07-.2c-.3-17.92-.37-34.24-.37-55.13V8.41h3V142.56h-3.25l-7.92-68.07c-1.74-14.93-3.41-30.26-4.67-44.78l-.11.19c.19,16.92.26,33,.26,55.34v57.32Z"/><path class="cls-1" d="M769,100.36l-2.59,42.2h-3.33L771.59,8.41h3.89L784,142.56h-3.44l-2.66-42.2Zm8.18-13.53-2.44-38.61c-.56-8.76-.93-16.72-1.3-24.49h-.07c-.37,8-.78,16.12-1.26,24.28l-2.44,38.82Z"/><path class="cls-1" d="M791.17,142.56,783,8.41h3.48l3.89,66.08c1.07,18.11,2,34.43,2.66,50.15h.07c.71-15.52,1.74-32.44,2.85-49.95L800.2,8.41h3.45l-8.92,134.15Z"/><path class="cls-1" d="M812.42,142.56,804.28,8.41h3.47l3.89,66.08c1.07,18.11,2,34.43,2.66,50.15h.08c.7-15.52,1.74-32.44,2.85-49.95l4.22-66.28h3.44L816,142.56Z"/><path class="cls-1" d="M829.52,100.36l-2.59,42.2H823.6L832.07,8.41H836l8.51,134.15H841l-2.67-42.2Zm8.18-13.53-2.45-38.61c-.55-8.76-.92-16.72-1.29-24.49h-.08c-.37,8-.77,16.12-1.25,24.28l-2.45,38.82Z"/><path class="cls-1" d="M848.13,8.41h3.22V128H862v14.53H848.13Z"/><path class="cls-1" d="M877.3,142.56V85.63L869.41,8.41h3.67l3.51,37c1,10.15,1.71,18.31,2.48,27.67h.08c.7-8.77,1.55-17.52,2.51-27.67l3.6-37h3.66l-8.36,77v57.13Z"/><path class="cls-1" d="M911.75,74.09c0,46.17-5.21,70.65-11.58,70.65-6.59,0-11.21-27.46-11.21-68.06,0-42.6,4.92-70.46,11.58-70.46C907.35,6.22,911.75,34.28,911.75,74.09ZM892.4,76.28c0,28.66,2.88,54.34,8,54.34s8-25.28,8-55.74c0-26.66-2.59-54.53-8-54.53S892.4,46.82,892.4,76.28Z"/><path class="cls-1" d="M918.23,6.22,917.6,54h-2L915,6.22Z"/><path class="cls-1" d="M922.89,10.2a8.53,8.53,0,0,1,6.19-2.79c3.44,0,5.66,3.39,7.21,11,1.26,6,2,15.13,2,25.48,0,17.71-2.07,29.45-4.7,34.23v.6c1.93,3.58,3.08,13.13,3.67,27.07.81,18.7,1.4,31.64,1.92,36.82h-3.33c-.41-3.78-1-15.33-1.66-32-.74-18.51-2.08-25.47-5-26.07h-3v58.12h-3.22Zm3.22,61.1h3.3c3.44,0,5.62-10.15,5.62-25.47,0-17.32-2.33-24.88-5.73-25.08a3.76,3.76,0,0,0-3.19,1.59Z"/><path class="cls-1" d="M946,8.41V142.56h-3.22V8.41Z"/><path class="cls-1" d="M972.23,162.26a154.28,154.28,0,0,1-9.55-15.52c-.52-1-1-2-1.52-2-5.92-1.19-11-24.67-11-67.86,0-43,4.89-70.66,11.62-70.66S973,34.48,973,74.09c0,34.43-3,56.53-7.11,64.29v.79a66.9,66.9,0,0,0,7.3,8.56Zm-2.66-87.38c0-26.87-2.6-54.53-7.89-54.53s-8.1,27.07-8.07,56.13c0,28.46,2.89,54.14,7.92,54.14S969.57,105.54,969.57,74.88Z"/><path class="cls-1" d="M977.15,142.56V8.41h3.52l8,67.87c1.85,15.72,3.3,29.86,4.48,43.59l.08-.2c-.3-17.92-.37-34.24-.37-55.13V8.41h3V142.56h-3.26L984.7,74.49C983,59.56,981.3,44.23,980,29.71l-.11.19c.18,16.92.26,33,.26,55.34v57.32Z"/><path class="cls-1" d="M1022.82,74.09c0,46.17-5.21,70.65-11.58,70.65-6.59,0-11.21-27.46-11.21-68.06,0-42.6,4.92-70.46,11.58-70.46S1022.82,34.28,1022.82,74.09Zm-19.35,2.19c0,28.66,2.88,54.34,7.95,54.34s8-25.28,8-55.74c0-26.66-2.59-54.53-8-54.53S1003.47,46.82,1003.47,76.28Z"/><path class="cls-1" d="M1048,83.64c-.19-18.71-.41-41.2-.37-57.91h-.11c-.85,15.72-1.89,32.44-3.15,51l-4.4,65.08h-2.45l-4-63.89c-1.18-18.91-2.18-36.22-2.89-52.14h-.07c-.07,16.71-.26,39.2-.48,59.31l-.67,57.52h-3.07l1.74-134.15h4.11l4.25,64.88c1,16.52,1.89,31.25,2.52,45.18h.11c.63-13.53,1.52-28.26,2.63-45.18l4.44-64.88h4.11l1.55,134.15h-3.14Z"/><path class="cls-1" d="M1060.43,100.36l-2.59,42.2h-3.33L1063,8.41h3.89l8.51,134.15h-3.44l-2.67-42.2Zm8.18-13.53-2.45-38.61c-.55-8.76-.92-16.72-1.29-24.49h-.08c-.37,8-.77,16.12-1.25,24.28l-2.45,38.82Z"/><path class="cls-1" d="M1086.89,10.2a8.2,8.2,0,0,1,5.89-2.79c3.22,0,5.29,3,6.84,9.76,1.3,5.17,2.07,13.13,2.07,23.68,0,12.94-1.59,24.28-4.21,29.46v.4c2.36,3.18,5.14,13.73,5.14,33.63a144.74,144.74,0,0,1-2.11,26.87c-1.74,8.56-4.55,12.54-8.62,12.54a8.35,8.35,0,0,1-5-1.59Zm3.22,54.93H1093c3.41,0,5.41-9.55,5.41-22.49,0-15.72-2.22-21.89-5.48-21.89a3.54,3.54,0,0,0-2.85,1.19Zm0,64.29a3.77,3.77,0,0,0,2.7.8c3.33,0,6.41-6.57,6.41-26.08,0-18.31-2.93-25.87-6.44-25.87h-2.67Z"/><path class="cls-1" d="M1110.17,8.41V142.56H1107V8.41Z"/><path class="cls-1" d="M1115.8,8.41H1119V128h10.66v14.53H1115.8Z"/><path class="cls-1" d="M1137.3,100.36l-2.59,42.2h-3.33l8.47-134.15h3.89l8.51,134.15h-3.44l-2.67-42.2Zm8.18-13.53L1143,48.22c-.56-8.76-.93-16.72-1.3-24.49h-.07c-.37,8-.78,16.12-1.26,24.28L1138,86.83Z"/><path class="cls-1" d="M1155.92,142.56V8.41h3.51l8,67.87c1.85,15.72,3.29,29.86,4.47,43.59l.08-.2c-.3-17.92-.37-34.24-.37-55.13V8.41h3V142.56h-3.25l-7.92-68.07c-1.74-14.93-3.41-30.26-4.67-44.78l-.11.19c.19,16.92.26,33,.26,55.34v57.32Z"/><path class="cls-1" d="M159.36,222.18h-7.59V207.45h18.47v14.73h-7.62V341.59h-3.26Z"/><path class="cls-1" d="M174.28,299.4l-2.59,42.19h-3.33l8.47-134.14h3.89l8.51,134.14h-3.44l-2.67-42.19Zm8.18-13.53L180,247.25c-.55-8.75-.92-16.72-1.29-24.48h-.08c-.37,8-.77,16.12-1.25,24.28l-2.45,38.82Z"/><path class="cls-1" d="M192.89,341.59V207.45h3.52l8,67.87c1.85,15.72,3.3,29.85,4.48,43.58l.08-.19c-.3-17.92-.37-34.24-.37-55.14V207.45h3V341.59h-3.26l-7.92-68.07c-1.74-14.92-3.4-30.25-4.66-44.78l-.11.2c.18,16.92.26,33,.26,55.33v57.32Z"/><path class="cls-1" d="M220.47,207.45V341.59h-3.22V207.45Z"/><path class="cls-1" d="M225.65,320.5c1.44,4.77,3.55,8.75,5.77,8.75,3.3,0,5.22-9.35,5.22-22.88,0-12.54-1.33-19.71-4.7-26.67-4.07-7.77-6.59-19.11-6.59-38,0-20.9,3.22-36.42,8.07-36.42,2.55,0,4.4,3.18,5.51,6.56L238.05,226c-.82-2.39-2.48-6.37-4.74-6.37-3.41,0-4.7,10.94-4.7,20.1,0,12.54,1.52,18.71,5,25.87,4.22,8.76,6.36,19.71,6.36,39.41,0,20.7-2.85,38.61-8.73,38.61-2.41,0-5-3.78-6.37-8.55Z"/><path class="cls-1" d="M247.56,207.45v56.12h12.06V207.45h3.26V341.59h-3.26V278.7H247.56v62.89h-3.22V207.45Z"/><path class="cls-1" d="M271.69,207.45V341.59h-3.22V207.45Z"/><path class="cls-1" d="M277.31,341.59V207.45h3.52l8,67.87c1.85,15.72,3.29,29.85,4.47,43.58l.08-.19c-.3-17.92-.37-34.24-.37-55.14V207.45h3V341.59h-3.25l-7.92-68.07c-1.74-14.92-3.41-30.25-4.67-44.78l-.11.2c.19,16.92.26,33,.26,55.33v57.32Z"/><path class="cls-1" d="M320.65,335.62c-1.44,2.79-4.29,7.37-7.66,7.37-3.77,0-6.88-5.18-9.32-17.72-2.15-11.14-3.48-29.06-3.48-49.95,0-40,5.14-69.27,13.51-69.27,2.88,0,5.14,3.39,6.21,6.17l-.77,14.13c-1.34-3.18-3-5.77-5.52-5.77-6.07,0-10,20.3-10,53.94,0,34,3.81,54.14,9.63,54.14,2.1,0,3.55-1.6,4.29-3.58v-40h-5.07V271.14h8.21Z"/><path class="cls-1" d="M337.27,341.59V284.67l-7.88-77.22h3.66l3.52,37c1,10.16,1.7,18.32,2.48,27.67h.07c.71-8.76,1.56-17.51,2.52-27.67l3.59-37h3.66l-8.36,77v57.12Z"/><path class="cls-1" d="M371.73,273.13c0,46.17-5.22,70.65-11.59,70.65-6.58,0-11.21-27.46-11.21-68.06,0-42.6,4.92-70.46,11.58-70.46C367.32,205.26,371.73,233.32,371.73,273.13Zm-19.36,2.19c0,28.66,2.89,54.33,8,54.33s8-25.27,8-55.73c0-26.67-2.59-54.53-7.95-54.53S352.37,245.86,352.37,275.32Z"/><path class="cls-1" d="M375.91,207.45h3.22v64.68h.11q1-7.75,2-14.33l7.63-50.35h4l-9,56.92,9.74,77.22h-3.81l-8.22-65.87-2.37,14.72v51.15h-3.22Z"/><path class="cls-1" d="M399.19,207.45V341.59H396V207.45Z"/><path class="cls-1" d="M433.68,282.68c-.18-18.71-.4-41.2-.37-57.92h-.11c-.85,15.73-1.88,32.44-3.14,51l-4.41,65.08h-2.44l-4-63.89C418,258,417,240.68,416.29,224.76h-.07c-.08,16.72-.26,39.21-.49,59.31l-.66,57.52H412l1.74-134.14h4.1l4.26,64.88c1,16.52,1.89,31.25,2.52,45.18h.11c.63-13.53,1.52-28.26,2.63-45.18l4.44-64.88h4.11l1.55,134.14h-3.15Z"/><path class="cls-1" d="M445.64,207.45v79.41c0,30.06,2.48,42.79,5.81,42.79,3.7,0,6.07-13.13,6.07-42.79V207.45h3.26v78.22c0,41.2-4,58.11-9.44,58.11-5.11,0-9-15.72-9-57.32v-79Z"/><path class="cls-1" d="M471.1,222.18h-7.58V207.45H482v14.73h-7.62V341.59H471.1Z"/><path class="cls-1" d="M486,299.4l-2.59,42.19H480.1l8.47-134.14h3.89L501,341.59h-3.44l-2.67-42.19Zm8.18-13.53-2.45-38.62c-.55-8.75-.92-16.72-1.29-24.48h-.07c-.37,8-.78,16.12-1.26,24.28l-2.45,38.82Z"/><path class="cls-1" d="M517.77,341.59l-3.18-29.65c-1.29-11.35-2.11-18.71-2.89-26.47h-.07c-.7,7.76-1.41,14.92-2.7,26.67l-3,29.45h-3.7l7.62-67.87-7.32-66.27h3.73l3.3,31.44c.92,8.76,1.63,15.53,2.29,22.69H512c.71-8,1.34-14.13,2.26-22.69l3.41-31.44h3.7l-7.59,65.28,7.77,68.86Z"/><path class="cls-1" d="M529,299.4l-2.59,42.19H523l8.48-134.14h3.88l8.51,134.14h-3.44L537.8,299.4Zm8.18-13.53-2.44-38.62c-.56-8.75-.93-16.72-1.3-24.48h-.07c-.37,8-.78,16.12-1.26,24.28l-2.44,38.82Z"/><path class="cls-1" d="M547.12,320.5c1.45,4.77,3.56,8.75,5.78,8.75,3.29,0,5.22-9.35,5.22-22.88,0-12.54-1.34-19.71-4.7-26.67-4.07-7.77-6.59-19.11-6.59-38,0-20.9,3.22-36.42,8.07-36.42,2.55,0,4.4,3.18,5.51,6.56L559.52,226c-.81-2.39-2.48-6.37-4.73-6.37-3.41,0-4.7,10.94-4.7,20.1,0,12.54,1.51,18.71,4.95,25.87,4.22,8.76,6.37,19.71,6.37,39.41,0,20.7-2.85,38.61-8.73,38.61-2.41,0-5-3.78-6.37-8.55Z"/><path class="cls-1" d="M565.37,320.5c1.44,4.77,3.55,8.75,5.77,8.75,3.3,0,5.22-9.35,5.22-22.88,0-12.54-1.33-19.71-4.7-26.67-4.07-7.77-6.59-19.11-6.59-38,0-20.9,3.22-36.42,8.07-36.42,2.56,0,4.41,3.18,5.52,6.56L577.77,226c-.81-2.39-2.48-6.37-4.74-6.37-3.4,0-4.7,10.94-4.7,20.1,0,12.54,1.52,18.71,5,25.87,4.22,8.76,6.37,19.71,6.37,39.41,0,20.7-2.85,38.61-8.74,38.61-2.4,0-5-3.78-6.36-8.55Z"/><path class="cls-1" d="M587.28,207.45V341.59h-3.22V207.45Z"/><path class="cls-1" d="M592.46,320.5c1.45,4.77,3.56,8.75,5.78,8.75,3.29,0,5.21-9.35,5.21-22.88,0-12.54-1.33-19.71-4.7-26.67-4.07-7.77-6.58-19.11-6.58-38,0-20.9,3.22-36.42,8.07-36.42,2.55,0,4.4,3.18,5.51,6.56L604.86,226c-.81-2.39-2.48-6.37-4.74-6.37-3.4,0-4.7,10.94-4.7,20.1,0,12.54,1.52,18.71,5,25.87,4.22,8.76,6.37,19.71,6.37,39.41,0,20.7-2.85,38.61-8.74,38.61-2.4,0-5-3.78-6.36-8.55Z"/><path class="cls-1" d="M619,209.24a8.16,8.16,0,0,1,5.88-2.79c3.22,0,5.3,3,6.85,9.75,1.3,5.18,2.07,13.14,2.07,23.69,0,12.94-1.59,24.28-4.22,29.45v.4c2.37,3.19,5.15,13.74,5.15,33.64a144.82,144.82,0,0,1-2.11,26.87c-1.74,8.56-4.55,12.54-8.62,12.54a8.42,8.42,0,0,1-5-1.59Zm3.22,54.93h2.92c3.41,0,5.41-9.55,5.41-22.49,0-15.72-2.22-21.89-5.48-21.89a3.54,3.54,0,0,0-2.85,1.19Zm0,64.29a3.81,3.81,0,0,0,2.7.79c3.33,0,6.4-6.56,6.4-26.07,0-18.31-2.92-25.87-6.44-25.87h-2.66Z"/><path class="cls-1" d="M642.28,207.45V341.59h-3.22V207.45Z"/><path class="cls-1" d="M647.91,207.45h3.22V327.06h10.65v14.53H647.91Z"/><path class="cls-1" d="M669.41,299.4l-2.59,42.19h-3.33L672,207.45h3.89l8.51,134.14h-3.44l-2.67-42.19Zm8.18-13.53-2.45-38.62c-.55-8.75-.92-16.72-1.29-24.48h-.07c-.38,8-.78,16.12-1.26,24.28l-2.45,38.82Z"/><path class="cls-1" d="M688,341.59V207.45h3.52l8,67.87c1.86,15.72,3.3,29.85,4.48,43.58l.08-.19c-.3-17.92-.37-34.24-.37-55.14V207.45h3V341.59H703.5l-7.93-68.07c-1.73-14.92-3.4-30.25-4.66-44.78l-.11.2c.19,16.92.26,33,.26,55.33v57.32Z"/><path class="cls-1" d="M741.25,282.68c-.19-18.71-.41-41.2-.37-57.92h-.12c-.85,15.73-1.88,32.44-3.14,51l-4.41,65.08h-2.44l-4-63.89c-1.19-18.91-2.19-36.23-2.89-52.15h-.07c-.08,16.72-.26,39.21-.48,59.31l-.67,57.52h-3.07l1.74-134.14h4.11l4.25,64.88c1,16.52,1.89,31.25,2.52,45.18h.11c.63-13.53,1.52-28.26,2.63-45.18l4.44-64.88h4.11L745,341.59h-3.15Z"/><path class="cls-1" d="M753.64,299.4l-2.59,42.19h-3.33l8.48-134.14h3.88l8.52,134.14h-3.44l-2.67-42.19Zm8.18-13.53-2.44-38.62c-.55-8.75-.92-16.72-1.29-24.48H758c-.37,8-.78,16.12-1.26,24.28l-2.44,38.82Z"/><path class="cls-1" d="M771.82,320.5c1.44,4.77,3.55,8.75,5.77,8.75,3.3,0,5.22-9.35,5.22-22.88,0-12.54-1.33-19.71-4.7-26.67-4.07-7.77-6.59-19.11-6.59-38,0-20.9,3.22-36.42,8.07-36.42,2.55,0,4.4,3.18,5.51,6.56L784.22,226c-.82-2.39-2.48-6.37-4.74-6.37-3.41,0-4.7,10.94-4.7,20.1,0,12.54,1.52,18.71,5,25.87,4.22,8.76,6.36,19.71,6.36,39.41,0,20.7-2.85,38.61-8.73,38.61-2.41,0-5-3.78-6.37-8.55Z"/><path class="cls-1" d="M790.51,207.45h3.22V327.06h10.66v14.53H790.51Z"/><path class="cls-1" d="M812,299.4l-2.59,42.19h-3.33l8.47-134.14h3.89L827,341.59h-3.44l-2.66-42.19Zm8.18-13.53-2.44-38.62c-.56-8.75-.93-16.72-1.3-24.48h-.07c-.37,8-.78,16.12-1.26,24.28l-2.44,38.82Z"/><path class="cls-1" d="M833.85,207.45v56.12h12.06V207.45h3.26V341.59h-3.26V278.7H833.85v62.89h-3.22V207.45Z"/><path class="cls-1" d="M858.79,299.4l-2.59,42.19h-3.33l8.48-134.14h3.88l8.51,134.14H870.3l-2.66-42.19ZM867,285.87l-2.44-38.62c-.56-8.75-.93-16.72-1.3-24.48h-.07c-.37,8-.78,16.12-1.26,24.28l-2.44,38.82Z"/><path class="cls-1" d="M879.3,222.18h-7.59V207.45h18.47v14.73h-7.63V341.59H879.3Z"/><path class="cls-1" d="M893,207.45h3.22V327.06h10.66v14.53H893Z"/><path class="cls-1" d="M914.46,299.4l-2.59,42.19h-3.34L917,207.45h3.89l8.51,134.14H926L923.3,299.4Zm8.18-13.53-2.45-38.62c-.55-8.75-.92-16.72-1.29-24.48h-.08c-.37,8-.77,16.12-1.26,24.28l-2.44,38.82Z"/><path class="cls-1" d="M932.63,320.5c1.44,4.77,3.55,8.75,5.77,8.75,3.3,0,5.22-9.35,5.22-22.88,0-12.54-1.33-19.71-4.7-26.67-4.07-7.77-6.59-19.11-6.59-38,0-20.9,3.22-36.42,8.07-36.42,2.55,0,4.41,3.18,5.52,6.56L945,226c-.82-2.39-2.48-6.37-4.74-6.37-3.4,0-4.7,10.94-4.7,20.1,0,12.54,1.52,18.71,5,25.87,4.22,8.76,6.36,19.71,6.36,39.41,0,20.7-2.84,38.61-8.73,38.61-2.41,0-5-3.78-6.37-8.55Z"/><path class="cls-1" d="M954.54,207.45v56.12H966.6V207.45h3.26V341.59H966.6V278.7H954.54v62.89h-3.22V207.45Z"/><path class="cls-1" d="M978.67,207.45V341.59h-3.22V207.45Z"/><path class="cls-1" d="M984.3,341.59V207.45h3.51l8,67.87c1.85,15.72,3.29,29.85,4.47,43.58l.08-.19c-.3-17.92-.37-34.24-.37-55.14V207.45h3V341.59h-3.25l-7.92-68.07c-1.74-14.92-3.41-30.25-4.67-44.78l-.11.2c.19,16.92.26,33,.26,55.33v57.32Z"/><path class="cls-1" d="M1027.64,335.62c-1.45,2.79-4.3,7.37-7.67,7.37-3.77,0-6.88-5.18-9.32-17.72-2.15-11.14-3.48-29.06-3.48-49.95,0-40,5.14-69.27,13.51-69.27,2.88,0,5.14,3.39,6.21,6.17l-.77,14.13c-1.33-3.18-3-5.77-5.52-5.77-6.07,0-10,20.3-10,53.94,0,34,3.82,54.14,9.63,54.14,2.11,0,3.55-1.6,4.29-3.58v-40h-5.07V271.14h8.22Z"/></svg>