<svg id="Слой_1" data-name="Слой 1" xmlns="http://www.w3.org/2000/svg" viewBox="0 0 1920 120"><defs><style>.cls-1,.cls-2{fill:#fff;}.cls-1{fill-opacity:0.1;}</style></defs><title>disclaimer_new_ru</title><path class="cls-1" d="M0,20A20,20,0,0,1,20,0H1900a20,20,0,0,1,20,20V120H0Z"/><path class="cls-2" d="M66.05,12.52v16.2c0,6.09-.11,11.11-.45,16.24l.11.06c1.94-4,4.33-8.15,7.13-12.71L85.26,12.52h5V51H85.55V34.59c0-6.22.06-10.78.46-15.62l-.18-.06a117.46,117.46,0,0,1-7.12,12.94L66.68,51h-5.3V12.52Z"/><path class="cls-2" d="M131.26,34.07c-.28-5.35-.62-11.8-.57-16.59h-.17c-1.31,4.51-2.9,9.3-4.84,14.6l-6.79,18.64h-3.76l-6.21-18.3c-1.83-5.41-3.37-10.37-4.45-14.94h-.11c-.12,4.79-.4,11.24-.74,17l-1,16.48H97.86l2.68-38.43h6.32l6.56,18.59c1.6,4.73,2.91,9,3.88,12.94h.17c1-3.88,2.34-8.1,4-12.94l6.84-18.59h6.32L137.08,51h-4.85Z"/><path class="cls-2" d="M164.61,32.93H149.67V46.79h16.65V51H144.71V12.52h20.75v4.17H149.67V28.83h14.94Z"/><path class="cls-2" d="M177.71,12.52V29.11h5.7c1-10.71,7.3-17.21,16.37-17.21,10,0,16,8,16,19.44,0,13.34-7.41,20.23-16.53,20.23-9.29,0-15.56-7.06-16-18.29h-5.59V51h-5V12.52Zm33,19.05c0-7.64-3.59-15.68-11.17-15.68S188.2,23.64,188.2,32c0,8.1,4.05,15.62,11.23,15.62S210.72,40.29,210.72,31.57Z"/><path class="cls-2" d="M229,16.74H217.33V12.52h28.44v4.22H234V51h-5Z"/><path class="cls-2" d="M274.9,49.69a24.45,24.45,0,0,1-10.15,1.83c-10.83,0-19-6.84-19-19.44,0-12,8.15-20.18,20.07-20.18,4.79,0,7.81,1,9.12,1.71l-1.2,4.05a17.93,17.93,0,0,0-7.75-1.6c-9,0-15,5.76-15,15.85,0,9.4,5.41,15.45,14.76,15.45a19.88,19.88,0,0,0,8.1-1.6Z"/><path class="cls-2" d="M278.49,51A25.47,25.47,0,0,0,280,47.47c1.65-4.39,2.68-9.75,5.81-12.88A7.67,7.67,0,0,1,289,32.65v-.17c-4.73-.8-8.49-4.22-8.49-9.47a9.81,9.81,0,0,1,3.53-7.81c2.4-1.93,6.16-3,11-3a48.38,48.38,0,0,1,9.17.8V51H299.3V34.3h-3.65c-2.4,0-4.16.51-5.53,1.88-2.62,2.68-3.71,8.33-5.08,12a24,24,0,0,1-1.25,2.8ZM299.3,16.52a22.61,22.61,0,0,0-4.68-.46c-4.9,0-9.06,1.88-9.06,7.18,0,4.62,4.1,7.3,9.52,7.3,1.65,0,3.25,0,4.22-.06Z"/><path class="cls-2" d="M352.76,12.52V51h-5V16.69H330V51h-5V12.52Z"/><path class="cls-2" d="M361.42,13a57.45,57.45,0,0,1,9.52-.74c4.91,0,8.5,1.14,10.78,3.19a10.34,10.34,0,0,1,3.36,8,11.35,11.35,0,0,1-3,8.21c-2.63,2.79-6.9,4.22-11.75,4.22a17.36,17.36,0,0,1-4-.34V51h-5Zm5,18.53a16.87,16.87,0,0,0,4.11.4c6,0,9.63-2.91,9.63-8.21,0-5.08-3.59-7.53-9.06-7.53a20.74,20.74,0,0,0-4.68.4Z"/><path class="cls-2" d="M424.13,31.34c0,13.22-8,20.23-17.85,20.23-10.14,0-17.27-7.86-17.27-19.49,0-12.2,7.58-20.18,17.84-20.18C417.34,11.9,424.13,19.94,424.13,31.34ZM394.31,32c0,8.21,4.45,15.57,12.26,15.57s12.31-7.24,12.31-16c0-7.64-4-15.62-12.25-15.62S394.31,23.53,394.31,32Z"/><path class="cls-2" d="M437.4,16.74H425.72V12.52h28.44v4.22H442.42V51h-5Z"/><path class="cls-2" d="M463.11,12.52v16.2c0,6.09-.11,11.11-.46,16.24l.12.06c1.94-4,4.33-8.15,7.12-12.71l12.43-19.79h5V51h-4.67V34.59c0-6.22.05-10.78.45-15.62l-.17-.06a117.46,117.46,0,0,1-7.12,12.94l-12,19.1h-5.3V12.52Z"/><path class="cls-2" d="M495.94,13a47.79,47.79,0,0,1,9.07-.8c4.95,0,8.15.86,10.54,2.79a8.07,8.07,0,0,1,3.19,6.79c0,3.7-2.45,7-6.49,8.43v.12c3.64.91,7.92,3.93,7.92,9.63a10.35,10.35,0,0,1-3.25,7.7c-2.68,2.45-7,3.59-13.28,3.59a57.53,57.53,0,0,1-7.7-.46Zm5,15.73h4.5c5.25,0,8.33-2.73,8.33-6.44,0-4.5-3.42-6.27-8.44-6.27a21.42,21.42,0,0,0-4.39.34Zm0,18.42a26.85,26.85,0,0,0,4.16.22c5.13,0,9.86-1.88,9.86-7.46,0-5.25-4.5-7.42-9.91-7.42H500.9Z"/><path class="cls-2" d="M559.22,31.34c0,13.22-8,20.23-17.85,20.23-10.14,0-17.27-7.86-17.27-19.49,0-12.2,7.58-20.18,17.84-20.18C552.43,11.9,559.22,19.94,559.22,31.34ZM529.4,32c0,8.21,4.45,15.57,12.26,15.57S554,40.29,554,31.57C554,23.93,550,16,541.71,16S529.4,23.53,529.4,32Z"/><path class="cls-2" d="M593.41,12.52V51h-4.95V16.69H570.61V51h-5V12.52Z"/><path class="cls-2" d="M634.91,31.34c0,13.22-8,20.23-17.84,20.23-10.15,0-17.28-7.86-17.28-19.49,0-12.2,7.59-20.18,17.85-20.18C628.13,11.9,634.91,19.94,634.91,31.34ZM605.1,32c0,8.21,4.44,15.57,12.25,15.57s12.32-7.24,12.32-16c0-7.64-4-15.62-12.26-15.62S605.1,23.53,605.1,32Z"/><path class="cls-2" d="M646.25,12.52V29.57h1.54l13.17-17h6L652.41,30.14c6.32.86,8.78,4.73,10.77,9.92A102.11,102.11,0,0,0,667.4,51H662a68.34,68.34,0,0,1-3.48-9.07c-1.76-5.07-4.21-8.55-10.71-8.55h-1.6V51h-4.9V12.52Z"/><path class="cls-2" d="M678.74,38.86l-4,12.09h-5.13l13-38.43h6L701.77,51h-5.3l-4.11-12.09ZM691.34,35l-3.76-11.06c-.86-2.51-1.43-4.79-2-7h-.11c-.57,2.28-1.2,4.62-1.94,7L679.77,35Z"/><path class="cls-2" d="M706.5,14.81a18.23,18.23,0,0,1,10.14-2.91c6.67,0,11.29,3.48,11.29,9.4,0,4.74-3.42,8.33-7.92,9.35v.12c5.41.57,9.35,4.1,9.35,9.63,0,8-6.9,11.17-13.91,11.17a19.68,19.68,0,0,1-10-2.5l1.31-3.88a18.65,18.65,0,0,0,8.61,2.34c5.7,0,8.84-3.08,8.84-7.3,0-5.76-5.53-7.41-10.43-7.41h-2.28V29.06h2.28c5.07,0,9-3.14,9-7.07s-2.73-6-6.89-6a15.73,15.73,0,0,0-8,2.5Z"/><path class="cls-2" d="M742.24,38.86l-4,12.09h-5.13l13-38.43h6L765.27,51H760l-4.11-12.09ZM754.83,35l-3.76-11.06c-.85-2.51-1.42-4.79-2-7H749c-.57,2.28-1.19,4.62-1.94,7L743.26,35Z"/><path class="cls-2" d="M775.87,12.52V28.6h18.58V12.52h5V51h-5v-18H775.87V51h-5V12.52Z"/><path class="cls-2" d="M812.74,12.52v16.2c0,6.09-.11,11.11-.45,16.24l.11.06c1.94-4,4.33-8.15,7.13-12.71L832,12.52h5V51h-4.68V34.59c0-6.22.06-10.78.46-15.62l-.17-.06a119.26,119.26,0,0,1-7.13,12.94l-12,19.1h-5.3V12.52Z"/><path class="cls-2" d="M842.1,51a25.47,25.47,0,0,0,1.54-3.48c1.65-4.39,2.68-9.75,5.81-12.88a7.67,7.67,0,0,1,3.19-1.94v-.17c-4.73-.8-8.49-4.22-8.49-9.47a9.81,9.81,0,0,1,3.53-7.81c2.4-1.93,6.16-3,11-3a48.38,48.38,0,0,1,9.17.8V51h-5V34.3h-3.65c-2.4,0-4.16.51-5.53,1.88-2.63,2.68-3.71,8.33-5.08,12A24,24,0,0,1,847.4,51Zm20.81-34.43a22.61,22.61,0,0,0-4.68-.46c-4.9,0-9.06,1.88-9.06,7.18,0,4.62,4.1,7.3,9.52,7.3,1.65,0,3.25,0,4.22-.06Z"/><path class="cls-2" d="M875.44,48a3.37,3.37,0,0,1,3.42-3.59A3.33,3.33,0,0,1,882.23,48a3.4,3.4,0,1,1-6.79,0Z"/><path class="cls-2" d="M928.46,12.52V51h-5V16.69H905.65V51h-5V12.52Z"/><path class="cls-2" d="M957,32.93H942.07V46.79h16.65V51h-21.6V12.52h20.75v4.17h-15.8V28.83H957Z"/><path class="cls-2" d="M965.16,13a57.36,57.36,0,0,1,9.52-.74c4.9,0,8.49,1.14,10.77,3.19a10.35,10.35,0,0,1,3.37,8,11.31,11.31,0,0,1-3,8.21c-2.62,2.79-6.9,4.22-11.74,4.22a17.36,17.36,0,0,1-4-.34V51h-5Zm5,18.53a16.84,16.84,0,0,0,4.1.4c6,0,9.64-2.91,9.64-8.21,0-5.08-3.6-7.53-9.07-7.53a20.64,20.64,0,0,0-4.67.4Z"/><path class="cls-2" d="M1015.38,32.93h-14.94V46.79h16.65V51H995.48V12.52h20.75v4.17h-15.79V28.83h14.94Z"/><path class="cls-2" d="M1050.94,12.52V46.9l3.37.11L1054,60.18h-3.88l-.34-9.23h-24.23l-.34,9.23h-3.88L1021,47l2.91-.11a45.38,45.38,0,0,0,3.76-8.44c1.31-4.44,1.82-9.57,1.82-16.19V12.52Zm-16.87,11.35a52.54,52.54,0,0,1-1.94,15.68,37.44,37.44,0,0,1-3.13,7.29h17V16.63h-11.92Z"/><path class="cls-2" d="M1100.42,12.52V51h-5V16.69h-17.84V51h-5V12.52Z"/><path class="cls-2" d="M1109.08,13a57.36,57.36,0,0,1,9.52-.74c4.9,0,8.49,1.14,10.77,3.19a10.35,10.35,0,0,1,3.37,8,11.31,11.31,0,0,1-3,8.21c-2.62,2.79-6.89,4.22-11.74,4.22a17.36,17.36,0,0,1-4-.34V51h-5Zm5,18.53a16.84,16.84,0,0,0,4.1.4c6,0,9.64-2.91,9.64-8.21,0-5.08-3.59-7.53-9.07-7.53a20.64,20.64,0,0,0-4.67.4Z"/><path class="cls-2" d="M1144.08,12.52v16.2c0,6.09-.12,11.11-.46,16.24l.12.06c1.93-4,4.33-8.15,7.12-12.71l12.43-19.79h5V51h-4.68V34.59c0-6.22.06-10.78.46-15.62l-.17-.06a115.94,115.94,0,0,1-7.13,12.94l-12,19.1h-5.31V12.52Z"/><path class="cls-2" d="M1209.29,34.07c-.29-5.35-.63-11.8-.57-16.59h-.17c-1.31,4.51-2.91,9.3-4.85,14.6l-6.78,18.64h-3.76l-6.22-18.3c-1.82-5.41-3.36-10.37-4.44-14.94h-.12c-.11,4.79-.4,11.24-.74,17l-1,16.48h-4.74l2.68-38.43h6.33l6.56,18.59c1.59,4.73,2.9,9,3.87,12.94h.17c1-3.88,2.34-8.1,4-12.94l6.84-18.59h6.33L1215.1,51h-4.84Z"/><path class="cls-2" d="M1242.63,32.93H1227.7V46.79h16.64V51h-21.6V12.52h20.75v4.17H1227.7V28.83h14.93Z"/><path class="cls-2" d="M1255.74,12.52V28.6h18.58V12.52h5V51h-5v-18h-18.58V51h-5V12.52Z"/><path class="cls-2" d="M1307.84,32.93H1292.9V46.79h16.65V51h-21.61V12.52h20.75v4.17H1292.9V28.83h14.94Z"/><path class="cls-2" d="M1321,12.52V28.6h18.58V12.52h5V51h-5v-18H1321V51h-5V12.52Z"/><path class="cls-2" d="M1357.83,12.52v16.2c0,6.09-.12,11.11-.46,16.24l.11.06c1.94-4,4.34-8.15,7.13-12.71L1377,12.52h5V51h-4.68V34.59c0-6.22.06-10.78.46-15.62l-.17-.06a117.58,117.58,0,0,1-7.13,12.94l-12,19.1h-5.3V12.52Z"/><path class="cls-2" d="M1410.55,32.93h-14.93V46.79h16.64V51h-21.6V12.52h20.75v4.17h-15.79V28.83h14.93Z"/><path class="cls-2" d="M1451.08,34.07c-.29-5.35-.63-11.8-.57-16.59h-.17c-1.31,4.51-2.91,9.3-4.85,14.6l-6.78,18.64H1435l-6.22-18.3c-1.82-5.41-3.36-10.37-4.44-14.94h-.12c-.11,4.79-.4,11.24-.74,17l-1,16.48h-4.74l2.68-38.43h6.33l6.56,18.59c1.59,4.73,2.9,9,3.87,12.94h.17c1-3.88,2.34-8.1,4-12.94l6.84-18.59h6.33L1456.89,51h-4.84Z"/><path class="cls-2" d="M1509.45,31.34c0,13.22-8,20.23-17.85,20.23-10.14,0-17.27-7.86-17.27-19.49,0-12.2,7.58-20.18,17.84-20.18C1502.66,11.9,1509.45,19.94,1509.45,31.34Zm-29.82.62c0,8.21,4.45,15.57,12.26,15.57s12.31-7.24,12.31-16c0-7.64-4-15.62-12.26-15.62S1479.63,23.53,1479.63,32Z"/><path class="cls-2" d="M1513.6,14.81a18.27,18.27,0,0,1,10.15-2.91c6.67,0,11.29,3.48,11.29,9.4,0,4.74-3.42,8.33-7.93,9.35v.12c5.42.57,9.35,4.1,9.35,9.63,0,8-6.9,11.17-13.91,11.17a19.67,19.67,0,0,1-10-2.5l1.31-3.88a18.58,18.58,0,0,0,8.61,2.34c5.7,0,8.83-3.08,8.83-7.3,0-5.76-5.52-7.41-10.43-7.41h-2.28V29.06h2.28c5.08,0,9-3.14,9-7.07s-2.74-6-6.9-6a15.73,15.73,0,0,0-8,2.5Z"/><path class="cls-2" d="M1548.09,12.52V28.6h18.58V12.52h5V51h-5v-18h-18.58V51h-5V12.52Z"/><path class="cls-2" d="M1586.5,38.86l-4,12.09h-5.13l13.06-38.43h6L1609.54,51h-5.31l-4.1-12.09ZM1599.1,35l-3.76-11.06c-.85-2.51-1.42-4.79-2-7h-.12c-.57,2.28-1.19,4.62-1.94,7L1587.53,35Z"/><path class="cls-2" d="M1620.08,12.52V29.57h1.54l13.17-17h6l-14.54,17.62c6.33.86,8.78,4.73,10.78,9.92A100,100,0,0,0,1641.23,51h-5.36a68.34,68.34,0,0,1-3.48-9.07c-1.77-5.07-4.22-8.55-10.72-8.55h-1.59V51h-4.9V12.52Z"/><path class="cls-2" d="M1677.82,31.34c0,13.22-8,20.23-17.84,20.23-10.15,0-17.27-7.86-17.27-19.49,0-12.2,7.58-20.18,17.84-20.18C1671,11.9,1677.82,19.94,1677.82,31.34ZM1648,32c0,8.21,4.45,15.57,12.25,15.57s12.32-7.24,12.32-16c0-7.64-4-15.62-12.26-15.62S1648,23.53,1648,32Z"/><path class="cls-2" d="M1716.47,34.07c-.29-5.35-.63-11.8-.57-16.59h-.17c-1.31,4.51-2.91,9.3-4.85,14.6l-6.78,18.64h-3.77l-6.21-18.3c-1.82-5.41-3.36-10.37-4.45-14.94h-.11c-.11,4.79-.4,11.24-.74,17l-1,16.48h-4.73l2.68-38.43h6.33l6.56,18.59c1.59,4.73,2.9,9,3.87,12.94h.17c1-3.88,2.34-8.1,4-12.94l6.84-18.59h6.33L1722.28,51h-4.84Z"/><path class="cls-2" d="M1734.88,12.52V26.89a41.64,41.64,0,0,1,4.73-.28c7.86,0,14.82,3.47,14.82,12a11.6,11.6,0,0,1-3,8.21c-3.13,3.3-8.49,4.5-13.79,4.5a57.68,57.68,0,0,1-7.75-.46V12.52Zm0,34.61a20.82,20.82,0,0,0,4.1.28c5.53,0,10.26-2.68,10.26-8.55,0-6-4.84-8.32-10.32-8.32a32.27,32.27,0,0,0-4,.28Z"/><path class="cls-2" d="M1764.17,16.74h-11.68V12.52h28.44v4.22h-11.74V51h-5Z"/><path class="cls-2" d="M1805.1,32.93h-14.93V46.79h16.64V51h-21.6V12.52H1806v4.17h-15.79V28.83h14.93Z"/><path class="cls-2" d="M1840.1,49.69A24.48,24.48,0,0,1,1830,51.52c-10.83,0-19-6.84-19-19.44,0-12,8.15-20.18,20.07-20.18,4.78,0,7.8,1,9.12,1.71l-1.2,4.05a17.93,17.93,0,0,0-7.75-1.6c-9,0-15,5.76-15,15.85,0,9.4,5.42,15.45,14.77,15.45a19.8,19.8,0,0,0,8.09-1.6Z"/><path class="cls-2" d="M1851.27,12.52V26.89a41.64,41.64,0,0,1,4.73-.28c7.87,0,14.82,3.47,14.82,12a11.64,11.64,0,0,1-3,8.21c-3.14,3.3-8.5,4.5-13.8,4.5a57.68,57.68,0,0,1-7.75-.46V12.52Zm0,34.61a20.82,20.82,0,0,0,4.1.28c5.53,0,10.26-2.68,10.26-8.55,0-6-4.84-8.32-10.31-8.32a32.29,32.29,0,0,0-4,.28Z"/><path class="cls-2" d="M152.44,107.69a24.48,24.48,0,0,1-10.15,1.83c-10.83,0-19-6.84-19-19.44,0-12,8.15-20.18,20.06-20.18,4.79,0,7.81,1,9.13,1.71l-1.2,4a18,18,0,0,0-7.76-1.6c-9,0-15,5.76-15,15.85,0,9.4,5.42,15.45,14.77,15.45a19.8,19.8,0,0,0,8.09-1.6Z"/><path class="cls-2" d="M175.41,70.52V86.71c0,6.1-.12,11.12-.46,16.25l.11.06c1.94-4,4.34-8.15,7.13-12.71l12.43-19.79h5V109H194.9V92.59c0-6.22.06-10.78.46-15.62l-.17-.06a117.58,117.58,0,0,1-7.13,12.94L176,109h-5.3V70.52Z"/><path class="cls-2" d="M213.2,70.52V86.6h18.58V70.52h5V109h-5v-18H213.2v18h-5V70.52Z"/><path class="cls-2" d="M272.25,107.69a24.45,24.45,0,0,1-10.15,1.83c-10.83,0-19-6.84-19-19.44,0-12,8.15-20.18,20.07-20.18,4.78,0,7.81,1,9.12,1.71l-1.2,4a17.93,17.93,0,0,0-7.75-1.6c-9,0-15,5.76-15,15.85,0,9.4,5.42,15.45,14.77,15.45a19.8,19.8,0,0,0,8.09-1.6Z"/><path class="cls-2" d="M287.75,74.74H276.06V70.52h28.45v4.22H292.77V109h-5Z"/><path class="cls-2" d="M308.78,71a57.45,57.45,0,0,1,9.52-.74c4.9,0,8.5,1.14,10.78,3.19a10.34,10.34,0,0,1,3.36,8,11.31,11.31,0,0,1-3,8.21c-2.62,2.79-6.89,4.22-11.74,4.22a17.36,17.36,0,0,1-4-.34V109h-5Zm5,18.53a16.87,16.87,0,0,0,4.11.4c6,0,9.63-2.91,9.63-8.21,0-5.08-3.59-7.53-9.06-7.53a20.74,20.74,0,0,0-4.68.4Z"/><path class="cls-2" d="M339.85,70.52l7.64,16.37c1,2.28,1.88,4.5,2.79,6.78h.11c.69-2,1.43-4.22,2.4-7l6-16.19H364l-8,19.73c-2.11,5.13-4.5,11-7.18,14.59-2.51,3.14-5.3,4.73-8.73,4.73a8.53,8.53,0,0,1-2.79-.34l.51-4a6.66,6.66,0,0,0,1.83.18c4-.06,6.33-3.88,7.52-6.62a2.29,2.29,0,0,0-.17-2.33L334.2,70.52Z"/><path class="cls-2" d="M373,70.52v17h1.54l13.17-17h6L379.18,88.14c6.33.86,8.78,4.73,10.77,9.92A102.11,102.11,0,0,0,394.17,109h-5.36a68.34,68.34,0,0,1-3.48-9.07c-1.76-5.07-4.21-8.55-10.71-8.55H373V109h-4.9V70.52Z"/><path class="cls-2" d="M404,70.52v34.27h17.62V70.52h5V104.9L430,105l-.35,13.17h-3.93l-.34-9.23H399V70.52Z"/><path class="cls-2" d="M440.85,70.52V86.71c0,6.1-.11,11.12-.46,16.25l.12.06c1.94-4,4.33-8.15,7.12-12.71l12.43-19.79h5V109h-4.67V92.59c0-6.22,0-10.78.45-15.62l-.17-.06a117.46,117.46,0,0,1-7.12,12.94l-12,19.1h-5.3V70.52Z"/><path class="cls-2" d="M493.58,90.93H478.64v13.86h16.65V109H473.68V70.52h20.75v4.17H478.64V86.83h14.94Z"/><path class="cls-2" d="M506.4,70.52V86.71c0,6.1-.12,11.12-.46,16.25l.12.06c1.94-4,4.33-8.15,7.12-12.71l12.43-19.79h5V109H525.9V92.59c0-6.22.05-10.78.45-15.62l-.17-.06a115.94,115.94,0,0,1-7.13,12.94L507,109h-5.31V70.52Zm6.27-8c.23,1.76.8,3.53,3.48,3.53s3.25-1.65,3.47-3.53h3.82c-.28,3.76-2.56,6.1-7.41,6.1-4.67,0-6.9-2.34-7.18-6.1Z"/><path class="cls-2" d="M556,70.52V86.71c0,6.1-.12,11.12-.46,16.25l.12.06c1.93-4,4.33-8.15,7.12-12.71L575.2,70.52h5V109h-4.68V92.59c0-6.22.06-10.78.46-15.62l-.17-.06a115.94,115.94,0,0,1-7.13,12.94l-12,19.1h-5.3V70.52Z"/><path class="cls-2" d="M614.24,70.52V109h-5V74.69H596.51V86.32c0,8.32-.34,17.61-5.75,21.26a11.59,11.59,0,0,1-5.88,1.82l-.62-4a8.66,8.66,0,0,0,4-2c3.08-3,3.37-10.49,3.37-16.65V70.52Z"/><path class="cls-2" d="M627.52,70.52V86.71c0,6.1-.11,11.12-.45,16.25l.11.06c1.94-4,4.33-8.15,7.13-12.71l12.42-19.79h5V109H647V92.59c0-6.22.05-10.78.45-15.62l-.17-.06a117.46,117.46,0,0,1-7.12,12.94l-12,19.1h-5.3V70.52Z"/><path class="cls-2" d="M700.2,70.52V109h-5V74.69H677.4V109h-5V70.52Z"/><path class="cls-2" d="M708.86,71a57.36,57.36,0,0,1,9.52-.74c4.9,0,8.49,1.14,10.77,3.19a10.35,10.35,0,0,1,3.37,8,11.31,11.31,0,0,1-3,8.21c-2.62,2.79-6.9,4.22-11.74,4.22a17.36,17.36,0,0,1-4-.34V109h-5Zm5,18.53a16.84,16.84,0,0,0,4.1.4c6,0,9.64-2.91,9.64-8.21,0-5.08-3.6-7.53-9.07-7.53a20.64,20.64,0,0,0-4.67.4Z"/><path class="cls-2" d="M771.56,89.34c0,13.22-8,20.23-17.84,20.23-10.15,0-17.27-7.86-17.27-19.49,0-12.2,7.58-20.18,17.84-20.18C764.78,69.9,771.56,77.94,771.56,89.34ZM741.75,90c0,8.21,4.44,15.57,12.25,15.57s12.32-7.24,12.32-16c0-7.64-4-15.62-12.26-15.62S741.75,81.53,741.75,90Z"/><path class="cls-2" d="M782.9,70.52v17h1.54l13.17-17h6L789.06,88.14c6.33.86,8.78,4.73,10.77,9.92A102.11,102.11,0,0,0,804.05,109h-5.36a68.34,68.34,0,0,1-3.48-9.07c-1.76-5.07-4.21-8.55-10.71-8.55h-1.6V109H778V70.52Z"/><path class="cls-2" d="M840.65,89.34c0,13.22-8,20.23-17.85,20.23-10.14,0-17.27-7.86-17.27-19.49,0-12.2,7.58-20.18,17.84-20.18C833.86,69.9,840.65,77.94,840.65,89.34ZM810.83,90c0,8.21,4.45,15.57,12.26,15.57s12.31-7.24,12.31-16c0-7.64-4-15.62-12.26-15.62S810.83,81.53,810.83,90Z"/><path class="cls-2" d="M852,70.52V86.6h18.59V70.52h5V109h-5v-18H852v18h-5V70.52Z"/><path class="cls-2" d="M911.1,107.69A24.52,24.52,0,0,1,901,109.52c-10.83,0-19-6.84-19-19.44,0-12,8.15-20.18,20.06-20.18,4.79,0,7.81,1,9.12,1.71l-1.19,4a18,18,0,0,0-7.76-1.6c-9,0-15,5.76-15,15.85,0,9.4,5.42,15.45,14.77,15.45a19.8,19.8,0,0,0,8.09-1.6Z"/><path class="cls-2" d="M919.76,70.52l7.64,16.37c1,2.28,1.88,4.5,2.79,6.78h.11c.69-2,1.43-4.22,2.4-7l6-16.19h5.25l-8,19.73c-2.11,5.13-4.5,11-7.18,14.59-2.51,3.14-5.31,4.73-8.73,4.73a8.53,8.53,0,0,1-2.79-.34l.51-4a6.66,6.66,0,0,0,1.83.18c4-.06,6.33-3.88,7.52-6.62a2.29,2.29,0,0,0-.17-2.33L914.11,70.52Z"/><path class="cls-2" d="M972.37,70.52V109h-5V74.69H954.64V86.32c0,8.32-.34,17.61-5.76,21.26A11.55,11.55,0,0,1,943,109.4l-.63-4a8.69,8.69,0,0,0,4-2c3.08-3,3.37-10.49,3.37-16.65V70.52Z"/><path class="cls-2" d="M985.93,70.52V84.89a41.68,41.68,0,0,1,4.74-.28c7.86,0,14.82,3.47,14.82,12a11.6,11.6,0,0,1-3,8.21c-3.13,3.3-8.49,4.5-13.79,4.5a58,58,0,0,1-7.76-.46V70.52Zm0,34.61a20.93,20.93,0,0,0,4.11.28c5.53,0,10.26-2.68,10.26-8.55,0-6-4.85-8.32-10.32-8.32a32.56,32.56,0,0,0-4.05.28Z"/><path class="cls-2" d="M1015.23,74.74h-11.68V70.52H1032v4.22h-11.74V109h-5Z"/><path class="cls-2" d="M1040.94,70.52V86.71c0,6.1-.12,11.12-.46,16.25l.12.06c1.94-4,4.33-8.15,7.12-12.71l12.43-19.79h5V109h-4.67V92.59c0-6.22,0-10.78.45-15.62l-.17-.06a115.94,115.94,0,0,1-7.13,12.94l-12,19.1h-5.31V70.52Z"/><path class="cls-2" d="M1073.77,71a57.36,57.36,0,0,1,9.52-.74c4.9,0,8.49,1.14,10.77,3.19a10.35,10.35,0,0,1,3.37,8,11.31,11.31,0,0,1-3,8.21c-2.62,2.79-6.89,4.22-11.74,4.22a17.36,17.36,0,0,1-4-.34V109h-5Zm5,18.53a16.84,16.84,0,0,0,4.1.4c6,0,9.64-2.91,9.64-8.21,0-5.08-3.59-7.53-9.07-7.53a20.64,20.64,0,0,0-4.67.4Z"/><path class="cls-2" d="M1104.84,70.52l7.63,16.37c1,2.28,1.89,4.5,2.8,6.78h.11c.69-2,1.43-4.22,2.4-7l6-16.19H1129l-8,19.73c-2.11,5.13-4.51,11-7.18,14.59-2.51,3.14-5.31,4.73-8.73,4.73a8.53,8.53,0,0,1-2.79-.34l.51-4a6.66,6.66,0,0,0,1.83.18c4-.06,6.33-3.88,7.52-6.62a2.29,2.29,0,0,0-.17-2.33l-12.77-25.89Z"/><path class="cls-2" d="M1137.78,70.52V86.71c0,6.1-.11,11.12-.45,16.25l.11.06c1.94-4,4.33-8.15,7.13-12.71L1157,70.52h5V109h-4.67V92.59c0-6.22.06-10.78.45-15.62l-.17-.06a117.46,117.46,0,0,1-7.12,12.94l-12,19.1h-5.3V70.52Zm6.27-8c.23,1.76.8,3.53,3.48,3.53s3.25-1.65,3.48-3.53h3.82c-.29,3.76-2.57,6.1-7.41,6.1-4.68,0-6.9-2.34-7.19-6.1Z"/><path class="cls-2" d="M1177.91,74.74h-11.69V70.52h28.45v4.22h-11.74V109h-5Z"/><path class="cls-2" d="M1218.84,90.93H1203.9v13.86h16.65V109h-21.61V70.52h20.75v4.17H1203.9V86.83h14.94Z"/><path class="cls-2" d="M1253.84,107.69a24.52,24.52,0,0,1-10.15,1.83c-10.83,0-19-6.84-19-19.44,0-12,8.15-20.18,20.06-20.18,4.79,0,7.81,1,9.12,1.71l-1.19,4a18,18,0,0,0-7.76-1.6c-9,0-15,5.76-15,15.85,0,9.4,5.42,15.45,14.76,15.45a19.85,19.85,0,0,0,8.1-1.6Z"/><path class="cls-2" d="M1265,70.52V84.89a42,42,0,0,1,4.74-.28c7.86,0,14.82,3.47,14.82,12a11.6,11.6,0,0,1-3,8.21c-3.13,3.3-8.49,4.5-13.79,4.5a58,58,0,0,1-7.76-.46V70.52Zm0,34.61a21,21,0,0,0,4.11.28c5.53,0,10.26-2.68,10.26-8.55,0-6-4.84-8.32-10.32-8.32a32.56,32.56,0,0,0-4,.28Z"/><path class="cls-2" d="M1330,107.69a24.43,24.43,0,0,1-10.14,1.83c-10.84,0-19-6.84-19-19.44,0-12,8.15-20.18,20.07-20.18,4.79,0,7.81,1,9.12,1.71l-1.2,4a17.93,17.93,0,0,0-7.75-1.6c-9,0-15,5.76-15,15.85,0,9.4,5.41,15.45,14.76,15.45a19.88,19.88,0,0,0,8.1-1.6Z"/><path class="cls-2" d="M1368,89.34c0,13.22-8,20.23-17.84,20.23-10.15,0-17.28-7.86-17.28-19.49,0-12.2,7.58-20.18,17.85-20.18C1361.17,69.9,1368,77.94,1368,89.34Zm-29.82.62c0,8.21,4.45,15.57,12.26,15.57s12.31-7.24,12.31-16c0-7.64-4-15.62-12.25-15.62S1338.13,81.53,1338.13,90Z"/><path class="cls-2" d="M1413.32,107.69a24.48,24.48,0,0,1-10.15,1.83c-10.83,0-19-6.84-19-19.44,0-12,8.15-20.18,20.06-20.18,4.79,0,7.81,1,9.13,1.71l-1.2,4a17.93,17.93,0,0,0-7.75-1.6c-9,0-15,5.76-15,15.85,0,9.4,5.42,15.45,14.77,15.45a19.8,19.8,0,0,0,8.09-1.6Z"/><path class="cls-2" d="M1447.29,70.52V109h-5V74.69h-17.84V109h-5V70.52Z"/><path class="cls-2" d="M1475.85,90.93h-14.94v13.86h16.65V109H1456V70.52h20.75v4.17h-15.79V86.83h14.94Z"/><path class="cls-2" d="M1489,70.52v34.27h17.62V70.52h5V104.9l3.37.11-.34,13.17h-3.94l-.34-9.23H1484V70.52Z"/><path class="cls-2" d="M1525.83,70.52V86.71c0,6.1-.11,11.12-.45,16.25l.11.06c1.94-4,4.33-8.15,7.13-12.71L1545,70.52h5V109h-4.67V92.59c0-6.22.06-10.78.46-15.62l-.18-.06a117.46,117.46,0,0,1-7.12,12.94l-12,19.1h-5.3V70.52Z"/><path class="cls-2" d="M1564.88,96.86l-4,12.09h-5.13l13-38.43h6L1587.91,109h-5.3l-4.11-12.09Zm12.6-3.87-3.77-11.06c-.85-2.51-1.42-4.79-2-7h-.12c-.57,2.28-1.19,4.62-1.93,7L1565.9,93Z"/><path class="cls-2" d="M1620.74,70.52V109h-5V74.69H1603V86.32c0,8.32-.34,17.61-5.76,21.26a11.55,11.55,0,0,1-5.87,1.82l-.63-4a8.69,8.69,0,0,0,4-2c3.08-3,3.36-10.49,3.36-16.65V70.52Z"/><path class="cls-2" d="M1634,70.52V86.71c0,6.1-.12,11.12-.46,16.25l.11.06c1.94-4,4.34-8.15,7.13-12.71l12.43-19.79h5V109h-4.68V92.59c0-6.22.06-10.78.46-15.62l-.17-.06a117.58,117.58,0,0,1-7.13,12.94l-12,19.1h-5.3V70.52Z"/><path class="cls-2" d="M1693.7,107.69a24.48,24.48,0,0,1-10.15,1.83c-10.83,0-19-6.84-19-19.44,0-12,8.15-20.18,20.06-20.18,4.79,0,7.81,1,9.13,1.71l-1.2,4a17.93,17.93,0,0,0-7.75-1.6c-9,0-15,5.76-15,15.85,0,9.4,5.42,15.45,14.77,15.45a19.8,19.8,0,0,0,8.09-1.6Z"/><path class="cls-2" d="M1709.2,74.74h-11.69V70.52H1726v4.22h-11.74V109h-5Z"/><path class="cls-2" d="M1761.07,89.34c0,13.22-8,20.23-17.84,20.23-10.15,0-17.27-7.86-17.27-19.49,0-12.2,7.58-20.18,17.84-20.18C1754.29,69.9,1761.07,77.94,1761.07,89.34Zm-29.81.62c0,8.21,4.45,15.57,12.25,15.57s12.32-7.24,12.32-16c0-7.64-4-15.62-12.26-15.62S1731.26,81.53,1731.26,90Z"/><path class="cls-2" d="M1799.72,92.07c-.29-5.36-.63-11.8-.57-16.59H1799c-1.31,4.51-2.91,9.3-4.85,14.6l-6.78,18.64h-3.76l-6.22-18.3C1775.55,85,1774,80,1772.93,75.48h-.12c-.11,4.79-.4,11.23-.74,17L1771,109h-4.73L1769,70.52h6.33l6.56,18.59c1.59,4.73,2.9,9,3.87,12.94h.17c1-3.88,2.34-8.1,4-12.94l6.84-18.59h6.33l2.39,38.43h-4.84Z"/></svg>