<?xml version="1.0" encoding="utf-8"?>
<!-- Generator: Adobe Illustrator 19.1.0, SVG Export Plug-In . SVG Version: 6.00 Build 0)  -->
<svg version="1.1" id="Слой_1" xmlns="http://www.w3.org/2000/svg" xmlns:xlink="http://www.w3.org/1999/xlink" x="0px" y="0px"
	 viewBox="0 0 335 90" style="enable-background:new 0 0 335 90;" xml:space="preserve">
<style type="text/css">
	.st0{fill:#FFFFFF;}
</style>
<g>
	<path class="st0" d="M6.5,43.1V4H6.3l-4,39.2H1L1,2.4h0.6v39.2h0.2L5.8,2.4h1.3v40.7H6.5z"/>
	<path class="st0" d="M10.5,4L10.5,4l-0.1,39.2H9.8V2.4H11l3,32l3-32h1.3v40.7h-0.6V4h-0.1l-3,32.2h-0.9L10.5,4z"/>
	<path class="st0" d="M21,43.1V2.5l5.1-0.1V4L21.6,4v17.3h3.8v1.6h-3.8v18.7h4.5v1.6H21z"/>
	<path class="st0" d="M27.9,43.1V2.4h0.6v19.7h2.3v-7.5c0-1,0-1.9,0-2.9c0-1,0.1-2,0.1-2.9c0.1-0.9,0.2-1.8,0.3-2.6
		c0.1-0.8,0.3-1.5,0.5-2.1c0.2-0.6,0.5-1.1,0.8-1.4C33.1,2.2,33.5,2,34,2h0c0.5,0,0.9,0.2,1.3,0.5c0.3,0.4,0.6,0.9,0.9,1.5
		c0.2,0.6,0.4,1.3,0.5,2.2s0.2,1.7,0.3,2.6c0.1,0.9,0.1,1.9,0.1,2.9c0,1,0,1.9,0,2.8V31c0,1,0,1.9,0,2.9c0,1-0.1,2-0.1,2.9
		c-0.1,0.9-0.2,1.8-0.3,2.6c-0.1,0.8-0.3,1.5-0.5,2.1c-0.2,0.6-0.5,1.1-0.8,1.4c-0.3,0.4-0.7,0.5-1.2,0.5h0c-0.5,0-0.9-0.2-1.3-0.5
		c-0.3-0.4-0.6-0.9-0.9-1.5s-0.4-1.3-0.5-2.2c-0.1-0.8-0.2-1.7-0.3-2.6c-0.1-0.9-0.1-1.9-0.1-2.9c0-1,0-1.9,0-2.8v-7.3h-2.3v19.5
		H27.9z M34,41.9c0.5,0,1-0.3,1.3-0.8c0.3-0.6,0.6-1.3,0.7-2.3c0.2-1,0.3-2.1,0.3-3.5c0-1.3,0.1-2.8,0.1-4.4V14.6
		c0-1.5,0-2.9-0.1-4.2c0-1.3-0.1-2.5-0.3-3.5c-0.2-1-0.4-1.8-0.7-2.4S34.5,3.6,34,3.6h0c-0.5,0-1,0.3-1.3,0.8
		c-0.3,0.6-0.6,1.3-0.7,2.3c-0.2,1-0.3,2.1-0.3,3.5c0,1.3-0.1,2.8-0.1,4.4V31c0,1,0,2,0,2.9s0,1.8,0.1,2.6c0.1,0.8,0.1,1.6,0.2,2.2
		s0.2,1.2,0.4,1.7c0.2,0.5,0.4,0.9,0.7,1.1C33.3,41.8,33.6,41.9,34,41.9L34,41.9z"/>
	<path class="st0" d="M41.4,4v39.1h-0.6V4H38V2.5h6.3V4H41.4z"/>
	<path class="st0" d="M51,31.8v0.1c0,0.8,0,1.6,0,2.5c0,0.9-0.1,1.7-0.1,2.6c-0.1,0.9-0.2,1.7-0.3,2.5c-0.1,0.8-0.3,1.5-0.5,2.1
		s-0.5,1.1-0.8,1.4c-0.3,0.4-0.7,0.5-1.2,0.5h0c-0.5,0-0.9-0.2-1.3-0.5c-0.3-0.4-0.6-0.9-0.9-1.5s-0.4-1.3-0.5-2.2
		c-0.1-0.8-0.2-1.7-0.3-2.6c-0.1-0.9-0.1-1.9-0.1-2.9c0-1,0-1.9,0-2.8V14.6c0-1,0-1.9,0-2.9c0-1,0.1-2,0.1-2.9
		c0.1-0.9,0.2-1.8,0.3-2.6c0.1-0.8,0.3-1.5,0.5-2.1c0.2-0.6,0.5-1.1,0.8-1.4C47,2.2,47.4,2,47.9,2c0.5,0,0.9,0.2,1.3,0.5
		c0.3,0.4,0.6,0.9,0.9,1.5c0.2,0.6,0.4,1.3,0.5,2.1c0.1,0.8,0.2,1.6,0.3,2.5c0.1,0.8,0.1,1.7,0.1,2.6c0,0.9,0,1.7,0,2.4v0.2h-0.6
		v-0.2c0-1.4,0-2.6-0.1-3.9c0-1.2-0.2-2.3-0.3-3.2s-0.4-1.6-0.7-2.2c-0.3-0.5-0.7-0.8-1.3-0.8c-0.5,0-1,0.3-1.3,0.8
		c-0.3,0.6-0.6,1.3-0.7,2.3c-0.2,1-0.3,2.1-0.3,3.5c0,1.3-0.1,2.8-0.1,4.4V31c0,1,0,2,0,2.9s0,1.8,0.1,2.6c0.1,0.8,0.1,1.6,0.2,2.2
		s0.2,1.2,0.4,1.7c0.2,0.5,0.4,0.9,0.7,1.1c0.3,0.3,0.6,0.4,1,0.4c0.5,0,0.9-0.3,1.2-0.8c0.3-0.5,0.6-1.2,0.7-2.1
		c0.2-0.9,0.3-2,0.3-3.2c0.1-1.2,0.1-2.6,0.1-4v-0.1H51z"/>
	<path class="st0" d="M57,43.1V25.4H55c-0.2,0-0.4,0.2-0.7,0.5c-0.2,0.3-0.5,0.8-0.7,1.4c-0.2,0.6-0.4,1.4-0.6,2.3s-0.3,2-0.3,3.3
		l-0.3,6c0,0.8-0.1,1.5-0.1,2.2c-0.1,0.7-0.1,1.4-0.2,2h-0.7c0.1-0.6,0.2-1.3,0.3-2.1c0.1-0.8,0.1-1.5,0.2-2.2l0.3-6
		c0-1,0.1-1.8,0.2-2.6c0.1-0.8,0.2-1.5,0.3-2.1c0.1-0.6,0.3-1.2,0.5-1.7c0.2-0.5,0.4-1,0.7-1.4c-0.3-0.3-0.6-0.7-0.9-1.2
		c-0.3-0.5-0.5-1.2-0.7-1.9c-0.2-0.7-0.3-1.6-0.4-2.5c-0.1-0.9-0.1-1.9-0.1-2.9v-3.7c0-1.9,0.1-3.5,0.2-4.8c0.1-1.3,0.3-2.4,0.5-3.2
		C52.7,3.9,53,3.4,53.4,3c0.4-0.4,0.9-0.5,1.4-0.5h2.8v40.7H57z M52.4,16.5c0,1,0.1,2,0.2,2.9c0.1,0.9,0.3,1.7,0.5,2.3
		c0.2,0.7,0.5,1.2,0.8,1.6s0.6,0.6,1,0.6H57V4h-2.2c-0.2,0-0.4,0-0.6,0.1c-0.2,0.1-0.4,0.2-0.6,0.4c-0.2,0.2-0.3,0.5-0.5,0.9
		c-0.1,0.4-0.3,0.9-0.4,1.5s-0.2,1.4-0.2,2.4c-0.1,1-0.1,2.1-0.1,3.5V16.5z"/>
	<path class="st0" d="M64.6,43.1V2.4h5.9v40.7h-0.6V4h-4.6v39.2H64.6z"/>
	<path class="st0" d="M79.2,16.8c0,1.9-0.1,3.4-0.2,4.6s-0.3,2.2-0.6,2.9c-0.3,0.7-0.6,1.2-1,1.4s-0.8,0.4-1.4,0.4h-1.9v17h-0.6V2.4
		h2.7c0.5,0,0.9,0.2,1.2,0.5s0.7,0.8,0.9,1.5c0.3,0.7,0.4,1.7,0.6,2.9c0.1,1.2,0.2,2.6,0.2,4.4V16.8z M78.6,11.6
		c0-1.2,0-2.3-0.1-3.3c-0.1-0.9-0.2-1.7-0.4-2.4c-0.2-0.6-0.4-1.1-0.7-1.4s-0.6-0.5-1.1-0.5h-2.1v20.5h1.9c0.4,0,0.8-0.1,1.1-0.4
		c0.3-0.3,0.6-0.7,0.8-1.3c0.2-0.6,0.3-1.4,0.4-2.4c0.1-1,0.1-2.2,0.1-3.7V11.6z"/>
	<path class="st0" d="M84.3,2c0.5,0,0.9,0.2,1.3,0.5c0.3,0.4,0.6,0.9,0.9,1.5c0.2,0.6,0.4,1.3,0.5,2.2s0.2,1.7,0.3,2.6
		c0.1,0.9,0.1,1.9,0.1,2.9c0,1,0,1.9,0,2.8V31c0,1,0,1.9,0,2.9c0,1-0.1,2-0.1,2.9c-0.1,0.9-0.2,1.8-0.3,2.6s-0.3,1.5-0.5,2.1
		c-0.2,0.6-0.5,1.1-0.8,1.4c-0.3,0.4-0.7,0.5-1.2,0.5h0c-0.5,0-0.9-0.2-1.3-0.5c-0.3-0.4-0.6-0.9-0.9-1.5s-0.4-1.3-0.5-2.2
		c-0.1-0.8-0.2-1.7-0.3-2.6c-0.1-0.9-0.1-1.9-0.1-2.9c0-1,0-1.9,0-2.8V14.6c0-1,0-1.9,0-2.9c0-1,0.1-2,0.1-2.9
		c0.1-0.9,0.2-1.8,0.3-2.6C81.8,5.3,82,4.6,82.3,4c0.2-0.6,0.5-1.1,0.8-1.4S83.8,2,84.3,2L84.3,2z M84.3,3.6c-0.5,0-1,0.3-1.3,0.8
		c-0.3,0.6-0.6,1.3-0.7,2.3c-0.2,1-0.3,2.1-0.3,3.5c0,1.3-0.1,2.8-0.1,4.4V31c0,1,0,2,0,2.9c0,0.9,0,1.8,0.1,2.6
		c0.1,0.8,0.1,1.6,0.2,2.2c0.1,0.7,0.2,1.2,0.4,1.7s0.4,0.9,0.7,1.1c0.3,0.3,0.6,0.4,1,0.4h0c0.5,0,1-0.3,1.3-0.8
		c0.3-0.6,0.6-1.3,0.7-2.3c0.2-1,0.3-2.1,0.3-3.5c0-1.3,0.1-2.8,0.1-4.4V14.6c0-1.5,0-2.9-0.1-4.2c0-1.3-0.1-2.5-0.3-3.5
		c-0.2-1-0.4-1.8-0.7-2.4C85.4,3.9,84.9,3.6,84.3,3.6L84.3,3.6z"/>
	<path class="st0" d="M91.5,4v39.1h-0.6V4H88V2.5h6.3V4H91.5z"/>
	<path class="st0" d="M101.4,43.1V4h-0.2l-4,39.2h-1.4l0.1-40.7h0.6v39.2h0.2l3.9-39.2h1.3v40.7H101.4z"/>
	<path class="st0" d="M110.4,32.8c0,1.9-0.1,3.6-0.2,4.9c-0.1,1.3-0.3,2.4-0.5,3.2s-0.5,1.4-0.9,1.7c-0.4,0.4-0.9,0.5-1.4,0.5h-2.8
		V2.4h2.8c0.4,0,0.7,0.1,1.1,0.4s0.6,0.8,0.9,1.5c0.2,0.7,0.4,1.6,0.6,2.7s0.2,2.5,0.2,4.2V14c0,1,0,1.9-0.1,2.8
		c-0.1,0.9-0.2,1.7-0.3,2.4c-0.1,0.7-0.3,1.3-0.5,1.8c-0.2,0.5-0.5,0.8-0.8,1.1c0.3,0.2,0.6,0.5,0.8,1c0.3,0.5,0.5,1.1,0.6,1.8
		c0.2,0.7,0.3,1.5,0.4,2.5s0.1,1.9,0.1,2.9V32.8z M109.5,11.2c0-0.9,0-1.8-0.1-2.7s-0.2-1.7-0.4-2.3c-0.2-0.7-0.4-1.2-0.6-1.6
		c-0.3-0.4-0.6-0.6-1-0.6h-2.1v17.3h2c0.4,0,0.8-0.2,1-0.5c0.3-0.3,0.5-0.8,0.7-1.4c0.2-0.6,0.3-1.4,0.4-2.3
		c0.1-0.9,0.1-1.9,0.1-3.1V11.2z M109.8,30.2c0-1-0.1-2-0.2-2.9c-0.1-0.9-0.3-1.7-0.5-2.3c-0.2-0.7-0.5-1.2-0.8-1.6
		c-0.3-0.4-0.6-0.6-1-0.6h-2.1v18.7h2.2c0.2,0,0.4,0,0.6-0.1s0.4-0.2,0.6-0.4c0.2-0.2,0.3-0.5,0.5-0.9c0.1-0.4,0.3-0.9,0.4-1.5
		c0.1-0.6,0.2-1.4,0.2-2.4c0.1-1,0.1-2.1,0.1-3.5V30.2z"/>
	<path class="st0" d="M115.5,2c0.5,0,0.9,0.2,1.3,0.5c0.3,0.4,0.6,0.9,0.9,1.5c0.2,0.6,0.4,1.3,0.5,2.2s0.2,1.7,0.3,2.6
		c0.1,0.9,0.1,1.9,0.1,2.9c0,1,0,1.9,0,2.8V31c0,1,0,1.9,0,2.9c0,1-0.1,2-0.1,2.9c-0.1,0.9-0.2,1.8-0.3,2.6s-0.3,1.5-0.5,2.1
		c-0.2,0.6-0.5,1.1-0.8,1.4c-0.3,0.4-0.7,0.5-1.2,0.5h0c-0.5,0-0.9-0.2-1.3-0.5c-0.3-0.4-0.6-0.9-0.9-1.5s-0.4-1.3-0.5-2.2
		c-0.1-0.8-0.2-1.7-0.3-2.6c-0.1-0.9-0.1-1.9-0.1-2.9c0-1,0-1.9,0-2.8V14.6c0-1,0-1.9,0-2.9c0-1,0.1-2,0.1-2.9
		c0.1-0.9,0.2-1.8,0.3-2.6c0.1-0.8,0.3-1.5,0.5-2.1c0.2-0.6,0.5-1.1,0.8-1.4S115,2,115.5,2L115.5,2z M115.5,3.6
		c-0.5,0-1,0.3-1.3,0.8c-0.3,0.6-0.6,1.3-0.7,2.3c-0.2,1-0.3,2.1-0.3,3.5c0,1.3-0.1,2.8-0.1,4.4V31c0,1,0,2,0,2.9
		c0,0.9,0,1.8,0.1,2.6c0.1,0.8,0.1,1.6,0.2,2.2c0.1,0.7,0.2,1.2,0.4,1.7s0.4,0.9,0.7,1.1c0.3,0.3,0.6,0.4,1,0.4h0
		c0.5,0,1-0.3,1.3-0.8c0.3-0.6,0.6-1.3,0.7-2.3c0.2-1,0.3-2.1,0.3-3.5c0-1.3,0.1-2.8,0.1-4.4V14.6c0-1.5,0-2.9-0.1-4.2
		c0-1.3-0.1-2.5-0.3-3.5c-0.2-1-0.4-1.8-0.7-2.4C116.5,3.9,116,3.6,115.5,3.6L115.5,3.6z"/>
	<path class="st0" d="M121,43.1V2.4h5.9v40.7h-0.6V4h-4.6v39.2H121z"/>
	<path class="st0" d="M132.4,2c0.5,0,0.9,0.2,1.3,0.5c0.3,0.4,0.6,0.9,0.9,1.5c0.2,0.6,0.4,1.3,0.5,2.2s0.2,1.7,0.3,2.6
		c0.1,0.9,0.1,1.9,0.1,2.9c0,1,0,1.9,0,2.8V31c0,1,0,1.9,0,2.9c0,1-0.1,2-0.1,2.9c-0.1,0.9-0.2,1.8-0.3,2.6s-0.3,1.5-0.5,2.1
		c-0.2,0.6-0.5,1.1-0.8,1.4c-0.3,0.4-0.7,0.5-1.2,0.5h0c-0.5,0-0.9-0.2-1.3-0.5c-0.3-0.4-0.6-0.9-0.9-1.5s-0.4-1.3-0.5-2.2
		c-0.1-0.8-0.2-1.7-0.3-2.6c-0.1-0.9-0.1-1.9-0.1-2.9c0-1,0-1.9,0-2.8V14.6c0-1,0-1.9,0-2.9c0-1,0.1-2,0.1-2.9
		c0.1-0.9,0.2-1.8,0.3-2.6c0.1-0.8,0.3-1.5,0.5-2.1c0.2-0.6,0.5-1.1,0.8-1.4S131.9,2,132.4,2L132.4,2z M132.4,3.6
		c-0.5,0-1,0.3-1.3,0.8c-0.3,0.6-0.6,1.3-0.7,2.3c-0.2,1-0.3,2.1-0.3,3.5c0,1.3-0.1,2.8-0.1,4.4V31c0,1,0,2,0,2.9
		c0,0.9,0,1.8,0.1,2.6c0.1,0.8,0.1,1.6,0.2,2.2c0.1,0.7,0.2,1.2,0.4,1.7s0.4,0.9,0.7,1.1c0.3,0.3,0.6,0.4,1,0.4h0
		c0.5,0,1-0.3,1.3-0.8c0.3-0.6,0.6-1.3,0.7-2.3c0.2-1,0.3-2.1,0.3-3.5c0-1.3,0.1-2.8,0.1-4.4V14.6c0-1.5,0-2.9-0.1-4.2
		c0-1.3-0.1-2.5-0.3-3.5c-0.2-1-0.4-1.8-0.7-2.4C133.4,3.9,133,3.6,132.4,3.6L132.4,3.6z"/>
	<path class="st0" d="M137.9,43.1V2.4h0.6v19.5h1.5l3.2-19.4h0.7l-3.4,20.1l3.7,20.6h-0.7l-3.6-19.7h-1.6v19.7H137.9z"/>
	<path class="st0" d="M151,43.1l-0.8-10.9h-4.3l-0.8,10.9h-0.7l3-40.7h1.2l3,40.7H151z M146,30.6h4.1l-2-26.6H148L146,30.6z"/>
	<path class="st0" d="M158.9,31.1c0,2.3,0,4.2-0.1,5.8s-0.2,2.9-0.5,3.8s-0.5,1.7-0.9,2.1c-0.4,0.4-0.9,0.7-1.4,0.7
		c-0.5,0-0.9-0.2-1.3-0.7c-0.4-0.5-0.7-1.1-0.9-2c-0.2-0.9-0.4-1.9-0.5-3.1c-0.1-1.2-0.2-2.6-0.2-4.1v-1.8h0.6v3
		c0,1.1,0.1,2,0.2,2.9c0.1,0.9,0.3,1.6,0.4,2.3c0.2,0.6,0.4,1.1,0.7,1.4s0.6,0.5,0.9,0.5c0.4,0,0.7-0.1,1-0.4
		c0.3-0.3,0.5-0.7,0.7-1.4c0.2-0.7,0.3-1.6,0.4-2.9c0.1-1.2,0.1-2.8,0.1-4.7v-2.9c0-1.6-0.1-2.8-0.2-3.7c-0.1-0.9-0.3-1.6-0.5-2.1
		c-0.2-0.5-0.4-0.8-0.7-0.9c-0.3-0.1-0.6-0.2-0.8-0.2h-0.8v-1.6h0.8c0.3,0,0.6-0.1,0.8-0.3c0.3-0.2,0.5-0.6,0.7-1.1
		c0.2-0.5,0.4-1.2,0.5-2.1c0.1-0.9,0.2-1.9,0.2-3.2v-2.2c0-1.6,0-2.9-0.1-4c-0.1-1.1-0.2-2-0.4-2.7s-0.4-1.2-0.7-1.5
		c-0.3-0.3-0.6-0.5-1-0.5c-0.4,0-0.7,0.2-1,0.5c-0.3,0.3-0.5,0.8-0.7,1.4S153.9,7,153.8,8c-0.1,1-0.1,2.3-0.1,3.8v2h-0.6v-1.9
		c0-1.4,0-2.6,0.1-3.8c0.1-1.2,0.2-2.2,0.4-3.1c0.2-0.9,0.5-1.6,0.9-2.1c0.4-0.5,0.9-0.8,1.5-0.8c0.5,0,0.9,0.2,1.3,0.6
		c0.4,0.4,0.7,1,0.9,1.8s0.4,1.9,0.5,3.3c0.1,1.3,0.2,3,0.2,4.9c0,1.6,0,3-0.1,4.1c-0.1,1.1-0.2,2.1-0.3,2.8s-0.3,1.3-0.5,1.7
		c-0.2,0.4-0.4,0.7-0.7,0.9c0.3,0.1,0.5,0.2,0.8,0.6c0.2,0.3,0.4,0.8,0.5,1.5c0.1,0.7,0.3,1.6,0.3,2.7
		C158.8,28.1,158.9,29.4,158.9,31.1z"/>
	<path class="st0" d="M166.7,43.1l-0.8-10.9h-4.3l-0.8,10.9h-0.7l3-40.7h1.2l3,40.7H166.7z M161.8,30.6h4.1l-2-26.6h-0.1L161.8,30.6
		z"/>
	<path class="st0" d="M169,43.1V2.4h0.6v19.5h4.6V2.4h0.6v40.7h-0.6V23.4h-4.6v19.7H169z"/>
	<path class="st0" d="M183.2,43.1V4H183l-4,39.2h-1.4l0.1-40.7h0.6v39.2h0.2l3.9-39.2h1.3v40.7H183.2z"/>
	<path class="st0" d="M190.3,43.1V25.4h-1.9c-0.2,0-0.4,0.2-0.7,0.5c-0.2,0.3-0.5,0.8-0.7,1.4c-0.2,0.6-0.4,1.4-0.6,2.3
		s-0.3,2-0.3,3.3l-0.3,6c0,0.8-0.1,1.5-0.1,2.2c-0.1,0.7-0.1,1.4-0.2,2h-0.7c0.1-0.6,0.2-1.3,0.3-2.1c0.1-0.8,0.1-1.5,0.2-2.2l0.3-6
		c0-1,0.1-1.8,0.2-2.6c0.1-0.8,0.2-1.5,0.3-2.1c0.1-0.6,0.3-1.2,0.5-1.7c0.2-0.5,0.4-1,0.7-1.4c-0.3-0.3-0.6-0.7-0.9-1.2
		c-0.3-0.5-0.5-1.2-0.7-1.9c-0.2-0.7-0.3-1.6-0.4-2.5c-0.1-0.9-0.1-1.9-0.1-2.9v-3.7c0-1.9,0.1-3.5,0.2-4.8c0.1-1.3,0.3-2.4,0.5-3.2
		c0.2-0.8,0.6-1.4,0.9-1.8c0.4-0.4,0.9-0.5,1.4-0.5h2.8v40.7H190.3z M185.7,16.5c0,1,0.1,2,0.2,2.9c0.1,0.9,0.3,1.7,0.5,2.3
		c0.2,0.7,0.5,1.2,0.8,1.6s0.6,0.6,1,0.6h2.1V4h-2.2c-0.2,0-0.4,0-0.6,0.1c-0.2,0.1-0.4,0.2-0.6,0.4c-0.2,0.2-0.3,0.5-0.5,0.9
		c-0.1,0.4-0.3,0.9-0.4,1.5s-0.2,1.4-0.2,2.4c-0.1,1-0.1,2.1-0.1,3.5V16.5z"/>
	<path class="st0" d="M197.9,43.1V2.4h5.9v40.7h-0.6V4h-4.6v39.2H197.9z"/>
	<path class="st0" d="M206.7,43.1V2.5l5.1-0.1V4L207.3,4v17.3h3.8v1.6h-3.8v18.7h4.5v1.6H206.7z"/>
	<path class="st0" d="M219.3,16.8c0,1.9-0.1,3.4-0.2,4.6s-0.3,2.2-0.6,2.9c-0.3,0.7-0.6,1.2-1,1.4s-0.8,0.4-1.4,0.4h-1.9v17h-0.6
		V2.4h2.7c0.5,0,0.9,0.2,1.2,0.5s0.7,0.8,0.9,1.5c0.3,0.7,0.4,1.7,0.6,2.9c0.1,1.2,0.2,2.6,0.2,4.4V16.8z M218.7,11.6
		c0-1.2,0-2.3-0.1-3.3c-0.1-0.9-0.2-1.7-0.4-2.4c-0.2-0.6-0.4-1.1-0.7-1.4s-0.6-0.5-1.1-0.5h-2.1v20.5h1.9c0.4,0,0.8-0.1,1.1-0.4
		c0.3-0.3,0.6-0.7,0.8-1.3c0.2-0.6,0.3-1.4,0.4-2.4c0.1-1,0.1-2.2,0.1-3.7V11.6z"/>
	<path class="st0" d="M221.8,43.1V2.5l5.1-0.1V4L222.4,4v17.3h3.8v1.6h-3.8v18.7h4.5v1.6H221.8z"/>
	<path class="st0" d="M235.1,2.4v39.1h1.1v6.3h-0.6v-4.7h-7.3v4.7h-0.6v-6.3h0c0.3,0,0.5-0.4,0.7-1.2c0.2-0.8,0.4-1.8,0.5-3
		s0.3-2.7,0.4-4.3c0.1-1.6,0.2-3.3,0.2-5c0.1-1.7,0.1-3.4,0.1-5.1c0-1.7,0-3.2,0-4.5V2.4H235.1z M230.2,18.4c0,2.4,0,4.8-0.1,7.2
		c-0.1,2.4-0.1,4.6-0.3,6.6c-0.1,2.1-0.3,3.9-0.4,5.5c-0.2,1.6-0.4,2.9-0.7,3.8h5.6V4h-4.2V18.4z"/>
	<path class="st0" d="M241.9,43.1V2.4h5.9v40.7h-0.6V4h-4.6v39.2H241.9z"/>
	<path class="st0" d="M256.4,16.8c0,1.9-0.1,3.4-0.2,4.6s-0.3,2.2-0.6,2.9c-0.3,0.7-0.6,1.2-1,1.4s-0.8,0.4-1.4,0.4h-1.9v17h-0.6
		V2.4h2.7c0.5,0,0.9,0.2,1.2,0.5s0.7,0.8,0.9,1.5c0.3,0.7,0.4,1.7,0.6,2.9c0.1,1.2,0.2,2.6,0.2,4.4V16.8z M255.8,11.6
		c0-1.2,0-2.3-0.1-3.3c-0.1-0.9-0.2-1.7-0.4-2.4c-0.2-0.6-0.4-1.1-0.7-1.4s-0.6-0.5-1.1-0.5h-2.1v20.5h1.9c0.4,0,0.8-0.1,1.1-0.4
		c0.3-0.3,0.6-0.7,0.8-1.3c0.2-0.6,0.3-1.4,0.4-2.4c0.1-1,0.1-2.2,0.1-3.7V11.6z"/>
	<path class="st0" d="M264.5,43.1V4h-0.2l-4,39.2H259L259,2.4h0.6v39.2h0.2l3.9-39.2h1.3v40.7H264.5z"/>
	<path class="st0" d="M268.5,4L268.5,4l-0.1,39.2h-0.6V2.4h1.2l3,32l3-32h1.3v40.7h-0.6V4h-0.1l-3,32.2h-0.9L268.5,4z"/>
	<path class="st0" d="M278.9,43.1V2.5l5.1-0.1V4L279.6,4v17.3h3.8v1.6h-3.8v18.7h4.5v1.6H278.9z"/>
	<path class="st0" d="M285.9,43.1V2.4h0.6v19.5h4.6V2.4h0.6v40.7h-0.6V23.4h-4.6v19.7H285.9z"/>
	<path class="st0" d="M294.5,43.1V2.5l5.1-0.1V4L295.2,4v17.3h3.8v1.6h-3.8v18.7h4.5v1.6H294.5z"/>
	<path class="st0" d="M301.5,43.1V2.4h0.6v19.5h4.6V2.4h0.6v40.7h-0.6V23.4h-4.6v19.7H301.5z"/>
	<path class="st0" d="M315.7,43.1V4h-0.2l-4,39.2h-1.4l0.1-40.7h0.6v39.2h0.2L315,2.4h1.3v40.7H315.7z"/>
	<path class="st0" d="M318.9,43.1V2.5l5.1-0.1V4L319.5,4v17.3h3.8v1.6h-3.8v18.7h4.5v1.6H318.9z"/>
	<path class="st0" d="M326.5,4L326.5,4l-0.1,39.2h-0.6V2.4h1.2l3,32l3-32h1.3v40.7h-0.6V4h-0.1l-3,32.2h-0.9L326.5,4z"/>
	<path class="st0" d="M2.2,50.3c0.3,0,0.6,0.2,0.8,0.5c0.2,0.3,0.4,0.7,0.6,1.3c0.1,0.5,0.3,1.2,0.3,1.9s0.1,1.5,0.2,2.3
		c0,0.8,0.1,1.6,0.1,2.5c0,0.8,0,1.7,0,2.5v14.3c0,0.8,0,1.7,0,2.6c0,0.9,0,1.7-0.1,2.5c0,0.8-0.1,1.6-0.2,2.3
		c-0.1,0.7-0.2,1.3-0.3,1.9C3.4,85.3,3.2,85.7,3,86c-0.2,0.3-0.5,0.5-0.8,0.5h0c-0.3,0-0.6-0.2-0.8-0.5c-0.2-0.3-0.4-0.7-0.6-1.3
		c-0.1-0.5-0.3-1.2-0.3-1.9s-0.1-1.5-0.2-2.3c0-0.8-0.1-1.6-0.1-2.5c0-0.8,0-1.7,0-2.5V61.3c0-0.8,0-1.7,0-2.6c0-0.9,0-1.7,0.1-2.5
		c0-0.8,0.1-1.6,0.2-2.3c0.1-0.7,0.2-1.3,0.3-1.9c0.1-0.5,0.3-0.9,0.6-1.3S1.8,50.3,2.2,50.3L2.2,50.3z M2.2,51.7
		c-0.4,0-0.6,0.2-0.8,0.7c-0.2,0.5-0.4,1.2-0.5,2c-0.1,0.9-0.2,1.9-0.2,3c0,1.2,0,2.5,0,3.8v14.2c0,0.9,0,1.7,0,2.5
		c0,0.8,0,1.6,0.1,2.3c0,0.7,0.1,1.4,0.2,1.9c0.1,0.6,0.2,1.1,0.3,1.5c0.1,0.4,0.3,0.7,0.4,1s0.4,0.4,0.6,0.4h0
		c0.4,0,0.6-0.2,0.8-0.7c0.2-0.5,0.4-1.2,0.5-2s0.2-1.9,0.2-3c0-1.2,0-2.5,0-3.8V61.3c0-1.3,0-2.5,0-3.7c0-1.2-0.1-2.2-0.2-3
		C3.4,53.7,3.3,53,3,52.5C2.8,52,2.5,51.7,2.2,51.7L2.2,51.7z"/>
	<path class="st0" d="M9.5,75.6c0,2,0,3.7-0.1,5.1S9.2,83.2,9.1,84c-0.1,0.9-0.3,1.5-0.6,1.9c-0.2,0.4-0.6,0.6-0.9,0.6
		c-0.3,0-0.6-0.2-0.9-0.6c-0.2-0.4-0.4-1-0.6-1.7c-0.1-0.7-0.3-1.7-0.3-2.7c-0.1-1.1-0.1-2.3-0.1-3.6v-1.5h0.4v2.6
		c0,0.9,0,1.8,0.1,2.5c0.1,0.8,0.2,1.4,0.3,2c0.1,0.5,0.3,1,0.5,1.3c0.2,0.3,0.4,0.4,0.6,0.4c0.2,0,0.5-0.1,0.6-0.3
		c0.2-0.2,0.3-0.6,0.5-1.2s0.2-1.4,0.3-2.5C9,80,9,78.6,9,77v-2.5c0-1.4,0-2.5-0.1-3.2c-0.1-0.8-0.2-1.4-0.3-1.8
		c-0.1-0.4-0.3-0.7-0.5-0.8c-0.2-0.1-0.4-0.2-0.5-0.2H7.1v-1.4h0.5c0.2,0,0.4-0.1,0.5-0.3c0.2-0.2,0.3-0.5,0.5-1
		c0.1-0.5,0.2-1.1,0.3-1.8C8.9,63.3,9,62.3,9,61.2v-1.9c0-1.4,0-2.6-0.1-3.5c-0.1-1-0.1-1.8-0.3-2.4c-0.1-0.6-0.3-1-0.5-1.3
		c-0.2-0.3-0.4-0.4-0.7-0.4c-0.3,0-0.5,0.1-0.7,0.4c-0.2,0.3-0.3,0.7-0.4,1.2c-0.1,0.6-0.2,1.3-0.3,2.2c-0.1,0.9-0.1,2-0.1,3.3v1.7
		H5.7v-1.7c0-1.2,0-2.3,0.1-3.3c0-1,0.1-1.9,0.3-2.7c0.1-0.8,0.3-1.4,0.6-1.8c0.2-0.5,0.6-0.7,0.9-0.7c0.3,0,0.6,0.2,0.8,0.5
		c0.2,0.3,0.4,0.9,0.6,1.6c0.2,0.7,0.3,1.7,0.3,2.9c0.1,1.2,0.1,2.6,0.1,4.2c0,1.4,0,2.6-0.1,3.6c-0.1,1-0.1,1.8-0.2,2.5
		c-0.1,0.7-0.2,1.2-0.3,1.5c-0.1,0.4-0.3,0.6-0.4,0.7c0.2,0,0.4,0.2,0.5,0.5s0.3,0.7,0.4,1.3s0.2,1.4,0.2,2.4S9.5,74.2,9.5,75.6z"/>
	<path class="st0" d="M11.2,86.1V50.7h0.4v16.9h3V50.7h0.4v35.5h-0.4V69h-3v17.2H11.2z"/>
	<path class="st0" d="M20.3,86.1l-0.5-9.5H17l-0.5,9.5H16l2-35.5h0.8l2,35.5H20.3z M17.1,75.2h2.7L18.4,52h-0.1L17.1,75.2z"/>
	<path class="st0" d="M21.8,86.1V50.7h0.4v16.9h1l2.1-16.9h0.5l-2.2,17.5L26,86.1h-0.5L23.2,69h-1v17.2H21.8z"/>
	<path class="st0" d="M28.6,50.3c0.3,0,0.6,0.2,0.8,0.5c0.2,0.3,0.4,0.7,0.6,1.3c0.1,0.5,0.3,1.2,0.3,1.9s0.1,1.5,0.2,2.3
		c0,0.8,0.1,1.6,0.1,2.5c0,0.8,0,1.7,0,2.5v14.3c0,0.8,0,1.7,0,2.6c0,0.9,0,1.7-0.1,2.5c0,0.8-0.1,1.6-0.2,2.3
		c-0.1,0.7-0.2,1.3-0.3,1.9c-0.1,0.5-0.3,0.9-0.6,1.3c-0.2,0.3-0.5,0.5-0.8,0.5h0c-0.3,0-0.6-0.2-0.8-0.5c-0.2-0.3-0.4-0.7-0.6-1.3
		c-0.1-0.5-0.3-1.2-0.3-1.9s-0.1-1.5-0.2-2.3c0-0.8-0.1-1.6-0.1-2.5c0-0.8,0-1.7,0-2.5V61.3c0-0.8,0-1.7,0-2.6c0-0.9,0-1.7,0.1-2.5
		c0-0.8,0.1-1.6,0.2-2.3c0.1-0.7,0.2-1.3,0.3-1.9c0.1-0.5,0.3-0.9,0.6-1.3S28.3,50.3,28.6,50.3L28.6,50.3z M28.6,51.7
		c-0.4,0-0.6,0.2-0.8,0.7c-0.2,0.5-0.4,1.2-0.5,2c-0.1,0.9-0.2,1.9-0.2,3c0,1.2,0,2.5,0,3.8v14.2c0,0.9,0,1.7,0,2.5
		c0,0.8,0,1.6,0.1,2.3c0,0.7,0.1,1.4,0.2,1.9c0.1,0.6,0.2,1.1,0.3,1.5c0.1,0.4,0.3,0.7,0.4,1s0.4,0.4,0.6,0.4h0
		c0.4,0,0.6-0.2,0.8-0.7c0.2-0.5,0.4-1.2,0.5-2s0.2-1.9,0.2-3c0-1.2,0-2.5,0-3.8V61.3c0-1.3,0-2.5,0-3.7c0-1.2-0.1-2.2-0.2-3
		c-0.1-0.9-0.3-1.6-0.5-2.1C29.3,52,29,51.7,28.6,51.7L28.6,51.7z"/>
	<path class="st0" d="M32.7,52L32.7,52l-0.1,34.1h-0.4V50.7h0.8L35,78.5l1.9-27.9h0.8v35.5h-0.4V52h-0.1l-2,28.1h-0.6L32.7,52z"/>
	<path class="st0" d="M43.4,78.1c0,1.5,0,2.8-0.1,3.8c-0.1,1-0.2,1.8-0.4,2.5c-0.2,0.6-0.4,1.1-0.6,1.3c-0.2,0.3-0.5,0.4-0.8,0.4
		h-1.8V50.7h0.4v14.8h1.3c0.3,0,0.6,0.1,0.9,0.4s0.5,0.7,0.6,1.3c0.2,0.6,0.3,1.4,0.4,2.5c0.1,1.1,0.1,2.4,0.1,4V78.1z M43,73.6
		c0-1.3,0-2.3-0.1-3.2s-0.2-1.6-0.3-2.1c-0.1-0.5-0.3-0.9-0.5-1.1c-0.2-0.2-0.5-0.3-0.7-0.3h-1.3v17.8h1.4c0.3,0,0.5-0.1,0.7-0.4
		c0.2-0.3,0.3-0.7,0.5-1.3c0.1-0.6,0.2-1.2,0.3-2.1c0.1-0.8,0.1-1.8,0.1-2.8V73.6z"/>
	<path class="st0" d="M46.5,52.1v34.1h-0.4V52.1h-1.8v-1.4h4.1v1.4H46.5z"/>
	<path class="st0" d="M49.3,86.1V50.7l3.3,0V52l-2.9,0v15h2.5v1.4h-2.5v16.3h2.9v1.4H49.3z"/>
	<path class="st0" d="M57.5,76.2v0.1c0,0.7,0,1.4,0,2.2c0,0.8,0,1.5-0.1,2.3c0,0.8-0.1,1.5-0.2,2.1c-0.1,0.7-0.2,1.3-0.3,1.8
		c-0.1,0.5-0.3,0.9-0.6,1.2c-0.2,0.3-0.5,0.5-0.8,0.5h0c-0.3,0-0.6-0.2-0.8-0.5c-0.2-0.3-0.4-0.8-0.6-1.3s-0.3-1.2-0.3-1.9
		c-0.1-0.7-0.1-1.5-0.2-2.3c0-0.8-0.1-1.6-0.1-2.5c0-0.8,0-1.7,0-2.5V61.3c0-0.8,0-1.7,0-2.6s0-1.7,0.1-2.5c0-0.8,0.1-1.6,0.2-2.3
		c0.1-0.7,0.2-1.3,0.3-1.9c0.1-0.5,0.3-0.9,0.6-1.3s0.5-0.5,0.8-0.5c0.3,0,0.6,0.2,0.8,0.5c0.2,0.3,0.4,0.7,0.6,1.3
		c0.1,0.5,0.3,1.2,0.3,1.8c0.1,0.7,0.1,1.4,0.2,2.1s0.1,1.5,0.1,2.2c0,0.8,0,1.5,0,2.1v0.1h-0.4v-0.1c0-1.2,0-2.3,0-3.4
		c0-1.1-0.1-2-0.2-2.8c-0.1-0.8-0.3-1.4-0.5-1.9s-0.5-0.7-0.8-0.7c-0.4,0-0.6,0.2-0.8,0.7c-0.2,0.5-0.4,1.2-0.5,2
		c-0.1,0.9-0.2,1.9-0.2,3s0,2.5,0,3.8v14.2c0,0.9,0,1.7,0,2.5c0,0.8,0,1.6,0.1,2.3c0,0.7,0.1,1.4,0.2,1.9c0.1,0.6,0.2,1.1,0.3,1.5
		c0.1,0.4,0.3,0.7,0.4,1s0.4,0.4,0.6,0.4c0.3,0,0.6-0.2,0.8-0.7c0.2-0.4,0.4-1,0.5-1.8c0.1-0.8,0.2-1.7,0.2-2.8
		c0-1.1,0.1-2.2,0.1-3.5v-0.1H57.5z"/>
	<path class="st0" d="M62.7,78.1c0,1.5,0,2.8-0.1,3.8c-0.1,1-0.2,1.8-0.4,2.5c-0.2,0.6-0.4,1.1-0.6,1.3c-0.2,0.3-0.5,0.4-0.8,0.4H59
		V50.7h0.4v14.8h1.3c0.3,0,0.6,0.1,0.9,0.4s0.5,0.7,0.6,1.3c0.2,0.6,0.3,1.4,0.4,2.5c0.1,1.1,0.1,2.4,0.1,4V78.1z M62.3,73.6
		c0-1.3,0-2.3-0.1-3.2s-0.2-1.6-0.3-2.1c-0.1-0.5-0.3-0.9-0.5-1.1c-0.2-0.2-0.5-0.3-0.7-0.3h-1.3v17.8h1.4c0.3,0,0.5-0.1,0.7-0.4
		c0.2-0.3,0.3-0.7,0.5-1.3c0.1-0.6,0.2-1.2,0.3-2.1c0.1-0.8,0.1-1.8,0.1-2.8V73.6z"/>
	<path class="st0" d="M70.7,76.2v0.1c0,0.7,0,1.4,0,2.2c0,0.8,0,1.5-0.1,2.3c0,0.8-0.1,1.5-0.2,2.1c-0.1,0.7-0.2,1.3-0.3,1.8
		c-0.1,0.5-0.3,0.9-0.6,1.2c-0.2,0.3-0.5,0.5-0.8,0.5h0c-0.3,0-0.6-0.2-0.8-0.5c-0.2-0.3-0.4-0.8-0.6-1.3s-0.3-1.2-0.3-1.9
		c-0.1-0.7-0.1-1.5-0.2-2.3c0-0.8-0.1-1.6-0.1-2.5c0-0.8,0-1.7,0-2.5V61.3c0-0.8,0-1.7,0-2.6s0-1.7,0.1-2.5c0-0.8,0.1-1.6,0.2-2.3
		c0.1-0.7,0.2-1.3,0.3-1.9c0.1-0.5,0.3-0.9,0.6-1.3s0.5-0.5,0.8-0.5c0.3,0,0.6,0.2,0.8,0.5c0.2,0.3,0.4,0.7,0.6,1.3
		c0.1,0.5,0.3,1.2,0.3,1.8c0.1,0.7,0.1,1.4,0.2,2.1s0.1,1.5,0.1,2.2c0,0.8,0,1.5,0,2.1v0.1h-0.4v-0.1c0-1.2,0-2.3,0-3.4
		c0-1.1-0.1-2-0.2-2.8c-0.1-0.8-0.3-1.4-0.5-1.9s-0.5-0.7-0.8-0.7c-0.4,0-0.6,0.2-0.8,0.7c-0.2,0.5-0.4,1.2-0.5,2
		c-0.1,0.9-0.2,1.9-0.2,3s0,2.5,0,3.8v14.2c0,0.9,0,1.7,0,2.5c0,0.8,0,1.6,0.1,2.3c0,0.7,0.1,1.4,0.2,1.9c0.1,0.6,0.2,1.1,0.3,1.5
		c0.1,0.4,0.3,0.7,0.4,1s0.4,0.4,0.6,0.4c0.3,0,0.6-0.2,0.8-0.7c0.2-0.4,0.4-1,0.5-1.8c0.1-0.8,0.2-1.7,0.2-2.8
		c0-1.1,0.1-2.2,0.1-3.5v-0.1H70.7z"/>
	<path class="st0" d="M78.2,86.1V52h-0.1l-2.6,34.1h-0.9l0-35.5h0.4v34.1h0.1l2.6-34.1h0.9v35.5H78.2z"/>
	<path class="st0" d="M80.3,86.1V50.7h0.4v16.9h3V50.7h0.4v35.5h-0.4V69h-3v17.2H80.3z"/>
	<path class="st0" d="M89.7,76.2v0.1c0,0.7,0,1.4,0,2.2c0,0.8,0,1.5-0.1,2.3c0,0.8-0.1,1.5-0.2,2.1c-0.1,0.7-0.2,1.3-0.3,1.8
		c-0.1,0.5-0.3,0.9-0.6,1.2c-0.2,0.3-0.5,0.5-0.8,0.5h0c-0.3,0-0.6-0.2-0.8-0.5c-0.2-0.3-0.4-0.8-0.6-1.3s-0.3-1.2-0.3-1.9
		c-0.1-0.7-0.1-1.5-0.2-2.3c0-0.8-0.1-1.6-0.1-2.5c0-0.8,0-1.7,0-2.5V61.3c0-0.8,0-1.7,0-2.6s0-1.7,0.1-2.5c0-0.8,0.1-1.6,0.2-2.3
		c0.1-0.7,0.2-1.3,0.3-1.9c0.1-0.5,0.3-0.9,0.6-1.3s0.5-0.5,0.8-0.5c0.3,0,0.6,0.2,0.8,0.5c0.2,0.3,0.4,0.7,0.6,1.3
		c0.1,0.5,0.3,1.2,0.3,1.8c0.1,0.7,0.1,1.4,0.2,2.1s0.1,1.5,0.1,2.2c0,0.8,0,1.5,0,2.1v0.1h-0.4v-0.1c0-1.2,0-2.3,0-3.4
		c0-1.1-0.1-2-0.2-2.8c-0.1-0.8-0.3-1.4-0.5-1.9s-0.5-0.7-0.8-0.7c-0.4,0-0.6,0.2-0.8,0.7c-0.2,0.5-0.4,1.2-0.5,2
		c-0.1,0.9-0.2,1.9-0.2,3s0,2.5,0,3.8v14.2c0,0.9,0,1.7,0,2.5c0,0.8,0,1.6,0.1,2.3c0,0.7,0.1,1.4,0.2,1.9c0.1,0.6,0.2,1.1,0.3,1.5
		c0.1,0.4,0.3,0.7,0.4,1s0.4,0.4,0.6,0.4c0.3,0,0.6-0.2,0.8-0.7c0.2-0.4,0.4-1,0.5-1.8c0.1-0.8,0.2-1.7,0.2-2.8
		c0-1.1,0.1-2.2,0.1-3.5v-0.1H89.7z"/>
	<path class="st0" d="M92.5,52.1v34.1h-0.4V52.1h-1.8v-1.4h4.1v1.4H92.5z"/>
	<path class="st0" d="M99.2,63.2c0,1.6,0,3-0.1,4c-0.1,1.1-0.2,1.9-0.4,2.5c-0.2,0.6-0.4,1-0.6,1.3s-0.6,0.4-0.9,0.4h-1.3v14.8h-0.4
		V50.7h1.8c0.3,0,0.6,0.1,0.8,0.4s0.4,0.7,0.6,1.3c0.2,0.6,0.3,1.5,0.4,2.5c0.1,1,0.1,2.3,0.1,3.8V63.2z M98.8,58.7
		c0-1.1,0-2-0.1-2.8c-0.1-0.8-0.1-1.5-0.3-2.1c-0.1-0.6-0.3-1-0.5-1.3c-0.2-0.3-0.4-0.4-0.7-0.4h-1.4v17.8h1.3
		c0.3,0,0.5-0.1,0.7-0.3c0.2-0.2,0.4-0.6,0.5-1.1c0.1-0.5,0.2-1.2,0.3-2.1s0.1-1.9,0.1-3.2V58.7z"/>
	<path class="st0" d="M102.4,73.3l-1,12.8H101l1-13.1l-1.9-22.3h0.4l1.7,19.9l1.7-19.9h0.4L102.4,73.3z"/>
	<path class="st0" d="M105.5,86.1V50.7h0.4v16.9h1l2.1-16.9h0.5l-2.2,17.5l2.4,17.9h-0.5L107,69h-1v17.2H105.5z"/>
	<path class="st0" d="M114.6,50.7v34.1h0.7v5.5h-0.4v-4.1h-4.1V50.7h0.4v34.1h3V50.7H114.6z"/>
	<path class="st0" d="M120.2,86.1V52H120l-2.6,34.1h-0.9l0-35.5h0.4v34.1h0.1l2.6-34.1h0.9v35.5H120.2z"/>
	<path class="st0" d="M122.2,86.1V50.7l3.3,0V52l-2.9,0v15h2.5v1.4h-2.5v16.3h2.9v1.4H122.2z"/>
	<path class="st0" d="M130.3,86.1V52h-0.1l-2.6,34.1h-0.9l0-35.5h0.4v34.1h0.1l2.6-34.1h0.9v35.5H130.3z M130.2,44.3
		c0,1.4-0.2,2.5-0.4,3.3s-0.5,1.1-0.9,1.1c-0.4,0-0.7-0.4-1-1.2c-0.2-0.8-0.3-1.9-0.4-3.2h0.4c0,1.1,0.1,1.8,0.3,2.4
		c0.2,0.5,0.4,0.8,0.7,0.8s0.5-0.3,0.7-0.8c0.2-0.5,0.3-1.3,0.3-2.4H130.2z"/>
	<path class="st0" d="M138.6,86.1V52h-0.1l-2.6,34.1h-0.9l0-35.5h0.4v34.1h0.1l2.6-34.1h0.9v35.5H138.6z"/>
	<path class="st0" d="M144.5,86.1V52h-3v23.7c0,2.1,0,3.8-0.1,5.2c0,1.4-0.1,2.5-0.2,3.3c-0.1,0.8-0.3,1.4-0.5,1.8
		c-0.2,0.3-0.5,0.5-0.8,0.5v-1.4c0.3,0,0.5-0.2,0.7-0.5c0.2-0.3,0.3-0.8,0.4-1.6c0.1-0.7,0.1-1.7,0.2-2.9c0-1.2,0-2.7,0-4.4V50.7
		h3.8v35.5H144.5z"/>
	<path class="st0" d="M150.5,86.1V52h-0.1l-2.6,34.1h-0.9l0-35.5h0.4v34.1h0.1l2.6-34.1h0.9v35.5H150.5z"/>
	<path class="st0" d="M155.2,86.1V50.7h3.8v35.5h-0.4V52h-3v34.1H155.2z"/>
	<path class="st0" d="M164.7,63.2c0,1.6,0,3-0.1,4c-0.1,1.1-0.2,1.9-0.4,2.5c-0.2,0.6-0.4,1-0.6,1.3s-0.6,0.4-0.9,0.4h-1.3v14.8H161
		V50.7h1.8c0.3,0,0.6,0.1,0.8,0.4s0.4,0.7,0.6,1.3c0.2,0.6,0.3,1.5,0.4,2.5c0.1,1,0.1,2.3,0.1,3.8V63.2z M164.3,58.7
		c0-1.1,0-2-0.1-2.8c-0.1-0.8-0.1-1.5-0.3-2.1c-0.1-0.6-0.3-1-0.5-1.3c-0.2-0.3-0.4-0.4-0.7-0.4h-1.4v17.8h1.3
		c0.3,0,0.5-0.1,0.7-0.3c0.2-0.2,0.4-0.6,0.5-1.1c0.1-0.5,0.2-1.2,0.3-2.1s0.1-1.9,0.1-3.2V58.7z"/>
	<path class="st0" d="M168,50.3c0.3,0,0.6,0.2,0.8,0.5c0.2,0.3,0.4,0.7,0.6,1.3c0.1,0.5,0.3,1.2,0.3,1.9s0.1,1.5,0.2,2.3
		c0,0.8,0.1,1.6,0.1,2.5c0,0.8,0,1.7,0,2.5v14.3c0,0.8,0,1.7,0,2.6c0,0.9,0,1.7-0.1,2.5c0,0.8-0.1,1.6-0.2,2.3
		c-0.1,0.7-0.2,1.3-0.3,1.9c-0.1,0.5-0.3,0.9-0.6,1.3c-0.2,0.3-0.5,0.5-0.8,0.5h0c-0.3,0-0.6-0.2-0.8-0.5c-0.2-0.3-0.4-0.7-0.6-1.3
		c-0.1-0.5-0.3-1.2-0.3-1.9s-0.1-1.5-0.2-2.3c0-0.8-0.1-1.6-0.1-2.5c0-0.8,0-1.7,0-2.5V61.3c0-0.8,0-1.7,0-2.6c0-0.9,0-1.7,0.1-2.5
		c0-0.8,0.1-1.6,0.2-2.3c0.1-0.7,0.2-1.3,0.3-1.9c0.1-0.5,0.3-0.9,0.6-1.3S167.7,50.3,168,50.3L168,50.3z M168,51.7
		c-0.4,0-0.6,0.2-0.8,0.7c-0.2,0.5-0.4,1.2-0.5,2c-0.1,0.9-0.2,1.9-0.2,3c0,1.2,0,2.5,0,3.8v14.2c0,0.9,0,1.7,0,2.5
		c0,0.8,0,1.6,0.1,2.3c0,0.7,0.1,1.4,0.2,1.9c0.1,0.6,0.2,1.1,0.3,1.5c0.1,0.4,0.3,0.7,0.4,1s0.4,0.4,0.6,0.4h0
		c0.4,0,0.6-0.2,0.8-0.7c0.2-0.5,0.4-1.2,0.5-2s0.2-1.9,0.2-3c0-1.2,0-2.5,0-3.8V61.3c0-1.3,0-2.5,0-3.7c0-1.2-0.1-2.2-0.2-3
		c-0.1-0.9-0.3-1.6-0.5-2.1C168.7,52,168.4,51.7,168,51.7L168,51.7z"/>
	<path class="st0" d="M171.6,86.1V50.7h0.4v16.9h1l2.1-16.9h0.5l-2.2,17.5l2.4,17.9h-0.5L173.1,69h-1v17.2H171.6z"/>
	<path class="st0" d="M178.5,50.3c0.3,0,0.6,0.2,0.8,0.5c0.2,0.3,0.4,0.7,0.6,1.3c0.1,0.5,0.3,1.2,0.3,1.9s0.1,1.5,0.2,2.3
		c0,0.8,0.1,1.6,0.1,2.5c0,0.8,0,1.7,0,2.5v14.3c0,0.8,0,1.7,0,2.6c0,0.9,0,1.7-0.1,2.5c0,0.8-0.1,1.6-0.2,2.3
		c-0.1,0.7-0.2,1.3-0.3,1.9c-0.1,0.5-0.3,0.9-0.6,1.3c-0.2,0.3-0.5,0.5-0.8,0.5h0c-0.3,0-0.6-0.2-0.8-0.5c-0.2-0.3-0.4-0.7-0.6-1.3
		c-0.1-0.5-0.3-1.2-0.3-1.9s-0.1-1.5-0.2-2.3c0-0.8-0.1-1.6-0.1-2.5c0-0.8,0-1.7,0-2.5V61.3c0-0.8,0-1.7,0-2.6c0-0.9,0-1.7,0.1-2.5
		c0-0.8,0.1-1.6,0.2-2.3c0.1-0.7,0.2-1.3,0.3-1.9c0.1-0.5,0.3-0.9,0.6-1.3S178.2,50.3,178.5,50.3L178.5,50.3z M178.5,51.7
		c-0.4,0-0.6,0.2-0.8,0.7c-0.2,0.5-0.4,1.2-0.5,2c-0.1,0.9-0.2,1.9-0.2,3c0,1.2,0,2.5,0,3.8v14.2c0,0.9,0,1.7,0,2.5
		c0,0.8,0,1.6,0.1,2.3c0,0.7,0.1,1.4,0.2,1.9c0.1,0.6,0.2,1.1,0.3,1.5c0.1,0.4,0.3,0.7,0.4,1s0.4,0.4,0.6,0.4h0
		c0.4,0,0.6-0.2,0.8-0.7c0.2-0.5,0.4-1.2,0.5-2s0.2-1.9,0.2-3c0-1.2,0-2.5,0-3.8V61.3c0-1.3,0-2.5,0-3.7c0-1.2-0.1-2.2-0.2-3
		c-0.1-0.9-0.3-1.6-0.5-2.1C179.2,52,178.9,51.7,178.5,51.7L178.5,51.7z"/>
	<path class="st0" d="M182.1,86.1V50.7h0.4v16.9h3V50.7h0.4v35.5h-0.4V69h-3v17.2H182.1z"/>
	<path class="st0" d="M191.5,76.2v0.1c0,0.7,0,1.4,0,2.2c0,0.8,0,1.5-0.1,2.3c0,0.8-0.1,1.5-0.2,2.1c-0.1,0.7-0.2,1.3-0.3,1.8
		c-0.1,0.5-0.3,0.9-0.6,1.2c-0.2,0.3-0.5,0.5-0.8,0.5h0c-0.3,0-0.6-0.2-0.8-0.5c-0.2-0.3-0.4-0.8-0.6-1.3s-0.3-1.2-0.3-1.9
		c-0.1-0.7-0.1-1.5-0.2-2.3c0-0.8-0.1-1.6-0.1-2.5c0-0.8,0-1.7,0-2.5V61.3c0-0.8,0-1.7,0-2.6s0-1.7,0.1-2.5c0-0.8,0.1-1.6,0.2-2.3
		c0.1-0.7,0.2-1.3,0.3-1.9c0.1-0.5,0.3-0.9,0.6-1.3s0.5-0.5,0.8-0.5c0.3,0,0.6,0.2,0.8,0.5c0.2,0.3,0.4,0.7,0.6,1.3
		c0.1,0.5,0.3,1.2,0.3,1.8c0.1,0.7,0.1,1.4,0.2,2.1s0.1,1.5,0.1,2.2c0,0.8,0,1.5,0,2.1v0.1h-0.4v-0.1c0-1.2,0-2.3,0-3.4
		c0-1.1-0.1-2-0.2-2.8c-0.1-0.8-0.3-1.4-0.5-1.9s-0.5-0.7-0.8-0.7c-0.4,0-0.6,0.2-0.8,0.7c-0.2,0.5-0.4,1.2-0.5,2
		c-0.1,0.9-0.2,1.9-0.2,3s0,2.5,0,3.8v14.2c0,0.9,0,1.7,0,2.5c0,0.8,0,1.6,0.1,2.3c0,0.7,0.1,1.4,0.2,1.9c0.1,0.6,0.2,1.1,0.3,1.5
		c0.1,0.4,0.3,0.7,0.4,1s0.4,0.4,0.6,0.4c0.3,0,0.6-0.2,0.8-0.7c0.2-0.4,0.4-1,0.5-1.8c0.1-0.8,0.2-1.7,0.2-2.8
		c0-1.1,0.1-2.2,0.1-3.5v-0.1H191.5z"/>
	<path class="st0" d="M194.5,73.3l-1,12.8H193l1-13.1l-1.9-22.3h0.4l1.7,19.9l1.7-19.9h0.4L194.5,73.3z"/>
	<path class="st0" d="M201.5,86.1V52h-3v23.7c0,2.1,0,3.8-0.1,5.2c0,1.4-0.1,2.5-0.2,3.3c-0.1,0.8-0.3,1.4-0.5,1.8
		c-0.2,0.3-0.5,0.5-0.8,0.5v-1.4c0.3,0,0.5-0.2,0.7-0.5c0.2-0.3,0.3-0.8,0.4-1.6c0.1-0.7,0.1-1.7,0.2-2.9c0-1.2,0-2.7,0-4.4V50.7
		h3.8v35.5H201.5z"/>
	<path class="st0" d="M207.6,78.1c0,1.5,0,2.8-0.1,3.8c-0.1,1-0.2,1.8-0.4,2.5c-0.2,0.6-0.4,1.1-0.6,1.3c-0.2,0.3-0.5,0.4-0.8,0.4
		h-1.8V50.7h0.4v14.8h1.3c0.3,0,0.6,0.1,0.9,0.4s0.5,0.7,0.6,1.3c0.2,0.6,0.3,1.4,0.4,2.5c0.1,1.1,0.1,2.4,0.1,4V78.1z M207.2,73.6
		c0-1.3,0-2.3-0.1-3.2s-0.2-1.6-0.3-2.1c-0.1-0.5-0.3-0.9-0.5-1.1c-0.2-0.2-0.5-0.3-0.7-0.3h-1.3v17.8h1.4c0.3,0,0.5-0.1,0.7-0.4
		c0.2-0.3,0.3-0.7,0.5-1.3c0.1-0.6,0.2-1.2,0.3-2.1c0.1-0.8,0.1-1.8,0.1-2.8V73.6z"/>
	<path class="st0" d="M210.7,52.1v34.1h-0.4V52.1h-1.8v-1.4h4.1v1.4H210.7z"/>
	<path class="st0" d="M217.2,86.1V52h-0.1l-2.6,34.1h-0.9l0-35.5h0.4v34.1h0.1l2.6-34.1h0.9v35.5H217.2z"/>
	<path class="st0" d="M223.1,63.2c0,1.6,0,3-0.1,4c-0.1,1.1-0.2,1.9-0.4,2.5c-0.2,0.6-0.4,1-0.6,1.3s-0.6,0.4-0.9,0.4h-1.3v14.8
		h-0.4V50.7h1.8c0.3,0,0.6,0.1,0.8,0.4s0.4,0.7,0.6,1.3c0.2,0.6,0.3,1.5,0.4,2.5c0.1,1,0.1,2.3,0.1,3.8V63.2z M222.7,58.7
		c0-1.1,0-2-0.1-2.8c-0.1-0.8-0.1-1.5-0.3-2.1c-0.1-0.6-0.3-1-0.5-1.3c-0.2-0.3-0.4-0.4-0.7-0.4h-1.4v17.8h1.3
		c0.3,0,0.5-0.1,0.7-0.3c0.2-0.2,0.4-0.6,0.5-1.1c0.1-0.5,0.2-1.2,0.3-2.1s0.1-1.9,0.1-3.2V58.7z"/>
	<path class="st0" d="M226.3,73.3l-1,12.8h-0.4l1-13.1L224,50.7h0.4l1.7,19.9l1.7-19.9h0.4L226.3,73.3z"/>
	<path class="st0" d="M233.1,86.1V52h-0.1l-2.6,34.1h-0.9l0-35.5h0.4v34.1h0.1l2.6-34.1h0.9v35.5H233.1z M232.9,44.3
		c0,1.4-0.2,2.5-0.4,3.3s-0.5,1.1-0.9,1.1c-0.4,0-0.7-0.4-1-1.2c-0.2-0.8-0.3-1.9-0.4-3.2h0.4c0,1.1,0.1,1.8,0.3,2.4
		c0.2,0.5,0.4,0.8,0.7,0.8s0.5-0.3,0.7-0.8c0.2-0.5,0.3-1.3,0.3-2.4H232.9z"/>
	<path class="st0" d="M236.5,52.1v34.1h-0.4V52.1h-1.8v-1.4h4.1v1.4H236.5z"/>
	<path class="st0" d="M239.4,86.1V50.7l3.3,0V52l-2.9,0v15h2.5v1.4h-2.5v16.3h2.9v1.4H239.4z"/>
	<path class="st0" d="M247.6,76.2v0.1c0,0.7,0,1.4,0,2.2c0,0.8,0,1.5-0.1,2.3c0,0.8-0.1,1.5-0.2,2.1c-0.1,0.7-0.2,1.3-0.3,1.8
		c-0.1,0.5-0.3,0.9-0.6,1.2c-0.2,0.3-0.5,0.5-0.8,0.5h0c-0.3,0-0.6-0.2-0.8-0.5c-0.2-0.3-0.4-0.8-0.6-1.3s-0.3-1.2-0.3-1.9
		c-0.1-0.7-0.1-1.5-0.2-2.3c0-0.8-0.1-1.6-0.1-2.5c0-0.8,0-1.7,0-2.5V61.3c0-0.8,0-1.7,0-2.6s0-1.7,0.1-2.5c0-0.8,0.1-1.6,0.2-2.3
		c0.1-0.7,0.2-1.3,0.3-1.9c0.1-0.5,0.3-0.9,0.6-1.3s0.5-0.5,0.8-0.5c0.3,0,0.6,0.2,0.8,0.5c0.2,0.3,0.4,0.7,0.6,1.3
		c0.1,0.5,0.3,1.2,0.3,1.8c0.1,0.7,0.1,1.4,0.2,2.1s0.1,1.5,0.1,2.2c0,0.8,0,1.5,0,2.1v0.1h-0.4v-0.1c0-1.2,0-2.3,0-3.4
		c0-1.1-0.1-2-0.2-2.8c-0.1-0.8-0.3-1.4-0.5-1.9s-0.5-0.7-0.8-0.7c-0.4,0-0.6,0.2-0.8,0.7c-0.2,0.5-0.4,1.2-0.5,2
		c-0.1,0.9-0.2,1.9-0.2,3s0,2.5,0,3.8v14.2c0,0.9,0,1.7,0,2.5c0,0.8,0,1.6,0.1,2.3c0,0.7,0.1,1.4,0.2,1.9c0.1,0.6,0.2,1.1,0.3,1.5
		c0.1,0.4,0.3,0.7,0.4,1s0.4,0.4,0.6,0.4c0.3,0,0.6-0.2,0.8-0.7c0.2-0.4,0.4-1,0.5-1.8c0.1-0.8,0.2-1.7,0.2-2.8
		c0-1.1,0.1-2.2,0.1-3.5v-0.1H247.6z"/>
	<path class="st0" d="M252.8,78.1c0,1.5,0,2.8-0.1,3.8c-0.1,1-0.2,1.8-0.4,2.5c-0.2,0.6-0.4,1.1-0.6,1.3c-0.2,0.3-0.5,0.4-0.8,0.4
		H249V50.7h0.4v14.8h1.3c0.3,0,0.6,0.1,0.9,0.4s0.5,0.7,0.6,1.3c0.2,0.6,0.3,1.4,0.4,2.5c0.1,1.1,0.1,2.4,0.1,4V78.1z M252.3,73.6
		c0-1.3,0-2.3-0.1-3.2s-0.2-1.6-0.3-2.1c-0.1-0.5-0.3-0.9-0.5-1.1c-0.2-0.2-0.5-0.3-0.7-0.3h-1.3v17.8h1.4c0.3,0,0.5-0.1,0.7-0.4
		c0.2-0.3,0.3-0.7,0.5-1.3c0.1-0.6,0.2-1.2,0.3-2.1c0.1-0.8,0.1-1.8,0.1-2.8V73.6z"/>
	<path class="st0" d="M260.7,76.2v0.1c0,0.7,0,1.4,0,2.2c0,0.8,0,1.5-0.1,2.3c0,0.8-0.1,1.5-0.2,2.1c-0.1,0.7-0.2,1.3-0.3,1.8
		c-0.1,0.5-0.3,0.9-0.6,1.2c-0.2,0.3-0.5,0.5-0.8,0.5h0c-0.3,0-0.6-0.2-0.8-0.5c-0.2-0.3-0.4-0.8-0.6-1.3s-0.3-1.2-0.3-1.9
		c-0.1-0.7-0.1-1.5-0.2-2.3c0-0.8-0.1-1.6-0.1-2.5c0-0.8,0-1.7,0-2.5V61.3c0-0.8,0-1.7,0-2.6s0-1.7,0.1-2.5c0-0.8,0.1-1.6,0.2-2.3
		c0.1-0.7,0.2-1.3,0.3-1.9c0.1-0.5,0.3-0.9,0.6-1.3s0.5-0.5,0.8-0.5c0.3,0,0.6,0.2,0.8,0.5c0.2,0.3,0.4,0.7,0.6,1.3
		c0.1,0.5,0.3,1.2,0.3,1.8c0.1,0.7,0.1,1.4,0.2,2.1s0.1,1.5,0.1,2.2c0,0.8,0,1.5,0,2.1v0.1h-0.4v-0.1c0-1.2,0-2.3,0-3.4
		c0-1.1-0.1-2-0.2-2.8c-0.1-0.8-0.3-1.4-0.5-1.9s-0.5-0.7-0.8-0.7c-0.4,0-0.6,0.2-0.8,0.7c-0.2,0.5-0.4,1.2-0.5,2
		c-0.1,0.9-0.2,1.9-0.2,3s0,2.5,0,3.8v14.2c0,0.9,0,1.7,0,2.5c0,0.8,0,1.6,0.1,2.3c0,0.7,0.1,1.4,0.2,1.9c0.1,0.6,0.2,1.1,0.3,1.5
		c0.1,0.4,0.3,0.7,0.4,1s0.4,0.4,0.6,0.4c0.3,0,0.6-0.2,0.8-0.7c0.2-0.4,0.4-1,0.5-1.8c0.1-0.8,0.2-1.7,0.2-2.8
		c0-1.1,0.1-2.2,0.1-3.5v-0.1H260.7z"/>
	<path class="st0" d="M263.8,50.3c0.3,0,0.6,0.2,0.8,0.5c0.2,0.3,0.4,0.7,0.6,1.3c0.1,0.5,0.3,1.2,0.3,1.9s0.1,1.5,0.2,2.3
		c0,0.8,0.1,1.6,0.1,2.5c0,0.8,0,1.7,0,2.5v14.3c0,0.8,0,1.7,0,2.6c0,0.9,0,1.7-0.1,2.5c0,0.8-0.1,1.6-0.2,2.3
		c-0.1,0.7-0.2,1.3-0.3,1.9c-0.1,0.5-0.3,0.9-0.6,1.3c-0.2,0.3-0.5,0.5-0.8,0.5h0c-0.3,0-0.6-0.2-0.8-0.5c-0.2-0.3-0.4-0.7-0.6-1.3
		c-0.1-0.5-0.3-1.2-0.3-1.9s-0.1-1.5-0.2-2.3c0-0.8-0.1-1.6-0.1-2.5c0-0.8,0-1.7,0-2.5V61.3c0-0.8,0-1.7,0-2.6c0-0.9,0-1.7,0.1-2.5
		c0-0.8,0.1-1.6,0.2-2.3c0.1-0.7,0.2-1.3,0.3-1.9c0.1-0.5,0.3-0.9,0.6-1.3S263.5,50.3,263.8,50.3L263.8,50.3z M263.8,51.7
		c-0.4,0-0.6,0.2-0.8,0.7c-0.2,0.5-0.4,1.2-0.5,2c-0.1,0.9-0.2,1.9-0.2,3c0,1.2,0,2.5,0,3.8v14.2c0,0.9,0,1.7,0,2.5
		c0,0.8,0,1.6,0.1,2.3c0,0.7,0.1,1.4,0.2,1.9c0.1,0.6,0.2,1.1,0.3,1.5c0.1,0.4,0.3,0.7,0.4,1s0.4,0.4,0.6,0.4h0
		c0.4,0,0.6-0.2,0.8-0.7c0.2-0.5,0.4-1.2,0.5-2s0.2-1.9,0.2-3c0-1.2,0-2.5,0-3.8V61.3c0-1.3,0-2.5,0-3.7c0-1.2-0.1-2.2-0.2-3
		c-0.1-0.9-0.3-1.6-0.5-2.1C264.5,52,264.2,51.7,263.8,51.7L263.8,51.7z"/>
	<path class="st0" d="M273.6,76.2v0.1c0,0.7,0,1.4,0,2.2c0,0.8,0,1.5-0.1,2.3c0,0.8-0.1,1.5-0.2,2.1c-0.1,0.7-0.2,1.3-0.3,1.8
		c-0.1,0.5-0.3,0.9-0.6,1.2c-0.2,0.3-0.5,0.5-0.8,0.5h0c-0.3,0-0.6-0.2-0.8-0.5c-0.2-0.3-0.4-0.8-0.6-1.3s-0.3-1.2-0.3-1.9
		c-0.1-0.7-0.1-1.5-0.2-2.3c0-0.8-0.1-1.6-0.1-2.5c0-0.8,0-1.7,0-2.5V61.3c0-0.8,0-1.7,0-2.6s0-1.7,0.1-2.5c0-0.8,0.1-1.6,0.2-2.3
		c0.1-0.7,0.2-1.3,0.3-1.9c0.1-0.5,0.3-0.9,0.6-1.3s0.5-0.5,0.8-0.5c0.3,0,0.6,0.2,0.8,0.5c0.2,0.3,0.4,0.7,0.6,1.3
		c0.1,0.5,0.3,1.2,0.3,1.8c0.1,0.7,0.1,1.4,0.2,2.1s0.1,1.5,0.1,2.2c0,0.8,0,1.5,0,2.1v0.1h-0.4v-0.1c0-1.2,0-2.3,0-3.4
		c0-1.1-0.1-2-0.2-2.8c-0.1-0.8-0.3-1.4-0.5-1.9s-0.5-0.7-0.8-0.7c-0.4,0-0.6,0.2-0.8,0.7c-0.2,0.5-0.4,1.2-0.5,2
		c-0.1,0.9-0.2,1.9-0.2,3s0,2.5,0,3.8v14.2c0,0.9,0,1.7,0,2.5c0,0.8,0,1.6,0.1,2.3c0,0.7,0.1,1.4,0.2,1.9c0.1,0.6,0.2,1.1,0.3,1.5
		c0.1,0.4,0.3,0.7,0.4,1s0.4,0.4,0.6,0.4c0.3,0,0.6-0.2,0.8-0.7c0.2-0.4,0.4-1,0.5-1.8c0.1-0.8,0.2-1.7,0.2-2.8
		c0-1.1,0.1-2.2,0.1-3.5v-0.1H273.6z"/>
	<path class="st0" d="M275.1,86.1V50.7h3.8v35.5h-0.4V52h-3v34.1H275.1z"/>
	<path class="st0" d="M280.8,86.1V50.7l3.3,0V52l-2.9,0v15h2.5v1.4h-2.5v16.3h2.9v1.4H280.8z"/>
	<path class="st0" d="M289.2,50.7v34.1h0.7v5.5h-0.4v-4.1h-4.1V50.7h0.4v34.1h3V50.7H289.2z"/>
	<path class="st0" d="M294.7,86.1V52h-0.1L292,86.1h-0.9l0-35.5h0.4v34.1h0.1l2.6-34.1h0.9v35.5H294.7z"/>
	<path class="st0" d="M300.2,86.1l-0.5-9.5h-2.8l-0.5,9.5h-0.4l2-35.5h0.8l2,35.5H300.2z M296.9,75.2h2.7L298.3,52h-0.1L296.9,75.2z
		"/>
	<path class="st0" d="M305.5,86.1V52h-3v23.7c0,2.1,0,3.8-0.1,5.2c0,1.4-0.1,2.5-0.2,3.3c-0.1,0.8-0.3,1.4-0.5,1.8
		c-0.2,0.3-0.5,0.5-0.8,0.5v-1.4c0.3,0,0.5-0.2,0.7-0.5c0.2-0.3,0.3-0.8,0.4-1.6c0.1-0.7,0.1-1.7,0.2-2.9c0-1.2,0-2.7,0-4.4V50.7
		h3.8v35.5H305.5z"/>
	<path class="st0" d="M311.5,86.1V52h-0.1l-2.6,34.1h-0.9l0-35.5h0.4v34.1h0.1l2.6-34.1h0.9v35.5H311.5z"/>
	<path class="st0" d="M317.2,76.2v0.1c0,0.7,0,1.4,0,2.2c0,0.8,0,1.5-0.1,2.3c0,0.8-0.1,1.5-0.2,2.1c-0.1,0.7-0.2,1.3-0.3,1.8
		c-0.1,0.5-0.3,0.9-0.6,1.2c-0.2,0.3-0.5,0.5-0.8,0.5h0c-0.3,0-0.6-0.2-0.8-0.5c-0.2-0.3-0.4-0.8-0.6-1.3s-0.3-1.2-0.3-1.9
		c-0.1-0.7-0.1-1.5-0.2-2.3c0-0.8-0.1-1.6-0.1-2.5c0-0.8,0-1.7,0-2.5V61.3c0-0.8,0-1.7,0-2.6s0-1.7,0.1-2.5c0-0.8,0.1-1.6,0.2-2.3
		c0.1-0.7,0.2-1.3,0.3-1.9c0.1-0.5,0.3-0.9,0.6-1.3s0.5-0.5,0.8-0.5c0.3,0,0.6,0.2,0.8,0.5c0.2,0.3,0.4,0.7,0.6,1.3
		c0.1,0.5,0.3,1.2,0.3,1.8c0.1,0.7,0.1,1.4,0.2,2.1s0.1,1.5,0.1,2.2c0,0.8,0,1.5,0,2.1v0.1h-0.4v-0.1c0-1.2,0-2.3,0-3.4
		c0-1.1-0.1-2-0.2-2.8c-0.1-0.8-0.3-1.4-0.5-1.9s-0.5-0.7-0.8-0.7c-0.4,0-0.6,0.2-0.8,0.7c-0.2,0.5-0.4,1.2-0.5,2
		c-0.1,0.9-0.2,1.9-0.2,3s0,2.5,0,3.8v14.2c0,0.9,0,1.7,0,2.5c0,0.8,0,1.6,0.1,2.3c0,0.7,0.1,1.4,0.2,1.9c0.1,0.6,0.2,1.1,0.3,1.5
		c0.1,0.4,0.3,0.7,0.4,1s0.4,0.4,0.6,0.4c0.3,0,0.6-0.2,0.8-0.7c0.2-0.4,0.4-1,0.5-1.8c0.1-0.8,0.2-1.7,0.2-2.8
		c0-1.1,0.1-2.2,0.1-3.5v-0.1H317.2z"/>
	<path class="st0" d="M320.1,52.1v34.1h-0.4V52.1h-1.8v-1.4h4.1v1.4H320.1z"/>
	<path class="st0" d="M324.3,50.3c0.3,0,0.6,0.2,0.8,0.5c0.2,0.3,0.4,0.7,0.6,1.3c0.1,0.5,0.3,1.2,0.3,1.9s0.1,1.5,0.2,2.3
		c0,0.8,0.1,1.6,0.1,2.5c0,0.8,0,1.7,0,2.5v14.3c0,0.8,0,1.7,0,2.6c0,0.9,0,1.7-0.1,2.5c0,0.8-0.1,1.6-0.2,2.3
		c-0.1,0.7-0.2,1.3-0.3,1.9c-0.1,0.5-0.3,0.9-0.6,1.3c-0.2,0.3-0.5,0.5-0.8,0.5h0c-0.3,0-0.6-0.2-0.8-0.5c-0.2-0.3-0.4-0.7-0.6-1.3
		c-0.1-0.5-0.3-1.2-0.3-1.9s-0.1-1.5-0.2-2.3c0-0.8-0.1-1.6-0.1-2.5c0-0.8,0-1.7,0-2.5V61.3c0-0.8,0-1.7,0-2.6c0-0.9,0-1.7,0.1-2.5
		c0-0.8,0.1-1.6,0.2-2.3c0.1-0.7,0.2-1.3,0.3-1.9c0.1-0.5,0.3-0.9,0.6-1.3S324,50.3,324.3,50.3L324.3,50.3z M324.3,51.7
		c-0.4,0-0.6,0.2-0.8,0.7c-0.2,0.5-0.4,1.2-0.5,2c-0.1,0.9-0.2,1.9-0.2,3c0,1.2,0,2.5,0,3.8v14.2c0,0.9,0,1.7,0,2.5
		c0,0.8,0,1.6,0.1,2.3c0,0.7,0.1,1.4,0.2,1.9c0.1,0.6,0.2,1.1,0.3,1.5c0.1,0.4,0.3,0.7,0.4,1s0.4,0.4,0.6,0.4h0
		c0.4,0,0.6-0.2,0.8-0.7c0.2-0.5,0.4-1.2,0.5-2s0.2-1.9,0.2-3c0-1.2,0-2.5,0-3.8V61.3c0-1.3,0-2.5,0-3.7c0-1.2-0.1-2.2-0.2-3
		c-0.1-0.9-0.3-1.6-0.5-2.1C325,52,324.7,51.7,324.3,51.7L324.3,51.7z"/>
	<path class="st0" d="M328.4,52L328.4,52l-0.1,34.1h-0.4V50.7h0.8l1.9,27.9l1.9-27.9h0.8v35.5H333V52h-0.1l-2,28.1h-0.6L328.4,52z"
		/>
</g>
</svg>
