<?xml version="1.0" encoding="utf-8"?>
<!-- Generator: Adobe Illustrator 19.1.0, SVG Export Plug-In . SVG Version: 6.00 Build 0)  -->
<svg version="1.1" id="Слой_1" xmlns="http://www.w3.org/2000/svg" xmlns:xlink="http://www.w3.org/1999/xlink" x="0px" y="0px"
	 viewBox="0 0 1180 350" style="enable-background:new 0 0 1180 350;" xml:space="preserve">
<style type="text/css">
	.st0{fill:#FFFFFF;}
</style>
<g>
	<path class="st0" d="M24.6,163.2V23.4h-0.7l-14,139.8H5.1L5.3,17.8h2.2v139.8h0.7L22.1,17.8h4.7v145.4H24.6z"/>
	<path class="st0" d="M38.7,23.4h-0.3v139.8h-2.2V17.8h4.4l10.5,114.1L61.4,17.8h4.4v145.4h-2.2V23.4h-0.4L52.5,138.5h-3.2
		L38.7,23.4z"/>
	<path class="st0" d="M75.5,163.2V18l18-0.2v5.6l-15.8,0.2v61.6h13.4v5.6H77.7v66.7h15.8v5.6H75.5z"/>
	<path class="st0" d="M100.1,163.2V17.8h2.2v70.3h8.3V61.3c0-3.4,0-6.9,0.1-10.5c0.1-3.5,0.2-7,0.4-10.3c0.2-3.3,0.5-6.4,1-9.4
		c0.5-2.9,1.1-5.5,1.9-7.7c0.8-2.2,1.8-3.9,3-5.2c1.2-1.3,2.6-1.9,4.4-1.9h0c1.7,0,3.2,0.7,4.4,2c1.2,1.3,2.2,3.1,3,5.3
		c0.8,2.2,1.4,4.8,1.8,7.7c0.4,3,0.8,6.1,1,9.4c0.2,3.3,0.3,6.7,0.4,10.2c0,3.5,0.1,6.8,0.1,10.1v58.5c0,3.4,0,6.9-0.1,10.5
		c-0.1,3.5-0.2,7-0.4,10.3c-0.2,3.3-0.5,6.4-1,9.4c-0.5,2.9-1.1,5.5-1.9,7.7c-0.8,2.2-1.8,3.9-3,5.2c-1.2,1.3-2.6,1.9-4.4,1.9h0
		c-1.7,0-3.2-0.7-4.4-2c-1.2-1.3-2.2-3.1-3-5.3c-0.8-2.2-1.4-4.8-1.8-7.7c-0.4-3-0.8-6.1-1-9.4c-0.2-3.3-0.3-6.7-0.4-10.2
		c0-3.5-0.1-6.8-0.1-10.1V93.7h-8.3v69.5H100.1z M121.3,158.9c1.9,0,3.4-1,4.5-3c1.1-2,2-4.7,2.6-8.2c0.6-3.5,0.9-7.7,1.1-12.5
		c0.2-4.8,0.3-10.1,0.3-15.7V61.3c0-5.4-0.1-10.4-0.2-15.2c-0.1-4.8-0.5-8.9-1-12.5c-0.6-3.6-1.4-6.4-2.5-8.5
		c-1.1-2.1-2.7-3.1-4.7-3.1h0c-1.9,0-3.4,1-4.5,3c-1.1,2-2,4.7-2.6,8.2c-0.6,3.5-0.9,7.7-1.1,12.5c-0.2,4.8-0.3,10.1-0.3,15.7v58.2
		c0,3.6,0,7,0.1,10.3c0,3.3,0.2,6.4,0.3,9.3c0.2,2.9,0.5,5.5,0.8,7.9c0.4,2.4,0.9,4.4,1.5,6.2c0.6,1.7,1.4,3.1,2.3,4
		S120,158.9,121.3,158.9L121.3,158.9z"/>
	<path class="st0" d="M147.7,23.6v139.6h-2.2V23.6h-9.9V18h22.1v5.6H147.7z"/>
	<path class="st0" d="M181.3,122.6v0.5c0,2.8,0,5.8-0.1,8.9c-0.1,3.1-0.2,6.2-0.4,9.3c-0.2,3.1-0.6,6-1,8.8
		c-0.5,2.8-1.1,5.2-1.9,7.4c-0.8,2.1-1.8,3.8-3,5.1c-1.2,1.3-2.6,1.9-4.3,1.9h0c-1.7,0-3.2-0.7-4.4-2c-1.2-1.3-2.2-3.1-3-5.3
		c-0.8-2.2-1.4-4.8-1.8-7.7c-0.4-2.9-0.8-6.1-1-9.4c-0.2-3.3-0.3-6.7-0.4-10.2c0-3.5-0.1-6.8-0.1-10.1V61.3c0-3.4,0-6.9,0.1-10.5
		c0.1-3.5,0.2-7,0.4-10.3c0.2-3.3,0.5-6.4,1-9.4c0.5-2.9,1.1-5.5,1.9-7.7c0.8-2.2,1.8-3.9,3-5.2c1.2-1.3,2.6-1.9,4.4-1.9
		c1.7,0,3.2,0.7,4.4,2c1.2,1.3,2.2,3.1,3,5.3c0.8,2.2,1.4,4.7,1.8,7.6c0.4,2.8,0.8,5.8,1,8.8c0.2,3,0.3,6.1,0.4,9.2
		c0,3.1,0.1,5.9,0.1,8.6v0.6H179v-0.6c0-4.8-0.1-9.4-0.3-13.8c-0.2-4.3-0.5-8.1-1.1-11.4s-1.4-5.8-2.6-7.7c-1.1-1.9-2.6-2.8-4.5-2.8
		c-1.9,0-3.4,1-4.5,3c-1.1,2-2,4.7-2.6,8.2c-0.6,3.5-0.9,7.7-1.1,12.5c-0.2,4.8-0.3,10.1-0.3,15.7v58.2c0,3.6,0,7,0.1,10.3
		c0,3.3,0.2,6.4,0.3,9.3c0.2,2.9,0.5,5.5,0.8,7.9s0.9,4.4,1.5,6.2c0.6,1.7,1.4,3.1,2.3,4c0.9,1,2.1,1.4,3.4,1.4
		c1.8,0,3.3-0.9,4.4-2.7c1.1-1.8,2-4.3,2.6-7.5c0.6-3.2,1-7,1.2-11.4c0.2-4.4,0.3-9.1,0.3-14.3v-0.4H181.3z"/>
	<path class="st0" d="M202.4,163.2V99.8h-6.7c-0.7,0-1.5,0.5-2.4,1.6c-0.8,1.1-1.6,2.7-2.4,4.9c-0.7,2.2-1.4,5-1.9,8.3
		c-0.6,3.3-0.9,7.3-1.2,11.8l-1,21.5c-0.1,2.8-0.3,5.4-0.5,7.9c-0.2,2.5-0.5,4.9-0.8,7.2h-2.4c0.4-2.2,0.7-4.7,0.9-7.4
		c0.3-2.7,0.5-5.3,0.6-7.9l1-21.5c0.2-3.4,0.4-6.6,0.7-9.4c0.3-2.8,0.7-5.3,1.2-7.6s1.1-4.3,1.7-6.1c0.7-1.8,1.5-3.5,2.4-4.9
		c-1.2-1-2.3-2.5-3.2-4.4c-0.9-1.9-1.7-4.2-2.3-6.9c-0.6-2.6-1.1-5.6-1.4-8.8c-0.3-3.2-0.5-6.7-0.5-10.3V54.8
		c0-6.8,0.2-12.6,0.6-17.3c0.4-4.7,1-8.5,1.8-11.4s1.9-5,3.3-6.3s3-1.9,5-1.9h9.7v145.2H202.4z M186.4,67.9c0,3.6,0.2,7.1,0.6,10.3
		c0.4,3.2,1,6,1.7,8.3c0.7,2.4,1.6,4.2,2.7,5.6c1,1.4,2.2,2.1,3.5,2.1h7.5V23.6h-7.6c-0.8,0-1.5,0.1-2.2,0.3c-0.7,0.2-1.4,0.6-2,1.3
		c-0.6,0.7-1.2,1.7-1.7,3.1s-0.9,3.2-1.3,5.5c-0.4,2.3-0.6,5.2-0.8,8.6c-0.2,3.4-0.3,7.6-0.3,12.4V67.9z"/>
	<path class="st0" d="M229.4,163.2V17.8h20.6v145.4h-2.2V23.4h-16.1v139.8H229.4z"/>
	<path class="st0" d="M280.8,69c0,6.7-0.2,12.2-0.7,16.5c-0.5,4.3-1.2,7.7-2.1,10.2c-0.9,2.5-2.1,4.2-3.5,5.2s-3,1.4-4.8,1.4h-6.8
		v60.8h-2.2V17.8h9.7c1.6,0,3.1,0.5,4.3,1.6c1.3,1.1,2.4,2.9,3.3,5.5c0.9,2.6,1.6,6,2.1,10.2c0.5,4.2,0.7,9.4,0.7,15.6V69z
		 M278.5,50.7c0-4.4-0.1-8.3-0.4-11.6s-0.7-6.2-1.4-8.5c-0.6-2.3-1.5-4-2.5-5.2c-1-1.1-2.3-1.7-3.8-1.7h-7.5v73h6.9
		c1.6,0,2.9-0.5,4-1.4c1.1-0.9,2-2.5,2.7-4.6c0.7-2.2,1.2-5,1.5-8.6s0.5-7.9,0.5-13.1V50.7z"/>
	<path class="st0" d="M298.9,16.4c1.7,0,3.2,0.7,4.4,2c1.2,1.3,2.2,3.1,3,5.3c0.8,2.2,1.4,4.8,1.8,7.7c0.4,3,0.8,6.1,1,9.4
		c0.2,3.3,0.3,6.7,0.4,10.2c0,3.5,0.1,6.8,0.1,10.1v58.5c0,3.4,0,6.9-0.1,10.5c-0.1,3.5-0.2,7-0.4,10.3c-0.2,3.3-0.5,6.4-1,9.4
		c-0.5,2.9-1.1,5.5-1.9,7.7c-0.8,2.2-1.8,3.9-3,5.2c-1.2,1.3-2.6,1.9-4.4,1.9h0c-1.7,0-3.2-0.7-4.4-2c-1.2-1.3-2.2-3.1-3-5.3
		c-0.8-2.2-1.4-4.8-1.8-7.7c-0.4-3-0.8-6.1-1-9.4c-0.2-3.3-0.3-6.7-0.4-10.2c0-3.5-0.1-6.8-0.1-10.1V61.3c0-3.4,0-6.9,0.1-10.5
		c0.1-3.5,0.2-7,0.4-10.3c0.2-3.3,0.5-6.4,1-9.4c0.5-2.9,1.1-5.5,1.9-7.7c0.8-2.2,1.8-3.9,3-5.2C295.7,17.1,297.1,16.4,298.9,16.4
		L298.9,16.4z M298.8,22.1c-1.9,0-3.4,1-4.5,3c-1.1,2-2,4.7-2.6,8.2c-0.6,3.5-0.9,7.7-1.1,12.5c-0.2,4.8-0.3,10.1-0.3,15.7v58.2
		c0,3.6,0,7,0.1,10.3c0,3.3,0.2,6.4,0.3,9.3c0.2,2.9,0.5,5.5,0.8,7.9c0.4,2.4,0.9,4.4,1.5,6.2c0.6,1.7,1.4,3.1,2.3,4
		s2.1,1.4,3.4,1.4h0c1.9,0,3.4-1,4.5-3c1.1-2,2-4.7,2.6-8.2c0.6-3.5,0.9-7.7,1.1-12.5c0.2-4.8,0.3-10.1,0.3-15.7V61.3
		c0-5.4-0.1-10.4-0.2-15.2c-0.1-4.8-0.5-8.9-1-12.5c-0.6-3.6-1.4-6.4-2.5-8.5C302.4,23.1,300.9,22.1,298.8,22.1L298.8,22.1z"/>
	<path class="st0" d="M324,23.6v139.6h-2.2V23.6h-9.9V18h22.1v5.6H324z"/>
	<path class="st0" d="M359.1,163.2V23.4h-0.7l-14,139.8h-4.9l0.3-145.4h2.2v139.8h0.7l13.8-139.8h4.7v145.4H359.1z"/>
	<path class="st0" d="M390.9,126.2c0,6.9-0.2,12.7-0.6,17.4c-0.4,4.7-1,8.5-1.8,11.3c-0.8,2.9-1.9,4.9-3.3,6.2c-1.4,1.3-3,1.9-5,1.9
		h-9.7V17.8h9.7c1.3,0,2.6,0.5,3.8,1.6s2.2,2.8,3.1,5.3c0.9,2.5,1.6,5.7,2.1,9.8c0.5,4,0.8,9,0.8,14.9V59c0,3.6-0.1,6.9-0.3,10.1
		c-0.2,3.2-0.5,6-1,8.5c-0.5,2.5-1.1,4.7-1.9,6.4c-0.8,1.8-1.8,3-2.9,3.8c1.1,0.6,2,1.7,2.9,3.4c0.9,1.7,1.6,3.9,2.3,6.4
		c0.6,2.6,1.1,5.5,1.5,8.8c0.4,3.3,0.5,6.8,0.5,10.5V126.2z M387.6,49.3c0-3.3-0.1-6.5-0.4-9.7c-0.3-3.1-0.7-5.9-1.3-8.3
		c-0.6-2.4-1.3-4.3-2.3-5.7c-0.9-1.4-2.1-2.2-3.5-2.2h-7.5V85h7c1.4,0,2.7-0.6,3.7-1.8c1-1.2,1.8-2.9,2.5-5.1
		c0.6-2.2,1.1-4.9,1.4-8.1c0.3-3.2,0.4-6.9,0.4-11.1V49.3z M388.6,117c0-3.6-0.2-7-0.6-10.2c-0.4-3.2-1-6-1.7-8.4
		c-0.7-2.4-1.6-4.3-2.7-5.6c-1-1.4-2.2-2.1-3.5-2.1h-7.4v66.7h7.6c0.8,0,1.5-0.1,2.2-0.3s1.4-0.6,2-1.3c0.6-0.7,1.2-1.7,1.7-3.1
		c0.5-1.4,0.9-3.2,1.3-5.5c0.4-2.3,0.6-5.1,0.8-8.6c0.2-3.4,0.2-7.5,0.2-12.4V117z"/>
	<path class="st0" d="M408.6,16.4c1.7,0,3.2,0.7,4.4,2c1.2,1.3,2.2,3.1,3,5.3c0.8,2.2,1.4,4.8,1.8,7.7c0.4,3,0.8,6.1,1,9.4
		c0.2,3.3,0.3,6.7,0.4,10.2c0,3.5,0.1,6.8,0.1,10.1v58.5c0,3.4,0,6.9-0.1,10.5c-0.1,3.5-0.2,7-0.4,10.3c-0.2,3.3-0.5,6.4-1,9.4
		c-0.5,2.9-1.1,5.5-1.9,7.7c-0.8,2.2-1.8,3.9-3,5.2c-1.2,1.3-2.6,1.9-4.4,1.9h0c-1.7,0-3.2-0.7-4.4-2c-1.2-1.3-2.2-3.1-3-5.3
		c-0.8-2.2-1.4-4.8-1.8-7.7c-0.4-3-0.8-6.1-1-9.4c-0.2-3.3-0.3-6.7-0.4-10.2c0-3.5-0.1-6.8-0.1-10.1V61.3c0-3.4,0-6.9,0.1-10.5
		c0.1-3.5,0.2-7,0.4-10.3c0.2-3.3,0.5-6.4,1-9.4c0.5-2.9,1.1-5.5,1.9-7.7c0.8-2.2,1.8-3.9,3-5.2C405.4,17.1,406.9,16.4,408.6,16.4
		L408.6,16.4z M408.6,22.1c-1.9,0-3.4,1-4.5,3c-1.1,2-2,4.7-2.6,8.2c-0.6,3.5-0.9,7.7-1.1,12.5c-0.2,4.8-0.3,10.1-0.3,15.7v58.2
		c0,3.6,0,7,0.1,10.3c0,3.3,0.2,6.4,0.3,9.3c0.2,2.9,0.5,5.5,0.8,7.9c0.4,2.4,0.9,4.4,1.5,6.2c0.6,1.7,1.4,3.1,2.3,4
		s2.1,1.4,3.4,1.4h0c1.9,0,3.4-1,4.5-3c1.1-2,2-4.7,2.6-8.2c0.6-3.5,0.9-7.7,1.1-12.5c0.2-4.8,0.3-10.1,0.3-15.7V61.3
		c0-5.4-0.1-10.4-0.2-15.2c-0.1-4.8-0.5-8.9-1-12.5c-0.6-3.6-1.4-6.4-2.5-8.5C412.2,23.1,410.6,22.1,408.6,22.1L408.6,22.1z"/>
	<path class="st0" d="M428.1,163.2V17.8h20.6v145.4h-2.2V23.4h-16.1v139.8H428.1z"/>
	<path class="st0" d="M468.3,16.4c1.7,0,3.2,0.7,4.4,2c1.2,1.3,2.2,3.1,3,5.3c0.8,2.2,1.4,4.8,1.8,7.7c0.4,3,0.8,6.1,1,9.4
		c0.2,3.3,0.3,6.7,0.4,10.2c0,3.5,0.1,6.8,0.1,10.1v58.5c0,3.4,0,6.9-0.1,10.5c-0.1,3.5-0.2,7-0.4,10.3c-0.2,3.3-0.5,6.4-1,9.4
		c-0.5,2.9-1.1,5.5-1.9,7.7c-0.8,2.2-1.8,3.9-3,5.2c-1.2,1.3-2.6,1.9-4.4,1.9h0c-1.7,0-3.2-0.7-4.4-2c-1.2-1.3-2.2-3.1-3-5.3
		c-0.8-2.2-1.4-4.8-1.8-7.7c-0.4-3-0.8-6.1-1-9.4c-0.2-3.3-0.3-6.7-0.4-10.2c0-3.5-0.1-6.8-0.1-10.1V61.3c0-3.4,0-6.9,0.1-10.5
		c0.1-3.5,0.2-7,0.4-10.3c0.2-3.3,0.5-6.4,1-9.4c0.5-2.9,1.1-5.5,1.9-7.7c0.8-2.2,1.8-3.9,3-5.2C465.1,17.1,466.6,16.4,468.3,16.4
		L468.3,16.4z M468.3,22.1c-1.9,0-3.4,1-4.5,3c-1.1,2-2,4.7-2.6,8.2c-0.6,3.5-0.9,7.7-1.1,12.5c-0.2,4.8-0.3,10.1-0.3,15.7v58.2
		c0,3.6,0,7,0.1,10.3c0,3.3,0.2,6.4,0.3,9.3c0.2,2.9,0.5,5.5,0.8,7.9c0.4,2.4,0.9,4.4,1.5,6.2c0.6,1.7,1.4,3.1,2.3,4
		s2.1,1.4,3.4,1.4h0c1.9,0,3.4-1,4.5-3c1.1-2,2-4.7,2.6-8.2c0.6-3.5,0.9-7.7,1.1-12.5c0.2-4.8,0.3-10.1,0.3-15.7V61.3
		c0-5.4-0.1-10.4-0.2-15.2c-0.1-4.8-0.5-8.9-1-12.5c-0.6-3.6-1.4-6.4-2.5-8.5C471.9,23.1,470.3,22.1,468.3,22.1L468.3,22.1z"/>
	<path class="st0" d="M487.7,163.2V17.8h2.2v69.5h5.5L506.8,18h2.5l-11.9,71.8l13.1,73.4h-2.5l-12.5-70.3h-5.5v70.3H487.7z"/>
	<path class="st0" d="M533.8,163.2l-2.8-39h-15.1l-2.8,39h-2.3l10.7-145.4h4.1l10.7,145.4H533.8z M516.3,118.5h14.3l-6.9-95.1h-0.4
		L516.3,118.5z"/>
	<path class="st0" d="M561.5,120c0,8.2-0.2,15.1-0.5,20.7c-0.3,5.6-0.8,10.2-1.6,13.7c-0.8,3.5-1.8,6.1-3.2,7.7
		c-1.3,1.6-3,2.4-5,2.4c-1.8,0-3.3-0.8-4.6-2.5c-1.3-1.7-2.3-4-3.1-7.1c-0.8-3.1-1.4-6.8-1.8-11.1c-0.4-4.4-0.6-9.3-0.6-14.7v-6.3
		h2.1v10.6c0,3.8,0.2,7.3,0.6,10.4c0.4,3.1,0.9,5.8,1.6,8c0.7,2.2,1.5,4,2.5,5.2c1,1.2,2.1,1.8,3.3,1.8c1.3,0,2.5-0.5,3.5-1.4
		c1-0.9,1.9-2.6,2.5-5.1c0.7-2.5,1.2-5.9,1.5-10.2c0.4-4.3,0.5-9.8,0.5-16.6v-10.2c0-5.6-0.2-10-0.7-13.3c-0.4-3.3-1-5.7-1.8-7.4
		c-0.7-1.7-1.6-2.7-2.5-3.2c-1-0.4-1.9-0.7-3-0.7h-2.7v-5.6h2.7c1,0,2-0.4,2.9-1.2c0.9-0.8,1.7-2.1,2.4-4c0.7-1.9,1.3-4.4,1.7-7.5
		c0.4-3.1,0.6-6.9,0.6-11.4v-7.8c0-5.7-0.1-10.5-0.4-14.4c-0.3-4-0.8-7.2-1.4-9.7s-1.4-4.3-2.4-5.4c-1-1.1-2.2-1.7-3.6-1.7
		c-1.4,0-2.6,0.5-3.6,1.6c-1,1.1-1.8,2.8-2.4,5.1c-0.6,2.3-1.1,5.4-1.4,9.1c-0.3,3.7-0.4,8.2-0.4,13.4v7h-2.2v-6.8
		c0-4.8,0.1-9.4,0.4-13.7c0.3-4.3,0.8-8,1.5-11.1s1.7-5.7,3-7.5c1.3-1.8,3-2.8,5.1-2.8c1.7,0,3.2,0.7,4.5,2.1
		c1.3,1.4,2.3,3.6,3.1,6.6c0.8,3,1.4,6.9,1.8,11.7c0.4,4.8,0.6,10.6,0.6,17.4c0,5.7-0.1,10.5-0.4,14.6c-0.3,4.1-0.7,7.4-1.2,10.1
		c-0.5,2.7-1.1,4.8-1.9,6.2c-0.7,1.5-1.5,2.5-2.3,3.1c1,0.2,1.9,0.9,2.7,2c0.8,1.1,1.4,3,1.9,5.5c0.5,2.5,0.9,5.7,1.1,9.7
		C561.4,109.3,561.5,114.2,561.5,120z"/>
	<path class="st0" d="M589.3,163.2l-2.8-39h-15.1l-2.8,39h-2.3l10.7-145.4h4.1l10.7,145.4H589.3z M571.7,118.5H586l-6.9-95.1h-0.4
		L571.7,118.5z"/>
	<path class="st0" d="M597.1,163.2V17.8h2.2v69.5h16.1V17.8h2.2v145.4h-2.2V92.9h-16.1v70.3H597.1z"/>
	<path class="st0" d="M647.4,163.2V23.4h-0.7l-14,139.8h-4.9l0.3-145.4h2.2v139.8h0.7l13.8-139.8h4.7v145.4H647.4z"/>
	<path class="st0" d="M672.1,163.2V99.8h-6.7c-0.7,0-1.5,0.5-2.4,1.6c-0.8,1.1-1.6,2.7-2.4,4.9c-0.7,2.2-1.4,5-2,8.3
		c-0.6,3.3-0.9,7.3-1.2,11.8l-1,21.5c-0.1,2.8-0.3,5.4-0.5,7.9c-0.2,2.5-0.5,4.9-0.8,7.2h-2.4c0.4-2.2,0.7-4.7,0.9-7.4
		c0.3-2.7,0.5-5.3,0.6-7.9l1-21.5c0.2-3.4,0.4-6.6,0.7-9.4c0.3-2.8,0.7-5.3,1.2-7.6c0.5-2.3,1.1-4.3,1.7-6.1
		c0.7-1.8,1.5-3.5,2.4-4.9c-1.2-1-2.3-2.5-3.2-4.4c-0.9-1.9-1.7-4.2-2.3-6.9c-0.6-2.6-1.1-5.6-1.4-8.8c-0.3-3.2-0.5-6.7-0.5-10.3
		V54.8c0-6.8,0.2-12.6,0.6-17.3c0.4-4.7,1-8.5,1.8-11.4s1.9-5,3.3-6.3c1.4-1.3,3-1.9,5-1.9h9.7v145.2H672.1z M656.1,67.9
		c0,3.6,0.2,7.1,0.6,10.3c0.4,3.2,1,6,1.7,8.3s1.6,4.2,2.7,5.6c1,1.4,2.2,2.1,3.5,2.1h7.5V23.6h-7.6c-0.8,0-1.5,0.1-2.2,0.3
		c-0.7,0.2-1.4,0.6-2,1.3c-0.6,0.7-1.2,1.7-1.7,3.1c-0.5,1.3-0.9,3.2-1.3,5.5c-0.4,2.3-0.6,5.2-0.8,8.6c-0.2,3.4-0.3,7.6-0.3,12.4
		V67.9z"/>
	<path class="st0" d="M699.1,163.2V17.8h20.6v145.4h-2.2V23.4h-16.1v139.8H699.1z"/>
	<path class="st0" d="M729.9,163.2V18l18-0.2v5.6l-15.8,0.2v61.6h13.4v5.6h-13.4v66.7h15.8v5.6H729.9z"/>
	<path class="st0" d="M774.6,69c0,6.7-0.2,12.2-0.7,16.5c-0.5,4.3-1.2,7.7-2.1,10.2c-0.9,2.5-2.1,4.2-3.5,5.2c-1.4,1-3,1.4-4.8,1.4
		h-6.8v60.8h-2.2V17.8h9.7c1.6,0,3.1,0.5,4.3,1.6c1.3,1.1,2.4,2.9,3.3,5.5c0.9,2.6,1.6,6,2.1,10.2c0.5,4.2,0.7,9.4,0.7,15.6V69z
		 M772.3,50.7c0-4.4-0.1-8.3-0.4-11.6s-0.7-6.2-1.4-8.5c-0.6-2.3-1.5-4-2.5-5.2s-2.3-1.7-3.8-1.7h-7.5v73h6.9c1.6,0,2.9-0.5,4-1.4
		c1.1-0.9,2-2.5,2.7-4.6c0.7-2.2,1.2-5,1.5-8.6c0.3-3.5,0.5-7.9,0.5-13.1V50.7z"/>
	<path class="st0" d="M783.2,163.2V18l18-0.2v5.6l-15.8,0.2v61.6h13.4v5.6h-13.4v66.7h15.8v5.6H783.2z"/>
	<path class="st0" d="M830,17.9v139.5h3.8v22.6h-2.2v-16.8h-25.7v16.8h-2.3v-22.6h0c1,0,1.9-1.4,2.6-4.1c0.7-2.7,1.4-6.4,1.9-10.9
		c0.5-4.5,0.9-9.6,1.3-15.4c0.3-5.8,0.6-11.8,0.8-17.8c0.2-6.1,0.3-12.1,0.4-18.1c0.1-6,0.1-11.4,0.1-16.2V17.9H830z M813,74.9
		c0,8.6-0.1,17.1-0.3,25.6c-0.2,8.4-0.5,16.3-0.9,23.6c-0.4,7.3-0.9,13.9-1.6,19.7c-0.6,5.8-1.4,10.3-2.3,13.5h19.9V23.5H813V74.9z"
		/>
	<path class="st0" d="M854,163.2V17.8h20.6v145.4h-2.2V23.4h-16.1v139.8H854z"/>
	<path class="st0" d="M905.3,69c0,6.7-0.2,12.2-0.7,16.5c-0.5,4.3-1.2,7.7-2.1,10.2c-0.9,2.5-2.1,4.2-3.5,5.2c-1.4,1-3,1.4-4.8,1.4
		h-6.8v60.8h-2.2V17.8h9.7c1.6,0,3.1,0.5,4.3,1.6c1.3,1.1,2.4,2.9,3.3,5.5c0.9,2.6,1.6,6,2.1,10.2c0.5,4.2,0.7,9.4,0.7,15.6V69z
		 M903.1,50.7c0-4.4-0.1-8.3-0.4-11.6s-0.7-6.2-1.4-8.5c-0.6-2.3-1.5-4-2.5-5.2s-2.3-1.7-3.8-1.7h-7.5v73h6.9c1.6,0,2.9-0.5,4-1.4
		c1.1-0.9,2-2.5,2.7-4.6c0.7-2.2,1.2-5,1.5-8.6c0.3-3.5,0.5-7.9,0.5-13.1V50.7z"/>
	<path class="st0" d="M933.7,163.2V23.4h-0.7l-14,139.8h-4.9l0.3-145.4h2.2v139.8h0.7l13.8-139.8h4.7v145.4H933.7z"/>
	<path class="st0" d="M947.8,23.4h-0.3v139.8h-2.2V17.8h4.4l10.5,114.1l10.4-114.1h4.4v145.4h-2.2V23.4h-0.4l-10.6,115.1h-3.2
		L947.8,23.4z"/>
	<path class="st0" d="M984.6,163.2V18l18-0.2v5.6l-15.8,0.2v61.6h13.4v5.6h-13.4v66.7h15.8v5.6H984.6z"/>
	<path class="st0" d="M1009,163.2V17.8h2.2v69.5h16.1V17.8h2.2v145.4h-2.2V92.9h-16.1v70.3H1009z"/>
	<path class="st0" d="M1039.6,163.2V18l18-0.2v5.6l-15.8,0.2v61.6h13.4v5.6h-13.4v66.7h15.8v5.6H1039.6z"/>
	<path class="st0" d="M1063.9,163.2V17.8h2.2v69.5h16.1V17.8h2.2v145.4h-2.2V92.9h-16.1v70.3H1063.9z"/>
	<path class="st0" d="M1114.3,163.2V23.4h-0.7l-14,139.8h-4.9l0.3-145.4h2.2v139.8h0.7l13.8-139.8h4.7v145.4H1114.3z"/>
	<path class="st0" d="M1125.3,163.2V18l18-0.2v5.6l-15.8,0.2v61.6h13.4v5.6h-13.4v66.7h15.8v5.6H1125.3z"/>
	<path class="st0" d="M1152.4,23.4h-0.3v139.8h-2.2V17.8h4.4l10.5,114.1l10.4-114.1h4.4v145.4h-2.2V23.4h-0.4l-10.6,115.1h-3.2
		L1152.4,23.4z"/>
	<path class="st0" d="M9.3,222.6c1.1,0,2.1,0.5,2.9,1.4c0.8,1,1.4,2.2,2,3.9c0.5,1.6,0.9,3.5,1.2,5.7c0.3,2.2,0.5,4.5,0.6,6.9
		c0.1,2.4,0.2,4.9,0.3,7.5c0,2.5,0,5,0,7.4v42.9c0,2.5,0,5.1-0.1,7.7c0,2.6-0.1,5.1-0.3,7.5c-0.1,2.4-0.4,4.7-0.7,6.9
		c-0.3,2.2-0.7,4-1.2,5.6c-0.5,1.6-1.2,2.9-1.9,3.8c-0.8,0.9-1.7,1.4-2.8,1.4h0c-1.1,0-2.1-0.5-2.9-1.4c-0.8-1-1.4-2.2-2-3.9
		s-0.9-3.5-1.2-5.7c-0.3-2.2-0.5-4.5-0.6-6.9c-0.1-2.4-0.2-4.9-0.3-7.5c0-2.5,0-5,0-7.4v-42.9c0-2.5,0-5.1,0.1-7.7
		c0-2.6,0.1-5.1,0.3-7.5c0.1-2.4,0.4-4.7,0.7-6.9c0.3-2.2,0.7-4,1.2-5.6c0.5-1.6,1.2-2.9,1.9-3.8C7.2,223.1,8.2,222.6,9.3,222.6
		L9.3,222.6z M9.3,226.7c-1.2,0-2.2,0.7-3,2.2c-0.7,1.5-1.3,3.5-1.7,6s-0.6,5.6-0.7,9.2c-0.1,3.5-0.2,7.4-0.2,11.5v42.6
		c0,2.6,0,5.1,0,7.6c0,2.4,0.1,4.7,0.2,6.8c0.1,2.1,0.3,4.1,0.5,5.8c0.2,1.8,0.6,3.3,1,4.5c0.4,1.3,0.9,2.2,1.5,2.9
		c0.6,0.7,1.4,1.1,2.2,1.1h0c1.2,0,2.2-0.7,3-2.2c0.7-1.4,1.3-3.5,1.7-6c0.4-2.6,0.6-5.6,0.7-9.2c0.1-3.5,0.2-7.4,0.2-11.5v-42.6
		c0-3.9,0-7.6-0.1-11.1c-0.1-3.5-0.3-6.5-0.7-9.2c-0.4-2.6-0.9-4.7-1.7-6.2C11.6,227.5,10.6,226.7,9.3,226.7L9.3,226.7z"/>
	<path class="st0" d="M35,298.5c0,6-0.1,11-0.3,15.2c-0.2,4.1-0.6,7.5-1.1,10.1s-1.2,4.4-2.1,5.6c-0.9,1.2-2,1.8-3.3,1.8
		c-1.2,0-2.2-0.6-3-1.8c-0.8-1.2-1.5-2.9-2-5.2c-0.5-2.2-0.9-5-1.2-8.2c-0.2-3.2-0.4-6.8-0.4-10.8v-4.6h1.4v7.8
		c0,2.8,0.1,5.4,0.4,7.6c0.2,2.3,0.6,4.3,1,5.9c0.4,1.6,1,2.9,1.6,3.8c0.6,0.9,1.4,1.3,2.2,1.3c0.9,0,1.6-0.3,2.3-1
		c0.7-0.7,1.2-1.9,1.7-3.8c0.4-1.8,0.8-4.3,1-7.5c0.2-3.2,0.3-7.2,0.3-12.2v-7.5c0-4.1-0.1-7.4-0.4-9.7c-0.3-2.4-0.7-4.2-1.2-5.4
		c-0.5-1.2-1-2-1.7-2.3c-0.6-0.3-1.3-0.5-1.9-0.5h-1.8V273h1.8c0.7,0,1.3-0.3,1.9-0.9c0.6-0.6,1.1-1.6,1.6-2.9
		c0.5-1.4,0.8-3.2,1.1-5.5c0.3-2.3,0.4-5.1,0.4-8.4v-5.8c0-4.2-0.1-7.7-0.3-10.6c-0.2-2.9-0.5-5.3-0.9-7.1c-0.4-1.8-0.9-3.1-1.6-4
		s-1.4-1.2-2.3-1.2c-0.9,0-1.7,0.4-2.3,1.2c-0.6,0.8-1.2,2-1.6,3.8c-0.4,1.7-0.7,3.9-0.9,6.7c-0.2,2.7-0.3,6-0.3,9.9v5.1h-1.4v-5
		c0-3.6,0.1-6.9,0.3-10c0.2-3.1,0.5-5.9,1-8.2c0.5-2.3,1.1-4.1,2-5.5c0.9-1.4,2-2,3.3-2c1.1,0,2.1,0.5,2.9,1.5c0.8,1,1.5,2.6,2,4.8
		c0.5,2.2,0.9,5.1,1.2,8.6c0.3,3.5,0.4,7.8,0.4,12.8c0,4.2-0.1,7.7-0.3,10.7c-0.2,3-0.5,5.4-0.8,7.4s-0.7,3.5-1.2,4.6
		c-0.5,1.1-1,1.8-1.5,2.2c0.7,0.1,1.3,0.6,1.8,1.5c0.5,0.8,0.9,2.2,1.3,4c0.3,1.8,0.6,4.2,0.7,7.1C34.9,290.7,35,294.3,35,298.5z"/>
	<path class="st0" d="M41.2,330.2V223.6h1.5v50.9h10.5v-50.9h1.5v106.6h-1.5v-51.5H42.7v51.5H41.2z"/>
	<path class="st0" d="M73.3,330.2l-1.9-28.6h-9.9l-1.9,28.6h-1.5l7-106.6h2.7l7,106.6H73.3z M61.8,297.4h9.3l-4.5-69.7h-0.3
		L61.8,297.4z"/>
	<path class="st0" d="M78.3,330.2V223.6h1.5v50.9h3.6l7.4-50.8h1.6l-7.8,52.7l8.5,53.8h-1.6l-8.2-51.5h-3.6v51.5H78.3z"/>
	<path class="st0" d="M102.6,222.6c1.1,0,2.1,0.5,2.9,1.4c0.8,1,1.4,2.2,2,3.9c0.5,1.6,0.9,3.5,1.2,5.7c0.3,2.2,0.5,4.5,0.6,6.9
		c0.1,2.4,0.2,4.9,0.3,7.5c0,2.5,0,5,0,7.4v42.9c0,2.5,0,5.1-0.1,7.7c0,2.6-0.1,5.1-0.3,7.5c-0.1,2.4-0.4,4.7-0.7,6.9
		c-0.3,2.2-0.7,4-1.2,5.6c-0.5,1.6-1.2,2.9-1.9,3.8c-0.8,0.9-1.7,1.4-2.8,1.4h0c-1.1,0-2.1-0.5-2.9-1.4c-0.8-1-1.4-2.2-2-3.9
		s-0.9-3.5-1.2-5.7c-0.3-2.2-0.5-4.5-0.6-6.9c-0.1-2.4-0.2-4.9-0.3-7.5c0-2.5,0-5,0-7.4v-42.9c0-2.5,0-5.1,0.1-7.7
		c0-2.6,0.1-5.1,0.3-7.5c0.1-2.4,0.4-4.7,0.7-6.9c0.3-2.2,0.7-4,1.2-5.6c0.5-1.6,1.2-2.9,1.9-3.8
		C100.5,223.1,101.4,222.6,102.6,222.6L102.6,222.6z M102.5,226.7c-1.2,0-2.2,0.7-3,2.2c-0.7,1.5-1.3,3.5-1.7,6s-0.6,5.6-0.7,9.2
		c-0.1,3.5-0.2,7.4-0.2,11.5v42.6c0,2.6,0,5.1,0,7.6c0,2.4,0.1,4.7,0.2,6.8c0.1,2.1,0.3,4.1,0.5,5.8c0.2,1.8,0.6,3.3,1,4.5
		c0.4,1.3,0.9,2.2,1.5,2.9c0.6,0.7,1.4,1.1,2.2,1.1h0c1.2,0,2.2-0.7,3-2.2c0.7-1.4,1.3-3.5,1.7-6c0.4-2.6,0.6-5.6,0.7-9.2
		c0.1-3.5,0.2-7.4,0.2-11.5v-42.6c0-3.9,0-7.6-0.1-11.1c-0.1-3.5-0.3-6.5-0.7-9.2c-0.4-2.6-0.9-4.7-1.7-6.2
		C104.9,227.5,103.9,226.7,102.5,226.7L102.5,226.7z"/>
	<path class="st0" d="M117,227.7h-0.2v102.5h-1.5V223.6h2.9l6.8,83.7l6.8-83.7h2.9v106.6h-1.5V227.7H133l-6.9,84.4h-2.1L117,227.7z"
		/>
	<path class="st0" d="M154.5,306.1c0,4.6-0.2,8.4-0.5,11.5c-0.3,3.1-0.8,5.5-1.4,7.4c-0.6,1.9-1.3,3.2-2.1,4
		c-0.8,0.8-1.8,1.2-2.8,1.2h-6.3V223.6h1.5v44.6h4.4c1.2,0,2.2,0.4,3.1,1.1c0.9,0.7,1.7,2,2.3,3.8c0.6,1.8,1.1,4.3,1.4,7.5
		c0.3,3.2,0.5,7.2,0.5,12.1V306.1z M153,292.6c0-3.8-0.1-7-0.3-9.6c-0.2-2.6-0.5-4.7-1-6.3c-0.5-1.6-1-2.7-1.8-3.4
		c-0.7-0.7-1.6-1-2.6-1h-4.5v53.5h4.9c1,0,1.8-0.4,2.5-1.3c0.7-0.8,1.2-2.1,1.6-3.8c0.4-1.7,0.7-3.8,0.9-6.2
		c0.2-2.5,0.3-5.3,0.3-8.5V292.6z"/>
	<path class="st0" d="M165.6,227.8v102.3h-1.5V227.8h-6.5v-4.1H172v4.1H165.6z"/>
	<path class="st0" d="M175.5,330.2V223.7l11.8-0.1v4.1l-10.3,0.1V273h8.8v4.1H177V326h10.3v4.1H175.5z"/>
	<path class="st0" d="M204.3,300.4v0.4c0,2.1,0,4.2-0.1,6.5c0,2.3-0.1,4.6-0.3,6.8c-0.1,2.3-0.4,4.4-0.7,6.5c-0.3,2-0.7,3.8-1.2,5.4
		c-0.5,1.6-1.2,2.8-1.9,3.8c-0.8,0.9-1.7,1.4-2.8,1.4h0c-1.1,0-2.1-0.5-2.9-1.4c-0.8-1-1.4-2.3-2-3.9c-0.5-1.6-0.9-3.5-1.2-5.7
		c-0.3-2.2-0.5-4.4-0.6-6.9c-0.1-2.4-0.2-4.9-0.3-7.5c0-2.5,0-5,0-7.4v-42.9c0-2.5,0-5.1,0.1-7.7c0-2.6,0.1-5.1,0.3-7.5
		c0.1-2.4,0.4-4.7,0.7-6.9c0.3-2.2,0.7-4,1.2-5.6c0.5-1.6,1.2-2.9,1.9-3.8c0.8-0.9,1.7-1.4,2.8-1.4c1.1,0,2.1,0.5,2.9,1.4
		c0.8,1,1.4,2.2,2,3.9c0.5,1.6,0.9,3.5,1.2,5.5c0.3,2.1,0.5,4.2,0.6,6.5c0.1,2.2,0.2,4.5,0.3,6.7c0,2.3,0,4.4,0,6.3v0.4h-1.5v-0.4
		c0-3.6-0.1-6.9-0.2-10.1s-0.4-6-0.7-8.3s-0.9-4.3-1.7-5.6c-0.7-1.4-1.7-2.1-3-2.1s-2.2,0.7-3,2.2c-0.7,1.5-1.3,3.5-1.7,6
		s-0.6,5.6-0.7,9.2c-0.1,3.5-0.2,7.4-0.2,11.5v42.6c0,2.6,0,5.1,0,7.6c0,2.4,0.1,4.7,0.2,6.8c0.1,2.1,0.3,4.1,0.5,5.8
		c0.2,1.8,0.6,3.3,1,4.5c0.4,1.3,0.9,2.2,1.5,2.9s1.4,1.1,2.2,1.1c1.2,0,2.1-0.7,2.9-2c0.7-1.3,1.3-3.1,1.7-5.5
		c0.4-2.4,0.7-5.1,0.8-8.3c0.1-3.2,0.2-6.7,0.2-10.5v-0.3H204.3z"/>
	<path class="st0" d="M222.7,306.1c0,4.6-0.2,8.4-0.5,11.5c-0.3,3.1-0.8,5.5-1.4,7.4c-0.6,1.9-1.3,3.2-2.1,4
		c-0.8,0.8-1.8,1.2-2.8,1.2h-6.3V223.6h1.5v44.6h4.4c1.2,0,2.2,0.4,3.1,1.1c0.9,0.7,1.7,2,2.3,3.8c0.6,1.8,1.1,4.3,1.4,7.5
		c0.3,3.2,0.5,7.2,0.5,12.1V306.1z M221.2,292.6c0-3.8-0.1-7-0.3-9.6c-0.2-2.6-0.5-4.7-1-6.3c-0.5-1.6-1-2.7-1.8-3.4
		c-0.7-0.7-1.6-1-2.6-1H211v53.5h4.9c1,0,1.8-0.4,2.5-1.3c0.7-0.8,1.2-2.1,1.6-3.8c0.4-1.7,0.7-3.8,0.9-6.2c0.2-2.5,0.3-5.3,0.3-8.5
		V292.6z"/>
	<path class="st0" d="M250.7,300.4v0.4c0,2.1,0,4.2-0.1,6.5c0,2.3-0.1,4.6-0.3,6.8c-0.1,2.3-0.4,4.4-0.7,6.5c-0.3,2-0.7,3.8-1.2,5.4
		c-0.5,1.6-1.2,2.8-1.9,3.8c-0.8,0.9-1.7,1.4-2.8,1.4h0c-1.1,0-2.1-0.5-2.9-1.4c-0.8-1-1.4-2.3-2-3.9c-0.5-1.6-0.9-3.5-1.2-5.7
		c-0.3-2.2-0.5-4.4-0.6-6.9c-0.1-2.4-0.2-4.9-0.3-7.5c0-2.5,0-5,0-7.4v-42.9c0-2.5,0-5.1,0.1-7.7c0-2.6,0.1-5.1,0.3-7.5
		c0.1-2.4,0.4-4.7,0.7-6.9c0.3-2.2,0.7-4,1.2-5.6c0.5-1.6,1.2-2.9,1.9-3.8c0.8-0.9,1.7-1.4,2.8-1.4c1.1,0,2.1,0.5,2.9,1.4
		c0.8,1,1.4,2.2,2,3.9c0.5,1.6,0.9,3.5,1.2,5.5c0.3,2.1,0.5,4.2,0.6,6.5c0.1,2.2,0.2,4.5,0.3,6.7c0,2.3,0,4.4,0,6.3v0.4h-1.5v-0.4
		c0-3.6-0.1-6.9-0.2-10.1s-0.4-6-0.7-8.3s-0.9-4.3-1.7-5.6c-0.7-1.4-1.7-2.1-3-2.1s-2.2,0.7-3,2.2c-0.7,1.5-1.3,3.5-1.7,6
		s-0.6,5.6-0.7,9.2c-0.1,3.5-0.2,7.4-0.2,11.5v42.6c0,2.6,0,5.1,0,7.6c0,2.4,0.1,4.7,0.2,6.8c0.1,2.1,0.3,4.1,0.5,5.8
		c0.2,1.8,0.6,3.3,1,4.5c0.4,1.3,0.9,2.2,1.5,2.9s1.4,1.1,2.2,1.1c1.2,0,2.1-0.7,2.9-2c0.7-1.3,1.3-3.1,1.7-5.5
		c0.4-2.4,0.7-5.1,0.8-8.3c0.1-3.2,0.2-6.7,0.2-10.5v-0.3H250.7z"/>
	<path class="st0" d="M277.3,330.2V227.7h-0.4l-9.1,102.5h-3.2l0.2-106.6h1.5V326h0.5l9-102.5h3.1v106.6H277.3z"/>
	<path class="st0" d="M284.8,330.2V223.6h1.5v50.9h10.5v-50.9h1.5v106.6h-1.5v-51.5h-10.5v51.5H284.8z"/>
	<path class="st0" d="M317.8,300.4v0.4c0,2.1,0,4.2-0.1,6.5c0,2.3-0.1,4.6-0.3,6.8c-0.1,2.3-0.4,4.4-0.7,6.5c-0.3,2-0.7,3.8-1.2,5.4
		c-0.5,1.6-1.2,2.8-1.9,3.8c-0.8,0.9-1.7,1.4-2.8,1.4h0c-1.1,0-2.1-0.5-2.9-1.4c-0.8-1-1.4-2.3-2-3.9c-0.5-1.6-0.9-3.5-1.2-5.7
		c-0.3-2.2-0.5-4.4-0.6-6.9c-0.1-2.4-0.2-4.9-0.3-7.5c0-2.5,0-5,0-7.4v-42.9c0-2.5,0-5.1,0.1-7.7c0-2.6,0.1-5.1,0.3-7.5
		c0.1-2.4,0.4-4.7,0.7-6.9c0.3-2.2,0.7-4,1.2-5.6c0.5-1.6,1.2-2.9,1.9-3.8c0.8-0.9,1.7-1.4,2.8-1.4c1.1,0,2.1,0.5,2.9,1.4
		c0.8,1,1.4,2.2,2,3.9c0.5,1.6,0.9,3.5,1.2,5.5c0.3,2.1,0.5,4.2,0.6,6.5c0.1,2.2,0.2,4.5,0.3,6.7c0,2.3,0,4.4,0,6.3v0.4h-1.5v-0.4
		c0-3.6-0.1-6.9-0.2-10.1s-0.4-6-0.7-8.3s-0.9-4.3-1.7-5.6c-0.7-1.4-1.7-2.1-3-2.1s-2.2,0.7-3,2.2c-0.7,1.5-1.3,3.5-1.7,6
		s-0.6,5.6-0.7,9.2c-0.1,3.5-0.2,7.4-0.2,11.5v42.6c0,2.6,0,5.1,0,7.6c0,2.4,0.1,4.7,0.2,6.8c0.1,2.1,0.3,4.1,0.5,5.8
		c0.2,1.8,0.6,3.3,1,4.5c0.4,1.3,0.9,2.2,1.5,2.9s1.4,1.1,2.2,1.1c1.2,0,2.1-0.7,2.9-2c0.7-1.3,1.3-3.1,1.7-5.5
		c0.4-2.4,0.7-5.1,0.8-8.3c0.1-3.2,0.2-6.7,0.2-10.5v-0.3H317.8z"/>
	<path class="st0" d="M327.8,227.8v102.3h-1.5V227.8h-6.5v-4.1h14.4v4.1H327.8z"/>
	<path class="st0" d="M351.2,261.2c0,4.9-0.2,8.9-0.5,12.1c-0.3,3.2-0.8,5.6-1.4,7.5c-0.6,1.8-1.4,3.1-2.3,3.8
		c-0.9,0.7-1.9,1.1-3.1,1.1h-4.4v44.6h-1.5V223.6h6.3c1,0,2,0.4,2.8,1.2c0.8,0.8,1.6,2.1,2.1,4c0.6,1.9,1,4.4,1.4,7.5
		c0.3,3.1,0.5,6.9,0.5,11.4V261.2z M349.7,247.7c0-3.2-0.1-6.1-0.3-8.5c-0.2-2.5-0.5-4.5-0.9-6.2c-0.4-1.7-1-2.9-1.6-3.8
		c-0.7-0.8-1.5-1.3-2.5-1.3h-4.9v53.5h4.5c1,0,1.9-0.3,2.6-1c0.7-0.7,1.3-1.8,1.8-3.4c0.5-1.6,0.8-3.7,1-6.3
		c0.2-2.6,0.3-5.8,0.3-9.6V247.7z"/>
	<path class="st0" d="M362.5,291.6l-3.5,38.6h-1.5l3.6-39.5l-6.6-67h1.5l5.9,59.8l6-59.8h1.6L362.5,291.6z"/>
	<path class="st0" d="M373.6,330.2V223.6h1.5v50.9h3.6l7.4-50.8h1.6l-7.8,52.7l8.5,53.8h-1.6l-8.2-51.5H375v51.5H373.6z"/>
	<path class="st0" d="M405.4,223.6V326h2.4v16.4h-1.5v-12.3H392V223.6h1.5V326H404V223.6H405.4z"/>
	<path class="st0" d="M425.1,330.2V227.7h-0.4l-9.1,102.5h-3.2l0.2-106.6h1.5V326h0.5l9-102.5h3.1v106.6H425.1z"/>
	<path class="st0" d="M432.3,330.2V223.7l11.8-0.1v4.1l-10.3,0.1V273h8.8v4.1h-8.8V326h10.3v4.1H432.3z"/>
	<path class="st0" d="M461,330.2V227.7h-0.5l-9.1,102.5h-3.2l0.2-106.6h1.5V326h0.4l9.1-102.5h3.1v106.6H461z M460.4,204.4
		c-0.1,4.3-0.6,7.5-1.4,9.8c-0.8,2.3-1.9,3.4-3.3,3.4c-1.5,0-2.6-1.2-3.4-3.5c-0.8-2.4-1.2-5.6-1.3-9.6h1.3c0.1,3.2,0.4,5.6,1.1,7.1
		s1.4,2.3,2.4,2.3c1,0,1.8-0.8,2.4-2.3s1-3.9,1-7.1H460.4z"/>
	<path class="st0" d="M490,330.2V227.7h-0.4l-9.1,102.5h-3.2l0.2-106.6h1.5V326h0.5l9-102.5h3.1v106.6H490z"/>
	<path class="st0" d="M511,330.2V227.7h-10.5V299c0,6.2-0.1,11.3-0.2,15.5c-0.1,4.1-0.4,7.5-0.8,9.9c-0.4,2.5-1,4.2-1.7,5.3
		c-0.7,1-1.7,1.5-3,1.5V327c1,0,1.7-0.5,2.3-1.4c0.6-0.9,1-2.5,1.3-4.7c0.3-2.2,0.5-5.1,0.5-8.7s0.1-8,0.1-13.4v-75.3h13.5v106.6
		H511z"/>
	<path class="st0" d="M532,330.2V227.7h-0.4l-9.1,102.5h-3.2l0.2-106.6h1.5V326h0.5l9-102.5h3.1v106.6H532z"/>
	<path class="st0" d="M548.5,330.2V223.6h13.5v106.6h-1.5V227.7h-10.5v102.5H548.5z"/>
	<path class="st0" d="M582,261.2c0,4.9-0.2,8.9-0.5,12.1c-0.3,3.2-0.8,5.6-1.4,7.5c-0.6,1.8-1.4,3.1-2.3,3.8
		c-0.9,0.7-1.9,1.1-3.1,1.1h-4.4v44.6h-1.5V223.6h6.3c1,0,2,0.4,2.8,1.2c0.8,0.8,1.6,2.1,2.1,4c0.6,1.9,1,4.4,1.4,7.5
		c0.3,3.1,0.5,6.9,0.5,11.4V261.2z M580.5,247.7c0-3.2-0.1-6.1-0.3-8.5c-0.2-2.5-0.5-4.5-0.9-6.2c-0.4-1.7-1-2.9-1.6-3.8
		c-0.7-0.8-1.5-1.3-2.5-1.3h-4.9v53.5h4.5c1,0,1.9-0.3,2.6-1c0.7-0.7,1.3-1.8,1.8-3.4c0.5-1.6,0.8-3.7,1-6.3
		c0.2-2.6,0.3-5.8,0.3-9.6V247.7z"/>
	<path class="st0" d="M593.8,222.6c1.1,0,2.1,0.5,2.9,1.4c0.8,1,1.4,2.2,2,3.9s0.9,3.5,1.2,5.7c0.3,2.2,0.5,4.5,0.6,6.9
		c0.1,2.4,0.2,4.9,0.3,7.5c0,2.5,0,5,0,7.4v42.9c0,2.5,0,5.1-0.1,7.7c0,2.6-0.1,5.1-0.3,7.5c-0.1,2.4-0.4,4.7-0.7,6.9
		c-0.3,2.2-0.7,4-1.2,5.6c-0.5,1.6-1.2,2.9-1.9,3.8c-0.8,0.9-1.7,1.4-2.8,1.4h0c-1.1,0-2.1-0.5-2.9-1.4c-0.8-1-1.4-2.2-2-3.9
		s-0.9-3.5-1.2-5.7c-0.3-2.2-0.5-4.5-0.6-6.9c-0.1-2.4-0.2-4.9-0.3-7.5c0-2.5,0-5,0-7.4v-42.9c0-2.5,0-5.1,0.1-7.7
		c0-2.6,0.1-5.1,0.3-7.5c0.1-2.4,0.4-4.7,0.7-6.9c0.3-2.2,0.7-4,1.2-5.6c0.5-1.6,1.2-2.9,1.9-3.8
		C591.7,223.1,592.7,222.6,593.8,222.6L593.8,222.6z M593.8,226.7c-1.2,0-2.2,0.7-3,2.2c-0.7,1.5-1.3,3.5-1.7,6s-0.6,5.6-0.7,9.2
		c-0.1,3.5-0.2,7.4-0.2,11.5v42.6c0,2.6,0,5.1,0,7.6c0,2.4,0.1,4.7,0.2,6.8c0.1,2.1,0.3,4.1,0.5,5.8c0.2,1.8,0.6,3.3,1,4.5
		c0.4,1.3,0.9,2.2,1.5,2.9c0.6,0.7,1.4,1.1,2.2,1.1h0c1.2,0,2.2-0.7,3-2.2c0.7-1.4,1.3-3.5,1.7-6c0.4-2.6,0.6-5.6,0.7-9.2
		c0.1-3.5,0.2-7.4,0.2-11.5v-42.6c0-3.9,0-7.6-0.1-11.1c-0.1-3.5-0.3-6.5-0.7-9.2c-0.4-2.6-0.9-4.7-1.7-6.2
		C596.1,227.5,595.1,226.7,593.8,226.7L593.8,226.7z"/>
	<path class="st0" d="M606.5,330.2V223.6h1.5v50.9h3.6l7.4-50.8h1.6l-7.8,52.7l8.5,53.8h-1.6l-8.2-51.5h-3.6v51.5H606.5z"/>
	<path class="st0" d="M630.7,222.6c1.1,0,2.1,0.5,2.9,1.4c0.8,1,1.4,2.2,2,3.9s0.9,3.5,1.2,5.7c0.3,2.2,0.5,4.5,0.6,6.9
		c0.1,2.4,0.2,4.9,0.3,7.5c0,2.5,0,5,0,7.4v42.9c0,2.5,0,5.1-0.1,7.7c0,2.6-0.1,5.1-0.3,7.5c-0.1,2.4-0.4,4.7-0.7,6.9
		c-0.3,2.2-0.7,4-1.2,5.6c-0.5,1.6-1.2,2.9-1.9,3.8c-0.8,0.9-1.7,1.4-2.8,1.4h0c-1.1,0-2.1-0.5-2.9-1.4c-0.8-1-1.4-2.2-2-3.9
		c-0.5-1.6-0.9-3.5-1.2-5.7c-0.3-2.2-0.5-4.5-0.6-6.9c-0.1-2.4-0.2-4.9-0.3-7.5c0-2.5,0-5,0-7.4v-42.9c0-2.5,0-5.1,0.1-7.7
		c0-2.6,0.1-5.1,0.3-7.5c0.1-2.4,0.4-4.7,0.7-6.9c0.3-2.2,0.7-4,1.2-5.6c0.5-1.6,1.2-2.9,1.9-3.8
		C628.6,223.1,629.6,222.6,630.7,222.6L630.7,222.6z M630.7,226.7c-1.2,0-2.2,0.7-3,2.2c-0.7,1.5-1.3,3.5-1.7,6
		c-0.4,2.6-0.6,5.6-0.7,9.2c-0.1,3.5-0.2,7.4-0.2,11.5v42.6c0,2.6,0,5.1,0,7.6c0,2.4,0.1,4.7,0.2,6.8c0.1,2.1,0.3,4.1,0.5,5.8
		c0.2,1.8,0.6,3.3,1,4.5c0.4,1.3,0.9,2.2,1.5,2.9c0.6,0.7,1.4,1.1,2.2,1.1h0c1.2,0,2.2-0.7,3-2.2c0.7-1.4,1.3-3.5,1.7-6
		c0.4-2.6,0.6-5.6,0.7-9.2c0.1-3.5,0.2-7.4,0.2-11.5v-42.6c0-3.9,0-7.6-0.1-11.1c-0.1-3.5-0.3-6.5-0.7-9.2c-0.4-2.6-0.9-4.7-1.7-6.2
		C633,227.5,632,226.7,630.7,226.7L630.7,226.7z"/>
	<path class="st0" d="M643.4,330.2V223.6h1.5v50.9h10.5v-50.9h1.5v106.6h-1.5v-51.5h-10.5v51.5H643.4z"/>
	<path class="st0" d="M676.4,300.4v0.4c0,2.1,0,4.2-0.1,6.5c0,2.3-0.1,4.6-0.3,6.8c-0.1,2.3-0.4,4.4-0.7,6.5s-0.7,3.8-1.2,5.4
		c-0.5,1.6-1.2,2.8-1.9,3.8c-0.8,0.9-1.7,1.4-2.8,1.4h0c-1.1,0-2.1-0.5-2.9-1.4c-0.8-1-1.4-2.3-2-3.9c-0.5-1.6-0.9-3.5-1.2-5.7
		c-0.3-2.2-0.5-4.4-0.6-6.9c-0.1-2.4-0.2-4.9-0.3-7.5c0-2.5,0-5,0-7.4v-42.9c0-2.5,0-5.1,0.1-7.7c0-2.6,0.1-5.1,0.3-7.5
		c0.1-2.4,0.4-4.7,0.7-6.9c0.3-2.2,0.7-4,1.2-5.6c0.5-1.6,1.2-2.9,1.9-3.8c0.8-0.9,1.7-1.4,2.8-1.4c1.1,0,2.1,0.5,2.9,1.4
		c0.8,1,1.4,2.2,2,3.9c0.5,1.6,0.9,3.5,1.2,5.5c0.3,2.1,0.5,4.2,0.6,6.5c0.1,2.2,0.2,4.5,0.3,6.7c0,2.3,0,4.4,0,6.3v0.4h-1.5v-0.4
		c0-3.6-0.1-6.9-0.2-10.1c-0.1-3.2-0.4-6-0.7-8.3c-0.4-2.4-0.9-4.3-1.7-5.6c-0.7-1.4-1.7-2.1-3-2.1c-1.2,0-2.2,0.7-3,2.2
		c-0.7,1.5-1.3,3.5-1.7,6c-0.4,2.6-0.6,5.6-0.7,9.2c-0.1,3.5-0.2,7.4-0.2,11.5v42.6c0,2.6,0,5.1,0,7.6c0,2.4,0.1,4.7,0.2,6.8
		c0.1,2.1,0.3,4.1,0.5,5.8c0.2,1.8,0.6,3.3,1,4.5c0.4,1.3,0.9,2.2,1.5,2.9s1.4,1.1,2.2,1.1c1.2,0,2.1-0.7,2.9-2
		c0.7-1.3,1.3-3.1,1.7-5.5s0.7-5.1,0.8-8.3c0.1-3.2,0.2-6.7,0.2-10.5v-0.3H676.4z"/>
	<path class="st0" d="M686.9,291.6l-3.5,38.6h-1.5l3.6-39.5l-6.6-67h1.5l5.9,59.8l6-59.8h1.6L686.9,291.6z"/>
	<path class="st0" d="M711.6,330.2V227.7H701V299c0,6.2-0.1,11.3-0.2,15.5c-0.1,4.1-0.4,7.5-0.8,9.9c-0.4,2.5-1,4.2-1.7,5.3
		c-0.7,1-1.7,1.5-3,1.5V327c1,0,1.7-0.5,2.3-1.4c0.6-0.9,1-2.5,1.3-4.7c0.3-2.2,0.5-5.1,0.5-8.7s0.1-8,0.1-13.4v-75.3H713v106.6
		H711.6z"/>
	<path class="st0" d="M733.2,306.1c0,4.6-0.2,8.4-0.5,11.5s-0.8,5.5-1.4,7.4c-0.6,1.9-1.3,3.2-2.1,4c-0.8,0.8-1.8,1.2-2.8,1.2H720
		V223.6h1.5v44.6h4.4c1.2,0,2.2,0.4,3.1,1.1c0.9,0.7,1.7,2,2.3,3.8s1.1,4.3,1.4,7.5c0.3,3.2,0.5,7.2,0.5,12.1V306.1z M731.7,292.6
		c0-3.8-0.1-7-0.3-9.6c-0.2-2.6-0.5-4.7-1-6.3c-0.5-1.6-1-2.7-1.8-3.4c-0.7-0.7-1.6-1-2.6-1h-4.5v53.5h4.9c1,0,1.8-0.4,2.5-1.3
		c0.7-0.8,1.2-2.1,1.6-3.8c0.4-1.7,0.7-3.8,0.9-6.2c0.2-2.5,0.3-5.3,0.3-8.5V292.6z"/>
	<path class="st0" d="M744.2,227.8v102.3h-1.5V227.8h-6.5v-4.1h14.4v4.1H744.2z"/>
	<path class="st0" d="M767.1,330.2V227.7h-0.4l-9.1,102.5h-3.2l0.2-106.6h1.5V326h0.5l9-102.5h3.1v106.6H767.1z"/>
	<path class="st0" d="M787.8,261.2c0,4.9-0.2,8.9-0.5,12.1c-0.3,3.2-0.8,5.6-1.4,7.5s-1.4,3.1-2.3,3.8c-0.9,0.7-1.9,1.1-3.1,1.1
		h-4.4v44.6h-1.5V223.6h6.3c1,0,2,0.4,2.8,1.2s1.6,2.1,2.1,4c0.6,1.9,1,4.4,1.4,7.5s0.5,6.9,0.5,11.4V261.2z M786.4,247.7
		c0-3.2-0.1-6.1-0.3-8.5c-0.2-2.5-0.5-4.5-0.9-6.2c-0.4-1.7-1-2.9-1.6-3.8c-0.7-0.8-1.5-1.3-2.5-1.3h-4.9v53.5h4.5
		c1,0,1.9-0.3,2.6-1c0.7-0.7,1.3-1.8,1.8-3.4c0.5-1.6,0.8-3.7,1-6.3c0.2-2.6,0.3-5.8,0.3-9.6V247.7z"/>
	<path class="st0" d="M799.1,291.6l-3.5,38.6h-1.5l3.6-39.5l-6.6-67h1.5l5.9,59.8l6-59.8h1.6L799.1,291.6z"/>
	<path class="st0" d="M822.9,330.2V227.7h-0.5l-9.1,102.5h-3.2l0.2-106.6h1.5V326h0.4l9.1-102.5h3.1v106.6H822.9z M822.4,204.4
		c-0.1,4.3-0.6,7.5-1.4,9.8c-0.8,2.3-1.9,3.4-3.3,3.4c-1.5,0-2.6-1.2-3.4-3.5c-0.8-2.4-1.2-5.6-1.3-9.6h1.3c0.1,3.2,0.4,5.6,1.1,7.1
		s1.4,2.3,2.4,2.3s1.8-0.8,2.4-2.3s1-3.9,1-7.1H822.4z"/>
	<path class="st0" d="M835.2,227.8v102.3h-1.5V227.8h-6.5v-4.1h14.4v4.1H835.2z"/>
	<path class="st0" d="M845.2,330.2V223.7l11.8-0.1v4.1l-10.3,0.1V273h8.8v4.1h-8.8V326H857v4.1H845.2z"/>
	<path class="st0" d="M874,300.4v0.4c0,2.1,0,4.2-0.1,6.5c0,2.3-0.1,4.6-0.3,6.8c-0.1,2.3-0.4,4.4-0.7,6.5s-0.7,3.8-1.2,5.4
		c-0.5,1.6-1.2,2.8-1.9,3.8c-0.8,0.9-1.7,1.4-2.8,1.4h0c-1.1,0-2.1-0.5-2.9-1.4c-0.8-1-1.4-2.3-2-3.9c-0.5-1.6-0.9-3.5-1.2-5.7
		c-0.3-2.2-0.5-4.4-0.6-6.9c-0.1-2.4-0.2-4.9-0.3-7.5c0-2.5,0-5,0-7.4v-42.9c0-2.5,0-5.1,0.1-7.7c0-2.6,0.1-5.1,0.3-7.5
		c0.1-2.4,0.4-4.7,0.7-6.9c0.3-2.2,0.7-4,1.2-5.6c0.5-1.6,1.2-2.9,1.9-3.8c0.8-0.9,1.7-1.4,2.8-1.4c1.1,0,2.1,0.5,2.9,1.4
		c0.8,1,1.4,2.2,2,3.9c0.5,1.6,0.9,3.5,1.2,5.5c0.3,2.1,0.5,4.2,0.6,6.5c0.1,2.2,0.2,4.5,0.3,6.7c0,2.3,0,4.4,0,6.3v0.4h-1.5v-0.4
		c0-3.6-0.1-6.9-0.2-10.1c-0.1-3.2-0.4-6-0.7-8.3c-0.4-2.4-0.9-4.3-1.7-5.6c-0.7-1.4-1.7-2.1-3-2.1c-1.2,0-2.2,0.7-3,2.2
		c-0.7,1.5-1.3,3.5-1.7,6c-0.4,2.6-0.6,5.6-0.7,9.2c-0.1,3.5-0.2,7.4-0.2,11.5v42.6c0,2.6,0,5.1,0,7.6c0,2.4,0.1,4.7,0.2,6.8
		c0.1,2.1,0.3,4.1,0.5,5.8c0.2,1.8,0.6,3.3,1,4.5c0.4,1.3,0.9,2.2,1.5,2.9s1.4,1.1,2.2,1.1c1.2,0,2.1-0.7,2.9-2
		c0.7-1.3,1.3-3.1,1.7-5.5s0.7-5.1,0.8-8.3c0.1-3.2,0.2-6.7,0.2-10.5v-0.3H874z"/>
	<path class="st0" d="M892.3,306.1c0,4.6-0.2,8.4-0.5,11.5s-0.8,5.5-1.4,7.4c-0.6,1.9-1.3,3.2-2.1,4c-0.8,0.8-1.8,1.2-2.8,1.2h-6.3
		V223.6h1.5v44.6h4.4c1.2,0,2.2,0.4,3.1,1.1c0.9,0.7,1.7,2,2.3,3.8s1.1,4.3,1.4,7.5c0.3,3.2,0.5,7.2,0.5,12.1V306.1z M890.9,292.6
		c0-3.8-0.1-7-0.3-9.6c-0.2-2.6-0.5-4.7-1-6.3c-0.5-1.6-1-2.7-1.8-3.4c-0.7-0.7-1.6-1-2.6-1h-4.5v53.5h4.9c1,0,1.8-0.4,2.5-1.3
		c0.7-0.8,1.2-2.1,1.6-3.8c0.4-1.7,0.7-3.8,0.9-6.2c0.2-2.5,0.3-5.3,0.3-8.5V292.6z"/>
	<path class="st0" d="M920.3,300.4v0.4c0,2.1,0,4.2-0.1,6.5c0,2.3-0.1,4.6-0.3,6.8c-0.1,2.3-0.4,4.4-0.7,6.5s-0.7,3.8-1.2,5.4
		c-0.5,1.6-1.2,2.8-1.9,3.8c-0.8,0.9-1.7,1.4-2.8,1.4h0c-1.1,0-2.1-0.5-2.9-1.4c-0.8-1-1.4-2.3-2-3.9c-0.5-1.6-0.9-3.5-1.2-5.7
		c-0.3-2.2-0.5-4.4-0.6-6.9c-0.1-2.4-0.2-4.9-0.3-7.5c0-2.5,0-5,0-7.4v-42.9c0-2.5,0-5.1,0.1-7.7c0-2.6,0.1-5.1,0.3-7.5
		c0.1-2.4,0.4-4.7,0.7-6.9c0.3-2.2,0.7-4,1.2-5.6c0.5-1.6,1.2-2.9,1.9-3.8c0.8-0.9,1.7-1.4,2.8-1.4c1.1,0,2.1,0.5,2.9,1.4
		c0.8,1,1.4,2.2,2,3.9c0.5,1.6,0.9,3.5,1.2,5.5c0.3,2.1,0.5,4.2,0.6,6.5c0.1,2.2,0.2,4.5,0.3,6.7c0,2.3,0,4.4,0,6.3v0.4h-1.5v-0.4
		c0-3.6-0.1-6.9-0.2-10.1c-0.1-3.2-0.4-6-0.7-8.3c-0.4-2.4-0.9-4.3-1.7-5.6c-0.7-1.4-1.7-2.1-3-2.1c-1.2,0-2.2,0.7-3,2.2
		c-0.7,1.5-1.3,3.5-1.7,6c-0.4,2.6-0.6,5.6-0.7,9.2c-0.1,3.5-0.2,7.4-0.2,11.5v42.6c0,2.6,0,5.1,0,7.6c0,2.4,0.1,4.7,0.2,6.8
		c0.1,2.1,0.3,4.1,0.5,5.8c0.2,1.8,0.6,3.3,1,4.5c0.4,1.3,0.9,2.2,1.5,2.9s1.4,1.1,2.2,1.1c1.2,0,2.1-0.7,2.9-2
		c0.7-1.3,1.3-3.1,1.7-5.5s0.7-5.1,0.8-8.3c0.1-3.2,0.2-6.7,0.2-10.5v-0.3H920.3z"/>
	<path class="st0" d="M931.4,222.6c1.1,0,2.1,0.5,2.9,1.4c0.8,1,1.4,2.2,2,3.9s0.9,3.5,1.2,5.7c0.3,2.2,0.5,4.5,0.6,6.9
		c0.1,2.4,0.2,4.9,0.3,7.5c0,2.5,0,5,0,7.4v42.9c0,2.5,0,5.1-0.1,7.7c0,2.6-0.1,5.1-0.3,7.5c-0.1,2.4-0.4,4.7-0.7,6.9
		c-0.3,2.2-0.7,4-1.2,5.6c-0.5,1.6-1.2,2.9-1.9,3.8c-0.8,0.9-1.7,1.4-2.8,1.4h0c-1.1,0-2.1-0.5-2.9-1.4c-0.8-1-1.4-2.2-2-3.9
		c-0.5-1.6-0.9-3.5-1.2-5.7c-0.3-2.2-0.5-4.5-0.6-6.9c-0.1-2.4-0.2-4.9-0.3-7.5c0-2.5,0-5,0-7.4v-42.9c0-2.5,0-5.1,0.1-7.7
		c0-2.6,0.1-5.1,0.3-7.5c0.1-2.4,0.4-4.7,0.7-6.9c0.3-2.2,0.7-4,1.2-5.6c0.5-1.6,1.2-2.9,1.9-3.8
		C929.3,223.1,930.2,222.6,931.4,222.6L931.4,222.6z M931.3,226.7c-1.2,0-2.2,0.7-3,2.2c-0.7,1.5-1.3,3.5-1.7,6
		c-0.4,2.6-0.6,5.6-0.7,9.2c-0.1,3.5-0.2,7.4-0.2,11.5v42.6c0,2.6,0,5.1,0,7.6c0,2.4,0.1,4.7,0.2,6.8c0.1,2.1,0.3,4.1,0.5,5.8
		c0.2,1.8,0.6,3.3,1,4.5c0.4,1.3,0.9,2.2,1.5,2.9c0.6,0.7,1.4,1.1,2.2,1.1h0c1.2,0,2.2-0.7,3-2.2c0.7-1.4,1.3-3.5,1.7-6
		c0.4-2.6,0.6-5.6,0.7-9.2c0.1-3.5,0.2-7.4,0.2-11.5v-42.6c0-3.9,0-7.6-0.1-11.1c-0.1-3.5-0.3-6.5-0.7-9.2c-0.4-2.6-0.9-4.7-1.7-6.2
		C933.7,227.5,932.7,226.7,931.3,226.7L931.3,226.7z"/>
	<path class="st0" d="M965.8,300.4v0.4c0,2.1,0,4.2-0.1,6.5c0,2.3-0.1,4.6-0.3,6.8c-0.1,2.3-0.4,4.4-0.7,6.5s-0.7,3.8-1.2,5.4
		c-0.5,1.6-1.2,2.8-1.9,3.8c-0.8,0.9-1.7,1.4-2.8,1.4h0c-1.1,0-2.1-0.5-2.9-1.4c-0.8-1-1.4-2.3-2-3.9c-0.5-1.6-0.9-3.5-1.2-5.7
		c-0.3-2.2-0.5-4.4-0.6-6.9c-0.1-2.4-0.2-4.9-0.3-7.5c0-2.5,0-5,0-7.4v-42.9c0-2.5,0-5.1,0.1-7.7c0-2.6,0.1-5.1,0.3-7.5
		c0.1-2.4,0.4-4.7,0.7-6.9c0.3-2.2,0.7-4,1.2-5.6c0.5-1.6,1.2-2.9,1.9-3.8c0.8-0.9,1.7-1.4,2.8-1.4c1.1,0,2.1,0.5,2.9,1.4
		c0.8,1,1.4,2.2,2,3.9c0.5,1.6,0.9,3.5,1.2,5.5c0.3,2.1,0.5,4.2,0.6,6.5c0.1,2.2,0.2,4.5,0.3,6.7c0,2.3,0,4.4,0,6.3v0.4h-1.5v-0.4
		c0-3.6-0.1-6.9-0.2-10.1c-0.1-3.2-0.4-6-0.7-8.3c-0.4-2.4-0.9-4.3-1.7-5.6c-0.7-1.4-1.7-2.1-3-2.1c-1.2,0-2.2,0.7-3,2.2
		c-0.7,1.5-1.3,3.5-1.7,6c-0.4,2.6-0.6,5.6-0.7,9.2c-0.1,3.5-0.2,7.4-0.2,11.5v42.6c0,2.6,0,5.1,0,7.6c0,2.4,0.1,4.7,0.2,6.8
		c0.1,2.1,0.3,4.1,0.5,5.8c0.2,1.8,0.6,3.3,1,4.5c0.4,1.3,0.9,2.2,1.5,2.9s1.4,1.1,2.2,1.1c1.2,0,2.1-0.7,2.9-2
		c0.7-1.3,1.3-3.1,1.7-5.5s0.7-5.1,0.8-8.3c0.1-3.2,0.2-6.7,0.2-10.5v-0.3H965.8z"/>
	<path class="st0" d="M971,330.2V223.6h13.5v106.6H983V227.7h-10.5v102.5H971z"/>
	<path class="st0" d="M991.1,330.2V223.7l11.8-0.1v4.1l-10.3,0.1V273h8.8v4.1h-8.8V326h10.3v4.1H991.1z"/>
	<path class="st0" d="M1020.6,223.6V326h2.4v16.4h-1.5v-12.3h-14.4V223.6h1.5V326h10.5V223.6H1020.6z"/>
	<path class="st0" d="M1040.2,330.2V227.7h-0.4l-9.1,102.5h-3.2l0.2-106.6h1.5V326h0.5l9-102.5h3.1v106.6H1040.2z"/>
	<path class="st0" d="M1059.5,330.2l-1.9-28.6h-9.9l-1.9,28.6h-1.5l7-106.6h2.7l7,106.6H1059.5z M1048.1,297.4h9.3l-4.5-69.7h-0.3
		L1048.1,297.4z"/>
	<path class="st0" d="M1078.2,330.2V227.7h-10.5V299c0,6.2-0.1,11.3-0.2,15.5c-0.1,4.1-0.4,7.5-0.8,9.9c-0.4,2.5-1,4.2-1.7,5.3
		c-0.7,1-1.7,1.5-3,1.5V327c1,0,1.7-0.5,2.3-1.4c0.6-0.9,1-2.5,1.3-4.7c0.3-2.2,0.5-5.1,0.5-8.7s0.1-8,0.1-13.4v-75.3h13.5v106.6
		H1078.2z"/>
	<path class="st0" d="M1099.2,330.2V227.7h-0.4l-9.1,102.5h-3.2l0.2-106.6h1.5V326h0.5l9-102.5h3.1v106.6H1099.2z"/>
	<path class="st0" d="M1119.6,300.4v0.4c0,2.1,0,4.2-0.1,6.5c0,2.3-0.1,4.6-0.3,6.8c-0.1,2.3-0.4,4.4-0.7,6.5s-0.7,3.8-1.2,5.4
		c-0.5,1.6-1.2,2.8-1.9,3.8c-0.8,0.9-1.7,1.4-2.8,1.4h0c-1.1,0-2.1-0.5-2.9-1.4c-0.8-1-1.4-2.3-2-3.9c-0.5-1.6-0.9-3.5-1.2-5.7
		c-0.3-2.2-0.5-4.4-0.6-6.9c-0.1-2.4-0.2-4.9-0.3-7.5c0-2.5,0-5,0-7.4v-42.9c0-2.5,0-5.1,0.1-7.7c0-2.6,0.1-5.1,0.3-7.5
		c0.1-2.4,0.4-4.7,0.7-6.9c0.3-2.2,0.7-4,1.2-5.6c0.5-1.6,1.2-2.9,1.9-3.8c0.8-0.9,1.7-1.4,2.8-1.4c1.1,0,2.1,0.5,2.9,1.4
		c0.8,1,1.4,2.2,2,3.9c0.5,1.6,0.9,3.5,1.2,5.5c0.3,2.1,0.5,4.2,0.6,6.5c0.1,2.2,0.2,4.5,0.3,6.7c0,2.3,0,4.4,0,6.3v0.4h-1.5v-0.4
		c0-3.6-0.1-6.9-0.2-10.1c-0.1-3.2-0.4-6-0.7-8.3c-0.4-2.4-0.9-4.3-1.7-5.6c-0.7-1.4-1.7-2.1-3-2.1c-1.2,0-2.2,0.7-3,2.2
		c-0.7,1.5-1.3,3.5-1.7,6c-0.4,2.6-0.6,5.6-0.7,9.2c-0.1,3.5-0.2,7.4-0.2,11.5v42.6c0,2.6,0,5.1,0,7.6c0,2.4,0.1,4.7,0.2,6.8
		c0.1,2.1,0.3,4.1,0.5,5.8c0.2,1.8,0.6,3.3,1,4.5c0.4,1.3,0.9,2.2,1.5,2.9s1.4,1.1,2.2,1.1c1.2,0,2.1-0.7,2.9-2
		c0.7-1.3,1.3-3.1,1.7-5.5s0.7-5.1,0.8-8.3c0.1-3.2,0.2-6.7,0.2-10.5v-0.3H1119.6z"/>
	<path class="st0" d="M1129.5,227.8v102.3h-1.5V227.8h-6.5v-4.1h14.4v4.1H1129.5z"/>
	<path class="st0" d="M1144.5,222.6c1.1,0,2.1,0.5,2.9,1.4c0.8,1,1.4,2.2,2,3.9s0.9,3.5,1.2,5.7c0.3,2.2,0.5,4.5,0.6,6.9
		c0.1,2.4,0.2,4.9,0.3,7.5c0,2.5,0,5,0,7.4v42.9c0,2.5,0,5.1-0.1,7.7c0,2.6-0.1,5.1-0.3,7.5c-0.1,2.4-0.4,4.7-0.7,6.9
		c-0.3,2.2-0.7,4-1.2,5.6c-0.5,1.6-1.2,2.9-1.9,3.8c-0.8,0.9-1.7,1.4-2.8,1.4h0c-1.1,0-2.1-0.5-2.9-1.4c-0.8-1-1.4-2.2-2-3.9
		c-0.5-1.6-0.9-3.5-1.2-5.7c-0.3-2.2-0.5-4.5-0.6-6.9c-0.1-2.4-0.2-4.9-0.3-7.5c0-2.5,0-5,0-7.4v-42.9c0-2.5,0-5.1,0.1-7.7
		c0-2.6,0.1-5.1,0.3-7.5c0.1-2.4,0.4-4.7,0.7-6.9c0.3-2.2,0.7-4,1.2-5.6c0.5-1.6,1.2-2.9,1.9-3.8
		C1142.4,223.1,1143.4,222.6,1144.5,222.6L1144.5,222.6z M1144.5,226.7c-1.2,0-2.2,0.7-3,2.2c-0.7,1.5-1.3,3.5-1.7,6
		c-0.4,2.6-0.6,5.6-0.7,9.2c-0.1,3.5-0.2,7.4-0.2,11.5v42.6c0,2.6,0,5.1,0,7.6c0,2.4,0.1,4.7,0.2,6.8c0.1,2.1,0.3,4.1,0.5,5.8
		c0.2,1.8,0.6,3.3,1,4.5c0.4,1.3,0.9,2.2,1.5,2.9c0.6,0.7,1.4,1.1,2.2,1.1h0c1.2,0,2.2-0.7,3-2.2c0.7-1.4,1.3-3.5,1.7-6
		c0.4-2.6,0.6-5.6,0.7-9.2c0.1-3.5,0.2-7.4,0.2-11.5v-42.6c0-3.9,0-7.6-0.1-11.1c-0.1-3.5-0.3-6.5-0.7-9.2c-0.4-2.6-0.9-4.7-1.7-6.2
		C1146.9,227.5,1145.8,226.7,1144.5,226.7L1144.5,226.7z"/>
	<path class="st0" d="M1158.9,227.7h-0.2v102.5h-1.5V223.6h2.9l6.8,83.7l6.8-83.7h2.9v106.6h-1.5V227.7h-0.3l-6.9,84.4h-2.1
		L1158.9,227.7z"/>
</g>
</svg>
