<?xml version="1.0" encoding="utf-8"?>
<!-- Generator: Adobe Illustrator 19.1.0, SVG Export Plug-In . SVG Version: 6.00 Build 0)  -->
<svg version="1.1" id="Слой_1" xmlns="http://www.w3.org/2000/svg" xmlns:xlink="http://www.w3.org/1999/xlink" x="0px" y="0px"
	 viewBox="0 0 1180 350" style="enable-background:new 0 0 1180 350;" xml:space="preserve">
<style type="text/css">
	.st0{fill:#FFFFFF;}
</style>
<g>
	<path class="st0" d="M14.8,163.5c-1.7-0.3-3.1-1.1-4.2-2.5c-1.2-1.4-2.1-3.3-2.9-5.5c-0.8-2.2-1.4-4.8-1.8-7.7
		c-0.4-2.9-0.7-6-0.9-9.2c-0.2-3.2-0.3-6.5-0.4-9.9c0-3.3-0.1-6.6-0.1-9.8V60.4c0-3.4,0-6.9,0.1-10.5c0.1-3.5,0.2-7,0.4-10.3
		c0.2-3.3,0.6-6.4,1.1-9.4c0.5-2.9,1.1-5.5,2-7.7c0.8-2.2,1.9-3.9,3.1-5.2c1.3-1.3,2.8-1.9,4.6-1.9h0c1.8,0,3.4,0.7,4.7,2
		c1.3,1.3,2.3,3.1,3.2,5.3s1.5,4.8,1.9,7.7c0.5,3,0.8,6.1,1,9.4c0.2,3.3,0.4,6.7,0.4,10.2c0,3.5,0.1,6.8,0.1,10.1v58.5
		c0,3.3,0,6.7-0.1,10.1c0,3.4-0.2,6.7-0.4,9.9c-0.2,3.2-0.5,6.2-1,9.1c-0.4,2.9-1,5.4-1.8,7.7c-0.7,2.2-1.7,4.1-2.8,5.5
		c-1.1,1.4-2.5,2.2-4.1,2.5V179h-2.3V163.5z M15.9,21.2c-2,0-3.6,1-4.8,3c-1.2,2-2.1,4.7-2.7,8.2s-1,7.7-1.2,12.5S6.9,54.9,6.9,60.5
		v58.1c0,3.6,0,7,0.1,10.3c0,3.3,0.2,6.4,0.4,9.3c0.2,2.9,0.5,5.5,0.9,7.9c0.4,2.4,0.9,4.4,1.6,6.2c0.7,1.7,1.5,3.1,2.5,4
		c1,1,2.2,1.4,3.6,1.4h0c2,0,3.6-1,4.8-3c1.2-2,2.1-4.7,2.7-8.2c0.6-3.5,1-7.7,1.2-12.5c0.2-4.8,0.3-10.1,0.3-15.7V60.4
		c0-5.4-0.1-10.4-0.2-15.2c-0.1-4.7-0.5-8.9-1.1-12.5c-0.6-3.6-1.5-6.4-2.7-8.5C19.6,22.2,18,21.2,15.9,21.2L15.9,21.2z"/>
	<path class="st0" d="M55.5,162.3l-3-39H36.5l-3,39h-2.4L42.4,16.9h4.3l11.3,145.4H55.5z M37,117.6H52l-7.3-95.1h-0.5L37,117.6z"/>
	<path class="st0" d="M63.7,162.3V17H74c2.1,0,3.8,0.6,5.3,1.9s2.6,3.4,3.5,6.3c0.9,2.9,1.5,6.7,1.9,11.4c0.4,4.7,0.6,10.4,0.6,17.3
		V67c0,3.6-0.2,7.1-0.5,10.3c-0.3,3.2-0.8,6.2-1.5,8.8c-0.7,2.6-1.5,4.9-2.4,6.9c-1,1.9-2.1,3.4-3.3,4.4c1,1.5,1.8,3.1,2.5,4.9
		c0.7,1.8,1.3,3.9,1.8,6.1c0.5,2.3,0.9,4.8,1.2,7.6c0.3,2.8,0.5,5.9,0.7,9.4l1,21.5c0.1,2.6,0.3,5.3,0.6,7.9c0.3,2.7,0.6,5.1,1,7.4
		h-2.6c-0.4-2.4-0.6-4.8-0.9-7.2c-0.2-2.5-0.4-5.1-0.5-7.9l-1-21.5c-0.2-4.5-0.6-8.5-1.2-11.8c-0.6-3.3-1.3-6.1-2-8.3
		s-1.6-3.8-2.5-4.9c-0.9-1.1-1.7-1.6-2.5-1.6h-7.1v63.3H63.7z M82.9,53.9c0-4.9-0.1-9-0.3-12.4c-0.2-3.4-0.5-6.3-0.9-8.6
		c-0.4-2.3-0.8-4.1-1.4-5.5c-0.5-1.3-1.1-2.4-1.8-3.1c-0.7-0.7-1.4-1.2-2.1-1.3s-1.5-0.3-2.3-0.3h-8v70.6h7.8c1.3,0,2.5-0.7,3.6-2.1
		c1.1-1.4,2-3.2,2.8-5.6s1.4-5.1,1.8-8.3c0.4-3.2,0.7-6.6,0.7-10.3V53.9z"/>
	<path class="st0" d="M113.9,126.2c0,5.7-0.2,10.9-0.6,15.5c-0.4,4.6-1.1,8.5-1.9,11.8c-0.9,3.2-2,5.7-3.4,7.5
		c-1.4,1.8-3.1,2.6-5.1,2.6c-2.6,0-4.7-1-6.2-3c-1.5-2-2.6-4.7-3.4-8.2c-0.7-3.4-1.2-7.5-1.4-12.1c-0.2-4.6-0.3-9.5-0.3-14.7v-3.9
		h2.3v3.2c0,5.7,0.1,10.6,0.3,14.7c0.2,4.1,0.6,7.6,1.3,10.3c0.6,2.7,1.5,4.8,2.7,6.1c1.2,1.3,2.7,2,4.6,2c1.6,0,3-0.8,4.2-2.3
		c1.1-1.6,2-3.7,2.7-6.6c0.7-2.8,1.2-6.1,1.5-9.9c0.3-3.8,0.4-8,0.4-12.5v-1c0-4-0.2-7.6-0.5-10.7c-0.3-3.1-0.8-5.9-1.4-8.4
		s-1.3-4.7-2.2-6.6c-0.9-1.9-1.8-3.7-2.9-5.4l-5.3-7.8c-1.2-1.8-2.3-3.8-3.2-5.9c-0.9-2.2-1.7-4.7-2.3-7.5c-0.6-2.8-1.1-6.1-1.4-9.8
		c-0.3-3.7-0.5-8-0.5-12.9V49c0-5,0.2-9.5,0.7-13.6c0.5-4.1,1.1-7.6,2.1-10.6c0.9-2.9,2-5.2,3.4-6.8c1.4-1.6,3-2.4,4.8-2.4
		c2,0,3.7,0.9,5.1,2.7c1.4,1.8,2.5,4.3,3.4,7.4c0.9,3.1,1.5,6.8,1.9,11c0.4,4.2,0.6,8.6,0.6,13.3v7.5h-2.4l-0.1-11.1
		c0-3.4-0.2-6.6-0.6-9.7c-0.3-3.1-0.9-5.7-1.6-8c-0.7-2.3-1.6-4.1-2.6-5.5c-1.1-1.3-2.3-2-3.8-2c-1.6,0-3,0.8-4.1,2.5
		c-1.1,1.7-2,3.9-2.7,6.6c-0.7,2.8-1.2,6-1.4,9.6c-0.3,3.6-0.4,7.5-0.3,11.5l0.1,3.7c0,3.1,0.2,5.9,0.6,8.6c0.4,2.7,0.9,5.1,1.5,7.4
		c0.6,2.2,1.4,4.3,2.2,6.1c0.8,1.9,1.8,3.5,2.8,5.1l5.4,8c2.4,3.6,4.1,8.2,5.3,14c1.2,5.8,1.8,12.8,1.9,21.1V126.2z"/>
	<path class="st0" d="M121.6,162.3V16.9h2.4v69.5h17V16.9h2.4v145.4H141V91.9h-17v70.3H121.6z"/>
	<path class="st0" d="M154.2,162.3V16.9h2.4v145.4H154.2z"/>
	<path class="st0" d="M181.7,162.3V16.9h2.4v69.5h5.8l12-69.3h2.6L192,88.9l13.8,73.4h-2.6l-13.2-70.3h-5.8v70.3H181.7z"/>
	<path class="st0" d="M219.7,15.5c1.8,0,3.4,0.7,4.7,2c1.3,1.3,2.3,3.1,3.2,5.3s1.5,4.8,1.9,7.7c0.5,3,0.8,6.1,1,9.4
		c0.2,3.3,0.4,6.7,0.4,10.2c0,3.5,0.1,6.8,0.1,10.1v58.5c0,3.4,0,6.9-0.1,10.5c-0.1,3.5-0.2,7-0.4,10.3c-0.2,3.3-0.6,6.4-1.1,9.4
		c-0.5,2.9-1.1,5.5-2,7.7c-0.8,2.2-1.9,3.9-3.1,5.2c-1.3,1.3-2.8,1.9-4.6,1.9h0c-1.8,0-3.4-0.7-4.7-2c-1.3-1.3-2.3-3.1-3.2-5.3
		c-0.8-2.2-1.5-4.8-1.9-7.7s-0.8-6.1-1-9.4c-0.2-3.3-0.4-6.7-0.4-10.2c0-3.5-0.1-6.8-0.1-10.1V60.4c0-3.4,0-6.9,0.1-10.5
		c0.1-3.5,0.2-7,0.4-10.3c0.2-3.3,0.6-6.4,1.1-9.4c0.5-2.9,1.1-5.5,2-7.7c0.8-2.2,1.9-3.9,3.1-5.2C216.3,16.2,217.9,15.5,219.7,15.5
		L219.7,15.5z M219.7,21.2c-2,0-3.6,1-4.8,3c-1.2,2-2.1,4.7-2.7,8.2c-0.6,3.5-1,7.7-1.2,12.5c-0.2,4.8-0.3,10.1-0.3,15.7v58.2
		c0,3.6,0,7,0.1,10.3c0,3.3,0.2,6.4,0.4,9.3c0.2,2.9,0.5,5.5,0.9,7.9c0.4,2.4,0.9,4.4,1.6,6.2c0.7,1.7,1.5,3.1,2.5,4
		c1,1,2.2,1.4,3.6,1.4h0c2,0,3.6-1,4.8-3c1.2-2,2.1-4.7,2.7-8.2c0.6-3.5,1-7.7,1.2-12.5c0.2-4.8,0.3-10.1,0.3-15.7V60.4
		c0-5.4-0.1-10.4-0.2-15.2c-0.1-4.8-0.5-8.9-1.1-12.5c-0.6-3.6-1.5-6.4-2.7-8.5C223.5,22.2,221.8,21.2,219.7,21.2L219.7,21.2z"/>
	<path class="st0" d="M239.4,51.6l-0.1-34.7h2.5l-0.1,34.7H239.4z"/>
	<path class="st0" d="M251.9,162.3V17h10.3c2.1,0,3.8,0.6,5.3,1.9s2.6,3.4,3.5,6.3c0.9,2.9,1.5,6.7,1.9,11.4
		c0.4,4.7,0.6,10.4,0.6,17.3V67c0,3.6-0.2,7.1-0.5,10.3c-0.3,3.2-0.8,6.2-1.5,8.8c-0.7,2.6-1.5,4.9-2.4,6.9c-1,1.9-2.1,3.4-3.3,4.4
		c1,1.5,1.8,3.1,2.5,4.9c0.7,1.8,1.3,3.9,1.8,6.1c0.5,2.3,0.9,4.8,1.2,7.6c0.3,2.8,0.5,5.9,0.7,9.4l1,21.5c0.1,2.6,0.3,5.3,0.6,7.9
		c0.3,2.7,0.6,5.1,1,7.4h-2.6c-0.4-2.4-0.6-4.8-0.9-7.2c-0.2-2.5-0.4-5.1-0.5-7.9l-1-21.5c-0.2-4.5-0.6-8.5-1.2-11.8
		c-0.6-3.3-1.3-6.1-2-8.3s-1.6-3.8-2.5-4.9c-0.9-1.1-1.7-1.6-2.5-1.6h-7.1v63.3H251.9z M271.1,53.9c0-4.9-0.1-9-0.3-12.4
		c-0.2-3.4-0.5-6.3-0.9-8.6c-0.4-2.3-0.8-4.1-1.4-5.5c-0.5-1.3-1.1-2.4-1.8-3.1c-0.7-0.7-1.4-1.2-2.1-1.3s-1.5-0.3-2.3-0.3h-8v70.6
		h7.8c1.3,0,2.5-0.7,3.6-2.1c1.1-1.4,2-3.2,2.8-5.6s1.4-5.1,1.8-8.3c0.4-3.2,0.7-6.6,0.7-10.3V53.9z"/>
	<path class="st0" d="M302.1,126.2c0,5.7-0.2,10.9-0.6,15.5c-0.4,4.6-1.1,8.5-1.9,11.8c-0.9,3.2-2,5.7-3.4,7.5
		c-1.4,1.8-3.1,2.6-5.1,2.6c-2.6,0-4.7-1-6.2-3c-1.5-2-2.6-4.7-3.4-8.2c-0.7-3.4-1.2-7.5-1.4-12.1c-0.2-4.6-0.3-9.5-0.3-14.7v-3.9
		h2.3v3.2c0,5.7,0.1,10.6,0.3,14.7c0.2,4.1,0.6,7.6,1.3,10.3c0.6,2.7,1.5,4.8,2.7,6.1c1.2,1.3,2.7,2,4.6,2c1.6,0,3-0.8,4.2-2.3
		c1.1-1.6,2-3.7,2.7-6.6c0.7-2.8,1.2-6.1,1.5-9.9c0.3-3.8,0.4-8,0.4-12.5v-1c0-4-0.2-7.6-0.5-10.7c-0.3-3.1-0.8-5.9-1.4-8.4
		s-1.3-4.7-2.2-6.6c-0.9-1.9-1.8-3.7-2.9-5.4l-5.3-7.8c-1.2-1.8-2.3-3.8-3.2-5.9c-0.9-2.2-1.7-4.7-2.3-7.5c-0.6-2.8-1.1-6.1-1.4-9.8
		c-0.3-3.7-0.5-8-0.5-12.9V49c0-5,0.2-9.5,0.7-13.6c0.5-4.1,1.1-7.6,2.1-10.6c0.9-2.9,2-5.2,3.4-6.8c1.4-1.6,3-2.4,4.8-2.4
		c2,0,3.7,0.9,5.1,2.7c1.4,1.8,2.5,4.3,3.4,7.4c0.9,3.1,1.5,6.8,1.9,11c0.4,4.2,0.6,8.6,0.6,13.3v7.5h-2.4l-0.1-11.1
		c0-3.4-0.2-6.6-0.6-9.7c-0.3-3.1-0.9-5.7-1.6-8c-0.7-2.3-1.6-4.1-2.6-5.5c-1.1-1.3-2.3-2-3.8-2c-1.6,0-3,0.8-4.1,2.5
		c-1.1,1.7-2,3.9-2.7,6.6c-0.7,2.8-1.2,6-1.4,9.6c-0.3,3.6-0.4,7.5-0.3,11.5l0.1,3.7c0,3.1,0.2,5.9,0.6,8.6c0.4,2.7,0.9,5.1,1.5,7.4
		c0.6,2.2,1.4,4.3,2.2,6.1c0.8,1.9,1.8,3.5,2.8,5.1l5.4,8c2.4,3.6,4.1,8.2,5.3,14c1.2,5.8,1.8,12.8,1.9,21.1V126.2z"/>
	<path class="st0" d="M329,162.3l-3-39h-15.9l-3,39h-2.4l11.3-145.4h4.3l11.3,145.4H329z M310.5,117.6h15.1l-7.3-95.1h-0.5
		L310.5,117.6z"/>
	<path class="st0" d="M341.5,22.7v139.6h-2.4V22.7h-10.5V17h23.3v5.6H341.5z"/>
	<path class="st0" d="M360.7,22.5h-0.4v139.8H358V16.9h4.6l11,114.1l11-114.1h4.6v145.4h-2.4V22.5h-0.4l-11.2,115.1h-3.4L360.7,22.5
		z"/>
	<path class="st0" d="M419,162.3l-3-39h-15.9l-3,39h-2.4l11.3-145.4h4.3l11.3,145.4H419z M400.5,117.6h15.1l-7.3-95.1h-0.5
		L400.5,117.6z"/>
	<path class="st0" d="M427.1,162.3V16.9h2.4v139.6h16.3v5.8H427.1z"/>
	<path class="st0" d="M470.8,162.3l-3-39h-15.9l-3,39h-2.4l11.3-145.4h4.3l11.3,145.4H470.8z M452.3,117.6h15.1l-7.3-95.1h-0.5
		L452.3,117.6z"/>
	<path class="st0" d="M479.1,162.3V17h10.3c2.1,0,3.8,0.6,5.3,1.9s2.6,3.4,3.5,6.3c0.9,2.9,1.5,6.7,1.9,11.4
		c0.4,4.7,0.6,10.4,0.6,17.3V67c0,3.6-0.2,7.1-0.5,10.3c-0.3,3.2-0.8,6.2-1.5,8.8c-0.7,2.6-1.5,4.9-2.4,6.9c-1,1.9-2.1,3.4-3.3,4.4
		c1,1.5,1.8,3.1,2.5,4.9c0.7,1.8,1.3,3.9,1.8,6.1c0.5,2.3,0.9,4.8,1.2,7.6c0.3,2.8,0.5,5.9,0.7,9.4l1,21.5c0.1,2.6,0.3,5.3,0.6,7.9
		c0.3,2.7,0.6,5.1,1,7.4h-2.6c-0.4-2.4-0.6-4.8-0.9-7.2c-0.2-2.5-0.4-5.1-0.5-7.9l-1-21.5c-0.2-4.5-0.6-8.5-1.2-11.8
		c-0.6-3.3-1.3-6.1-2-8.3s-1.6-3.8-2.5-4.9c-0.9-1.1-1.7-1.6-2.5-1.6h-7.1v63.3H479.1z M498.2,53.9c0-4.9-0.1-9-0.3-12.4
		c-0.2-3.4-0.5-6.3-0.9-8.6c-0.4-2.3-0.8-4.1-1.4-5.5c-0.5-1.3-1.1-2.4-1.8-3.1c-0.7-0.7-1.4-1.2-2.1-1.3s-1.5-0.3-2.3-0.3h-8v70.6
		h7.8c1.3,0,2.5-0.7,3.6-2.1c1.1-1.4,2-3.2,2.8-5.6s1.4-5.1,1.8-8.3c0.4-3.2,0.7-6.6,0.7-10.3V53.9z"/>
	<path class="st0" d="M527,22.5h-0.4v139.8h-2.4V16.9h4.6l11,114.1l11-114.1h4.6v145.4h-2.4V22.5h-0.4l-11.2,115.1h-3.4L527,22.5z"
		/>
	<path class="st0" d="M585.3,162.3l-3-39h-15.9l-3,39h-2.4l11.3-145.4h4.3l11.3,145.4H585.3z M566.8,117.6h15.1l-7.3-95.1h-0.5
		L566.8,117.6z"/>
	<path class="st0" d="M616.2,16.9l-11.6,145.4h-4.3L588.7,16.9h2.4l11.1,139.8h0.5l11.1-139.8H616.2z"/>
	<path class="st0" d="M621.1,17h11.8v108.8c0,3.5,0,6.9-0.1,10.1c0,3.3-0.1,6.3-0.3,9.1c-0.2,2.8-0.5,5.3-0.9,7.6
		c-0.4,2.3-1,4.2-1.7,5.8s-1.6,2.9-2.8,3.8c-1.1,0.9-2.5,1.3-4.1,1.3c-0.8,0-1.4-0.1-2-0.2c-0.6-0.1-1.1-0.4-1.6-0.7
		c-0.5-0.4-0.9-0.8-1.3-1.3c-0.4-0.5-0.8-1.2-1.2-2.1l1.1-4.9c0.7,1.2,1.4,2.1,2.1,2.7c0.7,0.6,1.7,0.9,2.9,0.9h0.1
		c1.4,0,2.6-0.4,3.6-1.2c1-0.8,1.7-2.4,2.3-4.8c0.6-2.4,1-5.8,1.2-10.1c0.2-4.3,0.4-10,0.4-16.9V22.7h-9.5V17z"/>
	<path class="st0" d="M664.7,17v108.8c0,5.3-0.1,10.2-0.3,14.8c-0.2,4.6-0.7,8.6-1.4,12c-0.8,3.4-1.9,6.1-3.4,8s-3.6,2.9-6.2,2.9
		c-2.6,0-4.7-1-6.2-2.9c-1.5-1.9-2.6-4.6-3.4-8c-0.8-3.4-1.2-7.4-1.4-12c-0.2-4.6-0.3-9.5-0.3-14.8V17h2.4v107.8
		c0,5.1,0.1,9.7,0.2,13.8c0.1,4.1,0.5,7.6,1.1,10.4c0.6,2.9,1.5,5.1,2.7,6.6c1.2,1.5,2.9,2.3,5,2.3s3.8-0.8,5-2.3s2.1-3.7,2.7-6.6
		c0.6-2.9,0.9-6.3,1.1-10.4c0.1-4.1,0.2-8.7,0.2-13.8V17H664.7z"/>
	<path class="st0" d="M685.1,17c1.7,0,3.2,0.6,4.5,1.8c1.2,1.2,2.3,2.8,3.1,4.9c0.8,2.1,1.5,4.5,2,7.3c0.5,2.8,0.9,5.8,1.1,9
		c0.3,3.2,0.4,6.6,0.5,10.1c0.1,3.5,0.1,7.1,0.1,10.6v57.8c0,3.5,0,7-0.1,10.6c-0.1,3.5-0.2,6.9-0.5,10.1c-0.3,3.2-0.6,6.2-1.1,9
		c-0.5,2.8-1.1,5.2-2,7.3c-0.8,2.1-1.9,3.7-3.1,4.9c-1.2,1.2-2.7,1.8-4.5,1.8h-10.6V17H685.1z M676.8,156.6h8.3c1.6,0,3-0.7,4.1-2
		c1.1-1.3,2.1-3.5,2.8-6.6s1.3-7,1.6-11.8c0.3-4.9,0.5-10.8,0.5-17.9V60.9c0-6.8-0.2-12.6-0.5-17.4c-0.3-4.8-0.8-8.7-1.5-11.7
		c-0.7-3-1.6-5.3-2.6-6.7c-1.1-1.4-2.4-2.2-3.9-2.3h-8.7V156.6z"/>
	<path class="st0" d="M704.7,158.7c0-1.6,0.1-2.9,0.4-3.8c0.3-1,0.7-1.4,1.4-1.4c0.8,0,1.3,0.5,1.6,1.4c0.3,1,0.4,2.2,0.4,3.8
		c0,1.4-0.1,2.6-0.4,3.5s-0.8,1.4-1.6,1.4c-0.6,0-1.1-0.5-1.4-1.4C704.8,161.3,704.7,160.1,704.7,158.7z"/>
	<path class="st0" d="M741.7,163.5c-1.7-0.3-3.1-1.1-4.2-2.5c-1.2-1.4-2.1-3.3-2.9-5.5c-0.8-2.2-1.4-4.8-1.8-7.7
		c-0.4-2.9-0.7-6-0.9-9.2c-0.2-3.2-0.3-6.5-0.4-9.9c0-3.3-0.1-6.6-0.1-9.8V60.4c0-3.4,0-6.9,0.1-10.5c0.1-3.5,0.2-7,0.4-10.3
		c0.2-3.3,0.6-6.4,1.1-9.4c0.5-2.9,1.1-5.5,2-7.7c0.8-2.2,1.9-3.9,3.1-5.2c1.3-1.3,2.8-1.9,4.6-1.9h0c1.8,0,3.4,0.7,4.7,2
		c1.3,1.3,2.3,3.1,3.2,5.3s1.5,4.8,1.9,7.7c0.5,3,0.8,6.1,1,9.4c0.2,3.3,0.4,6.7,0.4,10.2c0,3.5,0.1,6.8,0.1,10.1v58.5
		c0,3.3,0,6.7-0.1,10.1c0,3.4-0.2,6.7-0.4,9.9c-0.2,3.2-0.5,6.2-1,9.1s-1,5.4-1.8,7.7c-0.7,2.2-1.7,4.1-2.8,5.5s-2.5,2.2-4.1,2.5
		V179h-2.3V163.5z M742.7,21.2c-2,0-3.6,1-4.8,3c-1.2,2-2.1,4.7-2.7,8.2s-1,7.7-1.2,12.5s-0.3,10.1-0.3,15.7v58.1
		c0,3.6,0,7,0.1,10.3c0,3.3,0.2,6.4,0.4,9.3c0.2,2.9,0.5,5.5,0.9,7.9c0.4,2.4,0.9,4.4,1.6,6.2s1.5,3.1,2.5,4c1,1,2.2,1.4,3.6,1.4h0
		c2,0,3.6-1,4.8-3c1.2-2,2.1-4.7,2.7-8.2s1-7.7,1.2-12.5c0.2-4.8,0.3-10.1,0.3-15.7V60.4c0-5.4-0.1-10.4-0.2-15.2
		c-0.1-4.7-0.5-8.9-1.1-12.5c-0.6-3.6-1.5-6.4-2.7-8.5C746.5,22.2,744.8,21.2,742.7,21.2L742.7,21.2z"/>
	<path class="st0" d="M772.8,15.5c1.8,0,3.4,0.7,4.7,2c1.3,1.3,2.3,3.1,3.2,5.3s1.5,4.8,1.9,7.7c0.5,3,0.8,6.1,1,9.4
		c0.2,3.3,0.4,6.7,0.4,10.2c0,3.5,0.1,6.8,0.1,10.1v58.5c0,3.4,0,6.9-0.1,10.5c-0.1,3.5-0.2,7-0.4,10.3c-0.2,3.3-0.6,6.4-1.1,9.4
		c-0.5,2.9-1.1,5.5-2,7.7c-0.8,2.2-1.9,3.9-3.1,5.2c-1.3,1.3-2.8,1.9-4.6,1.9h0c-1.8,0-3.4-0.7-4.7-2c-1.3-1.3-2.3-3.1-3.2-5.3
		c-0.8-2.2-1.5-4.8-1.9-7.7s-0.8-6.1-1-9.4c-0.2-3.3-0.4-6.7-0.4-10.2c0-3.5-0.1-6.8-0.1-10.1V60.4c0-3.4,0-6.9,0.1-10.5
		c0.1-3.5,0.2-7,0.4-10.3c0.2-3.3,0.6-6.4,1.1-9.4c0.5-2.9,1.1-5.5,2-7.7c0.8-2.2,1.9-3.9,3.1-5.2C769.4,16.2,770.9,15.5,772.8,15.5
		L772.8,15.5z M772.7,21.2c-2,0-3.6,1-4.8,3c-1.2,2-2.1,4.7-2.7,8.2c-0.6,3.5-1,7.7-1.2,12.5c-0.2,4.8-0.3,10.1-0.3,15.7v58.2
		c0,3.6,0,7,0.1,10.3c0,3.3,0.2,6.4,0.4,9.3c0.2,2.9,0.5,5.5,0.9,7.9c0.4,2.4,0.9,4.4,1.6,6.2c0.7,1.7,1.5,3.1,2.5,4
		c1,1,2.2,1.4,3.6,1.4h0c2,0,3.6-1,4.8-3c1.2-2,2.1-4.7,2.7-8.2c0.6-3.5,1-7.7,1.2-12.5c0.2-4.8,0.3-10.1,0.3-15.7V60.4
		c0-5.4-0.1-10.4-0.2-15.2c-0.1-4.8-0.5-8.9-1.1-12.5c-0.6-3.6-1.5-6.4-2.7-8.5C776.5,22.2,774.9,21.2,772.7,21.2L772.7,21.2z"/>
	<path class="st0" d="M792.5,51.6l-0.1-34.7h2.5l-0.1,34.7H792.5z"/>
	<path class="st0" d="M804.9,162.3V16.9h2.4v139.6h16.3v5.8H804.9z"/>
	<path class="st0" d="M829.4,162.3V16.9h2.4v139.6h16.3v5.8H829.4z"/>
	<path class="st0" d="M873.1,162.3l-3-39h-15.9l-3,39h-2.4l11.3-145.4h4.3l11.3,145.4H873.1z M854.6,117.6h15.1l-7.3-95.1h-0.5
		L854.6,117.6z"/>
	<path class="st0" d="M900.6,126.2c0,5.7-0.2,10.9-0.6,15.5c-0.4,4.6-1.1,8.5-1.9,11.8c-0.9,3.2-2,5.7-3.4,7.5
		c-1.4,1.8-3.1,2.6-5.1,2.6c-2.6,0-4.7-1-6.2-3c-1.5-2-2.6-4.7-3.4-8.2c-0.7-3.4-1.2-7.5-1.4-12.1c-0.2-4.6-0.3-9.5-0.3-14.7v-3.9
		h2.3v3.2c0,5.7,0.1,10.6,0.3,14.7c0.2,4.1,0.6,7.6,1.3,10.3c0.6,2.7,1.5,4.8,2.7,6.1c1.2,1.3,2.7,2,4.6,2c1.6,0,3-0.8,4.2-2.3
		c1.1-1.6,2-3.7,2.7-6.6c0.7-2.8,1.2-6.1,1.5-9.9s0.4-8,0.4-12.5v-1c0-4-0.2-7.6-0.5-10.7c-0.3-3.1-0.8-5.9-1.4-8.4
		c-0.6-2.5-1.3-4.7-2.2-6.6c-0.9-1.9-1.8-3.7-2.9-5.4l-5.3-7.8c-1.2-1.8-2.3-3.8-3.2-5.9c-0.9-2.2-1.7-4.7-2.3-7.5s-1.1-6.1-1.4-9.8
		c-0.3-3.7-0.5-8-0.5-12.9V49c0-5,0.2-9.5,0.7-13.6c0.5-4.1,1.1-7.6,2.1-10.6c0.9-2.9,2-5.2,3.4-6.8c1.4-1.6,3-2.4,4.8-2.4
		c2,0,3.7,0.9,5.1,2.7c1.4,1.8,2.5,4.3,3.4,7.4c0.9,3.1,1.5,6.8,1.9,11c0.4,4.2,0.6,8.6,0.6,13.3v7.5h-2.4l-0.1-11.1
		c0-3.4-0.2-6.6-0.6-9.7c-0.3-3.1-0.9-5.7-1.6-8s-1.6-4.1-2.6-5.5c-1.1-1.3-2.3-2-3.8-2c-1.6,0-3,0.8-4.1,2.5
		c-1.1,1.7-2,3.9-2.7,6.6c-0.7,2.8-1.2,6-1.4,9.6c-0.3,3.6-0.4,7.5-0.3,11.5l0.1,3.7c0,3.1,0.2,5.9,0.6,8.6c0.4,2.7,0.9,5.1,1.5,7.4
		c0.6,2.2,1.4,4.3,2.2,6.1c0.8,1.9,1.8,3.5,2.8,5.1l5.4,8c2.4,3.6,4.1,8.2,5.3,14c1.2,5.8,1.8,12.8,1.9,21.1V126.2z"/>
	<path class="st0" d="M908.4,162.3V16.9h2.4v69.5h17V16.9h2.4v145.4h-2.4V91.9h-17v70.3H908.4z"/>
	<path class="st0" d="M951.4,17c1.7,0,3.2,0.6,4.5,1.8c1.2,1.2,2.3,2.8,3.1,4.9c0.8,2.1,1.5,4.5,2,7.3c0.5,2.8,0.9,5.8,1.1,9
		c0.3,3.2,0.4,6.6,0.5,10.1c0.1,3.5,0.1,7.1,0.1,10.6v57.8c0,3.5,0,7-0.1,10.6c-0.1,3.5-0.2,6.9-0.5,10.1c-0.3,3.2-0.6,6.2-1.1,9
		c-0.5,2.8-1.1,5.2-2,7.3c-0.8,2.1-1.9,3.7-3.1,4.9c-1.2,1.2-2.7,1.8-4.5,1.8h-10.6V17H951.4z M943.2,156.6h8.3c1.6,0,3-0.7,4.1-2
		c1.1-1.3,2.1-3.5,2.8-6.6s1.3-7,1.6-11.8c0.3-4.9,0.5-10.8,0.5-17.9V60.9c0-6.8-0.2-12.6-0.5-17.4c-0.3-4.8-0.8-8.7-1.5-11.7
		c-0.7-3-1.6-5.3-2.6-6.7c-1.1-1.4-2.4-2.2-3.9-2.3h-8.7V156.6z"/>
	<path class="st0" d="M990.8,162.3l-3-39h-15.9l-3,39h-2.4l11.3-145.4h4.3l11.3,145.4H990.8z M972.3,117.6h15.1L980,22.5h-0.5
		L972.3,117.6z"/>
	<path class="st0" d="M998.9,162.3V16.9h5l14.6,139.8h0.8V16.9h2.4l0.3,145.4h-5.1L1002,22.5h-0.7v139.8H998.9z"/>
	<path class="st0" d="M1065,162.3l-3-39H1046l-3,39h-2.4l11.3-145.4h4.3l11.3,145.4H1065z M1046.5,117.6h15.1l-7.3-95.1h-0.5
		L1046.5,117.6z"/>
	<path class="st0" d="M1095.9,16.9l-11.6,145.4h-4.3l-11.6-145.4h2.4l11.1,139.8h0.5l11.1-139.8H1095.9z"/>
	<path class="st0" d="M1124.7,16.9l-11.6,145.4h-4.3l-11.6-145.4h2.4l11.1,139.8h0.5l11.1-139.8H1124.7z"/>
	<path class="st0" d="M1150.1,162.3l-3-39h-15.9l-3,39h-2.4l11.3-145.4h4.3l11.3,145.4H1150.1z M1131.5,117.6h15.1l-7.3-95.1h-0.5
		L1131.5,117.6z"/>
	<path class="st0" d="M1158.2,162.3V16.9h2.4v139.6h16.3v5.8H1158.2z"/>
	<path class="st0" d="M10.5,286v46.2H8.7V286l-7.9-65h1.8l7,57.4l7-57.4h1.9L10.5,286z"/>
	<path class="st0" d="M29.4,219.8c1.3,0,2.5,0.5,3.4,1.5c0.9,1,1.7,2.3,2.3,4c0.6,1.7,1.1,3.7,1.4,5.9c0.3,2.3,0.6,4.7,0.8,7.2
		c0.2,2.5,0.3,5.1,0.3,7.8c0,2.7,0.1,5.2,0.1,7.7v44.9c0,2.6,0,5.3-0.1,8c0,2.7-0.1,5.3-0.3,7.9c-0.2,2.5-0.4,4.9-0.8,7.2
		c-0.3,2.2-0.8,4.2-1.4,5.9c-0.6,1.7-1.4,3-2.3,4c-0.9,1-2,1.5-3.3,1.5h0c-1.3,0-2.5-0.5-3.4-1.5c-0.9-1-1.7-2.3-2.3-4
		c-0.6-1.7-1.1-3.7-1.4-5.9c-0.3-2.3-0.6-4.7-0.8-7.2c-0.2-2.5-0.3-5.1-0.3-7.8c0-2.7-0.1-5.2-0.1-7.7v-44.9c0-2.6,0-5.3,0.1-8
		c0-2.7,0.1-5.3,0.3-7.9c0.2-2.5,0.4-4.9,0.8-7.2c0.3-2.2,0.8-4.2,1.4-5.9c0.6-1.7,1.4-3,2.3-4S28.1,219.8,29.4,219.8L29.4,219.8z
		 M29.4,224.2c-1.5,0-2.6,0.8-3.5,2.3c-0.9,1.5-1.5,3.6-2,6.3c-0.4,2.7-0.7,5.9-0.9,9.6c-0.1,3.7-0.2,7.7-0.2,12.1v44.6
		c0,2.7,0,5.4,0.1,7.9c0,2.5,0.1,4.9,0.3,7.1c0.1,2.2,0.4,4.3,0.6,6.1c0.3,1.8,0.7,3.4,1.1,4.7c0.5,1.3,1.1,2.3,1.8,3.1
		c0.7,0.7,1.6,1.1,2.6,1.1h0c1.5,0,2.6-0.8,3.5-2.3c0.9-1.5,1.5-3.6,2-6.3c0.4-2.7,0.7-5.9,0.9-9.6c0.1-3.7,0.2-7.7,0.2-12.1v-44.6
		c0-4.1-0.1-8-0.2-11.6s-0.4-6.8-0.8-9.6s-1.1-4.9-1.9-6.5S31,224.2,29.4,224.2L29.4,224.2z"/>
	<path class="st0" d="M43.7,247.5l-0.1-26.6h1.8l-0.1,26.6H43.7z"/>
	<path class="st0" d="M52.9,332.3V221h7.5c1.5,0,2.8,0.5,3.8,1.5c1,1,1.9,2.6,2.5,4.8c0.6,2.2,1.1,5.1,1.4,8.7s0.4,8,0.4,13.2v10
		c0,2.8-0.1,5.4-0.4,7.9c-0.2,2.5-0.6,4.7-1.1,6.7c-0.5,2-1.1,3.8-1.8,5.3c-0.7,1.5-1.5,2.6-2.4,3.4c0.7,1.1,1.3,2.4,1.8,3.8
		s1,3,1.3,4.7s0.7,3.7,0.9,5.8c0.2,2.1,0.4,4.5,0.5,7.2l0.8,16.5c0.1,2,0.2,4,0.4,6.1c0.2,2.1,0.5,3.9,0.7,5.6h-1.9
		c-0.3-1.8-0.5-3.7-0.6-5.5c-0.2-1.9-0.3-3.9-0.4-6l-0.8-16.5c-0.2-3.5-0.4-6.5-0.9-9.1c-0.4-2.6-0.9-4.7-1.5-6.4
		c-0.6-1.7-1.2-2.9-1.8-3.8c-0.6-0.8-1.2-1.2-1.8-1.2h-5.2v48.5H52.9z M66.8,249.2c0-3.7-0.1-6.9-0.2-9.5c-0.2-2.6-0.4-4.8-0.6-6.6
		s-0.6-3.2-1-4.2s-0.8-1.8-1.3-2.4c-0.5-0.5-1-0.9-1.5-1s-1.1-0.2-1.7-0.2h-5.8v54.1h5.7c1,0,1.8-0.5,2.6-1.6c0.8-1.1,1.5-2.5,2-4.3
		s1-3.9,1.3-6.4c0.3-2.4,0.5-5.1,0.5-7.9V249.2z"/>
	<path class="st0" d="M75.3,332.3V220.9H77v111.4H75.3z"/>
	<path class="st0" d="M91.1,333.2c-1.2-0.2-2.2-0.8-3.1-1.9c-0.8-1.1-1.5-2.5-2.1-4.2c-0.6-1.7-1-3.7-1.3-5.9
		c-0.3-2.2-0.5-4.6-0.7-7c-0.1-2.5-0.2-5-0.3-7.5s-0.1-5.1-0.1-7.5v-44.9c0-2.6,0-5.3,0.1-8c0-2.7,0.1-5.3,0.3-7.9
		c0.2-2.5,0.4-4.9,0.8-7.2c0.3-2.2,0.8-4.2,1.4-5.9c0.6-1.7,1.4-3,2.3-4s2-1.5,3.3-1.5h0c1.3,0,2.5,0.5,3.4,1.5c0.9,1,1.7,2.3,2.3,4
		c0.6,1.7,1.1,3.7,1.4,5.9c0.3,2.3,0.6,4.7,0.8,7.2c0.2,2.5,0.3,5.1,0.3,7.8c0,2.7,0.1,5.2,0.1,7.7v44.9c0,2.5,0,5.1-0.1,7.7
		c0,2.6-0.1,5.1-0.3,7.6c-0.2,2.4-0.4,4.8-0.7,7c-0.3,2.2-0.7,4.2-1.3,5.9c-0.5,1.7-1.2,3.1-2,4.2s-1.8,1.7-3,1.9v11.9h-1.7V333.2z
		 M91.9,224.2c-1.5,0-2.6,0.8-3.5,2.3c-0.9,1.5-1.5,3.6-2,6.3c-0.4,2.7-0.7,5.9-0.9,9.6c-0.1,3.7-0.2,7.7-0.2,12v44.5
		c0,2.7,0,5.4,0.1,7.9s0.1,4.9,0.3,7.1s0.4,4.2,0.6,6.1s0.7,3.4,1.1,4.7c0.5,1.3,1.1,2.3,1.8,3.1c0.7,0.7,1.6,1.1,2.6,1.1h0
		c1.5,0,2.6-0.8,3.5-2.3c0.9-1.5,1.5-3.6,2-6.3c0.4-2.7,0.7-5.9,0.9-9.6c0.1-3.7,0.2-7.7,0.2-12v-44.5c0-4.1-0.1-8-0.2-11.6
		c-0.1-3.6-0.4-6.8-0.8-9.6c-0.4-2.7-1.1-4.9-1.9-6.5C94.6,225,93.4,224.2,91.9,224.2L91.9,224.2z"/>
	<path class="st0" d="M106.7,332.3V220.9h3.6l10.6,107.1h0.5V220.9h1.7l0.2,111.4h-3.7l-10.7-107.1h-0.5v107.1H106.7z"/>
	<path class="st0" d="M137.4,219.8c1.3,0,2.5,0.5,3.4,1.5c0.9,1,1.7,2.3,2.3,4c0.6,1.7,1.1,3.7,1.4,5.9c0.3,2.3,0.6,4.7,0.8,7.2
		c0.2,2.5,0.3,5.1,0.3,7.8c0,2.7,0.1,5.2,0.1,7.7v44.9c0,2.6,0,5.3-0.1,8c0,2.7-0.1,5.3-0.3,7.9c-0.2,2.5-0.4,4.9-0.8,7.2
		c-0.3,2.2-0.8,4.2-1.4,5.9c-0.6,1.7-1.4,3-2.3,4s-2,1.5-3.3,1.5h0c-1.3,0-2.5-0.5-3.4-1.5c-0.9-1-1.7-2.3-2.3-4
		c-0.6-1.7-1.1-3.7-1.4-5.9c-0.3-2.3-0.6-4.7-0.8-7.2c-0.2-2.5-0.3-5.1-0.3-7.8c0-2.7-0.1-5.2-0.1-7.7v-44.9c0-2.6,0-5.3,0.1-8
		c0-2.7,0.1-5.3,0.3-7.9c0.2-2.5,0.4-4.9,0.8-7.2c0.3-2.2,0.8-4.2,1.4-5.9c0.6-1.7,1.4-3,2.3-4S136,219.8,137.4,219.8L137.4,219.8z
		 M137.4,224.2c-1.5,0-2.6,0.8-3.5,2.3c-0.9,1.5-1.5,3.6-2,6.3c-0.4,2.7-0.7,5.9-0.9,9.6c-0.1,3.7-0.2,7.7-0.2,12.1v44.6
		c0,2.7,0,5.4,0.1,7.9c0,2.5,0.1,4.9,0.3,7.1c0.1,2.2,0.4,4.3,0.6,6.1c0.3,1.8,0.7,3.4,1.1,4.7c0.5,1.3,1.1,2.3,1.8,3.1
		c0.7,0.7,1.6,1.1,2.6,1.1h0c1.5,0,2.6-0.8,3.5-2.3c0.9-1.5,1.5-3.6,2-6.3c0.4-2.7,0.7-5.9,0.9-9.6c0.1-3.7,0.2-7.7,0.2-12.1v-44.6
		c0-4.1-0.1-8-0.2-11.6s-0.4-6.8-0.8-9.6s-1.1-4.9-1.9-6.5S138.9,224.2,137.4,224.2L137.4,224.2z"/>
	<path class="st0" d="M154.3,225.2H154v107.1h-1.7V220.9h3.4l8,87.4l8-87.4h3.4v111.4h-1.7V225.2H173l-8.1,88.2h-2.5L154.3,225.2z"
		/>
	<path class="st0" d="M196.7,332.3l-2.2-29.9h-11.6l-2.2,29.9h-1.8l8.2-111.4h3.1l8.2,111.4H196.7z M183.2,298h11l-5.3-72.9h-0.3
		L183.2,298z"/>
	<path class="st0" d="M228.7,303.9c0,5.3-0.1,9.7-0.4,13.3c-0.3,3.6-0.7,6.5-1.4,8.7c-0.6,2.2-1.5,3.8-2.5,4.8c-1,1-2.3,1.5-3.8,1.5
		h-7.5V220.9h7.5c1,0,2,0.4,2.9,1.2c0.9,0.8,1.7,2.2,2.3,4.1c0.7,1.9,1.2,4.4,1.6,7.5c0.4,3.1,0.6,6.9,0.6,11.4v7.4
		c0,2.7-0.1,5.3-0.2,7.7c-0.2,2.4-0.4,4.6-0.8,6.5c-0.4,1.9-0.8,3.6-1.4,4.9c-0.6,1.3-1.3,2.3-2.2,2.9c0.8,0.4,1.6,1.3,2.2,2.6
		s1.3,3,1.7,4.9c0.5,2,0.8,4.2,1.1,6.7c0.3,2.5,0.4,5.2,0.4,8.1V303.9z M226.2,245c0-2.5-0.1-5-0.3-7.4c-0.2-2.4-0.5-4.5-1-6.4
		c-0.4-1.8-1-3.3-1.7-4.4c-0.7-1.1-1.6-1.7-2.7-1.7h-5.8v47.2h5.4c1.1,0,2-0.5,2.8-1.4s1.4-2.2,1.9-3.9c0.5-1.7,0.8-3.8,1-6.2
		c0.2-2.5,0.3-5.3,0.3-8.5V245z M227,296.9c0-2.8-0.2-5.4-0.5-7.8c-0.3-2.4-0.8-4.6-1.3-6.4s-1.3-3.3-2-4.3c-0.8-1-1.7-1.6-2.6-1.6
		h-5.7v51.1h5.8c0.6,0,1.2-0.1,1.7-0.2c0.6-0.1,1.1-0.5,1.6-1c0.5-0.5,0.9-1.3,1.3-2.4c0.4-1,0.7-2.5,1-4.2s0.5-3.9,0.6-6.6
		c0.1-2.6,0.2-5.8,0.2-9.5V296.9z"/>
	<path class="st0" d="M235.3,332.3V220.9h1.7v111.4H235.3z"/>
	<path class="st0" d="M244.9,332.3V220.9h1.7v106.9h11.9v4.5H244.9z"/>
	<path class="st0" d="M276.7,332.3l-2.2-29.9h-11.6l-2.2,29.9H259l8.2-111.4h3.1l8.2,111.4H276.7z M263.2,298h11l-5.3-72.9h-0.3
		L263.2,298z"/>
	<path class="st0" d="M282.6,332.3V220.9h3.6l10.6,107.1h0.5V220.9h1.7l0.2,111.4h-3.7l-10.7-107.1h-0.5v107.1H282.6z"/>
	<path class="st0" d="M322.4,225.3v106.9h-1.7V225.3h-7.6V221H330v4.3H322.4z"/>
	<path class="st0" d="M345.7,332.3l-2.2-29.9h-11.6l-2.2,29.9h-1.8l8.2-111.4h3.1l8.2,111.4H345.7z M332.2,298h11l-5.3-72.9h-0.3
		L332.2,298z"/>
	<path class="st0" d="M351.6,332.3V220.9h3.6l10.6,107.1h0.5V220.9h1.7l0.2,111.4h-3.7l-10.7-107.1h-0.5v107.1H351.6z"/>
	<path class="st0" d="M375.3,332.3V220.9h1.7v111.4H375.3z"/>
	<path class="st0" d="M399,304.6c0,4.4-0.1,8.4-0.4,11.9c-0.3,3.5-0.8,6.5-1.4,9c-0.6,2.5-1.5,4.4-2.5,5.7c-1,1.3-2.3,2-3.7,2
		c-1.9,0-3.4-0.8-4.5-2.3c-1.1-1.5-1.9-3.6-2.4-6.3c-0.5-2.6-0.9-5.7-1-9.3c-0.1-3.5-0.2-7.3-0.2-11.3v-3h1.7v2.4
		c0,4.3,0.1,8.1,0.2,11.3c0.2,3.2,0.5,5.8,0.9,7.9c0.5,2.1,1.1,3.7,2,4.7c0.8,1,2,1.5,3.4,1.5c1.2,0,2.2-0.6,3-1.8
		c0.8-1.2,1.5-2.9,2-5c0.5-2.1,0.8-4.7,1.1-7.6c0.2-2.9,0.3-6.1,0.3-9.6v-0.7c0-3.1-0.1-5.8-0.3-8.2c-0.2-2.4-0.6-4.5-1-6.4
		s-1-3.6-1.6-5.1c-0.6-1.5-1.3-2.9-2.1-4.1l-3.8-6c-0.9-1.4-1.7-2.9-2.4-4.5c-0.7-1.7-1.3-3.6-1.7-5.8c-0.5-2.2-0.8-4.7-1-7.5
		c-0.2-2.8-0.4-6.1-0.4-9.9v-1.1c0-3.8,0.2-7.3,0.5-10.4c0.3-3.2,0.8-5.9,1.5-8.1c0.7-2.2,1.5-4,2.5-5.2s2.2-1.9,3.5-1.9
		c1.4,0,2.7,0.7,3.7,2.1c1,1.4,1.8,3.3,2.5,5.7c0.6,2.4,1.1,5.2,1.4,8.4c0.3,3.2,0.4,6.6,0.4,10.2v5.7h-1.7l-0.1-8.5
		c0-2.6-0.2-5.1-0.4-7.4c-0.3-2.3-0.6-4.4-1.1-6.2c-0.5-1.8-1.1-3.2-1.9-4.2c-0.8-1-1.7-1.5-2.8-1.5c-1.2,0-2.2,0.6-3,1.9
		c-0.8,1.3-1.5,3-2,5.1c-0.5,2.1-0.8,4.6-1,7.4c-0.2,2.8-0.3,5.7-0.2,8.8l0.1,2.9c0,2.3,0.2,4.5,0.4,6.6c0.3,2.1,0.6,3.9,1.1,5.6
		c0.5,1.7,1,3.3,1.6,4.7c0.6,1.4,1.3,2.7,2,3.9l3.9,6.2c1.7,2.7,3,6.3,3.8,10.7c0.8,4.4,1.3,9.8,1.4,16.2V304.6z"/>
	<path class="st0" d="M404.7,332.3V220.9h1.7v53.2h12.4v-53.2h1.7v111.4h-1.7v-53.9h-12.4v53.9H404.7z"/>
	<path class="st0" d="M428.3,332.3V220.9h1.7v111.4H428.3z"/>
	<path class="st0" d="M437.9,332.3V220.9h3.6l10.6,107.1h0.5V220.9h1.7l0.2,111.4h-3.7l-10.7-107.1h-0.5v107.1H437.9z"/>
	<path class="st0" d="M468.1,278.4h8.5v23.2c0,2.2,0,4.4-0.1,6.8c0,2.4-0.2,4.8-0.3,7.1c-0.2,2.3-0.4,4.6-0.8,6.7
		c-0.4,2.2-0.8,4-1.4,5.7c-0.6,1.6-1.4,2.9-2.3,3.9s-2,1.5-3.3,1.5h0c-1.3,0-2.5-0.5-3.4-1.5c-0.9-1-1.7-2.4-2.3-4.1
		c-0.6-1.7-1.1-3.7-1.4-5.9c-0.3-2.2-0.6-4.6-0.7-7.2c-0.2-2.5-0.3-5.1-0.3-7.8c0-2.7-0.1-5.2-0.1-7.7v-44.9c0-2.6,0-5.3,0.1-8
		c0-2.7,0.1-5.3,0.3-7.9c0.2-2.5,0.4-4.9,0.8-7.2c0.3-2.2,0.8-4.2,1.4-5.9c0.6-1.7,1.4-3,2.3-4s2-1.5,3.3-1.5h0
		c1.3,0,2.5,0.5,3.4,1.5c0.9,1,1.7,2.3,2.3,4c0.6,1.7,1.1,3.6,1.4,5.8c0.3,2.2,0.6,4.4,0.8,6.7c0.2,2.3,0.3,4.7,0.3,7
		c0,2.4,0.1,4.6,0.1,6.6v0.4H475v-0.4c0-3.7-0.1-7.2-0.2-10.6c-0.1-3.3-0.4-6.2-0.9-8.7c-0.5-2.5-1.1-4.5-2-5.9
		c-0.9-1.4-2-2.2-3.5-2.2s-2.6,0.8-3.5,2.3c-0.9,1.5-1.5,3.6-2,6.3c-0.4,2.7-0.7,5.9-0.9,9.6c-0.1,3.7-0.2,7.7-0.2,12.1v44.6
		c0,2.7,0,5.4,0.1,7.9c0,2.5,0.1,4.9,0.3,7.1c0.1,2.2,0.4,4.3,0.6,6.1c0.3,1.8,0.7,3.4,1.1,4.7c0.5,1.3,1.1,2.3,1.8,3.1
		c0.7,0.7,1.6,1.1,2.6,1.1c1.4,0,2.5-0.7,3.4-2.1c0.8-1.4,1.5-3.3,2-5.8c0.5-2.5,0.8-5.4,0.9-8.7c0.2-3.3,0.2-7,0.2-11v-18.8h-6.8
		V278.4z"/>
	<path class="st0" d="M499.1,286v46.2h-1.7V286l-7.9-65h1.8l7,57.4l7-57.4h1.9L499.1,286z"/>
	<path class="st0" d="M518,219.8c1.3,0,2.5,0.5,3.4,1.5c0.9,1,1.7,2.3,2.3,4c0.6,1.7,1.1,3.7,1.4,5.9c0.3,2.3,0.6,4.7,0.8,7.2
		c0.2,2.5,0.3,5.1,0.3,7.8c0,2.7,0.1,5.2,0.1,7.7v44.9c0,2.6,0,5.3-0.1,8c0,2.7-0.1,5.3-0.3,7.9c-0.2,2.5-0.4,4.9-0.8,7.2
		c-0.3,2.2-0.8,4.2-1.4,5.9c-0.6,1.7-1.4,3-2.3,4s-2,1.5-3.3,1.5h0c-1.3,0-2.5-0.5-3.4-1.5c-0.9-1-1.7-2.3-2.3-4
		c-0.6-1.7-1.1-3.7-1.4-5.9c-0.3-2.3-0.6-4.7-0.8-7.2c-0.2-2.5-0.3-5.1-0.3-7.8c0-2.7-0.1-5.2-0.1-7.7v-44.9c0-2.6,0-5.3,0.1-8
		c0-2.7,0.1-5.3,0.3-7.9c0.2-2.5,0.4-4.9,0.8-7.2c0.3-2.2,0.8-4.2,1.4-5.9c0.6-1.7,1.4-3,2.3-4S516.7,219.8,518,219.8L518,219.8z
		 M518,224.2c-1.5,0-2.6,0.8-3.5,2.3c-0.9,1.5-1.5,3.6-2,6.3c-0.4,2.7-0.7,5.9-0.9,9.6c-0.1,3.7-0.2,7.7-0.2,12.1v44.6
		c0,2.7,0,5.4,0.1,7.9c0,2.5,0.1,4.9,0.3,7.1c0.1,2.2,0.4,4.3,0.6,6.1c0.3,1.8,0.7,3.4,1.1,4.7c0.5,1.3,1.1,2.3,1.8,3.1
		c0.7,0.7,1.6,1.1,2.6,1.1h0c1.5,0,2.6-0.8,3.5-2.3c0.9-1.5,1.5-3.6,2-6.3c0.4-2.7,0.7-5.9,0.9-9.6c0.1-3.7,0.2-7.7,0.2-12.1v-44.6
		c0-4.1-0.1-8-0.2-11.6s-0.4-6.8-0.8-9.6s-1.1-4.9-1.9-6.5S519.6,224.2,518,224.2L518,224.2z"/>
	<path class="st0" d="M532.9,332.3V220.9h1.7v53.2h4.2l8.7-53.1h1.9l-9.1,55l10,56.2h-1.9l-9.6-53.9h-4.2v53.9H532.9z"/>
	<path class="st0" d="M554.4,332.3V220.9h1.7v111.4H554.4z"/>
	<path class="st0" d="M576.4,225.2h-0.3v107.1h-1.7V220.9h3.4l8,87.4l8-87.4h3.4v111.4h-1.7V225.2h-0.3l-8.1,88.2h-2.5L576.4,225.2z
		"/>
	<path class="st0" d="M620.7,221v83.3c0,4.1-0.1,7.8-0.2,11.4s-0.5,6.6-1,9.2c-0.5,2.6-1.4,4.7-2.5,6.2c-1.1,1.5-2.6,2.2-4.5,2.2
		c-1.9,0-3.4-0.7-4.5-2.2c-1.1-1.5-1.9-3.5-2.5-6.2c-0.5-2.6-0.9-5.7-1-9.2c-0.1-3.5-0.2-7.3-0.2-11.4V221h1.7v82.6
		c0,3.9,0,7.4,0.1,10.6c0.1,3.1,0.3,5.8,0.8,8c0.4,2.2,1.1,3.9,1.9,5.1c0.9,1.2,2.1,1.8,3.6,1.8c1.6,0,2.8-0.6,3.6-1.8
		c0.9-1.2,1.5-2.9,1.9-5.1c0.4-2.2,0.7-4.9,0.8-8c0.1-3.1,0.1-6.6,0.1-10.6V221H620.7z"/>
	<path class="st0" d="M633.5,225.3v106.9h-1.7V225.3h-7.6V221h16.9v4.3H633.5z"/>
	<path class="st0" d="M656.8,332.3l-2.2-29.9H643l-2.2,29.9h-1.8l8.2-111.4h3.1l8.2,111.4H656.8z M643.3,298h11l-5.3-72.9h-0.3
		L643.3,298z"/>
	<path class="st0" d="M675.8,332.3l-7.6-52.8l-7.4,52.8h-2l8.3-58.1l-7.6-53.3h1.8l7,48.7l7-48.7h1.8l-7.8,53.5l8.4,57.9H675.8z"/>
	<path class="st0" d="M695.7,332.3l-2.2-29.9h-11.6l-2.2,29.9H678l8.2-111.4h3.1l8.2,111.4H695.7z M682.2,298h11l-5.3-72.9h-0.3
		L682.2,298z"/>
	<path class="st0" d="M715.7,304.6c0,4.4-0.1,8.4-0.4,11.9c-0.3,3.5-0.8,6.5-1.4,9c-0.6,2.5-1.5,4.4-2.5,5.7c-1,1.3-2.3,2-3.7,2
		c-1.9,0-3.4-0.8-4.5-2.3s-1.9-3.6-2.4-6.3c-0.5-2.6-0.9-5.7-1-9.3c-0.1-3.5-0.2-7.3-0.2-11.3v-3h1.7v2.4c0,4.3,0.1,8.1,0.2,11.3
		c0.2,3.2,0.5,5.8,0.9,7.9c0.5,2.1,1.1,3.7,2,4.7c0.8,1,2,1.5,3.4,1.5c1.2,0,2.2-0.6,3-1.8c0.8-1.2,1.5-2.9,2-5
		c0.5-2.1,0.8-4.7,1.1-7.6s0.3-6.1,0.3-9.6v-0.7c0-3.1-0.1-5.8-0.3-8.2c-0.2-2.4-0.6-4.5-1-6.4s-1-3.6-1.6-5.1
		c-0.6-1.5-1.3-2.9-2.1-4.1l-3.8-6c-0.9-1.4-1.7-2.9-2.4-4.5c-0.7-1.7-1.3-3.6-1.7-5.8c-0.5-2.2-0.8-4.7-1-7.5
		c-0.2-2.8-0.4-6.1-0.4-9.9v-1.1c0-3.8,0.2-7.3,0.5-10.4c0.3-3.2,0.8-5.9,1.5-8.1c0.7-2.2,1.5-4,2.5-5.2c1-1.2,2.2-1.9,3.5-1.9
		c1.4,0,2.7,0.7,3.7,2.1c1,1.4,1.8,3.3,2.5,5.7c0.6,2.4,1.1,5.2,1.4,8.4c0.3,3.2,0.4,6.6,0.4,10.2v5.7H714l-0.1-8.5
		c0-2.6-0.2-5.1-0.4-7.4c-0.3-2.3-0.6-4.4-1.1-6.2c-0.5-1.8-1.1-3.2-1.9-4.2c-0.8-1-1.7-1.5-2.8-1.5c-1.2,0-2.2,0.6-3,1.9
		c-0.8,1.3-1.5,3-2,5.1c-0.5,2.1-0.8,4.6-1,7.4s-0.3,5.7-0.2,8.8l0.1,2.9c0,2.3,0.2,4.5,0.4,6.6c0.3,2.1,0.6,3.9,1.1,5.6
		c0.5,1.7,1,3.3,1.6,4.7c0.6,1.4,1.3,2.7,2,3.9l3.9,6.2c1.7,2.7,3,6.3,3.8,10.7c0.8,4.4,1.3,9.8,1.4,16.2V304.6z"/>
	<path class="st0" d="M735.4,304.6c0,4.4-0.1,8.4-0.4,11.9c-0.3,3.5-0.8,6.5-1.4,9c-0.6,2.5-1.5,4.4-2.5,5.7c-1,1.3-2.3,2-3.7,2
		c-1.9,0-3.4-0.8-4.5-2.3s-1.9-3.6-2.4-6.3c-0.5-2.6-0.9-5.7-1-9.3c-0.1-3.5-0.2-7.3-0.2-11.3v-3h1.7v2.4c0,4.3,0.1,8.1,0.2,11.3
		c0.2,3.2,0.5,5.8,0.9,7.9c0.5,2.1,1.1,3.7,2,4.7c0.8,1,2,1.5,3.4,1.5c1.2,0,2.2-0.6,3-1.8c0.8-1.2,1.5-2.9,2-5
		c0.5-2.1,0.8-4.7,1.1-7.6s0.3-6.1,0.3-9.6v-0.7c0-3.1-0.1-5.8-0.3-8.2c-0.2-2.4-0.6-4.5-1-6.4s-1-3.6-1.6-5.1
		c-0.6-1.5-1.3-2.9-2.1-4.1l-3.8-6c-0.9-1.4-1.7-2.9-2.4-4.5c-0.7-1.7-1.3-3.6-1.7-5.8c-0.5-2.2-0.8-4.7-1-7.5
		c-0.2-2.8-0.4-6.1-0.4-9.9v-1.1c0-3.8,0.2-7.3,0.5-10.4c0.3-3.2,0.8-5.9,1.5-8.1c0.7-2.2,1.5-4,2.5-5.2c1-1.2,2.2-1.9,3.5-1.9
		c1.4,0,2.7,0.7,3.7,2.1c1,1.4,1.8,3.3,2.5,5.7c0.6,2.4,1.1,5.2,1.4,8.4c0.3,3.2,0.4,6.6,0.4,10.2v5.7h-1.7l-0.1-8.5
		c0-2.6-0.2-5.1-0.4-7.4c-0.3-2.3-0.6-4.4-1.1-6.2c-0.5-1.8-1.1-3.2-1.9-4.2c-0.8-1-1.7-1.5-2.8-1.5c-1.2,0-2.2,0.6-3,1.9
		c-0.8,1.3-1.5,3-2,5.1c-0.5,2.1-0.8,4.6-1,7.4s-0.3,5.7-0.2,8.8l0.1,2.9c0,2.3,0.2,4.5,0.4,6.6c0.3,2.1,0.6,3.9,1.1,5.6
		c0.5,1.7,1,3.3,1.6,4.7c0.6,1.4,1.3,2.7,2,3.9l3.9,6.2c1.7,2.7,3,6.3,3.8,10.7c0.8,4.4,1.3,9.8,1.4,16.2V304.6z"/>
	<path class="st0" d="M741.1,332.3V220.9h1.7v111.4H741.1z"/>
	<path class="st0" d="M764.8,304.6c0,4.4-0.1,8.4-0.4,11.9c-0.3,3.5-0.8,6.5-1.4,9c-0.6,2.5-1.5,4.4-2.5,5.7c-1,1.3-2.3,2-3.7,2
		c-1.9,0-3.4-0.8-4.5-2.3s-1.9-3.6-2.4-6.3c-0.5-2.6-0.9-5.7-1-9.3c-0.1-3.5-0.2-7.3-0.2-11.3v-3h1.7v2.4c0,4.3,0.1,8.1,0.2,11.3
		c0.2,3.2,0.5,5.8,0.9,7.9c0.5,2.1,1.1,3.7,2,4.7c0.8,1,2,1.5,3.4,1.5c1.2,0,2.2-0.6,3-1.8c0.8-1.2,1.5-2.9,2-5
		c0.5-2.1,0.8-4.7,1.1-7.6s0.3-6.1,0.3-9.6v-0.7c0-3.1-0.1-5.8-0.3-8.2c-0.2-2.4-0.6-4.5-1-6.4s-1-3.6-1.6-5.1
		c-0.6-1.5-1.3-2.9-2.1-4.1l-3.8-6c-0.9-1.4-1.7-2.9-2.4-4.5c-0.7-1.7-1.3-3.6-1.7-5.8c-0.5-2.2-0.8-4.7-1-7.5
		c-0.2-2.8-0.4-6.1-0.4-9.9v-1.1c0-3.8,0.2-7.3,0.5-10.4c0.3-3.2,0.8-5.9,1.5-8.1c0.7-2.2,1.5-4,2.5-5.2c1-1.2,2.2-1.9,3.5-1.9
		c1.4,0,2.7,0.7,3.7,2.1c1,1.4,1.8,3.3,2.5,5.7c0.6,2.4,1.1,5.2,1.4,8.4c0.3,3.2,0.4,6.6,0.4,10.2v5.7h-1.7l-0.1-8.5
		c0-2.6-0.2-5.1-0.4-7.4c-0.3-2.3-0.6-4.4-1.1-6.2c-0.5-1.8-1.1-3.2-1.9-4.2c-0.8-1-1.7-1.5-2.8-1.5c-1.2,0-2.2,0.6-3,1.9
		c-0.8,1.3-1.5,3-2,5.1c-0.5,2.1-0.8,4.6-1,7.4s-0.3,5.7-0.2,8.8l0.1,2.9c0,2.3,0.2,4.5,0.4,6.6c0.3,2.1,0.6,3.9,1.1,5.6
		c0.5,1.7,1,3.3,1.6,4.7c0.6,1.4,1.3,2.7,2,3.9l3.9,6.2c1.7,2.7,3,6.3,3.8,10.7c0.8,4.4,1.3,9.8,1.4,16.2V304.6z"/>
	<path class="st0" d="M796.5,303.9c0,5.3-0.1,9.7-0.4,13.3c-0.3,3.6-0.8,6.5-1.4,8.7c-0.6,2.2-1.5,3.8-2.5,4.8c-1,1-2.3,1.5-3.8,1.5
		h-7.5V220.9h7.5c1,0,2,0.4,2.9,1.2c0.9,0.8,1.7,2.2,2.3,4.1s1.2,4.4,1.6,7.5c0.4,3.1,0.6,6.9,0.6,11.4v7.4c0,2.7-0.1,5.3-0.2,7.7
		c-0.2,2.4-0.4,4.6-0.8,6.5c-0.4,1.9-0.8,3.6-1.4,4.9c-0.6,1.3-1.3,2.3-2.2,2.9c0.8,0.4,1.6,1.3,2.2,2.6c0.7,1.3,1.3,3,1.7,4.9
		c0.5,2,0.8,4.2,1.1,6.7c0.3,2.5,0.4,5.2,0.4,8.1V303.9z M794,245c0-2.5-0.1-5-0.3-7.4c-0.2-2.4-0.5-4.5-1-6.4
		c-0.4-1.8-1-3.3-1.8-4.4c-0.7-1.1-1.6-1.7-2.7-1.7h-5.8v47.2h5.4c1.1,0,2-0.5,2.8-1.4s1.4-2.2,1.9-3.9c0.5-1.7,0.8-3.8,1-6.2
		c0.2-2.5,0.3-5.3,0.3-8.5V245z M794.8,296.9c0-2.8-0.2-5.4-0.5-7.8c-0.3-2.4-0.8-4.6-1.3-6.4c-0.6-1.8-1.3-3.3-2-4.3
		c-0.8-1-1.7-1.6-2.6-1.6h-5.7v51.1h5.8c0.6,0,1.2-0.1,1.7-0.2s1.1-0.5,1.6-1c0.5-0.5,0.9-1.3,1.3-2.4c0.4-1,0.7-2.5,1-4.2
		s0.5-3.9,0.6-6.6c0.1-2.6,0.2-5.8,0.2-9.5V296.9z"/>
	<path class="st0" d="M803.2,332.3V220.9h1.7v111.4H803.2z"/>
	<path class="st0" d="M812.7,332.3V220.9h1.7v106.9h11.9v4.5H812.7z"/>
	<path class="st0" d="M844.5,332.3l-2.2-29.9h-11.6l-2.2,29.9h-1.8l8.2-111.4h3.1l8.2,111.4H844.5z M831,298h11l-5.3-72.9h-0.3
		L831,298z"/>
	<path class="st0" d="M850.4,332.3V220.9h3.6l10.6,107.1h0.5V220.9h1.7l0.2,111.4h-3.7l-10.7-107.1h-0.5v107.1H850.4z"/>
	<path class="st0" d="M886.5,225.2h-0.3v107.1h-1.7V220.9h3.4l8,87.4l8-87.4h3.4v111.4h-1.7V225.2h-0.3l-8.1,88.2h-2.5L886.5,225.2z
		"/>
	<path class="st0" d="M928.9,332.3l-2.2-29.9h-11.6l-2.2,29.9h-1.8l8.2-111.4h3.1l8.2,111.4H928.9z M915.5,298h11l-5.3-72.9h-0.3
		L915.5,298z"/>
	<path class="st0" d="M949,304.6c0,4.4-0.1,8.4-0.4,11.9c-0.3,3.5-0.8,6.5-1.4,9c-0.6,2.5-1.5,4.4-2.5,5.7c-1,1.3-2.3,2-3.7,2
		c-1.9,0-3.4-0.8-4.5-2.3s-1.9-3.6-2.4-6.3c-0.5-2.6-0.9-5.7-1-9.3c-0.1-3.5-0.2-7.3-0.2-11.3v-3h1.7v2.4c0,4.3,0.1,8.1,0.2,11.3
		c0.2,3.2,0.5,5.8,0.9,7.9c0.5,2.1,1.1,3.7,2,4.7c0.8,1,2,1.5,3.4,1.5c1.2,0,2.2-0.6,3-1.8c0.8-1.2,1.5-2.9,2-5
		c0.5-2.1,0.8-4.7,1.1-7.6s0.3-6.1,0.3-9.6v-0.7c0-3.1-0.1-5.8-0.3-8.2c-0.2-2.4-0.6-4.5-1-6.4s-1-3.6-1.6-5.1
		c-0.6-1.5-1.3-2.9-2.1-4.1l-3.8-6c-0.9-1.4-1.7-2.9-2.4-4.5c-0.7-1.7-1.3-3.6-1.7-5.8c-0.5-2.2-0.8-4.7-1-7.5
		c-0.2-2.8-0.4-6.1-0.4-9.9v-1.1c0-3.8,0.2-7.3,0.5-10.4c0.3-3.2,0.8-5.9,1.5-8.1c0.7-2.2,1.5-4,2.5-5.2c1-1.2,2.2-1.9,3.5-1.9
		c1.4,0,2.7,0.7,3.7,2.1c1,1.4,1.8,3.3,2.5,5.7c0.6,2.4,1.1,5.2,1.4,8.4c0.3,3.2,0.4,6.6,0.4,10.2v5.7h-1.7l-0.1-8.5
		c0-2.6-0.2-5.1-0.4-7.4c-0.3-2.3-0.6-4.4-1.1-6.2c-0.5-1.8-1.1-3.2-1.9-4.2c-0.8-1-1.7-1.5-2.8-1.5c-1.2,0-2.2,0.6-3,1.9
		c-0.8,1.3-1.5,3-2,5.1c-0.5,2.1-0.8,4.6-1,7.4s-0.3,5.7-0.2,8.8l0.1,2.9c0,2.3,0.2,4.5,0.4,6.6c0.3,2.1,0.6,3.9,1.1,5.6
		c0.5,1.7,1,3.3,1.6,4.7c0.6,1.4,1.3,2.7,2,3.9l3.9,6.2c1.7,2.7,3,6.3,3.8,10.7c0.8,4.4,1.3,9.8,1.4,16.2V304.6z"/>
	<path class="st0" d="M954.6,332.3V220.9h1.7v106.9h11.9v4.5H954.6z"/>
	<path class="st0" d="M986.4,332.3l-2.2-29.9h-11.6l-2.2,29.9h-1.8l8.2-111.4h3.1l8.2,111.4H986.4z M972.9,298h11l-5.3-72.9h-0.3
		L972.9,298z"/>
	<path class="st0" d="M992.3,332.3V220.9h1.7v53.2h12.4v-53.2h1.7v111.4h-1.7v-53.9H994v53.9H992.3z"/>
	<path class="st0" d="M1029.9,332.3l-2.2-29.9h-11.6l-2.2,29.9h-1.8l8.2-111.4h3.1l8.2,111.4H1029.9z M1016.4,298h11l-5.3-72.9h-0.3
		L1016.4,298z"/>
	<path class="st0" d="M1039,225.3v106.9h-1.7V225.3h-7.6V221h16.9v4.3H1039z"/>
	<path class="st0" d="M1050.9,332.3V220.9h1.7v106.9h11.9v4.5H1050.9z"/>
	<path class="st0" d="M1082.6,332.3l-2.2-29.9h-11.6l-2.2,29.9h-1.8l8.2-111.4h3.1l8.2,111.4H1082.6z M1069.2,298h11l-5.3-72.9h-0.3
		L1069.2,298z"/>
	<path class="st0" d="M1102.7,304.6c0,4.4-0.1,8.4-0.4,11.9c-0.3,3.5-0.8,6.5-1.4,9c-0.6,2.5-1.5,4.4-2.5,5.7c-1,1.3-2.3,2-3.7,2
		c-1.9,0-3.4-0.8-4.5-2.3s-1.9-3.6-2.4-6.3c-0.5-2.6-0.9-5.7-1-9.3c-0.1-3.5-0.2-7.3-0.2-11.3v-3h1.7v2.4c0,4.3,0.1,8.1,0.2,11.3
		c0.2,3.2,0.5,5.8,0.9,7.9c0.5,2.1,1.1,3.7,2,4.7c0.8,1,2,1.5,3.4,1.5c1.2,0,2.2-0.6,3-1.8c0.8-1.2,1.5-2.9,2-5
		c0.5-2.1,0.8-4.7,1.1-7.6s0.3-6.1,0.3-9.6v-0.7c0-3.1-0.1-5.8-0.3-8.2c-0.2-2.4-0.6-4.5-1-6.4s-1-3.6-1.6-5.1
		c-0.6-1.5-1.3-2.9-2.1-4.1l-3.8-6c-0.9-1.4-1.7-2.9-2.4-4.5c-0.7-1.7-1.3-3.6-1.7-5.8c-0.5-2.2-0.8-4.7-1-7.5
		c-0.2-2.8-0.4-6.1-0.4-9.9v-1.1c0-3.8,0.2-7.3,0.5-10.4c0.3-3.2,0.8-5.9,1.5-8.1c0.7-2.2,1.5-4,2.5-5.2c1-1.2,2.2-1.9,3.5-1.9
		c1.4,0,2.7,0.7,3.7,2.1c1,1.4,1.8,3.3,2.5,5.7c0.6,2.4,1.1,5.2,1.4,8.4c0.3,3.2,0.4,6.6,0.4,10.2v5.7h-1.7l-0.1-8.5
		c0-2.6-0.2-5.1-0.4-7.4c-0.3-2.3-0.6-4.4-1.1-6.2c-0.5-1.8-1.1-3.2-1.9-4.2c-0.8-1-1.7-1.5-2.8-1.5c-1.2,0-2.2,0.6-3,1.9
		c-0.8,1.3-1.5,3-2,5.1c-0.5,2.1-0.8,4.6-1,7.4s-0.3,5.7-0.2,8.8l0.1,2.9c0,2.3,0.2,4.5,0.4,6.6c0.3,2.1,0.6,3.9,1.1,5.6
		c0.5,1.7,1,3.3,1.6,4.7c0.6,1.4,1.3,2.7,2,3.9l3.9,6.2c1.7,2.7,3,6.3,3.8,10.7c0.8,4.4,1.3,9.8,1.4,16.2V304.6z"/>
	<path class="st0" d="M1108.3,332.3V220.9h1.7v53.2h12.4v-53.2h1.7v111.4h-1.7v-53.9H1110v53.9H1108.3z"/>
	<path class="st0" d="M1132,332.3V220.9h1.7v111.4H1132z"/>
	<path class="st0" d="M1141.6,332.3V220.9h3.6l10.6,107.1h0.5V220.9h1.7l0.2,111.4h-3.7l-10.7-107.1h-0.5v107.1H1141.6z"/>
	<path class="st0" d="M1171.8,278.4h8.5v23.2c0,2.2,0,4.4-0.1,6.8c0,2.4-0.2,4.8-0.3,7.1c-0.2,2.3-0.4,4.6-0.8,6.7
		c-0.4,2.2-0.8,4-1.4,5.7c-0.6,1.6-1.4,2.9-2.3,3.9s-2,1.5-3.3,1.5h0c-1.3,0-2.5-0.5-3.4-1.5c-0.9-1-1.7-2.4-2.3-4.1
		c-0.6-1.7-1.1-3.7-1.4-5.9c-0.3-2.2-0.6-4.6-0.7-7.2c-0.2-2.5-0.3-5.1-0.3-7.8c0-2.7-0.1-5.2-0.1-7.7v-44.9c0-2.6,0-5.3,0.1-8
		c0-2.7,0.1-5.3,0.3-7.9c0.2-2.5,0.4-4.9,0.8-7.2c0.3-2.2,0.8-4.2,1.4-5.9c0.6-1.7,1.4-3,2.3-4s2-1.5,3.3-1.5h0
		c1.3,0,2.5,0.5,3.4,1.5c0.9,1,1.7,2.3,2.3,4s1.1,3.6,1.4,5.8c0.3,2.2,0.6,4.4,0.8,6.7c0.2,2.3,0.3,4.7,0.3,7c0,2.4,0.1,4.6,0.1,6.6
		v0.4h-1.7v-0.4c0-3.7-0.1-7.2-0.2-10.6c-0.1-3.3-0.4-6.2-0.9-8.7s-1.1-4.5-2-5.9c-0.9-1.4-2-2.2-3.5-2.2c-1.5,0-2.6,0.8-3.5,2.3
		c-0.9,1.5-1.5,3.6-2,6.3c-0.4,2.7-0.7,5.9-0.9,9.6c-0.1,3.7-0.2,7.7-0.2,12.1v44.6c0,2.7,0,5.4,0.1,7.9c0,2.5,0.1,4.9,0.3,7.1
		c0.1,2.2,0.4,4.3,0.6,6.1c0.3,1.8,0.7,3.4,1.1,4.7c0.5,1.3,1.1,2.3,1.8,3.1c0.7,0.7,1.6,1.1,2.6,1.1c1.4,0,2.5-0.7,3.4-2.1
		s1.5-3.3,2-5.8c0.5-2.5,0.8-5.4,0.9-8.7c0.2-3.3,0.2-7,0.2-11v-18.8h-6.8V278.4z"/>
</g>
</svg>
