<?xml version="1.0" encoding="utf-8"?>
<!-- Generator: Adobe Illustrator 19.1.0, SVG Export Plug-In . SVG Version: 6.00 Build 0)  -->
<svg version="1.1" id="Слой_1" xmlns="http://www.w3.org/2000/svg" xmlns:xlink="http://www.w3.org/1999/xlink" x="0px" y="0px"
	 viewBox="0 0 335 90" style="enable-background:new 0 0 335 90;" xml:space="preserve">
<style type="text/css">
	.st0{fill:#FFFFFF;}
</style>
<g>
	<path class="st0" d="M4,45.9c-0.5-0.1-0.9-0.3-1.2-0.8c-0.3-0.4-0.6-1-0.8-1.6S1.6,42,1.5,41.2c-0.1-0.9-0.2-1.8-0.3-2.7
		c-0.1-1-0.1-1.9-0.1-2.9c0-1,0-2,0-2.9V15c0-1,0-2.1,0-3.1s0.1-2.1,0.1-3.1S1.4,6.9,1.5,6c0.1-0.9,0.3-1.6,0.6-2.3
		C2.3,3.1,2.6,2.6,3,2.2c0.4-0.4,0.8-0.6,1.3-0.6h0c0.5,0,1,0.2,1.3,0.6C6,2.6,6.3,3.1,6.5,3.8c0.2,0.7,0.4,1.4,0.6,2.3
		C7.2,7,7.3,7.9,7.4,8.9c0.1,1,0.1,2,0.1,3c0,1,0,2,0,3v17.5c0,1,0,2,0,3s-0.1,2-0.1,3c-0.1,1-0.2,1.9-0.3,2.7s-0.3,1.6-0.5,2.3
		s-0.5,1.2-0.8,1.6c-0.3,0.4-0.7,0.7-1.2,0.7v4.7H4V45.9z M4.3,3.3c-0.6,0-1,0.3-1.4,0.9S2.3,5.6,2.1,6.6c-0.2,1-0.3,2.3-0.3,3.7
		c-0.1,1.4-0.1,3-0.1,4.7v17.4c0,1.1,0,2.1,0,3.1s0,1.9,0.1,2.8C1.9,39.2,2,40,2.1,40.7c0.1,0.7,0.3,1.3,0.4,1.8
		c0.2,0.5,0.4,0.9,0.7,1.2s0.6,0.4,1,0.4h0c0.6,0,1-0.3,1.4-0.9c0.3-0.6,0.6-1.4,0.8-2.5s0.3-2.3,0.3-3.7s0.1-3,0.1-4.7V15
		c0-1.6,0-3.1-0.1-4.5S6.6,7.8,6.5,6.8S6,4.8,5.7,4.2C5.4,3.6,4.9,3.3,4.3,3.3L4.3,3.3z"/>
	<path class="st0" d="M15.6,45.5l-0.9-11.7h-4.5L9.3,45.5H8.6L11.8,2H13l3.2,43.5H15.6z M10.3,32.1h4.3L12.5,3.7h-0.1L10.3,32.1z"/>
	<path class="st0" d="M17.9,45.5V2.1h2.9c0.6,0,1.1,0.2,1.5,0.6s0.7,1,1,1.9s0.4,2,0.5,3.4C24,9.3,24,11,24,13.1V17
		c0,1.1,0,2.1-0.1,3.1c-0.1,1-0.2,1.8-0.4,2.6s-0.4,1.5-0.7,2.1s-0.6,1-0.9,1.3c0.3,0.4,0.5,0.9,0.7,1.5c0.2,0.5,0.4,1.2,0.5,1.8
		c0.1,0.7,0.3,1.4,0.4,2.3s0.2,1.8,0.2,2.8l0.3,6.4c0,0.8,0.1,1.6,0.2,2.4c0.1,0.8,0.2,1.5,0.3,2.2h-0.7c-0.1-0.7-0.2-1.4-0.2-2.2
		c-0.1-0.7-0.1-1.5-0.2-2.4l-0.3-6.4c-0.1-1.4-0.2-2.5-0.3-3.5c-0.2-1-0.4-1.8-0.6-2.5s-0.5-1.1-0.7-1.5c-0.3-0.3-0.5-0.5-0.7-0.5
		h-2v18.9H17.9z M23.4,13.1c0-1.5,0-2.7-0.1-3.7c-0.1-1-0.1-1.9-0.3-2.6c-0.1-0.7-0.2-1.2-0.4-1.6c-0.2-0.4-0.3-0.7-0.5-0.9
		c-0.2-0.2-0.4-0.3-0.6-0.4c-0.2-0.1-0.4-0.1-0.7-0.1h-2.3v21.1h2.2c0.4,0,0.7-0.2,1-0.6c0.3-0.4,0.6-1,0.8-1.7
		c0.2-0.7,0.4-1.5,0.5-2.5c0.1-1,0.2-2,0.2-3.1V13.1z"/>
	<path class="st0" d="M32.2,34.7c0,1.7-0.1,3.3-0.2,4.6c-0.1,1.4-0.3,2.6-0.6,3.5c-0.3,1-0.6,1.7-1,2.2c-0.4,0.5-0.9,0.8-1.5,0.8
		c-0.8,0-1.3-0.3-1.8-0.9c-0.4-0.6-0.7-1.4-1-2.4s-0.3-2.2-0.4-3.6c0-1.4-0.1-2.8-0.1-4.4v-1.2h0.7v0.9c0,1.7,0,3.2,0.1,4.4
		c0.1,1.2,0.2,2.3,0.4,3.1c0.2,0.8,0.4,1.4,0.8,1.8c0.3,0.4,0.8,0.6,1.3,0.6c0.5,0,0.9-0.2,1.2-0.7s0.6-1.1,0.8-2
		c0.2-0.8,0.3-1.8,0.4-3c0.1-1.1,0.1-2.4,0.1-3.7v-0.3c0-1.2,0-2.3-0.1-3.2s-0.2-1.8-0.4-2.5c-0.2-0.7-0.4-1.4-0.6-2
		c-0.2-0.6-0.5-1.1-0.8-1.6L28,22.9c-0.3-0.5-0.7-1.1-0.9-1.8s-0.5-1.4-0.7-2.2C26.3,18,26.1,17,26,15.9c-0.1-1.1-0.1-2.4-0.1-3.9
		v-0.4c0-1.5,0.1-2.8,0.2-4.1s0.3-2.3,0.6-3.2c0.3-0.9,0.6-1.6,1-2C28,1.9,28.5,1.6,29,1.6c0.6,0,1,0.3,1.4,0.8
		c0.4,0.5,0.7,1.3,1,2.2s0.4,2,0.5,3.3s0.2,2.6,0.2,4v2.2h-0.7l0-3.3c0-1-0.1-2-0.2-2.9c-0.1-0.9-0.2-1.7-0.4-2.4s-0.4-1.2-0.8-1.6
		c-0.3-0.4-0.7-0.6-1.1-0.6c-0.5,0-0.9,0.2-1.2,0.7c-0.3,0.5-0.6,1.2-0.8,2c-0.2,0.8-0.3,1.8-0.4,2.9c-0.1,1.1-0.1,2.2-0.1,3.4
		l0,1.1c0,0.9,0.1,1.8,0.2,2.6c0.1,0.8,0.2,1.5,0.4,2.2c0.2,0.7,0.4,1.3,0.6,1.8c0.2,0.6,0.5,1.1,0.8,1.5l1.5,2.4
		c0.7,1.1,1.2,2.5,1.5,4.2c0.3,1.7,0.5,3.8,0.5,6.3V34.7z"/>
	<path class="st0" d="M34.4,45.5V2h0.7v20.8h4.8V2h0.7v43.5h-0.7v-21h-4.8v21H34.4z"/>
	<path class="st0" d="M43.7,45.5V2h0.7v43.5H43.7z"/>
	<path class="st0" d="M51.5,45.5V2h0.7v20.8h1.6l3.4-20.7H58l-3.6,21.5l3.9,21.9h-0.8l-3.8-21h-1.6v21H51.5z"/>
	<path class="st0" d="M62.3,1.6c0.5,0,1,0.2,1.3,0.6c0.4,0.4,0.7,0.9,0.9,1.6c0.2,0.7,0.4,1.4,0.6,2.3c0.1,0.9,0.2,1.8,0.3,2.8
		c0.1,1,0.1,2,0.1,3c0,1,0,2,0,3v17.5c0,1,0,2.1,0,3.1c0,1.1-0.1,2.1-0.1,3.1s-0.2,1.9-0.3,2.8c-0.1,0.9-0.3,1.6-0.6,2.3
		c-0.2,0.6-0.5,1.2-0.9,1.5c-0.4,0.4-0.8,0.6-1.3,0.6h0c-0.5,0-1-0.2-1.3-0.6c-0.4-0.4-0.7-0.9-0.9-1.6s-0.4-1.4-0.6-2.3
		c-0.1-0.9-0.2-1.8-0.3-2.8c-0.1-1-0.1-2-0.1-3c0-1,0-2,0-3V15c0-1,0-2.1,0-3.1s0.1-2.1,0.1-3.1s0.2-1.9,0.3-2.8
		c0.1-0.9,0.3-1.6,0.6-2.3c0.2-0.6,0.5-1.2,0.9-1.5C61.4,1.8,61.8,1.6,62.3,1.6L62.3,1.6z M62.3,3.3c-0.6,0-1,0.3-1.4,0.9
		c-0.3,0.6-0.6,1.4-0.8,2.5s-0.3,2.3-0.3,3.7c-0.1,1.4-0.1,3-0.1,4.7v17.4c0,1.1,0,2.1,0,3.1c0,1,0,1.9,0.1,2.8
		c0.1,0.9,0.1,1.7,0.2,2.4c0.1,0.7,0.3,1.3,0.4,1.8c0.2,0.5,0.4,0.9,0.7,1.2s0.6,0.4,1,0.4h0c0.6,0,1-0.3,1.4-0.9
		c0.3-0.6,0.6-1.4,0.8-2.5s0.3-2.3,0.3-3.7s0.1-3,0.1-4.7V15c0-1.6,0-3.1-0.1-4.5s-0.1-2.7-0.3-3.7s-0.4-1.9-0.8-2.5
		C63.4,3.6,62.9,3.3,62.3,3.3L62.3,3.3z"/>
	<path class="st0" d="M67.9,12.4l0-10.4h0.7l0,10.4H67.9z"/>
	<path class="st0" d="M71.5,45.5V2.1h2.9c0.6,0,1.1,0.2,1.5,0.6s0.7,1,1,1.9s0.4,2,0.5,3.4c0.1,1.4,0.2,3.1,0.2,5.2V17
		c0,1.1,0,2.1-0.1,3.1c-0.1,1-0.2,1.8-0.4,2.6s-0.4,1.5-0.7,2.1s-0.6,1-0.9,1.3c0.3,0.4,0.5,0.9,0.7,1.5c0.2,0.5,0.4,1.2,0.5,1.8
		c0.1,0.7,0.3,1.4,0.4,2.3s0.2,1.8,0.2,2.8l0.3,6.4c0,0.8,0.1,1.6,0.2,2.4c0.1,0.8,0.2,1.5,0.3,2.2h-0.7c-0.1-0.7-0.2-1.4-0.2-2.2
		c-0.1-0.7-0.1-1.5-0.2-2.4l-0.3-6.4c-0.1-1.4-0.2-2.5-0.3-3.5c-0.2-1-0.4-1.8-0.6-2.5s-0.5-1.1-0.7-1.5c-0.3-0.3-0.5-0.5-0.7-0.5
		h-2v18.9H71.5z M76.9,13.1c0-1.5,0-2.7-0.1-3.7c-0.1-1-0.1-1.9-0.3-2.6c-0.1-0.7-0.2-1.2-0.4-1.6c-0.2-0.4-0.3-0.7-0.5-0.9
		c-0.2-0.2-0.4-0.3-0.6-0.4c-0.2-0.1-0.4-0.1-0.7-0.1h-2.3v21.1h2.2c0.4,0,0.7-0.2,1-0.6c0.3-0.4,0.6-1,0.8-1.7
		c0.2-0.7,0.4-1.5,0.5-2.5c0.1-1,0.2-2,0.2-3.1V13.1z"/>
	<path class="st0" d="M85.8,34.7c0,1.7-0.1,3.3-0.2,4.6c-0.1,1.4-0.3,2.6-0.6,3.5c-0.3,1-0.6,1.7-1,2.2c-0.4,0.5-0.9,0.8-1.5,0.8
		c-0.8,0-1.3-0.3-1.8-0.9c-0.4-0.6-0.7-1.4-1-2.4s-0.3-2.2-0.4-3.6c0-1.4-0.1-2.8-0.1-4.4v-1.2h0.7v0.9c0,1.7,0,3.2,0.1,4.4
		c0.1,1.2,0.2,2.3,0.4,3.1c0.2,0.8,0.4,1.4,0.8,1.8c0.3,0.4,0.8,0.6,1.3,0.6c0.5,0,0.9-0.2,1.2-0.7s0.6-1.1,0.8-2
		c0.2-0.8,0.3-1.8,0.4-3c0.1-1.1,0.1-2.4,0.1-3.7v-0.3c0-1.2,0-2.3-0.1-3.2s-0.2-1.8-0.4-2.5c-0.2-0.7-0.4-1.4-0.6-2
		c-0.2-0.6-0.5-1.1-0.8-1.6l-1.5-2.3c-0.3-0.5-0.7-1.1-0.9-1.8s-0.5-1.4-0.7-2.2c-0.2-0.8-0.3-1.8-0.4-2.9c-0.1-1.1-0.1-2.4-0.1-3.9
		v-0.4c0-1.5,0.1-2.8,0.2-4.1s0.3-2.3,0.6-3.2c0.3-0.9,0.6-1.6,1-2c0.4-0.5,0.8-0.7,1.4-0.7c0.6,0,1,0.3,1.4,0.8
		c0.4,0.5,0.7,1.3,1,2.2s0.4,2,0.5,3.3s0.2,2.6,0.2,4v2.2h-0.7l0-3.3c0-1-0.1-2-0.2-2.9c-0.1-0.9-0.2-1.7-0.4-2.4S84,4.3,83.7,3.9
		c-0.3-0.4-0.7-0.6-1.1-0.6c-0.5,0-0.9,0.2-1.2,0.7c-0.3,0.5-0.6,1.2-0.8,2c-0.2,0.8-0.3,1.8-0.4,2.9c-0.1,1.1-0.1,2.2-0.1,3.4
		l0,1.1c0,0.9,0.1,1.8,0.2,2.6c0.1,0.8,0.2,1.5,0.4,2.2c0.2,0.7,0.4,1.3,0.6,1.8c0.2,0.6,0.5,1.1,0.8,1.5l1.5,2.4
		c0.7,1.1,1.2,2.5,1.5,4.2c0.3,1.7,0.5,3.8,0.5,6.3V34.7z"/>
	<path class="st0" d="M93.4,45.5l-0.9-11.7H88l-0.9,11.7h-0.7L89.7,2h1.2l3.2,43.5H93.4z M88.2,32.1h4.3L90.4,3.7h-0.1L88.2,32.1z"
		/>
	<path class="st0" d="M97,3.8v41.7h-0.7V3.8h-3V2.1h6.6v1.7H97z"/>
	<path class="st0" d="M102.4,3.7h-0.1v41.8h-0.7V2h1.3l3.1,34.1L109.3,2h1.3v43.5h-0.7V3.7h-0.1l-3.2,34.4h-1L102.4,3.7z"/>
	<path class="st0" d="M119,45.5l-0.9-11.7h-4.5l-0.9,11.7h-0.7L115.3,2h1.2l3.2,43.5H119z M113.8,32.1h4.3L116,3.7h-0.1L113.8,32.1z
		"/>
	<path class="st0" d="M121.4,45.5V2h0.7v41.7h4.6v1.7H121.4z"/>
	<path class="st0" d="M133.8,45.5l-0.9-11.7h-4.5l-0.9,11.7h-0.7L130.1,2h1.2l3.2,43.5H133.8z M128.5,32.1h4.3l-2.1-28.4h-0.1
		L128.5,32.1z"/>
	<path class="st0" d="M136.1,45.5V2.1h2.9c0.6,0,1.1,0.2,1.5,0.6s0.7,1,1,1.9s0.4,2,0.5,3.4c0.1,1.4,0.2,3.1,0.2,5.2V17
		c0,1.1,0,2.1-0.1,3.1c-0.1,1-0.2,1.8-0.4,2.6s-0.4,1.5-0.7,2.1s-0.6,1-0.9,1.3c0.3,0.4,0.5,0.9,0.7,1.5c0.2,0.5,0.4,1.2,0.5,1.8
		c0.1,0.7,0.3,1.4,0.4,2.3s0.2,1.8,0.2,2.8l0.3,6.4c0,0.8,0.1,1.6,0.2,2.4c0.1,0.8,0.2,1.5,0.3,2.2h-0.7c-0.1-0.7-0.2-1.4-0.2-2.2
		c-0.1-0.7-0.1-1.5-0.2-2.4l-0.3-6.4c-0.1-1.4-0.2-2.5-0.3-3.5c-0.2-1-0.4-1.8-0.6-2.5s-0.5-1.1-0.7-1.5c-0.3-0.3-0.5-0.5-0.7-0.5
		h-2v18.9H136.1z M141.6,13.1c0-1.5,0-2.7-0.1-3.7c-0.1-1-0.1-1.9-0.3-2.6c-0.1-0.7-0.2-1.2-0.4-1.6c-0.2-0.4-0.3-0.7-0.5-0.9
		c-0.2-0.2-0.4-0.3-0.6-0.4c-0.2-0.1-0.4-0.1-0.7-0.1h-2.3v21.1h2.2c0.4,0,0.7-0.2,1-0.6c0.3-0.4,0.6-1,0.8-1.7
		c0.2-0.7,0.4-1.5,0.5-2.5c0.1-1,0.2-2,0.2-3.1V13.1z"/>
	<path class="st0" d="M149.8,3.7h-0.1v41.8H149V2h1.3l3.1,34.1L156.6,2h1.3v43.5h-0.7V3.7h-0.1l-3.2,34.4h-1L149.8,3.7z"/>
	<path class="st0" d="M166.4,45.5l-0.9-11.7H161l-0.9,11.7h-0.7L162.6,2h1.2l3.2,43.5H166.4z M161.1,32.1h4.3l-2.1-28.4h-0.1
		L161.1,32.1z"/>
	<path class="st0" d="M175.2,2l-3.3,43.5h-1.2L167.3,2h0.7l3.2,41.8h0.1L174.5,2H175.2z"/>
	<path class="st0" d="M176.6,2.1h3.4v32.5c0,1,0,2.1,0,3c0,1,0,1.9-0.1,2.7c-0.1,0.8-0.1,1.6-0.2,2.3c-0.1,0.7-0.3,1.3-0.5,1.7
		s-0.5,0.9-0.8,1.1s-0.7,0.4-1.2,0.4c-0.2,0-0.4,0-0.6-0.1c-0.2,0-0.3-0.1-0.4-0.2c-0.1-0.1-0.3-0.2-0.4-0.4s-0.2-0.4-0.3-0.6
		l0.3-1.5c0.2,0.4,0.4,0.6,0.6,0.8s0.5,0.3,0.8,0.3h0c0.4,0,0.7-0.1,1-0.4s0.5-0.7,0.7-1.4c0.2-0.7,0.3-1.7,0.3-3
		c0.1-1.3,0.1-3,0.1-5.1V3.8h-2.7V2.1z"/>
	<path class="st0" d="M189,2.1v32.5c0,1.6,0,3.1-0.1,4.4c-0.1,1.4-0.2,2.6-0.4,3.6c-0.2,1-0.5,1.8-1,2.4c-0.4,0.6-1,0.9-1.8,0.9
		s-1.3-0.3-1.8-0.9c-0.4-0.6-0.7-1.4-1-2.4c-0.2-1-0.3-2.2-0.4-3.6c-0.1-1.4-0.1-2.9-0.1-4.4V2.1h0.7v32.2c0,1.5,0,2.9,0.1,4.1
		s0.1,2.3,0.3,3.1c0.2,0.9,0.4,1.5,0.8,2c0.3,0.5,0.8,0.7,1.4,0.7c0.6,0,1.1-0.2,1.4-0.7c0.3-0.5,0.6-1.1,0.8-2s0.3-1.9,0.3-3.1
		s0.1-2.6,0.1-4.1V2.1H189z"/>
	<path class="st0" d="M194.8,2.1c0.5,0,0.9,0.2,1.3,0.5c0.4,0.4,0.6,0.8,0.9,1.5c0.2,0.6,0.4,1.3,0.6,2.2c0.1,0.8,0.2,1.7,0.3,2.7
		c0.1,1,0.1,2,0.1,3s0,2.1,0,3.2v17.3c0,1,0,2.1,0,3.2s-0.1,2.1-0.1,3c-0.1,1-0.2,1.9-0.3,2.7c-0.1,0.8-0.3,1.6-0.6,2.2
		c-0.2,0.6-0.5,1.1-0.9,1.5c-0.4,0.4-0.8,0.5-1.3,0.5h-3V2.1H194.8z M192.4,43.8h2.4c0.5,0,0.8-0.2,1.2-0.6c0.3-0.4,0.6-1.1,0.8-2
		c0.2-0.9,0.4-2.1,0.5-3.5c0.1-1.5,0.1-3.2,0.1-5.4V15.2c0-2,0-3.8-0.1-5.2s-0.2-2.6-0.4-3.5c-0.2-0.9-0.4-1.6-0.8-2
		c-0.3-0.4-0.7-0.7-1.1-0.7h-2.5V43.8z"/>
	<path class="st0" d="M200.4,44.4c0-0.5,0-0.9,0.1-1.1c0.1-0.3,0.2-0.4,0.4-0.4c0.2,0,0.4,0.1,0.5,0.4s0.1,0.7,0.1,1.1
		c0,0.4,0,0.8-0.1,1s-0.2,0.4-0.5,0.4c-0.2,0-0.3-0.1-0.4-0.4C200.4,45.2,200.4,44.9,200.4,44.4z"/>
	<path class="st0" d="M210.9,45.9c-0.5-0.1-0.9-0.3-1.2-0.8c-0.3-0.4-0.6-1-0.8-1.6s-0.4-1.4-0.5-2.3c-0.1-0.9-0.2-1.8-0.3-2.7
		c-0.1-1-0.1-1.9-0.1-2.9c0-1,0-2,0-2.9V15c0-1,0-2.1,0-3.1s0.1-2.1,0.1-3.1s0.2-1.9,0.3-2.8c0.1-0.9,0.3-1.6,0.6-2.3
		c0.2-0.6,0.5-1.2,0.9-1.5c0.4-0.4,0.8-0.6,1.3-0.6h0c0.5,0,1,0.2,1.3,0.6c0.4,0.4,0.7,0.9,0.9,1.6c0.2,0.7,0.4,1.4,0.6,2.3
		c0.1,0.9,0.2,1.8,0.3,2.8c0.1,1,0.1,2,0.1,3c0,1,0,2,0,3v17.5c0,1,0,2,0,3s-0.1,2-0.1,3c-0.1,1-0.2,1.9-0.3,2.7s-0.3,1.6-0.5,2.3
		s-0.5,1.2-0.8,1.6c-0.3,0.4-0.7,0.7-1.2,0.7v4.7h-0.7V45.9z M211.2,3.3c-0.6,0-1,0.3-1.4,0.9s-0.6,1.4-0.8,2.5
		c-0.2,1-0.3,2.3-0.3,3.7c-0.1,1.4-0.1,3-0.1,4.7v17.4c0,1.1,0,2.1,0,3.1s0,1.9,0.1,2.8c0.1,0.9,0.1,1.7,0.2,2.4
		c0.1,0.7,0.3,1.3,0.4,1.8c0.2,0.5,0.4,0.9,0.7,1.2s0.6,0.4,1,0.4h0c0.6,0,1-0.3,1.4-0.9c0.3-0.6,0.6-1.4,0.8-2.5s0.3-2.3,0.3-3.7
		s0.1-3,0.1-4.7V15c0-1.6,0-3.1-0.1-4.5s-0.1-2.7-0.3-3.7s-0.4-1.9-0.8-2.5C212.3,3.6,211.8,3.3,211.2,3.3L211.2,3.3z"/>
	<path class="st0" d="M219.8,1.6c0.5,0,1,0.2,1.3,0.6c0.4,0.4,0.7,0.9,0.9,1.6c0.2,0.7,0.4,1.4,0.6,2.3c0.1,0.9,0.2,1.8,0.3,2.8
		c0.1,1,0.1,2,0.1,3c0,1,0,2,0,3v17.5c0,1,0,2.1,0,3.1c0,1.1-0.1,2.1-0.1,3.1s-0.2,1.9-0.3,2.8c-0.1,0.9-0.3,1.6-0.6,2.3
		c-0.2,0.6-0.5,1.2-0.9,1.5c-0.4,0.4-0.8,0.6-1.3,0.6h0c-0.5,0-1-0.2-1.3-0.6c-0.4-0.4-0.7-0.9-0.9-1.6s-0.4-1.4-0.6-2.3
		c-0.1-0.9-0.2-1.8-0.3-2.8c-0.1-1-0.1-2-0.1-3c0-1,0-2,0-3V15c0-1,0-2.1,0-3.1s0.1-2.1,0.1-3.1s0.2-1.9,0.3-2.8
		c0.1-0.9,0.3-1.6,0.6-2.3c0.2-0.6,0.5-1.2,0.9-1.5C218.8,1.8,219.2,1.6,219.8,1.6L219.8,1.6z M219.7,3.3c-0.6,0-1,0.3-1.4,0.9
		c-0.3,0.6-0.6,1.4-0.8,2.5s-0.3,2.3-0.3,3.7c-0.1,1.4-0.1,3-0.1,4.7v17.4c0,1.1,0,2.1,0,3.1c0,1,0,1.9,0.1,2.8
		c0.1,0.9,0.1,1.7,0.2,2.4c0.1,0.7,0.3,1.3,0.4,1.8c0.2,0.5,0.4,0.9,0.7,1.2s0.6,0.4,1,0.4h0c0.6,0,1-0.3,1.4-0.9
		c0.3-0.6,0.6-1.4,0.8-2.5s0.3-2.3,0.3-3.7s0.1-3,0.1-4.7V15c0-1.6,0-3.1-0.1-4.5s-0.1-2.7-0.3-3.7s-0.4-1.9-0.8-2.5
		C220.8,3.6,220.4,3.3,219.7,3.3L219.7,3.3z"/>
	<path class="st0" d="M225.4,12.4l0-10.4h0.7l0,10.4H225.4z"/>
	<path class="st0" d="M228.9,45.5V2h0.7v41.7h4.6v1.7H228.9z"/>
	<path class="st0" d="M235.9,45.5V2h0.7v41.7h4.6v1.7H235.9z"/>
	<path class="st0" d="M248.3,45.5l-0.9-11.7h-4.5l-0.9,11.7h-0.7L244.6,2h1.2l3.2,43.5H248.3z M243,32.1h4.3l-2.1-28.4h-0.1
		L243,32.1z"/>
	<path class="st0" d="M256.2,34.7c0,1.7-0.1,3.3-0.2,4.6c-0.1,1.4-0.3,2.6-0.6,3.5c-0.3,1-0.6,1.7-1,2.2c-0.4,0.5-0.9,0.8-1.5,0.8
		c-0.8,0-1.3-0.3-1.8-0.9c-0.4-0.6-0.7-1.4-1-2.4s-0.3-2.2-0.4-3.6c0-1.4-0.1-2.8-0.1-4.4v-1.2h0.7v0.9c0,1.7,0,3.2,0.1,4.4
		c0.1,1.2,0.2,2.3,0.4,3.1c0.2,0.8,0.4,1.4,0.8,1.8c0.3,0.4,0.8,0.6,1.3,0.6c0.5,0,0.9-0.2,1.2-0.7s0.6-1.1,0.8-2
		c0.2-0.8,0.3-1.8,0.4-3c0.1-1.1,0.1-2.4,0.1-3.7v-0.3c0-1.2,0-2.3-0.1-3.2s-0.2-1.8-0.4-2.5c-0.2-0.7-0.4-1.4-0.6-2
		c-0.2-0.6-0.5-1.1-0.8-1.6l-1.5-2.3c-0.3-0.5-0.7-1.1-0.9-1.8s-0.5-1.4-0.7-2.2c-0.2-0.8-0.3-1.8-0.4-2.9c-0.1-1.1-0.1-2.4-0.1-3.9
		v-0.4c0-1.5,0.1-2.8,0.2-4.1s0.3-2.3,0.6-3.2c0.3-0.9,0.6-1.6,1-2c0.4-0.5,0.8-0.7,1.4-0.7c0.6,0,1,0.3,1.4,0.8
		c0.4,0.5,0.7,1.3,1,2.2s0.4,2,0.5,3.3s0.2,2.6,0.2,4v2.2h-0.7l0-3.3c0-1-0.1-2-0.2-2.9c-0.1-0.9-0.2-1.7-0.4-2.4s-0.4-1.2-0.8-1.6
		c-0.3-0.4-0.7-0.6-1.1-0.6c-0.5,0-0.9,0.2-1.2,0.7c-0.3,0.5-0.6,1.2-0.8,2c-0.2,0.8-0.3,1.8-0.4,2.9c-0.1,1.1-0.1,2.2-0.1,3.4
		l0,1.1c0,0.9,0.1,1.8,0.2,2.6c0.1,0.8,0.2,1.5,0.4,2.2c0.2,0.7,0.4,1.3,0.6,1.8c0.2,0.6,0.5,1.1,0.8,1.5l1.5,2.4
		c0.7,1.1,1.2,2.5,1.5,4.2c0.3,1.7,0.5,3.8,0.5,6.3V34.7z"/>
	<path class="st0" d="M258.4,45.5V2h0.7v20.8h4.8V2h0.7v43.5h-0.7v-21H259v21H258.4z"/>
	<path class="st0" d="M270.6,2.1c0.5,0,0.9,0.2,1.3,0.5c0.4,0.4,0.6,0.8,0.9,1.5c0.2,0.6,0.4,1.3,0.6,2.2c0.1,0.8,0.2,1.7,0.3,2.7
		c0.1,1,0.1,2,0.1,3s0,2.1,0,3.2v17.3c0,1,0,2.1,0,3.2s-0.1,2.1-0.1,3c-0.1,1-0.2,1.9-0.3,2.7c-0.1,0.8-0.3,1.6-0.6,2.2
		c-0.2,0.6-0.5,1.1-0.9,1.5c-0.4,0.4-0.8,0.5-1.3,0.5h-3V2.1H270.6z M268.3,43.8h2.4c0.5,0,0.8-0.2,1.2-0.6c0.3-0.4,0.6-1.1,0.8-2
		c0.2-0.9,0.4-2.1,0.5-3.5c0.1-1.5,0.1-3.2,0.1-5.4V15.2c0-2,0-3.8-0.1-5.2s-0.2-2.6-0.4-3.5c-0.2-0.9-0.4-1.6-0.8-2
		c-0.3-0.4-0.7-0.7-1.1-0.7h-2.5V43.8z"/>
	<path class="st0" d="M281.8,45.5L281,33.8h-4.5l-0.9,11.7h-0.7L278.1,2h1.2l3.2,43.5H281.8z M276.5,32.1h4.3l-2.1-28.4h-0.1
		L276.5,32.1z"/>
	<path class="st0" d="M284.1,45.5V2h1.4l4.1,41.8h0.2V2h0.7l0.1,43.5h-1.5L285,3.7h-0.2v41.8H284.1z"/>
	<path class="st0" d="M302.9,45.5l-0.9-11.7h-4.5l-0.9,11.7H296L299.2,2h1.2l3.2,43.5H302.9z M297.7,32.1h4.3l-2.1-28.4h-0.1
		L297.7,32.1z"/>
	<path class="st0" d="M311.7,2l-3.3,43.5h-1.2L303.9,2h0.7l3.2,41.8h0.1L311,2H311.7z"/>
	<path class="st0" d="M319.9,2l-3.3,43.5h-1.2L312.1,2h0.7l3.2,41.8h0.1L319.3,2H319.9z"/>
	<path class="st0" d="M327.2,45.5l-0.9-11.7h-4.5l-0.9,11.7h-0.7L323.4,2h1.2l3.2,43.5H327.2z M321.9,32.1h4.3l-2.1-28.4H324
		L321.9,32.1z"/>
	<path class="st0" d="M329.5,45.5V2h0.7v41.7h4.6v1.7H329.5z"/>
	<path class="st0" d="M2.7,71.8v13.7H2.2V71.8L0,52.4h0.5l2,17l2-17H5L2.7,71.8z"/>
	<path class="st0" d="M8.1,52.1c0.4,0,0.7,0.1,1,0.4c0.3,0.3,0.5,0.7,0.7,1.2c0.2,0.5,0.3,1.1,0.4,1.8c0.1,0.7,0.2,1.4,0.2,2.1
		s0.1,1.5,0.1,2.3c0,0.8,0,1.6,0,2.3v13.3c0,0.8,0,1.6,0,2.4c0,0.8,0,1.6-0.1,2.3c0,0.8-0.1,1.5-0.2,2.1c-0.1,0.7-0.2,1.2-0.4,1.7
		c-0.2,0.5-0.4,0.9-0.6,1.2c-0.3,0.3-0.6,0.4-0.9,0.4h0c-0.4,0-0.7-0.1-1-0.4c-0.3-0.3-0.5-0.7-0.7-1.2c-0.2-0.5-0.3-1.1-0.4-1.8
		C6,81.7,5.9,81,5.9,80.3c0-0.8-0.1-1.5-0.1-2.3s0-1.6,0-2.3V62.3c0-0.8,0-1.6,0-2.4c0-0.8,0-1.6,0.1-2.3c0-0.8,0.1-1.5,0.2-2.1
		c0.1-0.7,0.2-1.2,0.4-1.7s0.4-0.9,0.6-1.2C7.4,52.2,7.7,52.1,8.1,52.1L8.1,52.1z M8.1,53.4c-0.4,0-0.7,0.2-1,0.7
		c-0.2,0.4-0.4,1.1-0.6,1.9c-0.1,0.8-0.2,1.7-0.2,2.8c0,1.1-0.1,2.3-0.1,3.6v13.2c0,0.8,0,1.6,0,2.4s0,1.5,0.1,2.1s0.1,1.3,0.2,1.8
		c0.1,0.5,0.2,1,0.3,1.4C7,83.7,7.1,84,7.3,84.2s0.4,0.3,0.7,0.3h0c0.4,0,0.7-0.2,1-0.7c0.2-0.4,0.4-1.1,0.6-1.9s0.2-1.7,0.2-2.8
		c0-1.1,0.1-2.3,0.1-3.6V62.3c0-1.2,0-2.4,0-3.5c0-1.1-0.1-2-0.2-2.8c-0.1-0.8-0.3-1.5-0.6-1.9C8.9,53.6,8.5,53.4,8.1,53.4L8.1,53.4
		z"/>
	<path class="st0" d="M12.1,60.3l0-7.9h0.5l0,7.9H12.1z"/>
	<path class="st0" d="M14.7,85.5V52.4h2.1c0.4,0,0.8,0.1,1.1,0.4c0.3,0.3,0.5,0.8,0.7,1.4c0.2,0.7,0.3,1.5,0.4,2.6s0.1,2.4,0.1,3.9
		v3c0,0.8,0,1.6-0.1,2.3s-0.2,1.4-0.3,2s-0.3,1.1-0.5,1.6s-0.4,0.8-0.7,1c0.2,0.3,0.4,0.7,0.5,1.1c0.1,0.4,0.3,0.9,0.4,1.4
		c0.1,0.5,0.2,1.1,0.3,1.7c0.1,0.6,0.1,1.3,0.1,2.1L19,82c0,0.6,0.1,1.2,0.1,1.8s0.1,1.2,0.2,1.7h-0.5c-0.1-0.5-0.1-1.1-0.2-1.6
		c0-0.6-0.1-1.2-0.1-1.8l-0.2-4.9c0-1-0.1-1.9-0.3-2.7c-0.1-0.8-0.3-1.4-0.4-1.9c-0.2-0.5-0.3-0.9-0.5-1.1c-0.2-0.2-0.4-0.4-0.5-0.4
		h-1.5v14.4H14.7z M18.6,60.8c0-1.1,0-2-0.1-2.8c0-0.8-0.1-1.4-0.2-2c-0.1-0.5-0.2-0.9-0.3-1.2c-0.1-0.3-0.2-0.5-0.4-0.7
		s-0.3-0.3-0.4-0.3c-0.2,0-0.3-0.1-0.5-0.1h-1.6v16.1h1.6c0.3,0,0.5-0.2,0.7-0.5c0.2-0.3,0.4-0.7,0.6-1.3c0.2-0.5,0.3-1.2,0.4-1.9
		s0.1-1.5,0.1-2.3V60.8z"/>
	<path class="st0" d="M21.1,85.5V52.4h0.5v33.1H21.1z"/>
	<path class="st0" d="M25.5,85.8c-0.3-0.1-0.6-0.3-0.9-0.6c-0.2-0.3-0.4-0.7-0.6-1.3c-0.2-0.5-0.3-1.1-0.4-1.8
		c-0.1-0.7-0.1-1.4-0.2-2.1c0-0.7-0.1-1.5-0.1-2.2c0-0.8,0-1.5,0-2.2V62.3c0-0.8,0-1.6,0-2.4c0-0.8,0-1.6,0.1-2.3
		c0-0.8,0.1-1.5,0.2-2.1c0.1-0.7,0.2-1.2,0.4-1.7s0.4-0.9,0.6-1.2c0.3-0.3,0.6-0.4,0.9-0.4h0c0.4,0,0.7,0.1,1,0.4
		c0.3,0.3,0.5,0.7,0.7,1.2c0.2,0.5,0.3,1.1,0.4,1.8c0.1,0.7,0.2,1.4,0.2,2.1s0.1,1.5,0.1,2.3c0,0.8,0,1.6,0,2.3v13.3
		c0,0.8,0,1.5,0,2.3s0,1.5-0.1,2.3s-0.1,1.4-0.2,2.1s-0.2,1.2-0.4,1.7c-0.2,0.5-0.3,0.9-0.6,1.2s-0.5,0.5-0.8,0.6v3.5h-0.5V85.8z
		 M25.7,53.4c-0.4,0-0.7,0.2-1,0.7c-0.2,0.5-0.4,1.1-0.6,1.9c-0.1,0.8-0.2,1.7-0.2,2.8c0,1.1-0.1,2.3-0.1,3.6v13.2
		c0,0.8,0,1.6,0,2.3c0,0.8,0,1.5,0.1,2.1s0.1,1.3,0.2,1.8c0.1,0.5,0.2,1,0.3,1.4s0.3,0.7,0.5,0.9s0.4,0.3,0.7,0.3h0
		c0.4,0,0.7-0.2,1-0.7c0.2-0.5,0.4-1.1,0.6-1.9s0.2-1.7,0.2-2.8c0-1.1,0.1-2.3,0.1-3.6V62.3c0-1.2,0-2.4,0-3.4c0-1.1-0.1-2-0.2-2.8
		s-0.3-1.5-0.6-1.9C26.5,53.6,26.2,53.4,25.7,53.4L25.7,53.4z"/>
	<path class="st0" d="M29.9,85.5V52.4h1l3,31.8h0.2V52.4h0.5l0.1,33.1h-1.1l-3-31.8h-0.1v31.8H29.9z"/>
	<path class="st0" d="M38.6,52.1c0.4,0,0.7,0.1,1,0.4c0.3,0.3,0.5,0.7,0.7,1.2c0.2,0.5,0.3,1.1,0.4,1.8c0.1,0.7,0.2,1.4,0.2,2.1
		s0.1,1.5,0.1,2.3c0,0.8,0,1.6,0,2.3v13.3c0,0.8,0,1.6,0,2.4c0,0.8,0,1.6-0.1,2.3c0,0.8-0.1,1.5-0.2,2.1c-0.1,0.7-0.2,1.2-0.4,1.7
		c-0.2,0.5-0.4,0.9-0.6,1.2c-0.3,0.3-0.6,0.4-0.9,0.4h0c-0.4,0-0.7-0.1-1-0.4c-0.3-0.3-0.5-0.7-0.7-1.2c-0.2-0.5-0.3-1.1-0.4-1.8
		c-0.1-0.7-0.2-1.4-0.2-2.1c0-0.8-0.1-1.5-0.1-2.3s0-1.6,0-2.3V62.3c0-0.8,0-1.6,0-2.4c0-0.8,0-1.6,0.1-2.3c0-0.8,0.1-1.5,0.2-2.1
		c0.1-0.7,0.2-1.2,0.4-1.7s0.4-0.9,0.6-1.2C37.9,52.2,38.2,52.1,38.6,52.1L38.6,52.1z M38.6,53.4c-0.4,0-0.7,0.2-1,0.7
		c-0.2,0.4-0.4,1.1-0.6,1.9c-0.1,0.8-0.2,1.7-0.2,2.8c0,1.1-0.1,2.3-0.1,3.6v13.2c0,0.8,0,1.6,0,2.4s0,1.5,0.1,2.1s0.1,1.3,0.2,1.8
		c0.1,0.5,0.2,1,0.3,1.4c0.1,0.4,0.3,0.7,0.5,0.9s0.4,0.3,0.7,0.3h0c0.4,0,0.7-0.2,1-0.7c0.2-0.4,0.4-1.1,0.6-1.9s0.2-1.7,0.2-2.8
		c0-1.1,0.1-2.3,0.1-3.6V62.3c0-1.2,0-2.4,0-3.5c0-1.1-0.1-2-0.2-2.8c-0.1-0.8-0.3-1.5-0.6-1.9C39.4,53.6,39,53.4,38.6,53.4
		L38.6,53.4z"/>
	<path class="st0" d="M43.4,53.7L43.4,53.7l-0.1,31.8h-0.5V52.4h0.9l2.3,26l2.3-26h1v33.1h-0.5V53.7h-0.1l-2.3,26.2h-0.7L43.4,53.7z
		"/>
	<path class="st0" d="M55.4,85.5l-0.6-8.9h-3.3l-0.6,8.9h-0.5l2.3-33.1h0.9l2.3,33.1H55.4z M51.6,75.3h3.1l-1.5-21.6h-0.1L51.6,75.3
		z"/>
	<path class="st0" d="M64.4,77.1c0,1.6,0,2.9-0.1,4c-0.1,1.1-0.2,1.9-0.4,2.6c-0.2,0.7-0.4,1.1-0.7,1.4c-0.3,0.3-0.7,0.4-1.1,0.4H60
		V52.4h2.1c0.3,0,0.6,0.1,0.8,0.4c0.3,0.2,0.5,0.6,0.7,1.2c0.2,0.6,0.3,1.3,0.4,2.2c0.1,0.9,0.2,2,0.2,3.4v2.2c0,0.8,0,1.6-0.1,2.3
		c0,0.7-0.1,1.4-0.2,1.9c-0.1,0.6-0.2,1.1-0.4,1.5s-0.4,0.7-0.6,0.9c0.2,0.1,0.4,0.4,0.6,0.8c0.2,0.4,0.4,0.9,0.5,1.5
		c0.1,0.6,0.2,1.2,0.3,2s0.1,1.6,0.1,2.4V77.1z M63.7,59.6c0-0.8,0-1.5-0.1-2.2c-0.1-0.7-0.1-1.3-0.3-1.9c-0.1-0.5-0.3-1-0.5-1.3
		s-0.5-0.5-0.8-0.5h-1.6v14H62c0.3,0,0.6-0.1,0.8-0.4c0.2-0.3,0.4-0.7,0.5-1.2c0.1-0.5,0.2-1.1,0.3-1.9c0.1-0.7,0.1-1.6,0.1-2.5
		V59.6z M63.9,75c0-0.8-0.1-1.6-0.1-2.3c-0.1-0.7-0.2-1.4-0.4-1.9c-0.2-0.5-0.4-1-0.6-1.3c-0.2-0.3-0.5-0.5-0.7-0.5h-1.6v15.2h1.6
		c0.2,0,0.3,0,0.5-0.1c0.2,0,0.3-0.1,0.4-0.3c0.1-0.2,0.3-0.4,0.4-0.7c0.1-0.3,0.2-0.7,0.3-1.3c0.1-0.5,0.1-1.2,0.2-1.9
		c0-0.8,0.1-1.7,0-2.8V75z"/>
	<path class="st0" d="M66.3,85.5V52.4h0.5v33.1H66.3z"/>
	<path class="st0" d="M69,85.5V52.4h0.5v31.8h3.4v1.3H69z"/>
	<path class="st0" d="M78,85.5l-0.6-8.9h-3.3l-0.6,8.9H73l2.3-33.1h0.9l2.3,33.1H78z M74.2,75.3h3.1l-1.5-21.6h-0.1L74.2,75.3z"/>
	<path class="st0" d="M79.7,85.5V52.4h1l3,31.8h0.2V52.4h0.5l0.1,33.1h-1.1l-3-31.8h-0.1v31.8H79.7z"/>
	<path class="st0" d="M90.9,53.7v31.8h-0.5V53.7h-2.2v-1.3h4.8v1.3H90.9z"/>
	<path class="st0" d="M97.5,85.5l-0.6-8.9h-3.3L93,85.5h-0.5l2.3-33.1h0.9L98,85.5H97.5z M93.7,75.3h3.1l-1.5-21.6h-0.1L93.7,75.3z"
		/>
	<path class="st0" d="M99.2,85.5V52.4h1l3,31.8h0.2V52.4h0.5l0.1,33.1h-1.1l-3-31.8h-0.1v31.8H99.2z"/>
	<path class="st0" d="M105.9,85.5V52.4h0.5v33.1H105.9z"/>
	<path class="st0" d="M112.6,77.3c0,1.3,0,2.5-0.1,3.5c-0.1,1.1-0.2,1.9-0.4,2.7c-0.2,0.7-0.4,1.3-0.7,1.7c-0.3,0.4-0.6,0.6-1.1,0.6
		c-0.5,0-1-0.2-1.3-0.7s-0.5-1.1-0.7-1.9c-0.2-0.8-0.2-1.7-0.3-2.8s-0.1-2.2-0.1-3.3v-0.9h0.5V77c0,1.3,0,2.4,0.1,3.4
		c0,0.9,0.1,1.7,0.3,2.4s0.3,1.1,0.6,1.4c0.2,0.3,0.6,0.4,0.9,0.4c0.3,0,0.6-0.2,0.9-0.5c0.2-0.4,0.4-0.9,0.6-1.5s0.2-1.4,0.3-2.3
		c0.1-0.9,0.1-1.8,0.1-2.9v-0.2c0-0.9,0-1.7-0.1-2.4s-0.2-1.4-0.3-1.9c-0.1-0.6-0.3-1.1-0.4-1.5c-0.2-0.4-0.4-0.9-0.6-1.2l-1.1-1.8
		c-0.2-0.4-0.5-0.9-0.7-1.4c-0.2-0.5-0.4-1.1-0.5-1.7c-0.1-0.6-0.2-1.4-0.3-2.2c-0.1-0.8-0.1-1.8-0.1-2.9v-0.3c0-1.1,0-2.2,0.1-3.1
		c0.1-0.9,0.2-1.7,0.4-2.4c0.2-0.7,0.4-1.2,0.7-1.6c0.3-0.4,0.6-0.6,1-0.6c0.4,0,0.8,0.2,1,0.6c0.3,0.4,0.5,1,0.7,1.7
		c0.2,0.7,0.3,1.5,0.4,2.5c0.1,1,0.1,2,0.1,3v1.7h-0.5l0-2.5c0-0.8-0.1-1.5-0.1-2.2c-0.1-0.7-0.2-1.3-0.3-1.8
		c-0.1-0.5-0.3-0.9-0.5-1.2c-0.2-0.3-0.5-0.5-0.8-0.5c-0.3,0-0.6,0.2-0.9,0.6c-0.2,0.4-0.4,0.9-0.6,1.5c-0.1,0.6-0.2,1.4-0.3,2.2
		c-0.1,0.8-0.1,1.7-0.1,2.6l0,0.8c0,0.7,0,1.3,0.1,2c0.1,0.6,0.2,1.2,0.3,1.7c0.1,0.5,0.3,1,0.5,1.4s0.4,0.8,0.6,1.2l1.1,1.8
		c0.5,0.8,0.8,1.9,1.1,3.2s0.4,2.9,0.4,4.8V77.3z"/>
	<path class="st0" d="M114.2,85.5V52.4h0.5v15.8h3.5V52.4h0.5v33.1h-0.5v-16h-3.5v16H114.2z"/>
	<path class="st0" d="M120.9,85.5V52.4h0.5v33.1H120.9z"/>
	<path class="st0" d="M123.6,85.5V52.4h1l3,31.8h0.2V52.4h0.5l0.1,33.1h-1.1l-3-31.8h-0.1v31.8H123.6z"/>
	<path class="st0" d="M132.1,69.5h2.4v6.9c0,0.6,0,1.3,0,2c0,0.7,0,1.4-0.1,2.1c0,0.7-0.1,1.4-0.2,2c-0.1,0.6-0.2,1.2-0.4,1.7
		c-0.2,0.5-0.4,0.9-0.6,1.2s-0.6,0.4-0.9,0.4h0c-0.4,0-0.7-0.1-1-0.4c-0.3-0.3-0.5-0.7-0.7-1.2c-0.2-0.5-0.3-1.1-0.4-1.8
		c-0.1-0.7-0.2-1.4-0.2-2.1c0-0.8-0.1-1.5-0.1-2.3s0-1.6,0-2.3V62.3c0-0.8,0-1.6,0-2.4c0-0.8,0-1.6,0.1-2.3c0-0.8,0.1-1.5,0.2-2.1
		c0.1-0.7,0.2-1.2,0.4-1.7c0.2-0.5,0.4-0.9,0.6-1.2s0.6-0.4,0.9-0.4h0c0.4,0,0.7,0.1,1,0.4c0.3,0.3,0.5,0.7,0.6,1.2
		c0.2,0.5,0.3,1.1,0.4,1.7c0.1,0.6,0.2,1.3,0.2,2c0,0.7,0.1,1.4,0.1,2.1s0,1.4,0,1.9v0.1h-0.5v-0.1c0-1.1,0-2.1-0.1-3.1
		c0-1-0.1-1.9-0.2-2.6c-0.1-0.7-0.3-1.3-0.6-1.8c-0.2-0.4-0.6-0.6-1-0.6s-0.7,0.2-1,0.7c-0.2,0.4-0.4,1.1-0.6,1.9
		c-0.1,0.8-0.2,1.7-0.2,2.8s-0.1,2.3-0.1,3.6v13.2c0,0.8,0,1.6,0,2.4s0,1.5,0.1,2.1s0.1,1.3,0.2,1.8c0.1,0.5,0.2,1,0.3,1.4
		c0.1,0.4,0.3,0.7,0.5,0.9s0.4,0.3,0.7,0.3c0.4,0,0.7-0.2,0.9-0.6c0.2-0.4,0.4-1,0.6-1.7c0.1-0.7,0.2-1.6,0.3-2.6s0.1-2.1,0.1-3.3
		v-5.6h-1.9V69.5z"/>
	<path class="st0" d="M140.9,71.8v13.7h-0.5V71.8l-2.2-19.3h0.5l2,17l2-17h0.5L140.9,71.8z"/>
	<path class="st0" d="M146.3,52.1c0.4,0,0.7,0.1,1,0.4c0.3,0.3,0.5,0.7,0.7,1.2c0.2,0.5,0.3,1.1,0.4,1.8c0.1,0.7,0.2,1.4,0.2,2.1
		s0.1,1.5,0.1,2.3c0,0.8,0,1.6,0,2.3v13.3c0,0.8,0,1.6,0,2.4c0,0.8,0,1.6-0.1,2.3c0,0.8-0.1,1.5-0.2,2.1c-0.1,0.7-0.2,1.2-0.4,1.7
		c-0.2,0.5-0.4,0.9-0.6,1.2c-0.3,0.3-0.6,0.4-0.9,0.4h0c-0.4,0-0.7-0.1-1-0.4c-0.3-0.3-0.5-0.7-0.7-1.2c-0.2-0.5-0.3-1.1-0.4-1.8
		c-0.1-0.7-0.2-1.4-0.2-2.1c0-0.8-0.1-1.5-0.1-2.3s0-1.6,0-2.3V62.3c0-0.8,0-1.6,0-2.4c0-0.8,0-1.6,0.1-2.3c0-0.8,0.1-1.5,0.2-2.1
		c0.1-0.7,0.2-1.2,0.4-1.7s0.4-0.9,0.6-1.2C145.6,52.2,145.9,52.1,146.3,52.1L146.3,52.1z M146.3,53.4c-0.4,0-0.7,0.2-1,0.7
		c-0.2,0.4-0.4,1.1-0.6,1.9c-0.1,0.8-0.2,1.7-0.2,2.8c0,1.1-0.1,2.3-0.1,3.6v13.2c0,0.8,0,1.6,0,2.4s0,1.5,0.1,2.1s0.1,1.3,0.2,1.8
		c0.1,0.5,0.2,1,0.3,1.4c0.1,0.4,0.3,0.7,0.5,0.9s0.4,0.3,0.7,0.3h0c0.4,0,0.7-0.2,1-0.7c0.2-0.4,0.4-1.1,0.6-1.9s0.2-1.7,0.2-2.8
		c0-1.1,0.1-2.3,0.1-3.6V62.3c0-1.2,0-2.4,0-3.5c0-1.1-0.1-2-0.2-2.8c-0.1-0.8-0.3-1.5-0.6-1.9C147,53.6,146.7,53.4,146.3,53.4
		L146.3,53.4z"/>
	<path class="st0" d="M150.5,85.5V52.4h0.5v15.8h1.2l2.5-15.8h0.5l-2.6,16.4l2.8,16.7h-0.5l-2.7-16h-1.2v16H150.5z"/>
	<path class="st0" d="M156.5,85.5V52.4h0.5v33.1H156.5z"/>
	<path class="st0" d="M162.8,53.7L162.8,53.7l-0.1,31.8h-0.5V52.4h0.9l2.3,26l2.3-26h1v33.1h-0.5V53.7h-0.1l-2.3,26.2h-0.7
		L162.8,53.7z"/>
	<path class="st0" d="M175.3,52.4v24.8c0,1.2,0,2.3-0.1,3.4c0,1-0.1,2-0.3,2.7c-0.2,0.8-0.4,1.4-0.7,1.8c-0.3,0.4-0.7,0.7-1.3,0.7
		c-0.5,0-1-0.2-1.3-0.7c-0.3-0.4-0.5-1.1-0.7-1.8c-0.2-0.8-0.3-1.7-0.3-2.7c0-1-0.1-2.2-0.1-3.4V52.4h0.5V77c0,1.2,0,2.2,0,3.1
		c0,0.9,0.1,1.7,0.2,2.4c0.1,0.7,0.3,1.2,0.5,1.5c0.2,0.3,0.6,0.5,1,0.5c0.4,0,0.8-0.2,1-0.5c0.2-0.3,0.4-0.8,0.5-1.5
		c0.1-0.7,0.2-1.4,0.2-2.4c0-0.9,0-2,0-3.1V52.4H175.3z"/>
	<path class="st0" d="M178.9,53.7v31.8h-0.5V53.7h-2.2v-1.3h4.8v1.3H178.9z"/>
	<path class="st0" d="M185.5,85.5l-0.6-8.9h-3.3l-0.6,8.9h-0.5l2.3-33.1h0.9l2.3,33.1H185.5z M181.7,75.3h3.1l-1.5-21.6h-0.1
		L181.7,75.3z"/>
	<path class="st0" d="M190.9,85.5l-2.1-15.7l-2.1,15.7h-0.6l2.3-17.3l-2.2-15.8h0.5l2,14.5l2-14.5h0.5L189,68.3l2.4,17.2H190.9z"/>
	<path class="st0" d="M196.5,85.5l-0.6-8.9h-3.3l-0.6,8.9h-0.5l2.3-33.1h0.9l2.3,33.1H196.5z M192.7,75.3h3.1l-1.5-21.6h-0.1
		L192.7,75.3z"/>
	<path class="st0" d="M202.2,77.3c0,1.3,0,2.5-0.1,3.5c-0.1,1.1-0.2,1.9-0.4,2.7c-0.2,0.7-0.4,1.3-0.7,1.7c-0.3,0.4-0.6,0.6-1.1,0.6
		c-0.5,0-1-0.2-1.3-0.7s-0.5-1.1-0.7-1.9c-0.2-0.8-0.2-1.7-0.3-2.8s-0.1-2.2-0.1-3.3v-0.9h0.5V77c0,1.3,0,2.4,0.1,3.4
		c0,0.9,0.1,1.7,0.3,2.4s0.3,1.1,0.6,1.4c0.2,0.3,0.6,0.4,0.9,0.4c0.3,0,0.6-0.2,0.9-0.5c0.2-0.4,0.4-0.9,0.6-1.5s0.2-1.4,0.3-2.3
		c0.1-0.9,0.1-1.8,0.1-2.9v-0.2c0-0.9,0-1.7-0.1-2.4s-0.2-1.4-0.3-1.9c-0.1-0.6-0.3-1.1-0.4-1.5c-0.2-0.4-0.4-0.9-0.6-1.2l-1.1-1.8
		c-0.2-0.4-0.5-0.9-0.7-1.4c-0.2-0.5-0.4-1.1-0.5-1.7c-0.1-0.6-0.2-1.4-0.3-2.2c-0.1-0.8-0.1-1.8-0.1-2.9v-0.3c0-1.1,0-2.2,0.1-3.1
		c0.1-0.9,0.2-1.7,0.4-2.4c0.2-0.7,0.4-1.2,0.7-1.6c0.3-0.4,0.6-0.6,1-0.6c0.4,0,0.8,0.2,1,0.6c0.3,0.4,0.5,1,0.7,1.7
		c0.2,0.7,0.3,1.5,0.4,2.5c0.1,1,0.1,2,0.1,3v1.7h-0.5l0-2.5c0-0.8-0.1-1.5-0.1-2.2c-0.1-0.7-0.2-1.3-0.3-1.8
		c-0.1-0.5-0.3-0.9-0.5-1.2c-0.2-0.3-0.5-0.5-0.8-0.5c-0.3,0-0.6,0.2-0.9,0.6c-0.2,0.4-0.4,0.9-0.6,1.5c-0.1,0.6-0.2,1.4-0.3,2.2
		c-0.1,0.8-0.1,1.7-0.1,2.6l0,0.8c0,0.7,0,1.3,0.1,2c0.1,0.6,0.2,1.2,0.3,1.7c0.1,0.5,0.3,1,0.5,1.4s0.4,0.8,0.6,1.2l1.1,1.8
		c0.5,0.8,0.8,1.9,1.1,3.2s0.4,2.9,0.4,4.8V77.3z"/>
	<path class="st0" d="M207.7,77.3c0,1.3,0,2.5-0.1,3.5c-0.1,1.1-0.2,1.9-0.4,2.7c-0.2,0.7-0.4,1.3-0.7,1.7c-0.3,0.4-0.6,0.6-1.1,0.6
		c-0.5,0-1-0.2-1.3-0.7s-0.5-1.1-0.7-1.9c-0.2-0.8-0.2-1.7-0.3-2.8s-0.1-2.2-0.1-3.3v-0.9h0.5V77c0,1.3,0,2.4,0.1,3.4
		c0,0.9,0.1,1.7,0.3,2.4s0.3,1.1,0.6,1.4c0.2,0.3,0.6,0.4,0.9,0.4c0.3,0,0.6-0.2,0.9-0.5c0.2-0.4,0.4-0.9,0.6-1.5s0.2-1.4,0.3-2.3
		c0.1-0.9,0.1-1.8,0.1-2.9v-0.2c0-0.9,0-1.7-0.1-2.4s-0.2-1.4-0.3-1.9c-0.1-0.6-0.3-1.1-0.4-1.5c-0.2-0.4-0.4-0.9-0.6-1.2l-1.1-1.8
		c-0.2-0.4-0.5-0.9-0.7-1.4c-0.2-0.5-0.4-1.1-0.5-1.7c-0.1-0.6-0.2-1.4-0.3-2.2c-0.1-0.8-0.1-1.8-0.1-2.9v-0.3c0-1.1,0-2.2,0.1-3.1
		c0.1-0.9,0.2-1.7,0.4-2.4c0.2-0.7,0.4-1.2,0.7-1.6c0.3-0.4,0.6-0.6,1-0.6c0.4,0,0.8,0.2,1,0.6c0.3,0.4,0.5,1,0.7,1.7
		c0.2,0.7,0.3,1.5,0.4,2.5c0.1,1,0.1,2,0.1,3v1.7h-0.5l0-2.5c0-0.8-0.1-1.5-0.1-2.2c-0.1-0.7-0.2-1.3-0.3-1.8
		c-0.1-0.5-0.3-0.9-0.5-1.2c-0.2-0.3-0.5-0.5-0.8-0.5c-0.3,0-0.6,0.2-0.9,0.6c-0.2,0.4-0.4,0.9-0.6,1.5c-0.1,0.6-0.2,1.4-0.3,2.2
		c-0.1,0.8-0.1,1.7-0.1,2.6l0,0.8c0,0.7,0,1.3,0.1,2c0.1,0.6,0.2,1.2,0.3,1.7c0.1,0.5,0.3,1,0.5,1.4s0.4,0.8,0.6,1.2l1.1,1.8
		c0.5,0.8,0.8,1.9,1.1,3.2s0.4,2.9,0.4,4.8V77.3z"/>
	<path class="st0" d="M209.3,85.5V52.4h0.5v33.1H209.3z"/>
	<path class="st0" d="M216,77.3c0,1.3,0,2.5-0.1,3.5c-0.1,1.1-0.2,1.9-0.4,2.7c-0.2,0.7-0.4,1.3-0.7,1.7c-0.3,0.4-0.6,0.6-1.1,0.6
		c-0.5,0-1-0.2-1.3-0.7s-0.5-1.1-0.7-1.9c-0.2-0.8-0.2-1.7-0.3-2.8s-0.1-2.2-0.1-3.3v-0.9h0.5V77c0,1.3,0,2.4,0.1,3.4
		c0,0.9,0.1,1.7,0.3,2.4s0.3,1.1,0.6,1.4c0.2,0.3,0.6,0.4,0.9,0.4c0.3,0,0.6-0.2,0.9-0.5c0.2-0.4,0.4-0.9,0.6-1.5s0.2-1.4,0.3-2.3
		c0.1-0.9,0.1-1.8,0.1-2.9v-0.2c0-0.9,0-1.7-0.1-2.4s-0.2-1.4-0.3-1.9c-0.1-0.6-0.3-1.1-0.4-1.5c-0.2-0.4-0.4-0.9-0.6-1.2l-1.1-1.8
		c-0.2-0.4-0.5-0.9-0.7-1.4c-0.2-0.5-0.4-1.1-0.5-1.7c-0.1-0.6-0.2-1.4-0.3-2.2c-0.1-0.8-0.1-1.8-0.1-2.9v-0.3c0-1.1,0-2.2,0.1-3.1
		c0.1-0.9,0.2-1.7,0.4-2.4c0.2-0.7,0.4-1.2,0.7-1.6c0.3-0.4,0.6-0.6,1-0.6c0.4,0,0.8,0.2,1,0.6c0.3,0.4,0.5,1,0.7,1.7
		c0.2,0.7,0.3,1.5,0.4,2.5c0.1,1,0.1,2,0.1,3v1.7h-0.5l0-2.5c0-0.8-0.1-1.5-0.1-2.2c-0.1-0.7-0.2-1.3-0.3-1.8
		c-0.1-0.5-0.3-0.9-0.5-1.2c-0.2-0.3-0.5-0.5-0.8-0.5c-0.3,0-0.6,0.2-0.9,0.6c-0.2,0.4-0.4,0.9-0.6,1.5c-0.1,0.6-0.2,1.4-0.3,2.2
		c-0.1,0.8-0.1,1.7-0.1,2.6l0,0.8c0,0.7,0,1.3,0.1,2c0.1,0.6,0.2,1.2,0.3,1.7c0.1,0.5,0.3,1,0.5,1.4s0.4,0.8,0.6,1.2l1.1,1.8
		c0.5,0.8,0.8,1.9,1.1,3.2s0.4,2.9,0.4,4.8V77.3z"/>
	<path class="st0" d="M225,77.1c0,1.6,0,2.9-0.1,4c-0.1,1.1-0.2,1.9-0.4,2.6s-0.4,1.1-0.7,1.4c-0.3,0.3-0.7,0.4-1.1,0.4h-2.1V52.4
		h2.1c0.3,0,0.6,0.1,0.8,0.4c0.3,0.2,0.5,0.6,0.7,1.2c0.2,0.6,0.3,1.3,0.4,2.2c0.1,0.9,0.2,2,0.2,3.4v2.2c0,0.8,0,1.6-0.1,2.3
		c0,0.7-0.1,1.4-0.2,1.9s-0.2,1.1-0.4,1.5s-0.4,0.7-0.6,0.9c0.2,0.1,0.4,0.4,0.6,0.8c0.2,0.4,0.4,0.9,0.5,1.5c0.1,0.6,0.2,1.2,0.3,2
		s0.1,1.6,0.1,2.4V77.1z M224.3,59.6c0-0.8,0-1.5-0.1-2.2c-0.1-0.7-0.1-1.3-0.3-1.9c-0.1-0.5-0.3-1-0.5-1.3s-0.5-0.5-0.8-0.5h-1.6
		v14h1.5c0.3,0,0.6-0.1,0.8-0.4c0.2-0.3,0.4-0.7,0.5-1.2c0.1-0.5,0.2-1.1,0.3-1.9c0.1-0.7,0.1-1.6,0.1-2.5V59.6z M224.5,75
		c0-0.8-0.1-1.6-0.1-2.3c-0.1-0.7-0.2-1.4-0.4-1.9c-0.2-0.5-0.4-1-0.6-1.3c-0.2-0.3-0.5-0.5-0.7-0.5h-1.6v15.2h1.6
		c0.2,0,0.3,0,0.5-0.1c0.2,0,0.3-0.1,0.4-0.3c0.1-0.2,0.3-0.4,0.4-0.7c0.1-0.3,0.2-0.7,0.3-1.3c0.1-0.5,0.1-1.2,0.2-1.9
		c0-0.8,0.1-1.7,0-2.8V75z"/>
	<path class="st0" d="M226.9,85.5V52.4h0.5v33.1H226.9z"/>
	<path class="st0" d="M229.6,85.5V52.4h0.5v31.8h3.4v1.3H229.6z"/>
	<path class="st0" d="M238.6,85.5l-0.6-8.9h-3.3l-0.6,8.9h-0.5l2.3-33.1h0.9l2.3,33.1H238.6z M234.8,75.3h3.1l-1.5-21.6h-0.1
		L234.8,75.3z"/>
	<path class="st0" d="M240.2,85.5V52.4h1l3,31.8h0.2V52.4h0.5l0.1,33.1h-1.1l-3-31.8h-0.1v31.8H240.2z"/>
	<path class="st0" d="M250.5,53.7L250.5,53.7l-0.1,31.8h-0.5V52.4h0.9l2.3,26l2.3-26h1v33.1h-0.5V53.7h-0.1l-2.3,26.2h-0.7
		L250.5,53.7z"/>
	<path class="st0" d="M262.5,85.5l-0.6-8.9h-3.3l-0.6,8.9h-0.5l2.3-33.1h0.9l2.3,33.1H262.5z M258.6,75.3h3.1l-1.5-21.6h-0.1
		L258.6,75.3z"/>
	<path class="st0" d="M268.1,77.3c0,1.3,0,2.5-0.1,3.5c-0.1,1.1-0.2,1.9-0.4,2.7c-0.2,0.7-0.4,1.3-0.7,1.7c-0.3,0.4-0.6,0.6-1.1,0.6
		c-0.5,0-1-0.2-1.3-0.7s-0.5-1.1-0.7-1.9c-0.2-0.8-0.2-1.7-0.3-2.8s-0.1-2.2-0.1-3.3v-0.9h0.5V77c0,1.3,0,2.4,0.1,3.4
		c0,0.9,0.1,1.7,0.3,2.4s0.3,1.1,0.6,1.4c0.2,0.3,0.6,0.4,0.9,0.4c0.3,0,0.6-0.2,0.9-0.5c0.2-0.4,0.4-0.9,0.6-1.5s0.2-1.4,0.3-2.3
		c0.1-0.9,0.1-1.8,0.1-2.9v-0.2c0-0.9,0-1.7-0.1-2.4s-0.2-1.4-0.3-1.9c-0.1-0.6-0.3-1.1-0.4-1.5c-0.2-0.4-0.4-0.9-0.6-1.2l-1.1-1.8
		c-0.2-0.4-0.5-0.9-0.7-1.4c-0.2-0.5-0.4-1.1-0.5-1.7c-0.1-0.6-0.2-1.4-0.3-2.2c-0.1-0.8-0.1-1.8-0.1-2.9v-0.3c0-1.1,0-2.2,0.1-3.1
		c0.1-0.9,0.2-1.7,0.4-2.4c0.2-0.7,0.4-1.2,0.7-1.6c0.3-0.4,0.6-0.6,1-0.6c0.4,0,0.8,0.2,1,0.6c0.3,0.4,0.5,1,0.7,1.7
		c0.2,0.7,0.3,1.5,0.4,2.5c0.1,1,0.1,2,0.1,3v1.7h-0.5l0-2.5c0-0.8-0.1-1.5-0.1-2.2c-0.1-0.7-0.2-1.3-0.3-1.8
		c-0.1-0.5-0.3-0.9-0.5-1.2c-0.2-0.3-0.5-0.5-0.8-0.5c-0.3,0-0.6,0.2-0.9,0.6c-0.2,0.4-0.4,0.9-0.6,1.5c-0.1,0.6-0.2,1.4-0.3,2.2
		c-0.1,0.8-0.1,1.7-0.1,2.6l0,0.8c0,0.7,0,1.3,0.1,2c0.1,0.6,0.2,1.2,0.3,1.7c0.1,0.5,0.3,1,0.5,1.4s0.4,0.8,0.6,1.2l1.1,1.8
		c0.5,0.8,0.8,1.9,1.1,3.2s0.4,2.9,0.4,4.8V77.3z"/>
	<path class="st0" d="M269.7,85.5V52.4h0.5v31.8h3.4v1.3H269.7z"/>
	<path class="st0" d="M278.7,85.5l-0.6-8.9h-3.3l-0.6,8.9h-0.5l2.3-33.1h0.9l2.3,33.1H278.7z M274.9,75.3h3.1l-1.5-21.6h-0.1
		L274.9,75.3z"/>
	<path class="st0" d="M280.4,85.5V52.4h0.5v15.8h3.5V52.4h0.5v33.1h-0.5v-16h-3.5v16H280.4z"/>
	<path class="st0" d="M291,85.5l-0.6-8.9h-3.3l-0.6,8.9H286l2.3-33.1h0.9l2.3,33.1H291z M287.2,75.3h3.1l-1.5-21.6h-0.1L287.2,75.3z
		"/>
	<path class="st0" d="M293.6,53.7v31.8h-0.5V53.7h-2.2v-1.3h4.8v1.3H293.6z"/>
	<path class="st0" d="M296.9,85.5V52.4h0.5v31.8h3.4v1.3H296.9z"/>
	<path class="st0" d="M305.9,85.5l-0.6-8.9H302l-0.6,8.9h-0.5l2.3-33.1h0.9l2.3,33.1H305.9z M302.1,75.3h3.1l-1.5-21.6h-0.1
		L302.1,75.3z"/>
	<path class="st0" d="M311.6,77.3c0,1.3,0,2.5-0.1,3.5c-0.1,1.1-0.2,1.9-0.4,2.7c-0.2,0.7-0.4,1.3-0.7,1.7c-0.3,0.4-0.6,0.6-1.1,0.6
		c-0.5,0-1-0.2-1.3-0.7s-0.5-1.1-0.7-1.9c-0.2-0.8-0.2-1.7-0.3-2.8s-0.1-2.2-0.1-3.3v-0.9h0.5V77c0,1.3,0,2.4,0.1,3.4
		c0,0.9,0.1,1.7,0.3,2.4s0.3,1.1,0.6,1.4c0.2,0.3,0.6,0.4,0.9,0.4c0.3,0,0.6-0.2,0.9-0.5c0.2-0.4,0.4-0.9,0.6-1.5s0.2-1.4,0.3-2.3
		c0.1-0.9,0.1-1.8,0.1-2.9v-0.2c0-0.9,0-1.7-0.1-2.4s-0.2-1.4-0.3-1.9c-0.1-0.6-0.3-1.1-0.4-1.5c-0.2-0.4-0.4-0.9-0.6-1.2l-1.1-1.8
		c-0.2-0.4-0.5-0.9-0.7-1.4c-0.2-0.5-0.4-1.1-0.5-1.7c-0.1-0.6-0.2-1.4-0.3-2.2c-0.1-0.8-0.1-1.8-0.1-2.9v-0.3c0-1.1,0-2.2,0.1-3.1
		c0.1-0.9,0.2-1.7,0.4-2.4c0.2-0.7,0.4-1.2,0.7-1.6c0.3-0.4,0.6-0.6,1-0.6c0.4,0,0.8,0.2,1,0.6c0.3,0.4,0.5,1,0.7,1.7
		c0.2,0.7,0.3,1.5,0.4,2.5c0.1,1,0.1,2,0.1,3v1.7h-0.5l0-2.5c0-0.8-0.1-1.5-0.1-2.2c-0.1-0.7-0.2-1.3-0.3-1.8
		c-0.1-0.5-0.3-0.9-0.5-1.2c-0.2-0.3-0.5-0.5-0.8-0.5c-0.3,0-0.6,0.2-0.9,0.6c-0.2,0.4-0.4,0.9-0.6,1.5c-0.1,0.6-0.2,1.4-0.3,2.2
		c-0.1,0.8-0.1,1.7-0.1,2.6l0,0.8c0,0.7,0,1.3,0.1,2c0.1,0.6,0.2,1.2,0.3,1.7c0.1,0.5,0.3,1,0.5,1.4s0.4,0.8,0.6,1.2l1.1,1.8
		c0.5,0.8,0.8,1.9,1.1,3.2s0.4,2.9,0.4,4.8V77.3z"/>
	<path class="st0" d="M313.2,85.5V52.4h0.5v15.8h3.5V52.4h0.5v33.1h-0.5v-16h-3.5v16H313.2z"/>
	<path class="st0" d="M319.9,85.5V52.4h0.5v33.1H319.9z"/>
	<path class="st0" d="M322.6,85.5V52.4h1l3,31.8h0.2V52.4h0.5l0.1,33.1h-1.1l-3-31.8h-0.1v31.8H322.6z"/>
	<path class="st0" d="M331.1,69.5h2.4v6.9c0,0.6,0,1.3,0,2c0,0.7,0,1.4-0.1,2.1c0,0.7-0.1,1.4-0.2,2c-0.1,0.6-0.2,1.2-0.4,1.7
		c-0.2,0.5-0.4,0.9-0.6,1.2s-0.6,0.4-0.9,0.4h0c-0.4,0-0.7-0.1-1-0.4c-0.3-0.3-0.5-0.7-0.7-1.2c-0.2-0.5-0.3-1.1-0.4-1.8
		c-0.1-0.7-0.2-1.4-0.2-2.1c0-0.8-0.1-1.5-0.1-2.3s0-1.6,0-2.3V62.3c0-0.8,0-1.6,0-2.4c0-0.8,0-1.6,0.1-2.3c0-0.8,0.1-1.5,0.2-2.1
		c0.1-0.7,0.2-1.2,0.4-1.7c0.2-0.5,0.4-0.9,0.6-1.2s0.6-0.4,0.9-0.4h0c0.4,0,0.7,0.1,1,0.4c0.3,0.3,0.5,0.7,0.6,1.2
		c0.2,0.5,0.3,1.1,0.4,1.7c0.1,0.6,0.2,1.3,0.2,2c0,0.7,0.1,1.4,0.1,2.1s0,1.4,0,1.9v0.1h-0.5v-0.1c0-1.1,0-2.1-0.1-3.1
		c0-1-0.1-1.9-0.2-2.6c-0.1-0.7-0.3-1.3-0.6-1.8c-0.2-0.4-0.6-0.6-1-0.6s-0.7,0.2-1,0.7c-0.2,0.4-0.4,1.1-0.6,1.9
		c-0.1,0.8-0.2,1.7-0.2,2.8s-0.1,2.3-0.1,3.6v13.2c0,0.8,0,1.6,0,2.4s0,1.5,0.1,2.1s0.1,1.3,0.2,1.8c0.1,0.5,0.2,1,0.3,1.4
		c0.1,0.4,0.3,0.7,0.5,0.9s0.4,0.3,0.7,0.3c0.4,0,0.7-0.2,0.9-0.6c0.2-0.4,0.4-1,0.6-1.7c0.1-0.7,0.2-1.6,0.3-2.6s0.1-2.1,0.1-3.3
		v-5.6h-1.9V69.5z"/>
</g>
</svg>
