<?xml version="1.0" encoding="utf-8"?>
<!-- Generator: Adobe Illustrator 19.1.0, SVG Export Plug-In . SVG Version: 6.00 Build 0)  -->
<svg version="1.1" id="Слой_1" xmlns="http://www.w3.org/2000/svg" xmlns:xlink="http://www.w3.org/1999/xlink" x="0px" y="0px"
	 viewBox="0 0 238 90" style="enable-background:new 0 0 238 90;" xml:space="preserve">
<style type="text/css">
	.st0{fill:#FFFFFF;}
</style>
<g>
	<path class="st0" d="M5.4,40.4V6.6H5.2L2.4,40.4h-1L1.5,5.3h0.5V39h0.1L4.9,5.3h1v35.1H5.4z"/>
	<path class="st0" d="M8.2,6.6L8.2,6.6L8.1,40.4H7.7V5.3h0.9l2.1,27.6l2.1-27.6h0.9v35.1h-0.5V6.6h-0.1L11,34.4h-0.6L8.2,6.6z"/>
	<path class="st0" d="M15.6,40.4V5.3l3.6,0v1.4l-3.2,0v14.9h2.7v1.4H16V39h3.2v1.4H15.6z"/>
	<path class="st0" d="M20.5,40.4V5.3H21v17h1.7v-6.5c0-0.8,0-1.7,0-2.5c0-0.9,0-1.7,0.1-2.5c0-0.8,0.1-1.6,0.2-2.3
		c0.1-0.7,0.2-1.3,0.4-1.8s0.4-0.9,0.6-1.2c0.2-0.3,0.5-0.5,0.9-0.5h0c0.3,0,0.6,0.2,0.9,0.5s0.4,0.7,0.6,1.3
		c0.2,0.5,0.3,1.2,0.4,1.9c0.1,0.7,0.2,1.5,0.2,2.3s0.1,1.6,0.1,2.5c0,0.8,0,1.7,0,2.4v14.1c0,0.8,0,1.7,0,2.5c0,0.9,0,1.7-0.1,2.5
		s-0.1,1.6-0.2,2.3c-0.1,0.7-0.2,1.3-0.4,1.8s-0.4,0.9-0.6,1.2s-0.5,0.5-0.9,0.5h0c-0.4,0-0.6-0.2-0.9-0.5c-0.2-0.3-0.4-0.7-0.6-1.3
		c-0.2-0.5-0.3-1.2-0.4-1.9c-0.1-0.7-0.2-1.5-0.2-2.3s-0.1-1.6-0.1-2.5s0-1.7,0-2.4v-6.3H21v16.8H20.5z M24.8,39.3
		c0.4,0,0.7-0.2,0.9-0.7c0.2-0.5,0.4-1.1,0.5-2c0.1-0.8,0.2-1.9,0.2-3c0-1.2,0.1-2.4,0.1-3.8V15.8c0-1.3,0-2.5,0-3.7s-0.1-2.2-0.2-3
		c-0.1-0.9-0.3-1.5-0.5-2c-0.2-0.5-0.5-0.8-0.9-0.8h0c-0.4,0-0.7,0.2-0.9,0.7c-0.2,0.5-0.4,1.1-0.5,2s-0.2,1.9-0.2,3
		s-0.1,2.4-0.1,3.8v14.1c0,0.9,0,1.7,0,2.5c0,0.8,0,1.6,0.1,2.3c0,0.7,0.1,1.3,0.2,1.9c0.1,0.6,0.2,1.1,0.3,1.5s0.3,0.7,0.5,1
		C24.3,39.2,24.5,39.3,24.8,39.3L24.8,39.3z"/>
	<path class="st0" d="M30.1,6.7v33.7h-0.4V6.7h-2V5.3h4.4v1.4H30.1z"/>
	<path class="st0" d="M36.8,30.6v0.1c0,0.7,0,1.4,0,2.1c0,0.8,0,1.5-0.1,2.3c0,0.7-0.1,1.5-0.2,2.1c-0.1,0.7-0.2,1.3-0.4,1.8
		c-0.2,0.5-0.4,0.9-0.6,1.2s-0.5,0.5-0.9,0.5h0c-0.3,0-0.6-0.2-0.9-0.5c-0.2-0.3-0.4-0.7-0.6-1.3c-0.2-0.5-0.3-1.2-0.4-1.9
		c-0.1-0.7-0.2-1.5-0.2-2.3s-0.1-1.6-0.1-2.5c0-0.8,0-1.7,0-2.4V15.8c0-0.8,0-1.7,0-2.5c0-0.9,0-1.7,0.1-2.5c0-0.8,0.1-1.6,0.2-2.3
		c0.1-0.7,0.2-1.3,0.4-1.8s0.4-0.9,0.6-1.2c0.2-0.3,0.5-0.5,0.9-0.5c0.3,0,0.6,0.2,0.9,0.5c0.2,0.3,0.4,0.7,0.6,1.3s0.3,1.1,0.4,1.8
		c0.1,0.7,0.2,1.4,0.2,2.1c0,0.7,0.1,1.5,0.1,2.2s0,1.4,0,2.1v0.1h-0.5v-0.1c0-1.2,0-2.3-0.1-3.3s-0.1-2-0.2-2.8
		C36,8.1,35.8,7.4,35.6,7c-0.2-0.5-0.5-0.7-0.9-0.7c-0.4,0-0.7,0.2-0.9,0.7c-0.2,0.5-0.4,1.1-0.5,2c-0.1,0.8-0.2,1.9-0.2,3
		c0,1.2-0.1,2.4-0.1,3.8v14.1c0,0.9,0,1.7,0,2.5s0,1.6,0.1,2.3c0,0.7,0.1,1.3,0.2,1.9c0.1,0.6,0.2,1.1,0.3,1.5s0.3,0.7,0.5,1
		c0.2,0.2,0.4,0.3,0.7,0.3c0.4,0,0.7-0.2,0.9-0.6c0.2-0.4,0.4-1,0.5-1.8c0.1-0.8,0.2-1.7,0.2-2.8c0-1.1,0.1-2.2,0.1-3.5v-0.1H36.8z"
		/>
	<path class="st0" d="M41.1,40.4V25.1h-1.4c-0.2,0-0.3,0.1-0.5,0.4c-0.2,0.3-0.3,0.7-0.5,1.2c-0.1,0.5-0.3,1.2-0.4,2
		c-0.1,0.8-0.2,1.8-0.2,2.9L38,36.7c0,0.7-0.1,1.3-0.1,1.9s-0.1,1.2-0.2,1.7h-0.5c0.1-0.5,0.1-1.1,0.2-1.8c0.1-0.6,0.1-1.3,0.1-1.9
		l0.2-5.2c0-0.8,0.1-1.6,0.1-2.3s0.1-1.3,0.2-1.8s0.2-1,0.3-1.5c0.1-0.4,0.3-0.8,0.5-1.2c-0.2-0.2-0.5-0.6-0.6-1.1
		c-0.2-0.5-0.3-1-0.5-1.7c-0.1-0.6-0.2-1.3-0.3-2.1c-0.1-0.8-0.1-1.6-0.1-2.5v-3.2c0-1.6,0-3,0.1-4.2c0.1-1.1,0.2-2.1,0.4-2.8
		c0.2-0.7,0.4-1.2,0.7-1.5c0.3-0.3,0.6-0.5,1-0.5h2v35.1H41.1z M37.9,17.4c0,0.9,0,1.7,0.1,2.5c0.1,0.8,0.2,1.4,0.3,2
		c0.1,0.6,0.3,1,0.5,1.4c0.2,0.3,0.4,0.5,0.7,0.5h1.5V6.7h-1.5c-0.2,0-0.3,0-0.4,0.1c-0.1,0-0.3,0.2-0.4,0.3s-0.2,0.4-0.3,0.7
		c-0.1,0.3-0.2,0.8-0.3,1.3c-0.1,0.6-0.1,1.2-0.2,2.1c0,0.8-0.1,1.8-0.1,3V17.4z"/>
	<path class="st0" d="M46.5,40.4V5.3h4.1v35.1h-0.4V6.6H47v33.8H46.5z"/>
	<path class="st0" d="M56.8,17.6c0,1.6,0,2.9-0.1,4c-0.1,1-0.2,1.9-0.4,2.5c-0.2,0.6-0.4,1-0.7,1.2c-0.3,0.2-0.6,0.3-1,0.3h-1.4
		v14.7h-0.5V5.3h1.9c0.3,0,0.6,0.1,0.9,0.4c0.3,0.3,0.5,0.7,0.7,1.3s0.3,1.4,0.4,2.5s0.1,2.3,0.1,3.8V17.6z M56.4,13.2
		c0-1.1,0-2-0.1-2.8s-0.1-1.5-0.3-2c-0.1-0.6-0.3-1-0.5-1.2c-0.2-0.3-0.5-0.4-0.8-0.4h-1.5v17.6h1.4c0.3,0,0.6-0.1,0.8-0.3
		c0.2-0.2,0.4-0.6,0.5-1.1c0.1-0.5,0.2-1.2,0.3-2.1c0.1-0.9,0.1-1.9,0.1-3.2V13.2z"/>
	<path class="st0" d="M60.5,4.9c0.3,0,0.6,0.2,0.9,0.5c0.2,0.3,0.4,0.7,0.6,1.3s0.3,1.2,0.4,1.9c0.1,0.7,0.2,1.5,0.2,2.3
		c0,0.8,0.1,1.6,0.1,2.5c0,0.8,0,1.7,0,2.4v14.1c0,0.8,0,1.7,0,2.5c0,0.9,0,1.7-0.1,2.5c0,0.8-0.1,1.6-0.2,2.3
		c-0.1,0.7-0.2,1.3-0.4,1.8c-0.2,0.5-0.4,0.9-0.6,1.2c-0.2,0.3-0.5,0.5-0.9,0.5h0c-0.3,0-0.6-0.2-0.9-0.5c-0.2-0.3-0.4-0.7-0.6-1.3
		c-0.2-0.5-0.3-1.2-0.4-1.9c-0.1-0.7-0.2-1.5-0.2-2.3c0-0.8-0.1-1.6-0.1-2.5c0-0.8,0-1.7,0-2.4V15.8c0-0.8,0-1.7,0-2.5
		c0-0.9,0-1.7,0.1-2.5c0-0.8,0.1-1.6,0.2-2.3c0.1-0.7,0.2-1.3,0.4-1.8s0.4-0.9,0.6-1.2C59.8,5.1,60.1,4.9,60.5,4.9L60.5,4.9z
		 M60.5,6.3c-0.4,0-0.7,0.2-0.9,0.7c-0.2,0.5-0.4,1.1-0.5,2c-0.1,0.8-0.2,1.9-0.2,3s-0.1,2.4-0.1,3.8v14.1c0,0.9,0,1.7,0,2.5
		s0,1.6,0.1,2.3c0,0.7,0.1,1.3,0.2,1.9c0.1,0.6,0.2,1.1,0.3,1.5s0.3,0.7,0.5,1c0.2,0.2,0.4,0.3,0.7,0.3h0c0.4,0,0.7-0.2,0.9-0.7
		c0.2-0.5,0.4-1.1,0.5-2c0.1-0.8,0.2-1.9,0.2-3s0.1-2.4,0.1-3.8V15.8c0-1.3,0-2.5,0-3.7c0-1.1-0.1-2.2-0.2-3c-0.1-0.9-0.3-1.5-0.5-2
		C61.2,6.5,60.9,6.3,60.5,6.3L60.5,6.3z"/>
	<path class="st0" d="M65.5,6.7v33.7h-0.4V6.7h-2V5.3h4.4v1.4H65.5z"/>
	<path class="st0" d="M72.6,40.4V6.6h-0.1l-2.8,33.8h-1l0.1-35.1h0.5V39h0.1l2.8-33.8h1v35.1H72.6z"/>
	<path class="st0" d="M79,31.4c0,1.7,0,3.1-0.1,4.2c-0.1,1.1-0.2,2-0.4,2.7c-0.2,0.7-0.4,1.2-0.7,1.5c-0.3,0.3-0.6,0.5-1,0.5h-2V5.3
		h2c0.3,0,0.5,0.1,0.8,0.4c0.2,0.3,0.4,0.7,0.6,1.3c0.2,0.6,0.3,1.4,0.4,2.4c0.1,1,0.2,2.2,0.2,3.6v2.3c0,0.9,0,1.7-0.1,2.4
		s-0.1,1.4-0.2,2.1c-0.1,0.6-0.2,1.1-0.4,1.5c-0.2,0.4-0.4,0.7-0.6,0.9c0.2,0.1,0.4,0.4,0.6,0.8c0.2,0.4,0.3,0.9,0.5,1.5
		c0.1,0.6,0.2,1.3,0.3,2.1s0.1,1.6,0.1,2.5V31.4z M78.3,12.9c0-0.8,0-1.6-0.1-2.3c-0.1-0.8-0.1-1.4-0.3-2c-0.1-0.6-0.3-1-0.5-1.4
		c-0.2-0.3-0.4-0.5-0.7-0.5h-1.5v14.9h1.4c0.3,0,0.5-0.1,0.7-0.4c0.2-0.3,0.4-0.7,0.5-1.2s0.2-1.2,0.3-2c0.1-0.8,0.1-1.7,0.1-2.7
		V12.9z M78.5,29.2c0-0.9,0-1.7-0.1-2.5c-0.1-0.8-0.2-1.4-0.3-2c-0.2-0.6-0.3-1-0.5-1.4c-0.2-0.3-0.4-0.5-0.7-0.5h-1.5V39h1.5
		c0.2,0,0.3,0,0.4-0.1c0.1,0,0.3-0.2,0.4-0.3c0.1-0.2,0.2-0.4,0.3-0.8s0.2-0.8,0.3-1.3c0.1-0.6,0.1-1.2,0.2-2.1s0-1.8,0-3V29.2z"/>
	<path class="st0" d="M82.5,4.9c0.3,0,0.6,0.2,0.9,0.5c0.2,0.3,0.4,0.7,0.6,1.3s0.3,1.2,0.4,1.9c0.1,0.7,0.2,1.5,0.2,2.3
		c0,0.8,0.1,1.6,0.1,2.5c0,0.8,0,1.7,0,2.4v14.1c0,0.8,0,1.7,0,2.5c0,0.9,0,1.7-0.1,2.5c0,0.8-0.1,1.6-0.2,2.3
		c-0.1,0.7-0.2,1.3-0.4,1.8c-0.2,0.5-0.4,0.9-0.6,1.2c-0.2,0.3-0.5,0.5-0.9,0.5h0c-0.3,0-0.6-0.2-0.9-0.5c-0.2-0.3-0.4-0.7-0.6-1.3
		c-0.2-0.5-0.3-1.2-0.4-1.9c-0.1-0.7-0.2-1.5-0.2-2.3c0-0.8-0.1-1.6-0.1-2.5c0-0.8,0-1.7,0-2.4V15.8c0-0.8,0-1.7,0-2.5
		c0-0.9,0-1.7,0.1-2.5c0-0.8,0.1-1.6,0.2-2.3c0.1-0.7,0.2-1.3,0.4-1.8s0.4-0.9,0.6-1.2C81.9,5.1,82.2,4.9,82.5,4.9L82.5,4.9z
		 M82.5,6.3c-0.4,0-0.7,0.2-0.9,0.7c-0.2,0.5-0.4,1.1-0.5,2c-0.1,0.8-0.2,1.9-0.2,3s-0.1,2.4-0.1,3.8v14.1c0,0.9,0,1.7,0,2.5
		s0,1.6,0.1,2.3c0,0.7,0.1,1.3,0.2,1.9c0.1,0.6,0.2,1.1,0.3,1.5s0.3,0.7,0.5,1c0.2,0.2,0.4,0.3,0.7,0.3h0c0.4,0,0.7-0.2,0.9-0.7
		c0.2-0.5,0.4-1.1,0.5-2c0.1-0.8,0.2-1.9,0.2-3s0.1-2.4,0.1-3.8V15.8c0-1.3,0-2.5,0-3.7c0-1.1-0.1-2.2-0.2-3c-0.1-0.9-0.3-1.5-0.5-2
		C83.2,6.5,82.9,6.3,82.5,6.3L82.5,6.3z"/>
	<path class="st0" d="M86.5,40.4V5.3h4.1v35.1h-0.4V6.6h-3.2v33.8H86.5z"/>
	<path class="st0" d="M94.5,4.9c0.3,0,0.6,0.2,0.9,0.5c0.2,0.3,0.4,0.7,0.6,1.3s0.3,1.2,0.4,1.9c0.1,0.7,0.2,1.5,0.2,2.3
		c0,0.8,0.1,1.6,0.1,2.5c0,0.8,0,1.7,0,2.4v14.1c0,0.8,0,1.7,0,2.5c0,0.9,0,1.7-0.1,2.5c0,0.8-0.1,1.6-0.2,2.3
		c-0.1,0.7-0.2,1.3-0.4,1.8c-0.2,0.5-0.4,0.9-0.6,1.2c-0.2,0.3-0.5,0.5-0.9,0.5h0c-0.3,0-0.6-0.2-0.9-0.5c-0.2-0.3-0.4-0.7-0.6-1.3
		c-0.2-0.5-0.3-1.2-0.4-1.9c-0.1-0.7-0.2-1.5-0.2-2.3c0-0.8-0.1-1.6-0.1-2.5c0-0.8,0-1.7,0-2.4V15.8c0-0.8,0-1.7,0-2.5
		c0-0.9,0-1.7,0.1-2.5c0-0.8,0.1-1.6,0.2-2.3c0.1-0.7,0.2-1.3,0.4-1.8s0.4-0.9,0.6-1.2C93.9,5.1,94.2,4.9,94.5,4.9L94.5,4.9z
		 M94.5,6.3c-0.4,0-0.7,0.2-0.9,0.7c-0.2,0.5-0.4,1.1-0.5,2c-0.1,0.8-0.2,1.9-0.2,3s-0.1,2.4-0.1,3.8v14.1c0,0.9,0,1.7,0,2.5
		s0,1.6,0.1,2.3c0,0.7,0.1,1.3,0.2,1.9c0.1,0.6,0.2,1.1,0.3,1.5s0.3,0.7,0.5,1c0.2,0.2,0.4,0.3,0.7,0.3h0c0.4,0,0.7-0.2,0.9-0.7
		c0.2-0.5,0.4-1.1,0.5-2c0.1-0.8,0.2-1.9,0.2-3s0.1-2.4,0.1-3.8V15.8c0-1.3,0-2.5,0-3.7c0-1.1-0.1-2.2-0.2-3c-0.1-0.9-0.3-1.5-0.5-2
		C95.2,6.5,94.9,6.3,94.5,6.3L94.5,6.3z"/>
	<path class="st0" d="M98.4,40.4V5.3h0.5V22h1.1l2.3-16.7h0.5l-2.4,17.4l2.6,17.7h-0.5l-2.5-17h-1.1v17H98.4z"/>
	<path class="st0" d="M107.7,40.4l-0.6-9.4h-3l-0.6,9.4H103l2.1-35.1h0.8l2.1,35.1H107.7z M104.2,29.6h2.9l-1.4-23h-0.1L104.2,29.6z
		"/>
	<path class="st0" d="M113.2,30c0,2,0,3.6-0.1,5c-0.1,1.4-0.2,2.5-0.3,3.3c-0.2,0.8-0.4,1.5-0.6,1.8c-0.3,0.4-0.6,0.6-1,0.6
		c-0.4,0-0.7-0.2-0.9-0.6s-0.5-1-0.6-1.7c-0.2-0.7-0.3-1.6-0.4-2.7c-0.1-1.1-0.1-2.2-0.1-3.5v-1.5h0.4v2.6c0,0.9,0,1.8,0.1,2.5
		c0.1,0.8,0.2,1.4,0.3,1.9s0.3,1,0.5,1.2c0.2,0.3,0.4,0.4,0.7,0.4c0.3,0,0.5-0.1,0.7-0.3c0.2-0.2,0.4-0.6,0.5-1.2
		c0.1-0.6,0.2-1.4,0.3-2.5c0.1-1,0.1-2.4,0.1-4v-2.5c0-1.4,0-2.4-0.1-3.2c-0.1-0.8-0.2-1.4-0.4-1.8c-0.1-0.4-0.3-0.7-0.5-0.8
		c-0.2-0.1-0.4-0.2-0.6-0.2h-0.6v-1.4h0.6c0.2,0,0.4-0.1,0.6-0.3c0.2-0.2,0.3-0.5,0.5-1c0.1-0.5,0.3-1.1,0.3-1.8
		c0.1-0.7,0.1-1.7,0.1-2.8v-1.9c0-1.4,0-2.5-0.1-3.5c-0.1-1-0.2-1.7-0.3-2.3c-0.1-0.6-0.3-1-0.5-1.3c-0.2-0.3-0.4-0.4-0.7-0.4
		c-0.3,0-0.5,0.1-0.7,0.4c-0.2,0.3-0.4,0.7-0.5,1.2c-0.1,0.6-0.2,1.3-0.3,2.2c-0.1,0.9-0.1,2-0.1,3.2v1.7h-0.4v-1.6
		c0-1.2,0-2.3,0.1-3.3c0.1-1,0.2-1.9,0.3-2.7c0.1-0.8,0.3-1.4,0.6-1.8c0.3-0.4,0.6-0.7,1-0.7c0.3,0,0.6,0.2,0.9,0.5
		c0.3,0.3,0.5,0.9,0.6,1.6s0.3,1.7,0.4,2.8c0.1,1.2,0.1,2.6,0.1,4.2c0,1.4,0,2.5-0.1,3.5s-0.1,1.8-0.2,2.4c-0.1,0.6-0.2,1.1-0.4,1.5
		c-0.1,0.4-0.3,0.6-0.5,0.7c0.2,0,0.4,0.2,0.5,0.5s0.3,0.7,0.4,1.3s0.2,1.4,0.2,2.3C113.2,27.4,113.2,28.6,113.2,30z"/>
	<path class="st0" d="M118.8,40.4l-0.6-9.4h-3l-0.6,9.4h-0.5l2.1-35.1h0.8l2.1,35.1H118.8z M115.3,29.6h2.9l-1.4-23h-0.1L115.3,29.6
		z"/>
	<path class="st0" d="M120.4,40.4V5.3h0.5V22h3.2V5.3h0.4v35.1h-0.4v-17h-3.2v17H120.4z"/>
	<path class="st0" d="M130.5,40.4V6.6h-0.1l-2.8,33.8h-1l0.1-35.1h0.5V39h0.1L130,5.3h1v35.1H130.5z"/>
	<path class="st0" d="M135.5,40.4V25.1h-1.4c-0.2,0-0.3,0.1-0.5,0.4c-0.2,0.3-0.3,0.7-0.5,1.2c-0.1,0.5-0.3,1.2-0.4,2
		c-0.1,0.8-0.2,1.8-0.2,2.9l-0.2,5.2c0,0.7-0.1,1.3-0.1,1.9s-0.1,1.2-0.2,1.7h-0.5c0.1-0.5,0.1-1.1,0.2-1.8c0.1-0.6,0.1-1.3,0.1-1.9
		l0.2-5.2c0-0.8,0.1-1.6,0.1-2.3s0.1-1.3,0.2-1.8s0.2-1,0.3-1.5c0.1-0.4,0.3-0.8,0.5-1.2c-0.2-0.2-0.5-0.6-0.6-1.1
		c-0.2-0.5-0.3-1-0.5-1.7c-0.1-0.6-0.2-1.3-0.3-2.1c-0.1-0.8-0.1-1.6-0.1-2.5v-3.2c0-1.6,0-3,0.1-4.2c0.1-1.1,0.2-2.1,0.4-2.8
		c0.2-0.7,0.4-1.2,0.7-1.5c0.3-0.3,0.6-0.5,1-0.5h2v35.1H135.5z M132.3,17.4c0,0.9,0,1.7,0.1,2.5c0.1,0.8,0.2,1.4,0.3,2
		c0.1,0.6,0.3,1,0.5,1.4c0.2,0.3,0.4,0.5,0.7,0.5h1.5V6.7h-1.5c-0.2,0-0.3,0-0.4,0.1c-0.1,0-0.3,0.2-0.4,0.3s-0.2,0.4-0.3,0.7
		c-0.1,0.3-0.2,0.8-0.3,1.3c-0.1,0.6-0.1,1.2-0.2,2.1c0,0.8-0.1,1.8-0.1,3V17.4z"/>
	<path class="st0" d="M140.9,40.4V5.3h4.1v35.1h-0.4V6.6h-3.2v33.8H140.9z"/>
	<path class="st0" d="M147.1,40.4V5.3l3.6,0v1.4l-3.2,0v14.9h2.7v1.4h-2.7V39h3.2v1.4H147.1z"/>
	<path class="st0" d="M156.1,17.6c0,1.6,0,2.9-0.1,4c-0.1,1-0.2,1.9-0.4,2.5c-0.2,0.6-0.4,1-0.7,1.2c-0.3,0.2-0.6,0.3-1,0.3h-1.4
		v14.7H152V5.3h1.9c0.3,0,0.6,0.1,0.9,0.4c0.3,0.3,0.5,0.7,0.7,1.3s0.3,1.4,0.4,2.5s0.1,2.3,0.1,3.8V17.6z M155.6,13.2
		c0-1.1,0-2-0.1-2.8s-0.1-1.5-0.3-2c-0.1-0.6-0.3-1-0.5-1.2c-0.2-0.3-0.5-0.4-0.8-0.4h-1.5v17.6h1.4c0.3,0,0.6-0.1,0.8-0.3
		c0.2-0.2,0.4-0.6,0.5-1.1c0.1-0.5,0.2-1.2,0.3-2.1c0.1-0.9,0.1-1.9,0.1-3.2V13.2z"/>
	<path class="st0" d="M157.8,40.4V5.3l3.6,0v1.4l-3.2,0v14.9h2.7v1.4h-2.7V39h3.2v1.4H157.8z"/>
	<path class="st0" d="M167.2,5.3V39h0.8v5.5h-0.4v-4.1h-5.2v4.1h-0.5V39h0c0.2,0,0.4-0.3,0.5-1c0.2-0.7,0.3-1.5,0.4-2.6
		s0.2-2.3,0.3-3.7s0.1-2.8,0.2-4.3c0-1.5,0.1-2.9,0.1-4.4c0-1.4,0-2.7,0-3.9V5.3H167.2z M163.8,19.1c0,2.1,0,4.1-0.1,6.2
		c0,2-0.1,3.9-0.2,5.7c-0.1,1.8-0.2,3.4-0.3,4.8c-0.1,1.4-0.3,2.5-0.5,3.3h4V6.6h-3V19.1z"/>
	<path class="st0" d="M172,40.4V5.3h4.1v35.1h-0.4V6.6h-3.2v33.8H172z"/>
	<path class="st0" d="M182.3,17.6c0,1.6,0,2.9-0.1,4c-0.1,1-0.2,1.9-0.4,2.5c-0.2,0.6-0.4,1-0.7,1.2c-0.3,0.2-0.6,0.3-1,0.3h-1.4
		v14.7h-0.5V5.3h1.9c0.3,0,0.6,0.1,0.9,0.4c0.3,0.3,0.5,0.7,0.7,1.3s0.3,1.4,0.4,2.5s0.1,2.3,0.1,3.8V17.6z M181.9,13.2
		c0-1.1,0-2-0.1-2.8s-0.1-1.5-0.3-2c-0.1-0.6-0.3-1-0.5-1.2c-0.2-0.3-0.5-0.4-0.8-0.4h-1.5v17.6h1.4c0.3,0,0.6-0.1,0.8-0.3
		c0.2-0.2,0.4-0.6,0.5-1.1c0.1-0.5,0.2-1.2,0.3-2.1c0.1-0.9,0.1-1.9,0.1-3.2V13.2z"/>
	<path class="st0" d="M188,40.4V6.6h-0.1l-2.8,33.8h-1l0.1-35.1h0.5V39h0.1l2.8-33.8h1v35.1H188z"/>
	<path class="st0" d="M190.9,6.6L190.9,6.6l-0.1,33.8h-0.5V5.3h0.9l2.1,27.6l2.1-27.6h0.9v35.1h-0.5V6.6h-0.1l-2.1,27.8H193
		L190.9,6.6z"/>
	<path class="st0" d="M198.3,40.4V5.3l3.6,0v1.4l-3.2,0v14.9h2.7v1.4h-2.7V39h3.2v1.4H198.3z"/>
	<path class="st0" d="M203.2,40.4V5.3h0.5V22h3.2V5.3h0.4v35.1h-0.4v-17h-3.2v17H203.2z"/>
	<path class="st0" d="M209.3,40.4V5.3l3.6,0v1.4l-3.2,0v14.9h2.7v1.4h-2.7V39h3.2v1.4H209.3z"/>
	<path class="st0" d="M214.2,40.4V5.3h0.5V22h3.2V5.3h0.4v35.1h-0.4v-17h-3.2v17H214.2z"/>
	<path class="st0" d="M224.3,40.4V6.6h-0.1l-2.8,33.8h-1l0.1-35.1h0.5V39h0.1l2.8-33.8h1v35.1H224.3z"/>
	<path class="st0" d="M226.5,40.4V5.3l3.6,0v1.4l-3.2,0v14.9h2.7v1.4H227V39h3.2v1.4H226.5z"/>
	<path class="st0" d="M232,6.6L232,6.6l-0.1,33.8h-0.5V5.3h0.9l2.1,27.6l2.1-27.6h0.9v35.1H237V6.6h-0.1l-2.1,27.8h-0.6L232,6.6z"/>
	<path class="st0" d="M2.3,51.5c0.2,0,0.4,0.1,0.6,0.4C3,52.2,3.2,52.6,3.3,53c0.1,0.5,0.2,1,0.2,1.6s0.1,1.3,0.1,2
		c0,0.7,0,1.4,0.1,2.1c0,0.7,0,1.4,0,2.1v12.3c0,0.7,0,1.5,0,2.2c0,0.7,0,1.5-0.1,2.2c0,0.7-0.1,1.4-0.1,2s-0.1,1.2-0.2,1.6
		S3,82,2.9,82.3c-0.2,0.3-0.3,0.4-0.6,0.4h0c-0.2,0-0.4-0.1-0.6-0.4c-0.2-0.3-0.3-0.6-0.4-1.1s-0.2-1-0.2-1.6
		c-0.1-0.6-0.1-1.3-0.1-2c0-0.7,0-1.4-0.1-2.1s0-1.4,0-2.1V60.9c0-0.7,0-1.5,0-2.2c0-0.7,0-1.5,0.1-2.2s0.1-1.4,0.1-2
		C1.1,54,1.2,53.5,1.3,53c0.1-0.5,0.2-0.8,0.4-1.1C1.9,51.6,2.1,51.5,2.3,51.5L2.3,51.5z M2.3,52.7c-0.2,0-0.4,0.2-0.6,0.6
		s-0.3,1-0.3,1.7c-0.1,0.7-0.1,1.6-0.1,2.6c0,1,0,2.1,0,3.3v12.2c0,0.8,0,1.5,0,2.2c0,0.7,0,1.4,0,2c0,0.6,0.1,1.2,0.1,1.7
		c0,0.5,0.1,0.9,0.2,1.3c0.1,0.4,0.2,0.6,0.3,0.8s0.3,0.3,0.4,0.3h0c0.2,0,0.4-0.2,0.6-0.6s0.3-1,0.3-1.7c0.1-0.7,0.1-1.6,0.1-2.6
		s0-2.1,0-3.3V60.9c0-1.1,0-2.2,0-3.2c0-1-0.1-1.9-0.1-2.6c-0.1-0.8-0.2-1.3-0.3-1.8C2.8,52.9,2.6,52.7,2.3,52.7L2.3,52.7z"/>
	<path class="st0" d="M7.5,73.3c0,1.7,0,3.2-0.1,4.4c0,1.2-0.1,2.2-0.2,2.9c-0.1,0.7-0.2,1.3-0.4,1.6c-0.2,0.3-0.4,0.5-0.7,0.5
		c-0.2,0-0.4-0.2-0.6-0.5c-0.2-0.3-0.3-0.8-0.4-1.5s-0.2-1.4-0.2-2.3c0-0.9-0.1-1.9-0.1-3.1v-1.3h0.3v2.2c0,0.8,0,1.5,0.1,2.2
		c0,0.7,0.1,1.2,0.2,1.7c0.1,0.5,0.2,0.8,0.3,1.1c0.1,0.3,0.3,0.4,0.4,0.4c0.2,0,0.3-0.1,0.5-0.3c0.1-0.2,0.2-0.6,0.3-1.1
		S7,78.9,7.1,78c0-0.9,0.1-2.1,0.1-3.5v-2.2c0-1.2,0-2.1-0.1-2.8C7,68.8,6.9,68.3,6.8,68c-0.1-0.3-0.2-0.6-0.3-0.7s-0.3-0.1-0.4-0.1
		H5.8V66h0.4c0.1,0,0.3-0.1,0.4-0.3c0.1-0.2,0.2-0.4,0.3-0.8C6.9,64.5,7,64,7,63.3c0.1-0.7,0.1-1.5,0.1-2.4v-1.7c0-1.2,0-2.2-0.1-3
		c0-0.8-0.1-1.5-0.2-2c-0.1-0.5-0.2-0.9-0.3-1.1c-0.1-0.2-0.3-0.4-0.5-0.4c-0.2,0-0.3,0.1-0.5,0.3c-0.1,0.2-0.2,0.6-0.3,1.1
		c-0.1,0.5-0.1,1.1-0.2,1.9s-0.1,1.7-0.1,2.8v1.5H4.8v-1.4c0-1,0-2,0.1-2.9c0-0.9,0.1-1.7,0.2-2.3c0.1-0.7,0.2-1.2,0.4-1.6
		s0.4-0.6,0.7-0.6c0.2,0,0.4,0.1,0.6,0.4c0.2,0.3,0.3,0.8,0.4,1.4c0.1,0.6,0.2,1.5,0.2,2.5c0.1,1,0.1,2.2,0.1,3.7
		c0,1.2,0,2.2-0.1,3.1c0,0.9-0.1,1.6-0.2,2.1C7.1,65.2,7,65.7,7,66c-0.1,0.3-0.2,0.5-0.3,0.6c0.1,0,0.3,0.2,0.4,0.4
		c0.1,0.2,0.2,0.6,0.3,1.1c0.1,0.5,0.1,1.2,0.1,2C7.4,71.1,7.5,72.1,7.5,73.3z"/>
	<path class="st0" d="M8.7,82.4V51.8H9v14.6h2.1V51.8h0.3v30.6h-0.3V67.6H9v14.8H8.7z"/>
	<path class="st0" d="M15.1,82.4l-0.4-8.2h-2l-0.4,8.2h-0.3l1.4-30.6H14l1.4,30.6H15.1z M12.8,73h1.9l-0.9-20h-0.1L12.8,73z"/>
	<path class="st0" d="M16.2,82.4V51.8h0.3v14.6h0.7l1.5-14.6H19l-1.6,15.1l1.7,15.4h-0.3l-1.6-14.8h-0.7v14.8H16.2z"/>
	<path class="st0" d="M21,51.5c0.2,0,0.4,0.1,0.6,0.4c0.2,0.3,0.3,0.6,0.4,1.1c0.1,0.5,0.2,1,0.2,1.6s0.1,1.3,0.1,2
		c0,0.7,0,1.4,0.1,2.1c0,0.7,0,1.4,0,2.1v12.3c0,0.7,0,1.5,0,2.2c0,0.7,0,1.5-0.1,2.2c0,0.7-0.1,1.4-0.1,2s-0.1,1.2-0.2,1.6
		s-0.2,0.8-0.4,1.1c-0.2,0.3-0.3,0.4-0.6,0.4h0c-0.2,0-0.4-0.1-0.6-0.4c-0.2-0.3-0.3-0.6-0.4-1.1s-0.2-1-0.2-1.6
		c-0.1-0.6-0.1-1.3-0.1-2c0-0.7,0-1.4-0.1-2.1s0-1.4,0-2.1V60.9c0-0.7,0-1.5,0-2.2c0-0.7,0-1.5,0.1-2.2s0.1-1.4,0.1-2
		c0.1-0.6,0.1-1.2,0.2-1.6c0.1-0.5,0.2-0.8,0.4-1.1C20.6,51.6,20.8,51.5,21,51.5L21,51.5z M21,52.7c-0.2,0-0.4,0.2-0.6,0.6
		s-0.3,1-0.3,1.7c-0.1,0.7-0.1,1.6-0.1,2.6c0,1,0,2.1,0,3.3v12.2c0,0.8,0,1.5,0,2.2c0,0.7,0,1.4,0,2c0,0.6,0.1,1.2,0.1,1.7
		c0,0.5,0.1,0.9,0.2,1.3c0.1,0.4,0.2,0.6,0.3,0.8s0.3,0.3,0.4,0.3h0c0.2,0,0.4-0.2,0.6-0.6s0.3-1,0.3-1.7c0.1-0.7,0.1-1.6,0.1-2.6
		s0-2.1,0-3.3V60.9c0-1.1,0-2.2,0-3.2c0-1-0.1-1.9-0.1-2.6c-0.1-0.8-0.2-1.3-0.3-1.8C21.5,52.9,21.3,52.7,21,52.7L21,52.7z"/>
	<path class="st0" d="M23.9,53L23.9,53l0,29.4h-0.3V51.8h0.6l1.4,24l1.4-24h0.6v30.6h-0.3V53h-0.1l-1.4,24.2h-0.4L23.9,53z"/>
	<path class="st0" d="M31.5,75.5c0,1.3,0,2.4-0.1,3.3s-0.2,1.6-0.3,2.1s-0.3,0.9-0.4,1.2c-0.2,0.2-0.4,0.3-0.6,0.3h-1.3V51.8h0.3
		v12.8H30c0.2,0,0.5,0.1,0.6,0.3c0.2,0.2,0.3,0.6,0.5,1.1s0.2,1.2,0.3,2.1c0.1,0.9,0.1,2.1,0.1,3.5V75.5z M31.2,71.6
		c0-1.1,0-2-0.1-2.7c0-0.7-0.1-1.3-0.2-1.8c-0.1-0.5-0.2-0.8-0.4-1c-0.1-0.2-0.3-0.3-0.5-0.3h-0.9v15.4h1c0.2,0,0.4-0.1,0.5-0.4
		c0.1-0.2,0.2-0.6,0.3-1.1c0.1-0.5,0.1-1.1,0.2-1.8s0.1-1.5,0.1-2.4V71.6z"/>
	<path class="st0" d="M33.7,53v29.4h-0.3V53h-1.3v-1.2H35V53H33.7z"/>
	<path class="st0" d="M35.7,82.4V51.8l2.4,0V53L36,53v13h1.8v1.2H36v14h2.1v1.2H35.7z"/>
	<path class="st0" d="M41.5,73.9V74c0,0.6,0,1.2,0,1.9s0,1.3-0.1,2s-0.1,1.3-0.1,1.9s-0.1,1.1-0.2,1.5c-0.1,0.5-0.2,0.8-0.4,1.1
		c-0.2,0.3-0.3,0.4-0.6,0.4h0c-0.2,0-0.4-0.1-0.6-0.4c-0.2-0.3-0.3-0.6-0.4-1.1c-0.1-0.5-0.2-1-0.2-1.6c-0.1-0.6-0.1-1.3-0.1-2
		c0-0.7,0-1.4-0.1-2.1s0-1.4,0-2.1V60.9c0-0.7,0-1.5,0-2.2c0-0.7,0-1.5,0.1-2.2s0.1-1.4,0.1-2c0.1-0.6,0.1-1.2,0.2-1.6
		c0.1-0.5,0.2-0.8,0.4-1.1c0.2-0.3,0.3-0.4,0.6-0.4c0.2,0,0.4,0.1,0.6,0.4c0.2,0.3,0.3,0.6,0.4,1.1c0.1,0.5,0.2,1,0.2,1.6
		c0.1,0.6,0.1,1.2,0.1,1.9c0,0.6,0,1.3,0.1,1.9c0,0.7,0,1.3,0,1.8v0.1h-0.3v-0.1c0-1,0-2,0-2.9c0-0.9-0.1-1.7-0.1-2.4
		s-0.2-1.2-0.3-1.6c-0.1-0.4-0.3-0.6-0.6-0.6c-0.2,0-0.4,0.2-0.6,0.6s-0.3,1-0.3,1.7c-0.1,0.7-0.1,1.6-0.1,2.6c0,1,0,2.1,0,3.3v12.2
		c0,0.8,0,1.5,0,2.2c0,0.7,0,1.4,0,2c0,0.6,0.1,1.2,0.1,1.7c0,0.5,0.1,0.9,0.2,1.3c0.1,0.4,0.2,0.6,0.3,0.8s0.3,0.3,0.4,0.3
		c0.2,0,0.4-0.2,0.6-0.6s0.3-0.9,0.3-1.6s0.1-1.5,0.2-2.4c0-0.9,0-1.9,0-3v-0.1H41.5z"/>
	<path class="st0" d="M45.2,75.5c0,1.3,0,2.4-0.1,3.3s-0.2,1.6-0.3,2.1s-0.3,0.9-0.4,1.2c-0.2,0.2-0.4,0.3-0.6,0.3h-1.3V51.8h0.3
		v12.8h0.9c0.2,0,0.5,0.1,0.6,0.3c0.2,0.2,0.3,0.6,0.5,1.1s0.2,1.2,0.3,2.1c0.1,0.9,0.1,2.1,0.1,3.5V75.5z M44.9,71.6
		c0-1.1,0-2-0.1-2.7c0-0.7-0.1-1.3-0.2-1.8c-0.1-0.5-0.2-0.8-0.4-1c-0.1-0.2-0.3-0.3-0.5-0.3h-0.9v15.4h1c0.2,0,0.4-0.1,0.5-0.4
		c0.1-0.2,0.2-0.6,0.3-1.1c0.1-0.5,0.1-1.1,0.2-1.8s0.1-1.5,0.1-2.4V71.6z"/>
	<path class="st0" d="M50.8,73.9V74c0,0.6,0,1.2,0,1.9s0,1.3-0.1,2s-0.1,1.3-0.1,1.9s-0.1,1.1-0.2,1.5c-0.1,0.5-0.2,0.8-0.4,1.1
		c-0.2,0.3-0.3,0.4-0.6,0.4h0c-0.2,0-0.4-0.1-0.6-0.4c-0.2-0.3-0.3-0.6-0.4-1.1c-0.1-0.5-0.2-1-0.2-1.6c-0.1-0.6-0.1-1.3-0.1-2
		c0-0.7,0-1.4-0.1-2.1s0-1.4,0-2.1V60.9c0-0.7,0-1.5,0-2.2c0-0.7,0-1.5,0.1-2.2s0.1-1.4,0.1-2c0.1-0.6,0.1-1.2,0.2-1.6
		c0.1-0.5,0.2-0.8,0.4-1.1c0.2-0.3,0.3-0.4,0.6-0.4c0.2,0,0.4,0.1,0.6,0.4c0.2,0.3,0.3,0.6,0.4,1.1c0.1,0.5,0.2,1,0.2,1.6
		c0.1,0.6,0.1,1.2,0.1,1.9c0,0.6,0,1.3,0.1,1.9c0,0.7,0,1.3,0,1.8v0.1h-0.3v-0.1c0-1,0-2,0-2.9c0-0.9-0.1-1.7-0.1-2.4
		s-0.2-1.2-0.3-1.6c-0.1-0.4-0.3-0.6-0.6-0.6c-0.2,0-0.4,0.2-0.6,0.6s-0.3,1-0.3,1.7c-0.1,0.7-0.1,1.6-0.1,2.6c0,1,0,2.1,0,3.3v12.2
		c0,0.8,0,1.5,0,2.2c0,0.7,0,1.4,0,2c0,0.6,0.1,1.2,0.1,1.7c0,0.5,0.1,0.9,0.2,1.3c0.1,0.4,0.2,0.6,0.3,0.8s0.3,0.3,0.4,0.3
		c0.2,0,0.4-0.2,0.6-0.6s0.3-0.9,0.3-1.6s0.1-1.5,0.2-2.4c0-0.9,0-1.9,0-3v-0.1H50.8z"/>
	<path class="st0" d="M56.2,82.4V53h-0.1l-1.8,29.4h-0.6l0-30.6h0.3v29.4H54l1.8-29.4h0.6v30.6H56.2z"/>
	<path class="st0" d="M57.6,82.4V51.8h0.3v14.6h2.1V51.8h0.3v30.6h-0.3V67.6h-2.1v14.8H57.6z"/>
	<path class="st0" d="M64.3,73.9V74c0,0.6,0,1.2,0,1.9s0,1.3-0.1,2s-0.1,1.3-0.1,1.9s-0.1,1.1-0.2,1.5c-0.1,0.5-0.2,0.8-0.4,1.1
		c-0.2,0.3-0.3,0.4-0.6,0.4h0c-0.2,0-0.4-0.1-0.6-0.4c-0.2-0.3-0.3-0.6-0.4-1.1c-0.1-0.5-0.2-1-0.2-1.6c-0.1-0.6-0.1-1.3-0.1-2
		c0-0.7,0-1.4-0.1-2.1s0-1.4,0-2.1V60.9c0-0.7,0-1.5,0-2.2c0-0.7,0-1.5,0.1-2.2s0.1-1.4,0.1-2c0.1-0.6,0.1-1.2,0.2-1.6
		c0.1-0.5,0.2-0.8,0.4-1.1c0.2-0.3,0.3-0.4,0.6-0.4c0.2,0,0.4,0.1,0.6,0.4c0.2,0.3,0.3,0.6,0.4,1.1c0.1,0.5,0.2,1,0.2,1.6
		c0.1,0.6,0.1,1.2,0.1,1.9c0,0.6,0,1.3,0.1,1.9c0,0.7,0,1.3,0,1.8v0.1H64v-0.1c0-1,0-2,0-2.9c0-0.9-0.1-1.7-0.1-2.4
		s-0.2-1.2-0.3-1.6c-0.1-0.4-0.3-0.6-0.6-0.6c-0.2,0-0.4,0.2-0.6,0.6s-0.3,1-0.3,1.7c-0.1,0.7-0.1,1.6-0.1,2.6c0,1,0,2.1,0,3.3v12.2
		c0,0.8,0,1.5,0,2.2c0,0.7,0,1.4,0,2c0,0.6,0.1,1.2,0.1,1.7c0,0.5,0.1,0.9,0.2,1.3c0.1,0.4,0.2,0.6,0.3,0.8s0.3,0.3,0.4,0.3
		c0.2,0,0.4-0.2,0.6-0.6s0.3-0.9,0.3-1.6s0.1-1.5,0.2-2.4c0-0.9,0-1.9,0-3v-0.1H64.3z"/>
	<path class="st0" d="M66.3,53v29.4H66V53h-1.3v-1.2h2.9V53H66.3z"/>
	<path class="st0" d="M71,62.6c0,1.4,0,2.6-0.1,3.5c-0.1,0.9-0.2,1.6-0.3,2.1s-0.3,0.9-0.5,1.1c-0.2,0.2-0.4,0.3-0.6,0.3h-0.9v12.8
		h-0.3V51.8h1.3c0.2,0,0.4,0.1,0.6,0.3c0.2,0.2,0.3,0.6,0.4,1.2s0.2,1.3,0.3,2.1c0.1,0.9,0.1,2,0.1,3.3V62.6z M70.7,58.7
		c0-0.9,0-1.7-0.1-2.4c0-0.7-0.1-1.3-0.2-1.8c-0.1-0.5-0.2-0.8-0.3-1.1S69.8,53,69.6,53h-1v15.4h0.9c0.2,0,0.4-0.1,0.5-0.3
		c0.1-0.2,0.3-0.5,0.4-1c0.1-0.5,0.2-1.1,0.2-1.8c0-0.7,0.1-1.7,0.1-2.7V58.7z"/>
	<path class="st0" d="M73.3,71.3l-0.7,11.1h-0.3L73,71.1l-1.3-19.2H72L73.1,69l1.2-17.2h0.3L73.3,71.3z"/>
	<path class="st0" d="M75.5,82.4V51.8h0.3v14.6h0.7L78,51.8h0.3l-1.6,15.1l1.7,15.4h-0.3l-1.6-14.8h-0.7v14.8H75.5z"/>
	<path class="st0" d="M81.9,51.8v29.4h0.5v4.7h-0.3v-3.5h-2.9V51.8h0.3v29.4h2.1V51.8H81.9z"/>
	<path class="st0" d="M85.8,82.4V53h-0.1l-1.8,29.4h-0.6l0-30.6h0.3v29.4h0.1l1.8-29.4h0.6v30.6H85.8z"/>
	<path class="st0" d="M87.3,82.4V51.8l2.4,0V53l-2.1,0v13h1.8v1.2h-1.8v14h2.1v1.2H87.3z"/>
	<path class="st0" d="M93,82.4V53H93l-1.8,29.4h-0.6l0-30.6h0.3v29.4h0.1l1.8-29.4h0.6v30.6H93z M92.9,46.3c0,1.2-0.1,2.2-0.3,2.8
		s-0.4,1-0.7,1c-0.3,0-0.5-0.3-0.7-1c-0.2-0.7-0.2-1.6-0.3-2.8h0.3c0,0.9,0.1,1.6,0.2,2S91.8,49,92,49c0.2,0,0.4-0.2,0.5-0.7
		c0.1-0.4,0.2-1.1,0.2-2H92.9z"/>
	<path class="st0" d="M98.9,82.4V53h-0.1L97,82.4h-0.6l0-30.6h0.3v29.4h0.1l1.8-29.4h0.6v30.6H98.9z"/>
	<path class="st0" d="M103.1,82.4V53H101v20.5c0,1.8,0,3.3,0,4.4s-0.1,2.1-0.2,2.9s-0.2,1.2-0.3,1.5c-0.2,0.3-0.3,0.4-0.6,0.4v-1.2
		c0.2,0,0.4-0.1,0.5-0.4c0.1-0.3,0.2-0.7,0.3-1.3s0.1-1.5,0.1-2.5c0-1,0-2.3,0-3.8V51.8h2.7v30.6H103.1z"/>
	<path class="st0" d="M107.3,82.4V53h-0.1l-1.8,29.4h-0.6l0-30.6h0.3v29.4h0.1l1.8-29.4h0.6v30.6H107.3z"/>
	<path class="st0" d="M110.6,82.4V51.8h2.7v30.6H113V53h-2.1v29.4H110.6z"/>
	<path class="st0" d="M117.4,62.6c0,1.4,0,2.6-0.1,3.5c-0.1,0.9-0.2,1.6-0.3,2.1s-0.3,0.9-0.5,1.1c-0.2,0.2-0.4,0.3-0.6,0.3H115
		v12.8h-0.3V51.8h1.3c0.2,0,0.4,0.1,0.6,0.3c0.2,0.2,0.3,0.6,0.4,1.2s0.2,1.3,0.3,2.1c0.1,0.9,0.1,2,0.1,3.3V62.6z M117.1,58.7
		c0-0.9,0-1.7-0.1-2.4c0-0.7-0.1-1.3-0.2-1.8c-0.1-0.5-0.2-0.8-0.3-1.1S116.2,53,116,53h-1v15.4h0.9c0.2,0,0.4-0.1,0.5-0.3
		c0.1-0.2,0.3-0.5,0.4-1c0.1-0.5,0.2-1.1,0.2-1.8c0-0.7,0.1-1.7,0.1-2.7V58.7z"/>
	<path class="st0" d="M119.7,51.5c0.2,0,0.4,0.1,0.6,0.4c0.2,0.3,0.3,0.6,0.4,1.1c0.1,0.5,0.2,1,0.2,1.6s0.1,1.3,0.1,2
		c0,0.7,0,1.4,0.1,2.1c0,0.7,0,1.4,0,2.1v12.3c0,0.7,0,1.5,0,2.2c0,0.7,0,1.5-0.1,2.2c0,0.7-0.1,1.4-0.1,2s-0.1,1.2-0.2,1.6
		s-0.2,0.8-0.4,1.1c-0.2,0.3-0.3,0.4-0.6,0.4h0c-0.2,0-0.4-0.1-0.6-0.4c-0.2-0.3-0.3-0.6-0.4-1.1s-0.2-1-0.2-1.6
		c-0.1-0.6-0.1-1.3-0.1-2c0-0.7,0-1.4-0.1-2.1s0-1.4,0-2.1V60.9c0-0.7,0-1.5,0-2.2c0-0.7,0-1.5,0.1-2.2s0.1-1.4,0.1-2
		c0.1-0.6,0.1-1.2,0.2-1.6c0.1-0.5,0.2-0.8,0.4-1.1C119.3,51.6,119.5,51.5,119.7,51.5L119.7,51.5z M119.7,52.7
		c-0.2,0-0.4,0.2-0.6,0.6s-0.3,1-0.3,1.7c-0.1,0.7-0.1,1.6-0.1,2.6c0,1,0,2.1,0,3.3v12.2c0,0.8,0,1.5,0,2.2c0,0.7,0,1.4,0,2
		c0,0.6,0.1,1.2,0.1,1.7c0,0.5,0.1,0.9,0.2,1.3c0.1,0.4,0.2,0.6,0.3,0.8s0.3,0.3,0.4,0.3h0c0.2,0,0.4-0.2,0.6-0.6s0.3-1,0.3-1.7
		c0.1-0.7,0.1-1.6,0.1-2.6s0-2.1,0-3.3V60.9c0-1.1,0-2.2,0-3.2c0-1-0.1-1.9-0.1-2.6c-0.1-0.8-0.2-1.3-0.3-1.8
		C120.2,52.9,120,52.7,119.7,52.7L119.7,52.7z"/>
	<path class="st0" d="M122.3,82.4V51.8h0.3v14.6h0.7l1.5-14.6h0.3l-1.6,15.1l1.7,15.4h-0.3l-1.6-14.8h-0.7v14.8H122.3z"/>
	<path class="st0" d="M127.2,51.5c0.2,0,0.4,0.1,0.6,0.4c0.2,0.3,0.3,0.6,0.4,1.1c0.1,0.5,0.2,1,0.2,1.6s0.1,1.3,0.1,2
		c0,0.7,0,1.4,0.1,2.1c0,0.7,0,1.4,0,2.1v12.3c0,0.7,0,1.5,0,2.2c0,0.7,0,1.5-0.1,2.2c0,0.7-0.1,1.4-0.1,2s-0.1,1.2-0.2,1.6
		s-0.2,0.8-0.4,1.1c-0.2,0.3-0.3,0.4-0.6,0.4h0c-0.2,0-0.4-0.1-0.6-0.4c-0.2-0.3-0.3-0.6-0.4-1.1s-0.2-1-0.2-1.6
		c-0.1-0.6-0.1-1.3-0.1-2c0-0.7,0-1.4-0.1-2.1s0-1.4,0-2.1V60.9c0-0.7,0-1.5,0-2.2c0-0.7,0-1.5,0.1-2.2s0.1-1.4,0.1-2
		c0.1-0.6,0.1-1.2,0.2-1.6c0.1-0.5,0.2-0.8,0.4-1.1C126.7,51.6,126.9,51.5,127.2,51.5L127.2,51.5z M127.2,52.7
		c-0.2,0-0.4,0.2-0.6,0.6s-0.3,1-0.3,1.7c-0.1,0.7-0.1,1.6-0.1,2.6c0,1,0,2.1,0,3.3v12.2c0,0.8,0,1.5,0,2.2c0,0.7,0,1.4,0,2
		c0,0.6,0.1,1.2,0.1,1.7c0,0.5,0.1,0.9,0.2,1.3c0.1,0.4,0.2,0.6,0.3,0.8s0.3,0.3,0.4,0.3h0c0.2,0,0.4-0.2,0.6-0.6s0.3-1,0.3-1.7
		c0.1-0.7,0.1-1.6,0.1-2.6s0-2.1,0-3.3V60.9c0-1.1,0-2.2,0-3.2c0-1-0.1-1.9-0.1-2.6c-0.1-0.8-0.2-1.3-0.3-1.8
		C127.6,52.9,127.4,52.7,127.2,52.7L127.2,52.7z"/>
	<path class="st0" d="M129.7,82.4V51.8h0.3v14.6h2.1V51.8h0.3v30.6h-0.3V67.6H130v14.8H129.7z"/>
	<path class="st0" d="M136.3,73.9V74c0,0.6,0,1.2,0,1.9s0,1.3-0.1,2s-0.1,1.3-0.1,1.9s-0.1,1.1-0.2,1.5c-0.1,0.5-0.2,0.8-0.4,1.1
		c-0.2,0.3-0.3,0.4-0.6,0.4h0c-0.2,0-0.4-0.1-0.6-0.4c-0.2-0.3-0.3-0.6-0.4-1.1c-0.1-0.5-0.2-1-0.2-1.6c-0.1-0.6-0.1-1.3-0.1-2
		c0-0.7,0-1.4-0.1-2.1s0-1.4,0-2.1V60.9c0-0.7,0-1.5,0-2.2c0-0.7,0-1.5,0.1-2.2s0.1-1.4,0.1-2c0.1-0.6,0.1-1.2,0.2-1.6
		c0.1-0.5,0.2-0.8,0.4-1.1c0.2-0.3,0.3-0.4,0.6-0.4c0.2,0,0.4,0.1,0.6,0.4c0.2,0.3,0.3,0.6,0.4,1.1c0.1,0.5,0.2,1,0.2,1.6
		c0.1,0.6,0.1,1.2,0.1,1.9c0,0.6,0,1.3,0.1,1.9c0,0.7,0,1.3,0,1.8v0.1H136v-0.1c0-1,0-2,0-2.9c0-0.9-0.1-1.7-0.1-2.4
		s-0.2-1.2-0.3-1.6c-0.1-0.4-0.3-0.6-0.6-0.6c-0.2,0-0.4,0.2-0.6,0.6s-0.3,1-0.3,1.7c-0.1,0.7-0.1,1.6-0.1,2.6c0,1,0,2.1,0,3.3v12.2
		c0,0.8,0,1.5,0,2.2c0,0.7,0,1.4,0,2c0,0.6,0.1,1.2,0.1,1.7c0,0.5,0.1,0.9,0.2,1.3c0.1,0.4,0.2,0.6,0.3,0.8s0.3,0.3,0.4,0.3
		c0.2,0,0.4-0.2,0.6-0.6s0.3-0.9,0.3-1.6s0.1-1.5,0.2-2.4c0-0.9,0-1.9,0-3v-0.1H136.3z"/>
	<path class="st0" d="M138.5,71.3l-0.7,11.1h-0.3l0.7-11.3l-1.3-19.2h0.3l1.2,17.2l1.2-17.2h0.3L138.5,71.3z"/>
	<path class="st0" d="M143.4,82.4V53h-2.1v20.5c0,1.8,0,3.3,0,4.4s-0.1,2.1-0.2,2.9s-0.2,1.2-0.3,1.5c-0.2,0.3-0.3,0.4-0.6,0.4v-1.2
		c0.2,0,0.4-0.1,0.5-0.4c0.1-0.3,0.2-0.7,0.3-1.3s0.1-1.5,0.1-2.5c0-1,0-2.3,0-3.8V51.8h2.7v30.6H143.4z"/>
	<path class="st0" d="M147.7,75.5c0,1.3,0,2.4-0.1,3.3s-0.2,1.6-0.3,2.1s-0.3,0.9-0.4,1.2c-0.2,0.2-0.4,0.3-0.6,0.3h-1.3V51.8h0.3
		v12.8h0.9c0.2,0,0.5,0.1,0.6,0.3c0.2,0.2,0.3,0.6,0.5,1.1s0.2,1.2,0.3,2.1c0.1,0.9,0.1,2.1,0.1,3.5V75.5z M147.4,71.6
		c0-1.1,0-2-0.1-2.7c0-0.7-0.1-1.3-0.2-1.8c-0.1-0.5-0.2-0.8-0.4-1c-0.1-0.2-0.3-0.3-0.5-0.3h-0.9v15.4h1c0.2,0,0.4-0.1,0.5-0.4
		c0.1-0.2,0.2-0.6,0.3-1.1c0.1-0.5,0.1-1.1,0.2-1.8s0.1-1.5,0.1-2.4V71.6z"/>
	<path class="st0" d="M150,53v29.4h-0.3V53h-1.3v-1.2h2.9V53H150z"/>
	<path class="st0" d="M154.6,82.4V53h-0.1l-1.8,29.4H152l0-30.6h0.3v29.4h0.1l1.8-29.4h0.6v30.6H154.6z"/>
	<path class="st0" d="M158.7,62.6c0,1.4,0,2.6-0.1,3.5c-0.1,0.9-0.2,1.6-0.3,2.1s-0.3,0.9-0.5,1.1c-0.2,0.2-0.4,0.3-0.6,0.3h-0.9
		v12.8h-0.3V51.8h1.3c0.2,0,0.4,0.1,0.6,0.3c0.2,0.2,0.3,0.6,0.4,1.2s0.2,1.3,0.3,2.1c0.1,0.9,0.1,2,0.1,3.3V62.6z M158.4,58.7
		c0-0.9,0-1.7-0.1-2.4c0-0.7-0.1-1.3-0.2-1.8c-0.1-0.5-0.2-0.8-0.3-1.1s-0.3-0.4-0.5-0.4h-1v15.4h0.9c0.2,0,0.4-0.1,0.5-0.3
		c0.1-0.2,0.3-0.5,0.4-1c0.1-0.5,0.2-1.1,0.2-1.8c0-0.7,0.1-1.7,0.1-2.7V58.7z"/>
	<path class="st0" d="M161,71.3l-0.7,11.1H160l0.7-11.3l-1.3-19.2h0.3l1.2,17.2l1.2-17.2h0.3L161,71.3z"/>
	<path class="st0" d="M165.8,82.4V53h-0.1l-1.8,29.4h-0.6l0-30.6h0.3v29.4h0.1l1.8-29.4h0.6v30.6H165.8z M165.7,46.3
		c0,1.2-0.1,2.2-0.3,2.8s-0.4,1-0.7,1c-0.3,0-0.5-0.3-0.7-1c-0.2-0.7-0.2-1.6-0.3-2.8h0.3c0,0.9,0.1,1.6,0.2,2s0.3,0.7,0.5,0.7
		c0.2,0,0.4-0.2,0.5-0.7c0.1-0.4,0.2-1.1,0.2-2H165.7z"/>
	<path class="st0" d="M168.3,53v29.4H168V53h-1.3v-1.2h2.9V53H168.3z"/>
	<path class="st0" d="M170.3,82.4V51.8l2.4,0V53l-2.1,0v13h1.8v1.2h-1.8v14h2.1v1.2H170.3z"/>
	<path class="st0" d="M176,73.9V74c0,0.6,0,1.2,0,1.9s0,1.3-0.1,2s-0.1,1.3-0.1,1.9s-0.1,1.1-0.2,1.5c-0.1,0.5-0.2,0.8-0.4,1.1
		c-0.2,0.3-0.3,0.4-0.6,0.4h0c-0.2,0-0.4-0.1-0.6-0.4c-0.2-0.3-0.3-0.6-0.4-1.1c-0.1-0.5-0.2-1-0.2-1.6c-0.1-0.6-0.1-1.3-0.1-2
		c0-0.7,0-1.4-0.1-2.1s0-1.4,0-2.1V60.9c0-0.7,0-1.5,0-2.2c0-0.7,0-1.5,0.1-2.2s0.1-1.4,0.1-2c0.1-0.6,0.1-1.2,0.2-1.6
		c0.1-0.5,0.2-0.8,0.4-1.1c0.2-0.3,0.3-0.4,0.6-0.4c0.2,0,0.4,0.1,0.6,0.4c0.2,0.3,0.3,0.6,0.4,1.1c0.1,0.5,0.2,1,0.2,1.6
		c0.1,0.6,0.1,1.2,0.1,1.9c0,0.6,0,1.3,0.1,1.9c0,0.7,0,1.3,0,1.8v0.1h-0.3v-0.1c0-1,0-2,0-2.9c0-0.9-0.1-1.7-0.1-2.4
		s-0.2-1.2-0.3-1.6c-0.1-0.4-0.3-0.6-0.6-0.6c-0.2,0-0.4,0.2-0.6,0.6s-0.3,1-0.3,1.7c-0.1,0.7-0.1,1.6-0.1,2.6c0,1,0,2.1,0,3.3v12.2
		c0,0.8,0,1.5,0,2.2c0,0.7,0,1.4,0,2c0,0.6,0.1,1.2,0.1,1.7c0,0.5,0.1,0.9,0.2,1.3c0.1,0.4,0.2,0.6,0.3,0.8s0.3,0.3,0.4,0.3
		c0.2,0,0.4-0.2,0.6-0.6s0.3-0.9,0.3-1.6s0.1-1.5,0.2-2.4c0-0.9,0-1.9,0-3v-0.1H176z"/>
	<path class="st0" d="M179.7,75.5c0,1.3,0,2.4-0.1,3.3s-0.2,1.6-0.3,2.1s-0.3,0.9-0.4,1.2c-0.2,0.2-0.4,0.3-0.6,0.3h-1.3V51.8h0.3
		v12.8h0.9c0.2,0,0.5,0.1,0.6,0.3c0.2,0.2,0.3,0.6,0.5,1.1s0.2,1.2,0.3,2.1c0.1,0.9,0.1,2.1,0.1,3.5V75.5z M179.4,71.6
		c0-1.1,0-2-0.1-2.7c0-0.7-0.1-1.3-0.2-1.8c-0.1-0.5-0.2-0.8-0.4-1c-0.1-0.2-0.3-0.3-0.5-0.3h-0.9v15.4h1c0.2,0,0.4-0.1,0.5-0.4
		c0.1-0.2,0.2-0.6,0.3-1.1c0.1-0.5,0.1-1.1,0.2-1.8s0.1-1.5,0.1-2.4V71.6z"/>
	<path class="st0" d="M185.3,73.9V74c0,0.6,0,1.2,0,1.9s0,1.3-0.1,2s-0.1,1.3-0.1,1.9s-0.1,1.1-0.2,1.5c-0.1,0.5-0.2,0.8-0.4,1.1
		c-0.2,0.3-0.3,0.4-0.6,0.4h0c-0.2,0-0.4-0.1-0.6-0.4c-0.2-0.3-0.3-0.6-0.4-1.1c-0.1-0.5-0.2-1-0.2-1.6c-0.1-0.6-0.1-1.3-0.1-2
		c0-0.7,0-1.4-0.1-2.1s0-1.4,0-2.1V60.9c0-0.7,0-1.5,0-2.2c0-0.7,0-1.5,0.1-2.2s0.1-1.4,0.1-2c0.1-0.6,0.1-1.2,0.2-1.6
		c0.1-0.5,0.2-0.8,0.4-1.1c0.2-0.3,0.3-0.4,0.6-0.4c0.2,0,0.4,0.1,0.6,0.4c0.2,0.3,0.3,0.6,0.4,1.1c0.1,0.5,0.2,1,0.2,1.6
		c0.1,0.6,0.1,1.2,0.1,1.9c0,0.6,0,1.3,0.1,1.9c0,0.7,0,1.3,0,1.8v0.1h-0.3v-0.1c0-1,0-2,0-2.9c0-0.9-0.1-1.7-0.1-2.4
		s-0.2-1.2-0.3-1.6c-0.1-0.4-0.3-0.6-0.6-0.6c-0.2,0-0.4,0.2-0.6,0.6s-0.3,1-0.3,1.7c-0.1,0.7-0.1,1.6-0.1,2.6c0,1,0,2.1,0,3.3v12.2
		c0,0.8,0,1.5,0,2.2c0,0.7,0,1.4,0,2c0,0.6,0.1,1.2,0.1,1.7c0,0.5,0.1,0.9,0.2,1.3c0.1,0.4,0.2,0.6,0.3,0.8s0.3,0.3,0.4,0.3
		c0.2,0,0.4-0.2,0.6-0.6s0.3-0.9,0.3-1.6s0.1-1.5,0.2-2.4c0-0.9,0-1.9,0-3v-0.1H185.3z"/>
	<path class="st0" d="M187.6,51.5c0.2,0,0.4,0.1,0.6,0.4c0.2,0.3,0.3,0.6,0.4,1.1c0.1,0.5,0.2,1,0.2,1.6s0.1,1.3,0.1,2
		c0,0.7,0,1.4,0.1,2.1c0,0.7,0,1.4,0,2.1v12.3c0,0.7,0,1.5,0,2.2c0,0.7,0,1.5-0.1,2.2c0,0.7-0.1,1.4-0.1,2s-0.1,1.2-0.2,1.6
		s-0.2,0.8-0.4,1.1c-0.2,0.3-0.3,0.4-0.6,0.4h0c-0.2,0-0.4-0.1-0.6-0.4c-0.2-0.3-0.3-0.6-0.4-1.1s-0.2-1-0.2-1.6
		c-0.1-0.6-0.1-1.3-0.1-2c0-0.7,0-1.4-0.1-2.1s0-1.4,0-2.1V60.9c0-0.7,0-1.5,0-2.2c0-0.7,0-1.5,0.1-2.2s0.1-1.4,0.1-2
		c0.1-0.6,0.1-1.2,0.2-1.6c0.1-0.5,0.2-0.8,0.4-1.1C187.1,51.6,187.3,51.5,187.6,51.5L187.6,51.5z M187.6,52.7
		c-0.2,0-0.4,0.2-0.6,0.6s-0.3,1-0.3,1.7c-0.1,0.7-0.1,1.6-0.1,2.6c0,1,0,2.1,0,3.3v12.2c0,0.8,0,1.5,0,2.2c0,0.7,0,1.4,0,2
		c0,0.6,0.1,1.2,0.1,1.7c0,0.5,0.1,0.9,0.2,1.3c0.1,0.4,0.2,0.6,0.3,0.8s0.3,0.3,0.4,0.3h0c0.2,0,0.4-0.2,0.6-0.6s0.3-1,0.3-1.7
		c0.1-0.7,0.1-1.6,0.1-2.6s0-2.1,0-3.3V60.9c0-1.1,0-2.2,0-3.2c0-1-0.1-1.9-0.1-2.6c-0.1-0.8-0.2-1.3-0.3-1.8
		C188,52.9,187.8,52.7,187.6,52.7L187.6,52.7z"/>
	<path class="st0" d="M194.5,73.9V74c0,0.6,0,1.2,0,1.9s0,1.3-0.1,2s-0.1,1.3-0.1,1.9s-0.1,1.1-0.2,1.5c-0.1,0.5-0.2,0.8-0.4,1.1
		c-0.2,0.3-0.3,0.4-0.6,0.4h0c-0.2,0-0.4-0.1-0.6-0.4c-0.2-0.3-0.3-0.6-0.4-1.1c-0.1-0.5-0.2-1-0.2-1.6c-0.1-0.6-0.1-1.3-0.1-2
		c0-0.7,0-1.4-0.1-2.1s0-1.4,0-2.1V60.9c0-0.7,0-1.5,0-2.2c0-0.7,0-1.5,0.1-2.2s0.1-1.4,0.1-2c0.1-0.6,0.1-1.2,0.2-1.6
		c0.1-0.5,0.2-0.8,0.4-1.1c0.2-0.3,0.3-0.4,0.6-0.4c0.2,0,0.4,0.1,0.6,0.4c0.2,0.3,0.3,0.6,0.4,1.1c0.1,0.5,0.2,1,0.2,1.6
		c0.1,0.6,0.1,1.2,0.1,1.9c0,0.6,0,1.3,0.1,1.9c0,0.7,0,1.3,0,1.8v0.1h-0.3v-0.1c0-1,0-2,0-2.9c0-0.9-0.1-1.7-0.1-2.4
		s-0.2-1.2-0.3-1.6c-0.1-0.4-0.3-0.6-0.6-0.6c-0.2,0-0.4,0.2-0.6,0.6s-0.3,1-0.3,1.7c-0.1,0.7-0.1,1.6-0.1,2.6c0,1,0,2.1,0,3.3v12.2
		c0,0.8,0,1.5,0,2.2c0,0.7,0,1.4,0,2c0,0.6,0.1,1.2,0.1,1.7c0,0.5,0.1,0.9,0.2,1.3c0.1,0.4,0.2,0.6,0.3,0.8s0.3,0.3,0.4,0.3
		c0.2,0,0.4-0.2,0.6-0.6s0.3-0.9,0.3-1.6s0.1-1.5,0.2-2.4c0-0.9,0-1.9,0-3v-0.1H194.5z"/>
	<path class="st0" d="M195.5,82.4V51.8h2.7v30.6h-0.3V53h-2.1v29.4H195.5z"/>
	<path class="st0" d="M199.6,82.4V51.8l2.4,0V53l-2.1,0v13h1.8v1.2h-1.8v14h2.1v1.2H199.6z"/>
	<path class="st0" d="M205.5,51.8v29.4h0.5v4.7h-0.3v-3.5h-2.9V51.8h0.3v29.4h2.1V51.8H205.5z"/>
	<path class="st0" d="M209.4,82.4V53h-0.1l-1.8,29.4h-0.6l0-30.6h0.3v29.4h0.1l1.8-29.4h0.6v30.6H209.4z"/>
	<path class="st0" d="M213.3,82.4l-0.4-8.2h-2l-0.4,8.2h-0.3l1.4-30.6h0.5l1.4,30.6H213.3z M211,73h1.9L212,53h-0.1L211,73z"/>
	<path class="st0" d="M217.1,82.4V53H215v20.5c0,1.8,0,3.3,0,4.4s-0.1,2.1-0.2,2.9s-0.2,1.2-0.3,1.5c-0.2,0.3-0.3,0.4-0.6,0.4v-1.2
		c0.2,0,0.4-0.1,0.5-0.4c0.1-0.3,0.2-0.7,0.3-1.3s0.1-1.5,0.1-2.5c0-1,0-2.3,0-3.8V51.8h2.7v30.6H217.1z"/>
	<path class="st0" d="M221.3,82.4V53h-0.1l-1.8,29.4h-0.6l0-30.6h0.3v29.4h0.1l1.8-29.4h0.6v30.6H221.3z"/>
	<path class="st0" d="M225.4,73.9V74c0,0.6,0,1.2,0,1.9s0,1.3-0.1,2s-0.1,1.3-0.1,1.9s-0.1,1.1-0.2,1.5c-0.1,0.5-0.2,0.8-0.4,1.1
		c-0.2,0.3-0.3,0.4-0.6,0.4h0c-0.2,0-0.4-0.1-0.6-0.4c-0.2-0.3-0.3-0.6-0.4-1.1c-0.1-0.5-0.2-1-0.2-1.6c-0.1-0.6-0.1-1.3-0.1-2
		c0-0.7,0-1.4-0.1-2.1s0-1.4,0-2.1V60.9c0-0.7,0-1.5,0-2.2c0-0.7,0-1.5,0.1-2.2s0.1-1.4,0.1-2c0.1-0.6,0.1-1.2,0.2-1.6
		c0.1-0.5,0.2-0.8,0.4-1.1c0.2-0.3,0.3-0.4,0.6-0.4c0.2,0,0.4,0.1,0.6,0.4c0.2,0.3,0.3,0.6,0.4,1.1c0.1,0.5,0.2,1,0.2,1.6
		c0.1,0.6,0.1,1.2,0.1,1.9c0,0.6,0,1.3,0.1,1.9c0,0.7,0,1.3,0,1.8v0.1h-0.3v-0.1c0-1,0-2,0-2.9c0-0.9-0.1-1.7-0.1-2.4
		s-0.2-1.2-0.3-1.6c-0.1-0.4-0.3-0.6-0.6-0.6c-0.2,0-0.4,0.2-0.6,0.6s-0.3,1-0.3,1.7c-0.1,0.7-0.1,1.6-0.1,2.6c0,1,0,2.1,0,3.3v12.2
		c0,0.8,0,1.5,0,2.2c0,0.7,0,1.4,0,2c0,0.6,0.1,1.2,0.1,1.7c0,0.5,0.1,0.9,0.2,1.3c0.1,0.4,0.2,0.6,0.3,0.8s0.3,0.3,0.4,0.3
		c0.2,0,0.4-0.2,0.6-0.6s0.3-0.9,0.3-1.6s0.1-1.5,0.2-2.4c0-0.9,0-1.9,0-3v-0.1H225.4z"/>
	<path class="st0" d="M227.4,53v29.4h-0.3V53h-1.3v-1.2h2.9V53H227.4z"/>
	<path class="st0" d="M230.4,51.5c0.2,0,0.4,0.1,0.6,0.4c0.2,0.3,0.3,0.6,0.4,1.1c0.1,0.5,0.2,1,0.2,1.6s0.1,1.3,0.1,2
		c0,0.7,0,1.4,0.1,2.1c0,0.7,0,1.4,0,2.1v12.3c0,0.7,0,1.5,0,2.2c0,0.7,0,1.5-0.1,2.2c0,0.7-0.1,1.4-0.1,2s-0.1,1.2-0.2,1.6
		s-0.2,0.8-0.4,1.1c-0.2,0.3-0.3,0.4-0.6,0.4h0c-0.2,0-0.4-0.1-0.6-0.4c-0.2-0.3-0.3-0.6-0.4-1.1s-0.2-1-0.2-1.6
		c-0.1-0.6-0.1-1.3-0.1-2c0-0.7,0-1.4-0.1-2.1s0-1.4,0-2.1V60.9c0-0.7,0-1.5,0-2.2c0-0.7,0-1.5,0.1-2.2s0.1-1.4,0.1-2
		c0.1-0.6,0.1-1.2,0.2-1.6c0.1-0.5,0.2-0.8,0.4-1.1C230,51.6,230.2,51.5,230.4,51.5L230.4,51.5z M230.4,52.7c-0.2,0-0.4,0.2-0.6,0.6
		s-0.3,1-0.3,1.7c-0.1,0.7-0.1,1.6-0.1,2.6c0,1,0,2.1,0,3.3v12.2c0,0.8,0,1.5,0,2.2c0,0.7,0,1.4,0,2c0,0.6,0.1,1.2,0.1,1.7
		c0,0.5,0.1,0.9,0.2,1.3c0.1,0.4,0.2,0.6,0.3,0.8s0.3,0.3,0.4,0.3h0c0.2,0,0.4-0.2,0.6-0.6s0.3-1,0.3-1.7c0.1-0.7,0.1-1.6,0.1-2.6
		s0-2.1,0-3.3V60.9c0-1.1,0-2.2,0-3.2c0-1-0.1-1.9-0.1-2.6c-0.1-0.8-0.2-1.3-0.3-1.8C230.9,52.9,230.7,52.7,230.4,52.7L230.4,52.7z"
		/>
	<path class="st0" d="M233.3,53L233.3,53l0,29.4H233V51.8h0.6l1.4,24l1.4-24h0.6v30.6h-0.3V53h-0.1l-1.4,24.2h-0.4L233.3,53z"/>
</g>
</svg>
