<?xml version="1.0" encoding="utf-8"?>
<!-- Generator: Adobe Illustrator 19.1.0, SVG Export Plug-In . SVG Version: 6.00 Build 0)  -->
<svg version="1.1" id="Слой_1" xmlns="http://www.w3.org/2000/svg" xmlns:xlink="http://www.w3.org/1999/xlink" x="0px" y="0px"
	 viewBox="0 0 238 90" style="enable-background:new 0 0 238 90;" xml:space="preserve">
<style type="text/css">
	.st0{fill:#FFFFFF;}
</style>
<g>
	<path class="st0" d="M3.2,44c-0.3-0.1-0.6-0.3-0.9-0.7S2,42.4,1.8,41.7c-0.2-0.6-0.3-1.4-0.4-2.2c-0.1-0.8-0.1-1.7-0.2-2.6
		c0-0.9-0.1-1.9-0.1-2.8c0-1,0-1.9,0-2.8V14.5c0-1,0-2,0-3c0-1,0-2,0.1-2.9c0-1,0.1-1.8,0.2-2.7s0.2-1.6,0.4-2.2
		C2.1,3,2.3,2.5,2.5,2.1c0.3-0.4,0.6-0.5,0.9-0.5h0c0.4,0,0.7,0.2,0.9,0.6C4.7,2.5,4.9,3,5,3.7C5.2,4.3,5.3,5,5.4,5.9
		c0.1,0.9,0.2,1.8,0.2,2.7c0,1,0.1,1.9,0.1,2.9c0,1,0,2,0,2.9v16.8c0,1,0,1.9,0,2.9s0,1.9-0.1,2.8s-0.1,1.8-0.2,2.6
		c-0.1,0.8-0.2,1.6-0.4,2.2c-0.1,0.6-0.3,1.2-0.6,1.6C4.3,43.7,4,43.9,3.7,44v4.5H3.2V44z M3.5,3.2c-0.4,0-0.7,0.3-1,0.8
		C2.3,4.6,2.1,5.4,1.9,6.4c-0.1,1-0.2,2.2-0.2,3.6c0,1.4-0.1,2.9-0.1,4.5v16.7c0,1,0,2,0,3s0,1.8,0.1,2.7c0,0.8,0.1,1.6,0.2,2.3
		c0.1,0.7,0.2,1.3,0.3,1.8c0.1,0.5,0.3,0.9,0.5,1.2s0.4,0.4,0.7,0.4h0c0.4,0,0.7-0.3,1-0.8C4.7,41,4.8,40.2,5,39.2
		c0.1-1,0.2-2.2,0.2-3.6c0-1.4,0.1-2.9,0.1-4.5V14.4c0-1.5,0-3,0-4.3c0-1.4-0.1-2.6-0.2-3.6S4.7,4.7,4.5,4.1S3.9,3.2,3.5,3.2
		L3.5,3.2z"/>
	<path class="st0" d="M11.4,43.7l-0.6-11.2H7.6L7,43.7H6.5L8.8,2h0.9l2.3,41.7H11.4z M7.7,30.9h3L9.3,3.6H9.2L7.7,30.9z"/>
	<path class="st0" d="M13.1,43.7V2h2.1c0.4,0,0.8,0.2,1.1,0.5c0.3,0.4,0.5,1,0.7,1.8c0.2,0.8,0.3,1.9,0.4,3.3s0.1,3,0.1,5v3.8
		c0,1,0,2-0.1,2.9c-0.1,0.9-0.2,1.8-0.3,2.5s-0.3,1.4-0.5,2c-0.2,0.6-0.4,1-0.7,1.3c0.2,0.4,0.4,0.9,0.5,1.4
		c0.1,0.5,0.3,1.1,0.4,1.8c0.1,0.6,0.2,1.4,0.2,2.2c0.1,0.8,0.1,1.7,0.1,2.7l0.2,6.2c0,0.7,0.1,1.5,0.1,2.3c0.1,0.8,0.1,1.5,0.2,2.1
		h-0.5C17.1,43,17,42.3,17,41.6c0-0.7-0.1-1.5-0.1-2.3l-0.2-6.2c0-1.3-0.1-2.4-0.2-3.4c-0.1-1-0.3-1.8-0.4-2.4
		c-0.2-0.6-0.3-1.1-0.5-1.4c-0.2-0.3-0.3-0.5-0.5-0.5h-1.4v18.2H13.1z M16.9,12.6c0-1.4,0-2.6-0.1-3.6s-0.1-1.8-0.2-2.5
		c-0.1-0.7-0.2-1.2-0.3-1.6c-0.1-0.4-0.2-0.7-0.4-0.9c-0.1-0.2-0.3-0.3-0.4-0.4c-0.2-0.1-0.3-0.1-0.5-0.1h-1.6v20.2h1.6
		c0.3,0,0.5-0.2,0.7-0.6c0.2-0.4,0.4-0.9,0.6-1.6c0.2-0.7,0.3-1.5,0.4-2.4s0.1-1.9,0.1-2.9V12.6z"/>
	<path class="st0" d="M23.2,33.3c0,1.6,0,3.1-0.1,4.5c-0.1,1.3-0.2,2.5-0.4,3.4c-0.2,0.9-0.4,1.6-0.7,2.1s-0.6,0.8-1,0.8
		c-0.5,0-0.9-0.3-1.3-0.9c-0.3-0.6-0.5-1.4-0.7-2.3c-0.1-1-0.2-2.1-0.3-3.5c0-1.3-0.1-2.7-0.1-4.2V32h0.5v0.9c0,1.6,0,3,0.1,4.2
		s0.1,2.2,0.3,3s0.3,1.4,0.5,1.7c0.2,0.4,0.5,0.6,0.9,0.6c0.3,0,0.6-0.2,0.8-0.7c0.2-0.4,0.4-1.1,0.5-1.9s0.2-1.8,0.3-2.9
		c0.1-1.1,0.1-2.3,0.1-3.6v-0.3c0-1.2,0-2.2-0.1-3.1c-0.1-0.9-0.2-1.7-0.3-2.4c-0.1-0.7-0.3-1.3-0.4-1.9c-0.2-0.6-0.4-1.1-0.6-1.5
		L20.3,22c-0.2-0.5-0.5-1.1-0.7-1.7c-0.2-0.6-0.3-1.3-0.5-2.2c-0.1-0.8-0.2-1.8-0.3-2.8c-0.1-1.1-0.1-2.3-0.1-3.7v-0.4
		c0-1.4,0-2.7,0.1-3.9c0.1-1.2,0.2-2.2,0.4-3c0.2-0.8,0.4-1.5,0.7-2c0.3-0.5,0.6-0.7,1-0.7c0.4,0,0.7,0.3,1,0.8
		c0.3,0.5,0.5,1.2,0.7,2.1c0.2,0.9,0.3,1.9,0.4,3.1c0.1,1.2,0.1,2.5,0.1,3.8v2.1h-0.5l0-3.2c0-1,0-1.9-0.1-2.8S22.4,6,22.3,5.3
		c-0.1-0.7-0.3-1.2-0.5-1.6c-0.2-0.4-0.5-0.6-0.8-0.6c-0.3,0-0.6,0.2-0.8,0.7S19.7,5,19.6,5.8c-0.1,0.8-0.2,1.7-0.3,2.8
		c-0.1,1-0.1,2.1-0.1,3.3l0,1.1c0,0.9,0,1.7,0.1,2.5c0.1,0.8,0.2,1.5,0.3,2.1s0.3,1.2,0.4,1.8c0.2,0.5,0.4,1,0.6,1.5l1.1,2.3
		c0.5,1,0.8,2.4,1.1,4s0.4,3.7,0.4,6V33.3z"/>
	<path class="st0" d="M24.8,43.7V2h0.5v19.9h3.4V2h0.5v41.7h-0.5V23.5h-3.4v20.2H24.8z"/>
	<path class="st0" d="M31.3,43.7V2h0.5v41.7H31.3z"/>
	<path class="st0" d="M36.8,43.7V2h0.5v19.9h1.2L40.9,2h0.5l-2.5,20.6l2.8,21h-0.5l-2.7-20.2h-1.2v20.2H36.8z"/>
	<path class="st0" d="M44.5,1.6c0.4,0,0.7,0.2,0.9,0.6c0.3,0.4,0.5,0.9,0.6,1.5c0.2,0.6,0.3,1.4,0.4,2.2c0.1,0.9,0.2,1.8,0.2,2.7
		c0,1,0.1,1.9,0.1,2.9c0,1,0,2,0,2.9v16.8c0,1,0,2,0,3c0,1,0,2-0.1,2.9c0,1-0.1,1.8-0.2,2.7s-0.2,1.6-0.4,2.2s-0.4,1.1-0.6,1.5
		c-0.3,0.4-0.6,0.5-0.9,0.5h0c-0.4,0-0.7-0.2-0.9-0.6c-0.3-0.4-0.5-0.9-0.6-1.5s-0.3-1.4-0.4-2.2c-0.1-0.9-0.2-1.8-0.2-2.7
		c0-1-0.1-1.9-0.1-2.9c0-1,0-2,0-2.9V14.5c0-1,0-2,0-3c0-1,0-2,0.1-2.9c0-1,0.1-1.8,0.2-2.7s0.2-1.6,0.4-2.2
		c0.2-0.6,0.4-1.1,0.6-1.5C43.8,1.8,44.1,1.6,44.5,1.6L44.5,1.6z M44.5,3.2c-0.4,0-0.7,0.3-1,0.8c-0.2,0.6-0.4,1.4-0.5,2.4
		c-0.1,1-0.2,2.2-0.2,3.6c0,1.4-0.1,2.9-0.1,4.5v16.7c0,1,0,2,0,3c0,1,0,1.8,0.1,2.7c0,0.8,0.1,1.6,0.2,2.3c0.1,0.7,0.2,1.3,0.3,1.8
		c0.1,0.5,0.3,0.9,0.5,1.2s0.4,0.4,0.7,0.4h0c0.4,0,0.7-0.3,1-0.9c0.2-0.6,0.4-1.4,0.5-2.4c0.1-1,0.2-2.2,0.2-3.6
		c0-1.4,0.1-2.9,0.1-4.5V14.5c0-1.5,0-3,0-4.3c0-1.4-0.1-2.6-0.2-3.6c-0.1-1-0.3-1.8-0.5-2.4C45.3,3.5,44.9,3.2,44.5,3.2L44.5,3.2z"
		/>
	<path class="st0" d="M48.5,11.9l0-10H49l0,10H48.5z"/>
	<path class="st0" d="M51,43.7V2h2.1c0.4,0,0.8,0.2,1.1,0.5s0.5,1,0.7,1.8c0.2,0.8,0.3,1.9,0.4,3.3s0.1,3,0.1,5v3.8c0,1,0,2-0.1,2.9
		c-0.1,0.9-0.2,1.8-0.3,2.5s-0.3,1.4-0.5,2c-0.2,0.6-0.4,1-0.7,1.3c0.2,0.4,0.4,0.9,0.5,1.4c0.1,0.5,0.3,1.1,0.4,1.8
		c0.1,0.6,0.2,1.4,0.2,2.2c0.1,0.8,0.1,1.7,0.1,2.7l0.2,6.2c0,0.7,0.1,1.5,0.1,2.3c0.1,0.8,0.1,1.5,0.2,2.1H55
		c-0.1-0.7-0.1-1.4-0.2-2.1c0-0.7-0.1-1.5-0.1-2.3l-0.2-6.2c0-1.3-0.1-2.4-0.2-3.4c-0.1-1-0.3-1.8-0.4-2.4c-0.2-0.6-0.3-1.1-0.5-1.4
		c-0.2-0.3-0.3-0.5-0.5-0.5h-1.4v18.2H51z M54.8,12.6c0-1.4,0-2.6-0.1-3.6s-0.1-1.8-0.2-2.5c-0.1-0.7-0.2-1.2-0.3-1.6
		c-0.1-0.4-0.2-0.7-0.4-0.9c-0.1-0.2-0.3-0.3-0.4-0.4c-0.2-0.1-0.3-0.1-0.5-0.1h-1.6v20.2H53c0.3,0,0.5-0.2,0.7-0.6
		c0.2-0.4,0.4-0.9,0.6-1.6c0.2-0.7,0.3-1.5,0.4-2.4s0.1-1.9,0.1-2.9V12.6z"/>
	<path class="st0" d="M61.1,33.3c0,1.6,0,3.1-0.1,4.5c-0.1,1.3-0.2,2.5-0.4,3.4c-0.2,0.9-0.4,1.6-0.7,2.1s-0.6,0.8-1,0.8
		c-0.5,0-0.9-0.3-1.3-0.9c-0.3-0.6-0.5-1.4-0.7-2.3c-0.1-1-0.2-2.1-0.3-3.5c0-1.3-0.1-2.7-0.1-4.2V32h0.5v0.9c0,1.6,0,3,0.1,4.2
		s0.1,2.2,0.3,3s0.3,1.4,0.5,1.7c0.2,0.4,0.5,0.6,0.9,0.6c0.3,0,0.6-0.2,0.8-0.7c0.2-0.4,0.4-1.1,0.5-1.9s0.2-1.8,0.3-2.9
		c0.1-1.1,0.1-2.3,0.1-3.6v-0.3c0-1.2,0-2.2-0.1-3.1c-0.1-0.9-0.2-1.7-0.3-2.4c-0.1-0.7-0.3-1.3-0.4-1.9c-0.2-0.6-0.4-1.1-0.6-1.5
		L58.2,22c-0.2-0.5-0.5-1.1-0.7-1.7c-0.2-0.6-0.3-1.3-0.5-2.2c-0.1-0.8-0.2-1.8-0.3-2.8c-0.1-1.1-0.1-2.3-0.1-3.7v-0.4
		c0-1.4,0-2.7,0.1-3.9c0.1-1.2,0.2-2.2,0.4-3c0.2-0.8,0.4-1.5,0.7-2c0.3-0.5,0.6-0.7,1-0.7c0.4,0,0.7,0.3,1,0.8
		c0.3,0.5,0.5,1.2,0.7,2.1c0.2,0.9,0.3,1.9,0.4,3.1c0.1,1.2,0.1,2.5,0.1,3.8v2.1h-0.5l0-3.2c0-1,0-1.9-0.1-2.8S60.3,6,60.2,5.3
		c-0.1-0.7-0.3-1.2-0.5-1.6c-0.2-0.4-0.5-0.6-0.8-0.6c-0.3,0-0.6,0.2-0.8,0.7S57.6,5,57.5,5.8c-0.1,0.8-0.2,1.7-0.3,2.8
		c-0.1,1-0.1,2.1-0.1,3.3l0,1.1c0,0.9,0,1.7,0.1,2.5c0.1,0.8,0.2,1.5,0.3,2.1s0.3,1.2,0.4,1.8c0.2,0.5,0.4,1,0.6,1.5l1.1,2.3
		c0.5,1,0.8,2.4,1.1,4s0.4,3.7,0.4,6V33.3z"/>
	<path class="st0" d="M66.5,43.7l-0.6-11.2h-3.2l-0.6,11.2h-0.5L63.9,2h0.9L67,43.7H66.5z M62.8,30.9h3L64.3,3.6h-0.1L62.8,30.9z"/>
	<path class="st0" d="M69,3.6v40h-0.5v-40h-2.1V2h4.7v1.6H69z"/>
	<path class="st0" d="M72.9,3.6L72.9,3.6l-0.1,40.1h-0.5V2h0.9l2.2,32.7L77.7,2h0.9v41.7h-0.5V3.6h-0.1l-2.3,33h-0.7L72.9,3.6z"/>
	<path class="st0" d="M84.6,43.7L84,32.5h-3.2l-0.6,11.2h-0.5L82,2h0.9l2.3,41.7H84.6z M80.9,30.9h3L82.5,3.6h-0.1L80.9,30.9z"/>
	<path class="st0" d="M86.3,43.7V2h0.5v40H90v1.7H86.3z"/>
	<path class="st0" d="M95.1,43.7l-0.6-11.2h-3.2l-0.6,11.2h-0.5L92.4,2h0.9l2.3,41.7H95.1z M91.3,30.9h3L92.9,3.6h-0.1L91.3,30.9z"
		/>
	<path class="st0" d="M96.7,43.7V2h2.1c0.4,0,0.8,0.2,1.1,0.5s0.5,1,0.7,1.8c0.2,0.8,0.3,1.9,0.4,3.3s0.1,3,0.1,5v3.8
		c0,1,0,2-0.1,2.9c-0.1,0.9-0.2,1.8-0.3,2.5s-0.3,1.4-0.5,2c-0.2,0.6-0.4,1-0.7,1.3c0.2,0.4,0.4,0.9,0.5,1.4
		c0.1,0.5,0.3,1.1,0.4,1.8c0.1,0.6,0.2,1.4,0.2,2.2c0.1,0.8,0.1,1.7,0.1,2.7l0.2,6.2c0,0.7,0.1,1.5,0.1,2.3c0.1,0.8,0.1,1.5,0.2,2.1
		h-0.5c-0.1-0.7-0.1-1.4-0.2-2.1c0-0.7-0.1-1.5-0.1-2.3l-0.2-6.2c0-1.3-0.1-2.4-0.2-3.4c-0.1-1-0.3-1.8-0.4-2.4
		c-0.2-0.6-0.3-1.1-0.5-1.4c-0.2-0.3-0.3-0.5-0.5-0.5h-1.4v18.2H96.7z M100.6,12.6c0-1.4,0-2.6-0.1-3.6s-0.1-1.8-0.2-2.5
		c-0.1-0.7-0.2-1.2-0.3-1.6c-0.1-0.4-0.2-0.7-0.4-0.9c-0.1-0.2-0.3-0.3-0.4-0.4c-0.2-0.1-0.3-0.1-0.5-0.1h-1.6v20.2h1.6
		c0.3,0,0.5-0.2,0.7-0.6c0.2-0.4,0.4-0.9,0.6-1.6c0.2-0.7,0.3-1.5,0.4-2.4s0.1-1.9,0.1-2.9V12.6z"/>
	<path class="st0" d="M106.4,3.6L106.4,3.6l-0.1,40.1h-0.5V2h0.9l2.2,32.7L111.2,2h0.9v41.7h-0.5V3.6h-0.1l-2.3,33h-0.7L106.4,3.6z"
		/>
	<path class="st0" d="M118.1,43.7l-0.6-11.2h-3.2l-0.6,11.2h-0.5L115.5,2h0.9l2.3,41.7H118.1z M114.4,30.9h3l-1.5-27.3h-0.1
		L114.4,30.9z"/>
	<path class="st0" d="M124.3,2L122,43.7h-0.9L118.8,2h0.5l2.2,40.1h0.1L123.8,2H124.3z"/>
	<path class="st0" d="M125.3,2h2.4v31.2c0,1,0,2,0,2.9c0,0.9,0,1.8-0.1,2.6c0,0.8-0.1,1.5-0.2,2.2c-0.1,0.6-0.2,1.2-0.3,1.7
		c-0.1,0.5-0.3,0.8-0.6,1.1S126,44,125.7,44c-0.2,0-0.3,0-0.4-0.1c-0.1,0-0.2-0.1-0.3-0.2c-0.1-0.1-0.2-0.2-0.3-0.4
		c-0.1-0.2-0.2-0.4-0.2-0.6l0.2-1.4c0.1,0.3,0.3,0.6,0.4,0.8c0.1,0.2,0.3,0.2,0.6,0.2h0c0.3,0,0.5-0.1,0.7-0.4
		c0.2-0.2,0.3-0.7,0.5-1.4c0.1-0.7,0.2-1.7,0.2-2.9s0.1-2.9,0.1-4.9V3.6h-1.9V2z"/>
	<path class="st0" d="M134.1,2v31.2c0,1.5,0,2.9-0.1,4.3c0,1.3-0.1,2.5-0.3,3.4c-0.2,1-0.4,1.7-0.7,2.3s-0.7,0.8-1.2,0.8
		s-0.9-0.3-1.2-0.8c-0.3-0.6-0.5-1.3-0.7-2.3c-0.2-1-0.2-2.1-0.3-3.4c0-1.3-0.1-2.7-0.1-4.3V2h0.5v30.9c0,1.5,0,2.8,0,4
		c0,1.2,0.1,2.2,0.2,3c0.1,0.8,0.3,1.5,0.5,1.9c0.2,0.4,0.6,0.7,1,0.7s0.8-0.2,1-0.7c0.2-0.4,0.4-1.1,0.5-1.9c0.1-0.8,0.2-1.8,0.2-3
		s0-2.5,0-4V2H134.1z"/>
	<path class="st0" d="M138.2,2c0.3,0,0.6,0.2,0.9,0.5c0.2,0.3,0.5,0.8,0.6,1.4c0.2,0.6,0.3,1.3,0.4,2.1s0.2,1.7,0.2,2.6
		c0.1,0.9,0.1,1.9,0.1,2.9s0,2,0,3v16.6c0,1,0,2,0,3s0,2-0.1,2.9c0,0.9-0.1,1.8-0.2,2.6c-0.1,0.8-0.2,1.5-0.4,2.1
		c-0.2,0.6-0.4,1.1-0.6,1.4c-0.3,0.3-0.5,0.5-0.9,0.5h-2.1V2H138.2z M136.5,42h1.7c0.3,0,0.6-0.2,0.8-0.6c0.2-0.4,0.4-1,0.6-1.9
		s0.3-2,0.3-3.4c0.1-1.4,0.1-3.1,0.1-5.1V14.6c0-2,0-3.6-0.1-5c-0.1-1.4-0.2-2.5-0.3-3.4c-0.1-0.9-0.3-1.5-0.5-1.9
		c-0.2-0.4-0.5-0.6-0.8-0.7h-1.8V42z"/>
	<path class="st0" d="M142.1,42.7c0-0.5,0-0.8,0.1-1.1s0.1-0.4,0.3-0.4c0.2,0,0.3,0.1,0.3,0.4c0.1,0.3,0.1,0.6,0.1,1.1
		c0,0.4,0,0.7-0.1,1c0,0.3-0.2,0.4-0.3,0.4c-0.1,0-0.2-0.1-0.3-0.4S142.1,43.1,142.1,42.7z"/>
	<path class="st0" d="M149.6,44c-0.3-0.1-0.6-0.3-0.9-0.7s-0.4-0.9-0.6-1.6c-0.2-0.6-0.3-1.4-0.4-2.2c-0.1-0.8-0.1-1.7-0.2-2.6
		c0-0.9-0.1-1.9-0.1-2.8c0-1,0-1.9,0-2.8V14.5c0-1,0-2,0-3c0-1,0-2,0.1-2.9c0-1,0.1-1.8,0.2-2.7s0.2-1.6,0.4-2.2
		c0.2-0.6,0.4-1.1,0.6-1.5c0.3-0.4,0.6-0.5,0.9-0.5h0c0.4,0,0.7,0.2,0.9,0.6c0.3,0.4,0.5,0.9,0.6,1.5c0.2,0.6,0.3,1.4,0.4,2.2
		c0.1,0.9,0.2,1.8,0.2,2.7c0,1,0.1,1.9,0.1,2.9c0,1,0,2,0,2.9v16.8c0,1,0,1.9,0,2.9s0,1.9-0.1,2.8s-0.1,1.8-0.2,2.6
		c-0.1,0.8-0.2,1.6-0.4,2.2c-0.1,0.6-0.3,1.2-0.6,1.6c-0.2,0.4-0.5,0.6-0.8,0.7v4.5h-0.5V44z M149.8,3.2c-0.4,0-0.7,0.3-1,0.8
		c-0.2,0.6-0.4,1.4-0.5,2.4c-0.1,1-0.2,2.2-0.2,3.6c0,1.4-0.1,2.9-0.1,4.5v16.7c0,1,0,2,0,3s0,1.8,0.1,2.7c0,0.8,0.1,1.6,0.2,2.3
		s0.2,1.3,0.3,1.8c0.1,0.5,0.3,0.9,0.5,1.2s0.4,0.4,0.7,0.4h0c0.4,0,0.7-0.3,1-0.8c0.2-0.6,0.4-1.4,0.5-2.4c0.1-1,0.2-2.2,0.2-3.6
		c0-1.4,0.1-2.9,0.1-4.5V14.4c0-1.5,0-3,0-4.3c0-1.4-0.1-2.6-0.2-3.6s-0.3-1.8-0.5-2.4S150.2,3.2,149.8,3.2L149.8,3.2z"/>
	<path class="st0" d="M155.9,1.6c0.4,0,0.7,0.2,0.9,0.6c0.3,0.4,0.5,0.9,0.6,1.5c0.2,0.6,0.3,1.4,0.4,2.2c0.1,0.9,0.2,1.8,0.2,2.7
		c0,1,0.1,1.9,0.1,2.9c0,1,0,2,0,2.9v16.8c0,1,0,2,0,3c0,1,0,2-0.1,2.9c0,1-0.1,1.8-0.2,2.7s-0.2,1.6-0.4,2.2s-0.4,1.1-0.6,1.5
		c-0.3,0.4-0.6,0.5-0.9,0.5h0c-0.4,0-0.7-0.2-0.9-0.6c-0.3-0.4-0.5-0.9-0.6-1.5s-0.3-1.4-0.4-2.2c-0.1-0.9-0.2-1.8-0.2-2.7
		c0-1-0.1-1.9-0.1-2.9c0-1,0-2,0-2.9V14.5c0-1,0-2,0-3c0-1,0-2,0.1-2.9c0-1,0.1-1.8,0.2-2.7s0.2-1.6,0.4-2.2
		c0.2-0.6,0.4-1.1,0.6-1.5C155.2,1.8,155.5,1.6,155.9,1.6L155.9,1.6z M155.8,3.2c-0.4,0-0.7,0.3-1,0.8c-0.2,0.6-0.4,1.4-0.5,2.4
		c-0.1,1-0.2,2.2-0.2,3.6c0,1.4-0.1,2.9-0.1,4.5v16.7c0,1,0,2,0,3c0,1,0,1.8,0.1,2.7c0,0.8,0.1,1.6,0.2,2.3c0.1,0.7,0.2,1.3,0.3,1.8
		c0.1,0.5,0.3,0.9,0.5,1.2s0.4,0.4,0.7,0.4h0c0.4,0,0.7-0.3,1-0.9c0.2-0.6,0.4-1.4,0.5-2.4c0.1-1,0.2-2.2,0.2-3.6
		c0-1.4,0.1-2.9,0.1-4.5V14.5c0-1.5,0-3,0-4.3c0-1.4-0.1-2.6-0.2-3.6c-0.1-1-0.3-1.8-0.5-2.4C156.6,3.5,156.3,3.2,155.8,3.2
		L155.8,3.2z"/>
	<path class="st0" d="M159.8,11.9l0-10h0.5l0,10H159.8z"/>
	<path class="st0" d="M162.3,43.7V2h0.5v40h3.3v1.7H162.3z"/>
	<path class="st0" d="M167.2,43.7V2h0.5v40h3.3v1.7H167.2z"/>
	<path class="st0" d="M176,43.7l-0.6-11.2h-3.2l-0.6,11.2h-0.5L173.4,2h0.9l2.3,41.7H176z M172.3,30.9h3l-1.5-27.3h-0.1L172.3,30.9z
		"/>
	<path class="st0" d="M181.6,33.3c0,1.6,0,3.1-0.1,4.5c-0.1,1.3-0.2,2.5-0.4,3.4c-0.2,0.9-0.4,1.6-0.7,2.1s-0.6,0.8-1,0.8
		c-0.5,0-0.9-0.3-1.3-0.9c-0.3-0.6-0.5-1.4-0.7-2.3c-0.1-1-0.2-2.1-0.3-3.5c0-1.3-0.1-2.7-0.1-4.2V32h0.5v0.9c0,1.6,0,3,0.1,4.2
		s0.1,2.2,0.3,3s0.3,1.4,0.5,1.7c0.2,0.4,0.5,0.6,0.9,0.6c0.3,0,0.6-0.2,0.8-0.7c0.2-0.4,0.4-1.1,0.5-1.9s0.2-1.8,0.3-2.9
		c0.1-1.1,0.1-2.3,0.1-3.6v-0.3c0-1.2,0-2.2-0.1-3.1c-0.1-0.9-0.2-1.7-0.3-2.4c-0.1-0.7-0.3-1.3-0.4-1.9c-0.2-0.6-0.4-1.1-0.6-1.5
		l-1.1-2.2c-0.2-0.5-0.5-1.1-0.7-1.7c-0.2-0.6-0.3-1.3-0.5-2.2c-0.1-0.8-0.2-1.8-0.3-2.8c-0.1-1.1-0.1-2.3-0.1-3.7v-0.4
		c0-1.4,0-2.7,0.1-3.9c0.1-1.2,0.2-2.2,0.4-3c0.2-0.8,0.4-1.5,0.7-2c0.3-0.5,0.6-0.7,1-0.7c0.4,0,0.7,0.3,1,0.8
		c0.3,0.5,0.5,1.2,0.7,2.1c0.2,0.9,0.3,1.9,0.4,3.1c0.1,1.2,0.1,2.5,0.1,3.8v2.1h-0.5l0-3.2c0-1,0-1.9-0.1-2.8s-0.2-1.6-0.3-2.3
		c-0.1-0.7-0.3-1.2-0.5-1.6c-0.2-0.4-0.5-0.6-0.8-0.6c-0.3,0-0.6,0.2-0.8,0.7S178.1,5,178,5.8c-0.1,0.8-0.2,1.7-0.3,2.8
		c-0.1,1-0.1,2.1-0.1,3.3l0,1.1c0,0.9,0,1.7,0.1,2.5c0.1,0.8,0.2,1.5,0.3,2.1s0.3,1.2,0.4,1.8c0.2,0.5,0.4,1,0.6,1.5l1.1,2.3
		c0.5,1,0.8,2.4,1.1,4s0.4,3.7,0.4,6V33.3z"/>
	<path class="st0" d="M183.2,43.7V2h0.5v19.9h3.4V2h0.5v41.7h-0.5V23.5h-3.4v20.2H183.2z"/>
	<path class="st0" d="M191.8,2c0.3,0,0.6,0.2,0.9,0.5c0.2,0.3,0.5,0.8,0.6,1.4c0.2,0.6,0.3,1.3,0.4,2.1s0.2,1.7,0.2,2.6
		c0.1,0.9,0.1,1.9,0.1,2.9s0,2,0,3v16.6c0,1,0,2,0,3s0,2-0.1,2.9c0,0.9-0.1,1.8-0.2,2.6c-0.1,0.8-0.2,1.5-0.4,2.1
		c-0.2,0.6-0.4,1.1-0.6,1.4c-0.3,0.3-0.5,0.5-0.9,0.5h-2.1V2H191.8z M190.2,42h1.7c0.3,0,0.6-0.2,0.8-0.6c0.2-0.4,0.4-1,0.6-1.9
		s0.3-2,0.3-3.4c0.1-1.4,0.1-3.1,0.1-5.1V14.6c0-2,0-3.6-0.1-5c-0.1-1.4-0.2-2.5-0.3-3.4c-0.1-0.9-0.3-1.5-0.5-1.9
		c-0.2-0.4-0.5-0.6-0.8-0.7h-1.8V42z"/>
	<path class="st0" d="M199.7,43.7l-0.6-11.2h-3.2l-0.6,11.2h-0.5L197.1,2h0.9l2.3,41.7H199.7z M196,30.9h3l-1.5-27.3h-0.1L196,30.9z
		"/>
	<path class="st0" d="M201.4,43.7V2h1l2.9,40.1h0.2V2h0.5l0.1,41.7h-1l-3-40.1h-0.1v40.1H201.4z"/>
	<path class="st0" d="M214.7,43.7l-0.6-11.2h-3.2l-0.6,11.2h-0.5L212,2h0.9l2.3,41.7H214.7z M211,30.9h3l-1.5-27.3h-0.1L211,30.9z"
		/>
	<path class="st0" d="M220.9,2l-2.3,41.7h-0.9L215.4,2h0.5l2.2,40.1h0.1L220.4,2H220.9z"/>
	<path class="st0" d="M226.7,2l-2.3,41.7h-0.9L221.2,2h0.5l2.2,40.1h0.1L226.2,2H226.7z"/>
	<path class="st0" d="M231.8,43.7l-0.6-11.2H228l-0.6,11.2h-0.5L229.2,2h0.9l2.3,41.7H231.8z M228.1,30.9h3l-1.5-27.3h-0.1
		L228.1,30.9z"/>
	<path class="st0" d="M233.4,43.7V2h0.5v40h3.3v1.7H233.4z"/>
	<path class="st0" d="M2.4,71.8v13.3H2V71.8L0.4,53.2h0.4l1.4,16.5l1.4-16.5H4L2.4,71.8z"/>
	<path class="st0" d="M6.2,52.8c0.3,0,0.5,0.1,0.7,0.4s0.3,0.7,0.5,1.2c0.1,0.5,0.2,1.1,0.3,1.7c0.1,0.7,0.1,1.3,0.2,2.1
		s0.1,1.5,0.1,2.2s0,1.5,0,2.2v12.9c0,0.8,0,1.5,0,2.3c0,0.8,0,1.5-0.1,2.3s-0.1,1.4-0.2,2.1c-0.1,0.6-0.2,1.2-0.3,1.7
		S7,84.7,6.9,84.9c-0.2,0.3-0.4,0.4-0.7,0.4h0c-0.3,0-0.5-0.1-0.7-0.4S5.2,84.3,5,83.8s-0.2-1.1-0.3-1.7c-0.1-0.7-0.1-1.3-0.2-2.1
		c0-0.7-0.1-1.5-0.1-2.2c0-0.8,0-1.5,0-2.2V62.7c0-0.8,0-1.5,0-2.3c0-0.8,0-1.5,0.1-2.3c0-0.7,0.1-1.4,0.2-2.1
		c0.1-0.6,0.2-1.2,0.3-1.7c0.1-0.5,0.3-0.9,0.5-1.1C5.7,53,5.9,52.8,6.2,52.8L6.2,52.8z M6.2,54.1c-0.3,0-0.5,0.2-0.7,0.7
		c-0.2,0.4-0.3,1-0.4,1.8s-0.1,1.7-0.2,2.7c0,1.1,0,2.2,0,3.5v12.8c0,0.8,0,1.5,0,2.3c0,0.7,0,1.4,0.1,2C5,80.5,5,81,5.1,81.6
		s0.1,1,0.2,1.4c0.1,0.4,0.2,0.7,0.4,0.9s0.3,0.3,0.5,0.3h0c0.3,0,0.5-0.2,0.7-0.7c0.2-0.4,0.3-1,0.4-1.8s0.1-1.7,0.2-2.7
		c0-1.1,0-2.2,0-3.5V62.7c0-1.2,0-2.3,0-3.3c0-1-0.1-2-0.2-2.7c-0.1-0.8-0.2-1.4-0.4-1.9C6.7,54.3,6.5,54.1,6.2,54.1L6.2,54.1z"/>
	<path class="st0" d="M9.1,60.8l0-7.6h0.4l0,7.6H9.1z"/>
	<path class="st0" d="M10.9,85.1V53.2h1.5c0.3,0,0.6,0.1,0.8,0.4s0.4,0.7,0.5,1.4c0.1,0.6,0.2,1.5,0.3,2.5s0.1,2.3,0.1,3.8v2.9
		c0,0.8,0,1.6-0.1,2.3s-0.1,1.4-0.2,1.9c-0.1,0.6-0.2,1.1-0.4,1.5s-0.3,0.8-0.5,1c0.1,0.3,0.3,0.7,0.4,1.1c0.1,0.4,0.2,0.8,0.3,1.3
		s0.1,1.1,0.2,1.7c0,0.6,0.1,1.3,0.1,2.1l0.2,4.7c0,0.6,0,1.2,0.1,1.7s0.1,1.1,0.1,1.6h-0.4c-0.1-0.5-0.1-1-0.1-1.6
		c0-0.5-0.1-1.1-0.1-1.7L13.5,77c0-1-0.1-1.9-0.2-2.6s-0.2-1.3-0.3-1.8c-0.1-0.5-0.2-0.8-0.4-1.1c-0.1-0.2-0.3-0.4-0.4-0.4h-1v13.9
		H10.9z M13.7,61.3c0-1.1,0-2,0-2.7s-0.1-1.4-0.1-1.9s-0.1-0.9-0.2-1.2c-0.1-0.3-0.2-0.5-0.3-0.7c-0.1-0.2-0.2-0.3-0.3-0.3
		s-0.2-0.1-0.3-0.1h-1.2v15.5h1.1c0.2,0,0.4-0.2,0.5-0.5c0.2-0.3,0.3-0.7,0.4-1.2c0.1-0.5,0.2-1.1,0.3-1.8c0.1-0.7,0.1-1.5,0.1-2.3
		V61.3z"/>
	<path class="st0" d="M15.4,85.1V53.1h0.3v31.9H15.4z"/>
	<path class="st0" d="M18.6,85.3c-0.2-0.1-0.5-0.2-0.6-0.6c-0.2-0.3-0.3-0.7-0.4-1.2c-0.1-0.5-0.2-1.1-0.3-1.7
		c-0.1-0.6-0.1-1.3-0.1-2c0-0.7,0-1.4-0.1-2.2c0-0.7,0-1.5,0-2.2V62.7c0-0.8,0-1.5,0-2.3c0-0.8,0-1.5,0.1-2.3c0-0.7,0.1-1.4,0.2-2.1
		c0.1-0.6,0.2-1.2,0.3-1.7c0.1-0.5,0.3-0.9,0.5-1.1c0.2-0.3,0.4-0.4,0.7-0.4h0c0.3,0,0.5,0.1,0.7,0.4s0.3,0.7,0.5,1.2
		c0.1,0.5,0.2,1.1,0.3,1.7c0.1,0.7,0.1,1.3,0.2,2.1s0.1,1.5,0.1,2.2s0,1.5,0,2.2v12.9c0,0.7,0,1.5,0,2.2c0,0.7,0,1.5-0.1,2.2
		c0,0.7-0.1,1.4-0.1,2c-0.1,0.6-0.1,1.2-0.3,1.7c-0.1,0.5-0.2,0.9-0.4,1.2c-0.2,0.3-0.4,0.5-0.6,0.5v3.4h-0.3V85.3z M18.8,54.1
		c-0.3,0-0.5,0.2-0.7,0.7c-0.2,0.4-0.3,1-0.4,1.8c-0.1,0.8-0.1,1.7-0.2,2.7c0,1.1,0,2.2,0,3.5v12.8c0,0.8,0,1.5,0,2.3
		c0,0.7,0,1.4,0.1,2c0,0.6,0.1,1.2,0.1,1.7c0.1,0.5,0.1,1,0.2,1.4c0.1,0.4,0.2,0.7,0.4,0.9s0.3,0.3,0.5,0.3h0c0.3,0,0.5-0.2,0.7-0.7
		c0.2-0.4,0.3-1,0.4-1.8C20,80.9,20,80,20,78.9c0-1.1,0-2.2,0-3.5V62.7c0-1.2,0-2.3,0-3.3c0-1-0.1-2-0.2-2.7
		c-0.1-0.8-0.2-1.4-0.4-1.9C19.3,54.3,19.1,54.1,18.8,54.1L18.8,54.1z"/>
	<path class="st0" d="M21.7,85.1V53.1h0.7l2.1,30.7h0.1V53.1h0.3l0,31.9h-0.8l-2.2-30.7h-0.1v30.7H21.7z"/>
	<path class="st0" d="M27.9,52.8c0.3,0,0.5,0.1,0.7,0.4s0.3,0.7,0.5,1.2c0.1,0.5,0.2,1.1,0.3,1.7c0.1,0.7,0.1,1.3,0.2,2.1
		s0.1,1.5,0.1,2.2s0,1.5,0,2.2v12.9c0,0.8,0,1.5,0,2.3c0,0.8,0,1.5-0.1,2.3s-0.1,1.4-0.2,2.1c-0.1,0.6-0.2,1.2-0.3,1.7
		s-0.3,0.9-0.5,1.1c-0.2,0.3-0.4,0.4-0.7,0.4h0c-0.3,0-0.5-0.1-0.7-0.4s-0.3-0.7-0.5-1.2s-0.2-1.1-0.3-1.7c-0.1-0.7-0.1-1.3-0.2-2.1
		c0-0.7-0.1-1.5-0.1-2.2c0-0.8,0-1.5,0-2.2V62.7c0-0.8,0-1.5,0-2.3c0-0.8,0-1.5,0.1-2.3c0-0.7,0.1-1.4,0.2-2.1
		c0.1-0.6,0.2-1.2,0.3-1.7c0.1-0.5,0.3-0.9,0.5-1.1C27.4,53,27.7,52.8,27.9,52.8L27.9,52.8z M27.9,54.1c-0.3,0-0.5,0.2-0.7,0.7
		c-0.2,0.4-0.3,1-0.4,1.8s-0.1,1.7-0.2,2.7c0,1.1,0,2.2,0,3.5v12.8c0,0.8,0,1.5,0,2.3c0,0.7,0,1.4,0.1,2c0,0.6,0.1,1.2,0.1,1.7
		s0.1,1,0.2,1.4c0.1,0.4,0.2,0.7,0.4,0.9s0.3,0.3,0.5,0.3h0c0.3,0,0.5-0.2,0.7-0.7c0.2-0.4,0.3-1,0.4-1.8s0.1-1.7,0.2-2.7
		c0-1.1,0-2.2,0-3.5V62.7c0-1.2,0-2.3,0-3.3c0-1-0.1-2-0.2-2.7c-0.1-0.8-0.2-1.4-0.4-1.9C28.5,54.3,28.2,54.1,27.9,54.1L27.9,54.1z"
		/>
	<path class="st0" d="M31.3,54.4L31.3,54.4l-0.1,30.7h-0.3V53.1h0.7l1.6,25.1l1.6-25.1h0.7v31.9h-0.3V54.4h-0.1l-1.6,25.3H33
		L31.3,54.4z"/>
	<path class="st0" d="M39.9,85.1l-0.4-8.6h-2.3l-0.4,8.6h-0.4l1.6-31.9h0.6l1.6,31.9H39.9z M37.1,75.3h2.2l-1.1-20.9h-0.1L37.1,75.3
		z"/>
	<path class="st0" d="M46.3,76.9c0,1.5,0,2.8-0.1,3.8s-0.2,1.9-0.3,2.5c-0.1,0.6-0.3,1.1-0.5,1.4S45,85,44.7,85h-1.5V53.1h1.5
		c0.2,0,0.4,0.1,0.6,0.3c0.2,0.2,0.3,0.6,0.5,1.2c0.1,0.5,0.2,1.3,0.3,2.1c0.1,0.9,0.1,2,0.1,3.3v2.1c0,0.8,0,1.5,0,2.2
		s-0.1,1.3-0.2,1.9c-0.1,0.6-0.2,1-0.3,1.4c-0.1,0.4-0.3,0.7-0.4,0.8c0.2,0.1,0.3,0.4,0.5,0.8c0.1,0.4,0.3,0.8,0.3,1.4
		c0.1,0.6,0.2,1.2,0.2,1.9s0.1,1.5,0.1,2.3V76.9z M45.8,60c0-0.7,0-1.4-0.1-2.1s-0.1-1.3-0.2-1.8c-0.1-0.5-0.2-0.9-0.4-1.3
		c-0.1-0.3-0.3-0.5-0.5-0.5h-1.2v13.5h1.1c0.2,0,0.4-0.1,0.6-0.4c0.2-0.3,0.3-0.6,0.4-1.1c0.1-0.5,0.2-1.1,0.2-1.8
		c0-0.7,0.1-1.5,0.1-2.4V60z M46,74.9c0-0.8,0-1.5-0.1-2.2c-0.1-0.7-0.2-1.3-0.3-1.8c-0.1-0.5-0.3-0.9-0.4-1.2
		c-0.2-0.3-0.3-0.5-0.5-0.5h-1.1v14.6h1.2c0.1,0,0.2,0,0.3-0.1s0.2-0.1,0.3-0.3c0.1-0.2,0.2-0.4,0.3-0.7c0.1-0.3,0.1-0.7,0.2-1.2
		c0.1-0.5,0.1-1.1,0.1-1.9c0-0.7,0-1.7,0-2.7V74.9z"/>
	<path class="st0" d="M47.6,85.1V53.1H48v31.9H47.6z"/>
	<path class="st0" d="M49.6,85.1V53.1h0.3v30.7h2.4v1.3H49.6z"/>
	<path class="st0" d="M56,85.1l-0.4-8.6h-2.3l-0.4,8.6h-0.4L54,53.1h0.6l1.6,31.9H56z M53.3,75.3h2.2l-1.1-20.9h-0.1L53.3,75.3z"/>
	<path class="st0" d="M57.2,85.1V53.1h0.7L60,83.8h0.1V53.1h0.3l0,31.9h-0.8l-2.2-30.7h-0.1v30.7H57.2z"/>
	<path class="st0" d="M65.2,54.4v30.7h-0.3V54.4h-1.5v-1.2h3.4v1.2H65.2z"/>
	<path class="st0" d="M69.9,85.1l-0.4-8.6h-2.3l-0.4,8.6h-0.4l1.6-31.9h0.6l1.6,31.9H69.9z M67.1,75.3h2.2l-1.1-20.9h-0.1L67.1,75.3
		z"/>
	<path class="st0" d="M71.1,85.1V53.1h0.7l2.1,30.7H74V53.1h0.3l0,31.9h-0.8l-2.2-30.7h-0.1v30.7H71.1z"/>
	<path class="st0" d="M75.8,85.1V53.1h0.3v31.9H75.8z"/>
	<path class="st0" d="M80.6,77.1c0,1.3,0,2.4-0.1,3.4c-0.1,1-0.2,1.9-0.3,2.6c-0.1,0.7-0.3,1.3-0.5,1.6c-0.2,0.4-0.5,0.6-0.8,0.6
		c-0.4,0-0.7-0.2-0.9-0.7c-0.2-0.4-0.4-1-0.5-1.8c-0.1-0.8-0.2-1.6-0.2-2.7s0-2.1,0-3.2v-0.9h0.3v0.7c0,1.2,0,2.3,0,3.2
		c0,0.9,0.1,1.7,0.2,2.3c0.1,0.6,0.2,1,0.4,1.3s0.4,0.4,0.7,0.4c0.2,0,0.4-0.2,0.6-0.5c0.2-0.3,0.3-0.8,0.4-1.4
		c0.1-0.6,0.2-1.3,0.2-2.2c0-0.8,0.1-1.8,0.1-2.8V77c0-0.9,0-1.7-0.1-2.4c0-0.7-0.1-1.3-0.2-1.8c-0.1-0.5-0.2-1-0.3-1.5
		c-0.1-0.4-0.3-0.8-0.4-1.2l-0.8-1.7c-0.2-0.4-0.3-0.8-0.5-1.3c-0.1-0.5-0.3-1-0.3-1.6c-0.1-0.6-0.2-1.3-0.2-2.2
		c0-0.8-0.1-1.8-0.1-2.8v-0.3c0-1.1,0-2.1,0.1-3c0.1-0.9,0.2-1.7,0.3-2.3c0.1-0.6,0.3-1.1,0.5-1.5c0.2-0.4,0.4-0.5,0.7-0.5
		c0.3,0,0.5,0.2,0.7,0.6s0.4,0.9,0.5,1.6s0.2,1.5,0.3,2.4c0.1,0.9,0.1,1.9,0.1,2.9V62h-0.3l0-2.4c0-0.7,0-1.5-0.1-2.1
		c0-0.7-0.1-1.3-0.2-1.8c-0.1-0.5-0.2-0.9-0.4-1.2c-0.2-0.3-0.3-0.4-0.6-0.4c-0.2,0-0.4,0.2-0.6,0.5s-0.3,0.9-0.4,1.5
		s-0.2,1.3-0.2,2.1s-0.1,1.6,0,2.5l0,0.8c0,0.7,0,1.3,0.1,1.9c0.1,0.6,0.1,1.1,0.2,1.6c0.1,0.5,0.2,0.9,0.3,1.3s0.3,0.8,0.4,1.1
		l0.8,1.8c0.3,0.8,0.6,1.8,0.8,3.1s0.3,2.8,0.3,4.6V77.1z"/>
	<path class="st0" d="M81.7,85.1V53.1h0.3v15.3h2.5V53.1h0.3v31.9h-0.3V69.6h-2.5v15.4H81.7z"/>
	<path class="st0" d="M86.5,85.1V53.1h0.3v31.9H86.5z"/>
	<path class="st0" d="M88.4,85.1V53.1h0.7l2.1,30.7h0.1V53.1h0.3l0,31.9H91l-2.2-30.7h-0.1v30.7H88.4z"/>
	<path class="st0" d="M94.5,69.6h1.7v6.6c0,0.6,0,1.3,0,2c0,0.7,0,1.4-0.1,2c0,0.7-0.1,1.3-0.2,1.9c-0.1,0.6-0.2,1.2-0.3,1.6
		c-0.1,0.5-0.3,0.8-0.5,1.1c-0.2,0.3-0.4,0.4-0.7,0.4h0c-0.3,0-0.5-0.1-0.7-0.4s-0.3-0.7-0.5-1.2s-0.2-1.1-0.3-1.7
		C93.1,81.4,93,80.7,93,80c0-0.7-0.1-1.5-0.1-2.2s0-1.5,0-2.2V62.7c0-0.8,0-1.5,0-2.3c0-0.8,0-1.5,0.1-2.3c0-0.7,0.1-1.4,0.2-2.1
		c0.1-0.6,0.2-1.2,0.3-1.7c0.1-0.5,0.3-0.9,0.5-1.1c0.2-0.3,0.4-0.4,0.7-0.4h0c0.3,0,0.5,0.1,0.7,0.4s0.3,0.7,0.5,1.2
		c0.1,0.5,0.2,1,0.3,1.7c0.1,0.6,0.1,1.3,0.2,1.9s0.1,1.3,0.1,2c0,0.7,0,1.3,0,1.9V62h-0.3v-0.1c0-1.1,0-2.1,0-3
		c0-1-0.1-1.8-0.2-2.5c-0.1-0.7-0.2-1.3-0.4-1.7s-0.4-0.6-0.7-0.6s-0.5,0.2-0.7,0.7c-0.2,0.4-0.3,1-0.4,1.8s-0.1,1.7-0.2,2.7
		s0,2.2,0,3.5v12.8c0,0.8,0,1.5,0,2.3c0,0.7,0,1.4,0.1,2c0,0.6,0.1,1.2,0.1,1.7c0.1,0.5,0.1,1,0.2,1.4c0.1,0.4,0.2,0.7,0.4,0.9
		c0.1,0.2,0.3,0.3,0.5,0.3c0.3,0,0.5-0.2,0.7-0.6c0.2-0.4,0.3-0.9,0.4-1.6c0.1-0.7,0.2-1.5,0.2-2.5c0-1,0-2,0-3.1v-5.4h-1.4V69.6z"
		/>
	<path class="st0" d="M100.7,71.8v13.3h-0.3V71.8l-1.6-18.6h0.4l1.4,16.5l1.4-16.5h0.4L100.7,71.8z"/>
	<path class="st0" d="M104.6,52.8c0.3,0,0.5,0.1,0.7,0.4s0.3,0.7,0.5,1.2c0.1,0.5,0.2,1.1,0.3,1.7c0.1,0.7,0.1,1.3,0.2,2.1
		s0.1,1.5,0.1,2.2s0,1.5,0,2.2v12.9c0,0.8,0,1.5,0,2.3c0,0.8,0,1.5-0.1,2.3s-0.1,1.4-0.2,2.1c-0.1,0.6-0.2,1.2-0.3,1.7
		s-0.3,0.9-0.5,1.1c-0.2,0.3-0.4,0.4-0.7,0.4h0c-0.3,0-0.5-0.1-0.7-0.4s-0.3-0.7-0.5-1.2s-0.2-1.1-0.3-1.7c-0.1-0.7-0.1-1.3-0.2-2.1
		c0-0.7-0.1-1.5-0.1-2.2c0-0.8,0-1.5,0-2.2V62.7c0-0.8,0-1.5,0-2.3c0-0.8,0-1.5,0.1-2.3c0-0.7,0.1-1.4,0.2-2.1
		c0.1-0.6,0.2-1.2,0.3-1.7c0.1-0.5,0.3-0.9,0.5-1.1C104.1,53,104.3,52.8,104.6,52.8L104.6,52.8z M104.6,54.1c-0.3,0-0.5,0.2-0.7,0.7
		c-0.2,0.4-0.3,1-0.4,1.8s-0.1,1.7-0.2,2.7c0,1.1,0,2.2,0,3.5v12.8c0,0.8,0,1.5,0,2.3c0,0.7,0,1.4,0.1,2c0,0.6,0.1,1.2,0.1,1.7
		s0.1,1,0.2,1.4c0.1,0.4,0.2,0.7,0.4,0.9s0.3,0.3,0.5,0.3h0c0.3,0,0.5-0.2,0.7-0.7c0.2-0.4,0.3-1,0.4-1.8s0.1-1.7,0.2-2.7
		c0-1.1,0-2.2,0-3.5V62.7c0-1.2,0-2.3,0-3.3c0-1-0.1-2-0.2-2.7c-0.1-0.8-0.2-1.4-0.4-1.9C105.1,54.3,104.9,54.1,104.6,54.1
		L104.6,54.1z"/>
	<path class="st0" d="M107.6,85.1V53.1h0.3v15.3h0.8l1.8-15.2h0.4l-1.8,15.8l2,16.1h-0.4l-1.9-15.4h-0.8v15.4H107.6z"/>
	<path class="st0" d="M111.9,85.1V53.1h0.3v31.9H111.9z"/>
	<path class="st0" d="M116.3,54.4L116.3,54.4l-0.1,30.7h-0.3V53.1h0.7l1.6,25.1l1.6-25.1h0.7v31.9h-0.3V54.4h-0.1l-1.6,25.3H118
		L116.3,54.4z"/>
	<path class="st0" d="M125.2,53.2v23.9c0,1.2,0,2.2,0,3.3c0,1-0.1,1.9-0.2,2.6c-0.1,0.8-0.3,1.3-0.5,1.8c-0.2,0.4-0.5,0.6-0.9,0.6
		c-0.4,0-0.7-0.2-0.9-0.6c-0.2-0.4-0.4-1-0.5-1.8c-0.1-0.7-0.2-1.6-0.2-2.6c0-1,0-2.1,0-3.3V53.2h0.3v23.7c0,1.1,0,2.1,0,3
		c0,0.9,0.1,1.7,0.2,2.3c0.1,0.6,0.2,1.1,0.4,1.4c0.2,0.3,0.4,0.5,0.7,0.5c0.3,0,0.6-0.2,0.7-0.5c0.2-0.3,0.3-0.8,0.4-1.4
		c0.1-0.6,0.1-1.4,0.2-2.3c0-0.9,0-1.9,0-3V53.2H125.2z"/>
	<path class="st0" d="M127.8,54.4v30.7h-0.3V54.4h-1.5v-1.2h3.4v1.2H127.8z"/>
	<path class="st0" d="M132.5,85.1l-0.4-8.6h-2.3l-0.4,8.6h-0.4l1.6-31.9h0.6l1.6,31.9H132.5z M129.8,75.3h2.2l-1.1-20.9h-0.1
		L129.8,75.3z"/>
	<path class="st0" d="M136.3,85.1l-1.5-15.2l-1.5,15.2h-0.4l1.7-16.7L133,53.1h0.4l1.4,14l1.4-14h0.4L135,68.5l1.7,16.6H136.3z"/>
	<path class="st0" d="M140.3,85.1l-0.4-8.6h-2.3l-0.4,8.6h-0.4l1.6-31.9h0.6l1.6,31.9H140.3z M137.6,75.3h2.2l-1.1-20.9h-0.1
		L137.6,75.3z"/>
	<path class="st0" d="M144.4,77.1c0,1.3,0,2.4-0.1,3.4c-0.1,1-0.2,1.9-0.3,2.6c-0.1,0.7-0.3,1.3-0.5,1.6c-0.2,0.4-0.5,0.6-0.8,0.6
		c-0.4,0-0.7-0.2-0.9-0.7c-0.2-0.4-0.4-1-0.5-1.8c-0.1-0.8-0.2-1.6-0.2-2.7s0-2.1,0-3.2v-0.9h0.3v0.7c0,1.2,0,2.3,0,3.2
		c0,0.9,0.1,1.7,0.2,2.3c0.1,0.6,0.2,1,0.4,1.3s0.4,0.4,0.7,0.4c0.2,0,0.4-0.2,0.6-0.5c0.2-0.3,0.3-0.8,0.4-1.4
		c0.1-0.6,0.2-1.3,0.2-2.2c0-0.8,0.1-1.8,0.1-2.8V77c0-0.9,0-1.7-0.1-2.4c0-0.7-0.1-1.3-0.2-1.8c-0.1-0.5-0.2-1-0.3-1.5
		c-0.1-0.4-0.3-0.8-0.4-1.2l-0.8-1.7c-0.2-0.4-0.3-0.8-0.5-1.3c-0.1-0.5-0.3-1-0.3-1.6c-0.1-0.6-0.2-1.3-0.2-2.2
		c0-0.8-0.1-1.8-0.1-2.8v-0.3c0-1.1,0-2.1,0.1-3c0.1-0.9,0.2-1.7,0.3-2.3c0.1-0.6,0.3-1.1,0.5-1.5c0.2-0.4,0.4-0.5,0.7-0.5
		c0.3,0,0.5,0.2,0.7,0.6s0.4,0.9,0.5,1.6s0.2,1.5,0.3,2.4c0.1,0.9,0.1,1.9,0.1,2.9V62H144l0-2.4c0-0.7,0-1.5-0.1-2.1
		c0-0.7-0.1-1.3-0.2-1.8c-0.1-0.5-0.2-0.9-0.4-1.2c-0.2-0.3-0.3-0.4-0.6-0.4c-0.2,0-0.4,0.2-0.6,0.5s-0.3,0.9-0.4,1.5
		s-0.2,1.3-0.2,2.1s-0.1,1.6,0,2.5l0,0.8c0,0.7,0,1.3,0.1,1.9c0.1,0.6,0.1,1.1,0.2,1.6c0.1,0.5,0.2,0.9,0.3,1.3s0.3,0.8,0.4,1.1
		l0.8,1.8c0.3,0.8,0.6,1.8,0.8,3.1s0.3,2.8,0.3,4.6V77.1z"/>
	<path class="st0" d="M148.3,77.1c0,1.3,0,2.4-0.1,3.4c-0.1,1-0.2,1.9-0.3,2.6c-0.1,0.7-0.3,1.3-0.5,1.6c-0.2,0.4-0.5,0.6-0.8,0.6
		c-0.4,0-0.7-0.2-0.9-0.7c-0.2-0.4-0.4-1-0.5-1.8c-0.1-0.8-0.2-1.6-0.2-2.7s0-2.1,0-3.2v-0.9h0.3v0.7c0,1.2,0,2.3,0,3.2
		c0,0.9,0.1,1.7,0.2,2.3c0.1,0.6,0.2,1,0.4,1.3s0.4,0.4,0.7,0.4c0.2,0,0.4-0.2,0.6-0.5c0.2-0.3,0.3-0.8,0.4-1.4
		c0.1-0.6,0.2-1.3,0.2-2.2c0-0.8,0.1-1.8,0.1-2.8V77c0-0.9,0-1.7-0.1-2.4c0-0.7-0.1-1.3-0.2-1.8c-0.1-0.5-0.2-1-0.3-1.5
		c-0.1-0.4-0.3-0.8-0.4-1.2l-0.8-1.7c-0.2-0.4-0.3-0.8-0.5-1.3c-0.1-0.5-0.3-1-0.3-1.6c-0.1-0.6-0.2-1.3-0.2-2.2
		c0-0.8-0.1-1.8-0.1-2.8v-0.3c0-1.1,0-2.1,0.1-3c0.1-0.9,0.2-1.7,0.3-2.3c0.1-0.6,0.3-1.1,0.5-1.5c0.2-0.4,0.4-0.5,0.7-0.5
		c0.3,0,0.5,0.2,0.7,0.6s0.4,0.9,0.5,1.6s0.2,1.5,0.3,2.4c0.1,0.9,0.1,1.9,0.1,2.9V62H148l0-2.4c0-0.7,0-1.5-0.1-2.1
		c0-0.7-0.1-1.3-0.2-1.8c-0.1-0.5-0.2-0.9-0.4-1.2c-0.2-0.3-0.3-0.4-0.6-0.4c-0.2,0-0.4,0.2-0.6,0.5s-0.3,0.9-0.4,1.5
		s-0.2,1.3-0.2,2.1s-0.1,1.6,0,2.5l0,0.8c0,0.7,0,1.3,0.1,1.9c0.1,0.6,0.1,1.1,0.2,1.6c0.1,0.5,0.2,0.9,0.3,1.3s0.3,0.8,0.4,1.1
		l0.8,1.8c0.3,0.8,0.6,1.8,0.8,3.1s0.3,2.8,0.3,4.6V77.1z"/>
	<path class="st0" d="M149.5,85.1V53.1h0.3v31.9H149.5z"/>
	<path class="st0" d="M154.3,77.1c0,1.3,0,2.4-0.1,3.4c-0.1,1-0.2,1.9-0.3,2.6c-0.1,0.7-0.3,1.3-0.5,1.6c-0.2,0.4-0.5,0.6-0.8,0.6
		c-0.4,0-0.7-0.2-0.9-0.7c-0.2-0.4-0.4-1-0.5-1.8c-0.1-0.8-0.2-1.6-0.2-2.7s0-2.1,0-3.2v-0.9h0.3v0.7c0,1.2,0,2.3,0,3.2
		c0,0.9,0.1,1.7,0.2,2.3c0.1,0.6,0.2,1,0.4,1.3s0.4,0.4,0.7,0.4c0.2,0,0.4-0.2,0.6-0.5c0.2-0.3,0.3-0.8,0.4-1.4
		c0.1-0.6,0.2-1.3,0.2-2.2c0-0.8,0.1-1.8,0.1-2.8V77c0-0.9,0-1.7-0.1-2.4c0-0.7-0.1-1.3-0.2-1.8c-0.1-0.5-0.2-1-0.3-1.5
		c-0.1-0.4-0.3-0.8-0.4-1.2l-0.8-1.7c-0.2-0.4-0.3-0.8-0.5-1.3c-0.1-0.5-0.3-1-0.3-1.6c-0.1-0.6-0.2-1.3-0.2-2.2
		c0-0.8-0.1-1.8-0.1-2.8v-0.3c0-1.1,0-2.1,0.1-3c0.1-0.9,0.2-1.7,0.3-2.3c0.1-0.6,0.3-1.1,0.5-1.5c0.2-0.4,0.4-0.5,0.7-0.5
		c0.3,0,0.5,0.2,0.7,0.6s0.4,0.9,0.5,1.6s0.2,1.5,0.3,2.4c0.1,0.9,0.1,1.9,0.1,2.9V62h-0.3l0-2.4c0-0.7,0-1.5-0.1-2.1
		c0-0.7-0.1-1.3-0.2-1.8c-0.1-0.5-0.2-0.9-0.4-1.2c-0.2-0.3-0.3-0.4-0.6-0.4c-0.2,0-0.4,0.2-0.6,0.5s-0.3,0.9-0.4,1.5
		s-0.2,1.3-0.2,2.1s-0.1,1.6,0,2.5l0,0.8c0,0.7,0,1.3,0.1,1.9c0.1,0.6,0.1,1.1,0.2,1.6c0.1,0.5,0.2,0.9,0.3,1.3s0.3,0.8,0.4,1.1
		l0.8,1.8c0.3,0.8,0.6,1.8,0.8,3.1s0.3,2.8,0.3,4.6V77.1z"/>
	<path class="st0" d="M160.6,76.9c0,1.5,0,2.8-0.1,3.8s-0.2,1.9-0.3,2.5c-0.1,0.6-0.3,1.1-0.5,1.4S159.3,85,159,85h-1.5V53.1h1.5
		c0.2,0,0.4,0.1,0.6,0.3c0.2,0.2,0.3,0.6,0.5,1.2c0.1,0.5,0.2,1.3,0.3,2.1c0.1,0.9,0.1,2,0.1,3.3v2.1c0,0.8,0,1.5,0,2.2
		s-0.1,1.3-0.2,1.9c-0.1,0.6-0.2,1-0.3,1.4c-0.1,0.4-0.3,0.7-0.4,0.8c0.2,0.1,0.3,0.4,0.5,0.8c0.1,0.4,0.3,0.8,0.3,1.4
		c0.1,0.6,0.2,1.2,0.2,1.9s0.1,1.5,0.1,2.3V76.9z M160.1,60c0-0.7,0-1.4-0.1-2.1s-0.1-1.3-0.2-1.8c-0.1-0.5-0.2-0.9-0.4-1.3
		c-0.1-0.3-0.3-0.5-0.5-0.5h-1.2v13.5h1.1c0.2,0,0.4-0.1,0.6-0.4c0.2-0.3,0.3-0.6,0.4-1.1c0.1-0.5,0.2-1.1,0.2-1.8
		c0-0.7,0.1-1.5,0.1-2.4V60z M160.3,74.9c0-0.8,0-1.5-0.1-2.2c-0.1-0.7-0.2-1.3-0.3-1.8c-0.1-0.5-0.3-0.9-0.4-1.2
		c-0.2-0.3-0.3-0.5-0.5-0.5h-1.1v14.6h1.2c0.1,0,0.2,0,0.3-0.1s0.2-0.1,0.3-0.3c0.1-0.2,0.2-0.4,0.3-0.7c0.1-0.3,0.1-0.7,0.2-1.2
		c0.1-0.5,0.1-1.1,0.1-1.9c0-0.7,0-1.7,0-2.7V74.9z"/>
	<path class="st0" d="M162,85.1V53.1h0.3v31.9H162z"/>
	<path class="st0" d="M163.9,85.1V53.1h0.3v30.7h2.4v1.3H163.9z"/>
	<path class="st0" d="M170.3,85.1l-0.4-8.6h-2.3l-0.4,8.6h-0.4l1.6-31.9h0.6l1.6,31.9H170.3z M167.6,75.3h2.2l-1.1-20.9h-0.1
		L167.6,75.3z"/>
	<path class="st0" d="M171.5,85.1V53.1h0.7l2.1,30.7h0.1V53.1h0.3l0,31.9h-0.8l-2.2-30.7h-0.1v30.7H171.5z"/>
	<path class="st0" d="M178.8,54.4L178.8,54.4l-0.1,30.7h-0.3V53.1h0.7l1.6,25.1l1.6-25.1h0.7v31.9h-0.3V54.4h-0.1l-1.6,25.3h-0.5
		L178.8,54.4z"/>
	<path class="st0" d="M187.3,85.1l-0.4-8.6h-2.3l-0.4,8.6h-0.4l1.6-31.9h0.6l1.6,31.9H187.3z M184.6,75.3h2.2l-1.1-20.9h-0.1
		L184.6,75.3z"/>
	<path class="st0" d="M191.3,77.1c0,1.3,0,2.4-0.1,3.4c-0.1,1-0.2,1.9-0.3,2.6c-0.1,0.7-0.3,1.3-0.5,1.6c-0.2,0.4-0.5,0.6-0.8,0.6
		c-0.4,0-0.7-0.2-0.9-0.7c-0.2-0.4-0.4-1-0.5-1.8c-0.1-0.8-0.2-1.6-0.2-2.7s0-2.1,0-3.2v-0.9h0.3v0.7c0,1.2,0,2.3,0,3.2
		c0,0.9,0.1,1.7,0.2,2.3c0.1,0.6,0.2,1,0.4,1.3s0.4,0.4,0.7,0.4c0.2,0,0.4-0.2,0.6-0.5c0.2-0.3,0.3-0.8,0.4-1.4
		c0.1-0.6,0.2-1.3,0.2-2.2c0-0.8,0.1-1.8,0.1-2.8V77c0-0.9,0-1.7-0.1-2.4c0-0.7-0.1-1.3-0.2-1.8c-0.1-0.5-0.2-1-0.3-1.5
		c-0.1-0.4-0.3-0.8-0.4-1.2l-0.8-1.7c-0.2-0.4-0.3-0.8-0.5-1.3c-0.1-0.5-0.3-1-0.3-1.6c-0.1-0.6-0.2-1.3-0.2-2.2
		c0-0.8-0.1-1.8-0.1-2.8v-0.3c0-1.1,0-2.1,0.1-3c0.1-0.9,0.2-1.7,0.3-2.3c0.1-0.6,0.3-1.1,0.5-1.5c0.2-0.4,0.4-0.5,0.7-0.5
		c0.3,0,0.5,0.2,0.7,0.6s0.4,0.9,0.5,1.6s0.2,1.5,0.3,2.4c0.1,0.9,0.1,1.9,0.1,2.9V62H191l0-2.4c0-0.7,0-1.5-0.1-2.1
		c0-0.7-0.1-1.3-0.2-1.8c-0.1-0.5-0.2-0.9-0.4-1.2c-0.2-0.3-0.3-0.4-0.6-0.4c-0.2,0-0.4,0.2-0.6,0.5s-0.3,0.9-0.4,1.5
		s-0.2,1.3-0.2,2.1s-0.1,1.6,0,2.5l0,0.8c0,0.7,0,1.3,0.1,1.9c0.1,0.6,0.1,1.1,0.2,1.6c0.1,0.5,0.2,0.9,0.3,1.3s0.3,0.8,0.4,1.1
		l0.8,1.8c0.3,0.8,0.6,1.8,0.8,3.1s0.3,2.8,0.3,4.6V77.1z"/>
	<path class="st0" d="M192.5,85.1V53.1h0.3v30.7h2.4v1.3H192.5z"/>
	<path class="st0" d="M198.9,85.1l-0.4-8.6h-2.3l-0.4,8.6h-0.4l1.6-31.9h0.6l1.6,31.9H198.9z M196.1,75.3h2.2l-1.1-20.9h-0.1
		L196.1,75.3z"/>
	<path class="st0" d="M200.1,85.1V53.1h0.3v15.3h2.5V53.1h0.3v31.9h-0.3V69.6h-2.5v15.4H200.1z"/>
	<path class="st0" d="M207.6,85.1l-0.4-8.6h-2.3l-0.4,8.6H204l1.6-31.9h0.6l1.6,31.9H207.6z M204.9,75.3h2.2L206,54.4H206
		L204.9,75.3z"/>
	<path class="st0" d="M209.4,54.4v30.7h-0.3V54.4h-1.5v-1.2h3.4v1.2H209.4z"/>
	<path class="st0" d="M211.8,85.1V53.1h0.3v30.7h2.4v1.3H211.8z"/>
	<path class="st0" d="M218.2,85.1l-0.4-8.6h-2.3l-0.4,8.6h-0.4l1.6-31.9h0.6l1.6,31.9H218.2z M215.5,75.3h2.2l-1.1-20.9h-0.1
		L215.5,75.3z"/>
	<path class="st0" d="M222.3,77.1c0,1.3,0,2.4-0.1,3.4c-0.1,1-0.2,1.9-0.3,2.6c-0.1,0.7-0.3,1.3-0.5,1.6c-0.2,0.4-0.5,0.6-0.8,0.6
		c-0.4,0-0.7-0.2-0.9-0.7c-0.2-0.4-0.4-1-0.5-1.8c-0.1-0.8-0.2-1.6-0.2-2.7s0-2.1,0-3.2v-0.9h0.3v0.7c0,1.2,0,2.3,0,3.2
		c0,0.9,0.1,1.7,0.2,2.3c0.1,0.6,0.2,1,0.4,1.3s0.4,0.4,0.7,0.4c0.2,0,0.4-0.2,0.6-0.5c0.2-0.3,0.3-0.8,0.4-1.4
		c0.1-0.6,0.2-1.3,0.2-2.2c0-0.8,0.1-1.8,0.1-2.8V77c0-0.9,0-1.7-0.1-2.4c0-0.7-0.1-1.3-0.2-1.8c-0.1-0.5-0.2-1-0.3-1.5
		c-0.1-0.4-0.3-0.8-0.4-1.2l-0.8-1.7c-0.2-0.4-0.3-0.8-0.5-1.3c-0.1-0.5-0.3-1-0.3-1.6c-0.1-0.6-0.2-1.3-0.2-2.2
		c0-0.8-0.1-1.8-0.1-2.8v-0.3c0-1.1,0-2.1,0.1-3c0.1-0.9,0.2-1.7,0.3-2.3c0.1-0.6,0.3-1.1,0.5-1.5c0.2-0.4,0.4-0.5,0.7-0.5
		c0.3,0,0.5,0.2,0.7,0.6s0.4,0.9,0.5,1.6s0.2,1.5,0.3,2.4c0.1,0.9,0.1,1.9,0.1,2.9V62h-0.3l0-2.4c0-0.7,0-1.5-0.1-2.1
		c0-0.7-0.1-1.3-0.2-1.8c-0.1-0.5-0.2-0.9-0.4-1.2c-0.2-0.3-0.3-0.4-0.6-0.4c-0.2,0-0.4,0.2-0.6,0.5s-0.3,0.9-0.4,1.5
		s-0.2,1.3-0.2,2.1s-0.1,1.6,0,2.5l0,0.8c0,0.7,0,1.3,0.1,1.9c0.1,0.6,0.1,1.1,0.2,1.6c0.1,0.5,0.2,0.9,0.3,1.3s0.3,0.8,0.4,1.1
		l0.8,1.8c0.3,0.8,0.6,1.8,0.8,3.1s0.3,2.8,0.3,4.6V77.1z"/>
	<path class="st0" d="M223.4,85.1V53.1h0.3v15.3h2.5V53.1h0.3v31.9h-0.3V69.6h-2.5v15.4H223.4z"/>
	<path class="st0" d="M228.2,85.1V53.1h0.3v31.9H228.2z"/>
	<path class="st0" d="M230.1,85.1V53.1h0.7l2.1,30.7h0.1V53.1h0.3l0,31.9h-0.8l-2.2-30.7h-0.1v30.7H230.1z"/>
	<path class="st0" d="M236.2,69.6h1.7v6.6c0,0.6,0,1.3,0,2c0,0.7,0,1.4-0.1,2c0,0.7-0.1,1.3-0.2,1.9c-0.1,0.6-0.2,1.2-0.3,1.6
		c-0.1,0.5-0.3,0.8-0.5,1.1c-0.2,0.3-0.4,0.4-0.7,0.4h0c-0.3,0-0.5-0.1-0.7-0.4s-0.3-0.7-0.5-1.2s-0.2-1.1-0.3-1.7
		c-0.1-0.6-0.1-1.3-0.1-2.1c0-0.7-0.1-1.5-0.1-2.2s0-1.5,0-2.2V62.7c0-0.8,0-1.5,0-2.3c0-0.8,0-1.5,0.1-2.3c0-0.7,0.1-1.4,0.2-2.1
		c0.1-0.6,0.2-1.2,0.3-1.7c0.1-0.5,0.3-0.9,0.5-1.1c0.2-0.3,0.4-0.4,0.7-0.4h0c0.3,0,0.5,0.1,0.7,0.4s0.3,0.7,0.5,1.2
		c0.1,0.5,0.2,1,0.3,1.7c0.1,0.6,0.1,1.3,0.2,1.9s0.1,1.3,0.1,2c0,0.7,0,1.3,0,1.9V62h-0.3v-0.1c0-1.1,0-2.1,0-3
		c0-1-0.1-1.8-0.2-2.5c-0.1-0.7-0.2-1.3-0.4-1.7s-0.4-0.6-0.7-0.6s-0.5,0.2-0.7,0.7c-0.2,0.4-0.3,1-0.4,1.8s-0.1,1.7-0.2,2.7
		s0,2.2,0,3.5v12.8c0,0.8,0,1.5,0,2.3c0,0.7,0,1.4,0.1,2c0,0.6,0.1,1.2,0.1,1.7c0.1,0.5,0.1,1,0.2,1.4c0.1,0.4,0.2,0.7,0.4,0.9
		c0.1,0.2,0.3,0.3,0.5,0.3c0.3,0,0.5-0.2,0.7-0.6c0.2-0.4,0.3-0.9,0.4-1.6c0.1-0.7,0.2-1.5,0.2-2.5c0-1,0-2,0-3.1v-5.4h-1.4V69.6z"
		/>
</g>
</svg>
