<svg id="Слой_1" data-name="Слой 1" xmlns="http://www.w3.org/2000/svg" viewBox="0 0 180 26"><defs><style>.cls-1{fill:#fff;}</style></defs><title>logo_new</title><path class="cls-1" d="M18.2.5H34.83V3.74H21.75V11h9.19v3.24H21.75V25.61H18.2ZM39.42.5H43V25.61H39.42ZM58.94,25.61H55.43V3.74H47.87V.5H66.54V3.74h-7.6ZM80,26a10.24,10.24,0,0,1-4.52-1,9.55,9.55,0,0,1-3.35-2.69,11.67,11.67,0,0,1-2.06-4.09,18.12,18.12,0,0,1-.7-5.18,17.73,17.73,0,0,1,.72-5.16,12.25,12.25,0,0,1,2.06-4.1A9.26,9.26,0,0,1,75.52,1.1,10.87,10.87,0,0,1,84.45,1,9.45,9.45,0,0,1,87.8,3.68a12.34,12.34,0,0,1,2.14,4.09A17.43,17.43,0,0,1,90.69,13a17.72,17.72,0,0,1-.75,5.32,12,12,0,0,1-2.14,4.09,9.4,9.4,0,0,1-3.35,2.62A10.21,10.21,0,0,1,80,26M80,3.35a6.12,6.12,0,0,0-3,.74,6.22,6.22,0,0,0-2.19,2,9.76,9.76,0,0,0-1.32,3.07A16.17,16.17,0,0,0,73,13a15.86,15.86,0,0,0,.44,3.78,9.92,9.92,0,0,0,1.32,3.08A6.59,6.59,0,0,0,77,22a6.06,6.06,0,0,0,3.07.77A6,6,0,0,0,83.12,22a6.65,6.65,0,0,0,2.18-2.11,10.13,10.13,0,0,0,1.32-3.08,14.93,14.93,0,0,0,.44-3.72,15.9,15.9,0,0,0-.44-3.88A9.68,9.68,0,0,0,85.3,6.11a6.17,6.17,0,0,0-2.2-2A6.29,6.29,0,0,0,80,3.35m23.24,12.31-5.79,10h-4l8-12.88L93.92.5h4.13l5.29,9.18L108.7.5h4l-7.48,12.15,8,13h-4.09ZM126.5,26A10.26,10.26,0,0,1,122,25a9.64,9.64,0,0,1-3.35-2.69,11.67,11.67,0,0,1-2.06-4.09,18.49,18.49,0,0,1-.69-5.18,17.73,17.73,0,0,1,.71-5.16,12.25,12.25,0,0,1,2.06-4.1A9.43,9.43,0,0,1,122,1.1,10.89,10.89,0,0,1,130.93,1a9.63,9.63,0,0,1,3.35,2.64,12.51,12.51,0,0,1,2.13,4.09,17.43,17.43,0,0,1,.75,5.27,17.72,17.72,0,0,1-.75,5.32,12.12,12.12,0,0,1-2.13,4.09,9.58,9.58,0,0,1-3.35,2.62,10.24,10.24,0,0,1-4.43.93m0-22.65a6.1,6.1,0,0,0-5.25,2.76,9.75,9.75,0,0,0-1.31,3.07,15.66,15.66,0,0,0-.45,3.86,15.36,15.36,0,0,0,.45,3.78,9.91,9.91,0,0,0,1.31,3.08A6.59,6.59,0,0,0,123.46,22a6.07,6.07,0,0,0,3.08.77,6,6,0,0,0,3-.77,6.58,6.58,0,0,0,2.19-2.11,9.88,9.88,0,0,0,1.31-3.08,14.93,14.93,0,0,0,.45-3.72,15.89,15.89,0,0,0-.45-3.88,9.45,9.45,0,0,0-1.31-3.09,6.17,6.17,0,0,0-5.28-2.76M142.77.5h3.63V22.37h12.81v3.24H142.77Z"/></svg>